<svg width="128" height="128" viewBox="0 0 128 128" fill="none" xmlns="http://www.w3.org/2000/svg">
<path d="M0 12C0 5.37258 5.37258 0 12 0H128V128H12C5.37258 128 0 122.627 0 116V12Z" fill="#F5F5F5"/>
<path d="M71.7461 29.9062C72.5873 29.8297 74.4977 30.2943 75.8975 32.6154C76.059 32.8832 76.4643 32.8853 76.6113 32.6093C77.9345 30.126 79.6754 27.9037 84.2432 30.3142C84.5904 30.4974 85.0833 30.0706 84.9781 29.6928C84.4303 27.7258 84.6029 24.9663 87.8016 23.366C88.0153 23.2591 87.9991 22.9303 87.7697 22.8633V22.8633C87.5108 22.7877 87.5419 22.457 87.8117 22.4527C88.7885 22.4372 89.7349 22.5853 89.2926 23.122C88.6502 23.9013 88.4922 24.394 88.6488 25.2077" stroke="black" stroke-width="0.756765" stroke-linecap="round"/>
<path fill-rule="evenodd" clip-rule="evenodd" d="M28.7901 60.6471C28.4264 60.2162 27.7317 60.5833 27.8838 61.126C28.0037 61.5538 27.5697 61.927 27.1639 61.7452C26.6493 61.5148 26.1827 62.1464 26.5553 62.5693C26.8492 62.9028 26.6203 63.4272 26.1759 63.4393C25.6125 63.4546 25.4663 64.226 25.9856 64.4454C26.3951 64.6185 26.4169 65.1902 26.0218 65.3937C25.5209 65.6516 25.7245 66.41 26.2875 66.3827C26.7315 66.3612 26.9995 66.8669 26.7318 67.2214C26.3926 67.6709 26.9058 68.2657 27.4011 67.9972C27.7917 67.7854 28.2528 68.1251 28.1657 68.5606C28.0552 69.1127 28.776 69.426 29.1057 68.9694C29.3657 68.6093 29.9286 68.7153 30.0393 69.1456C30.1798 69.6912 30.9652 69.6612 31.0639 69.1067C31.1417 68.6694 31.6948 68.521 31.9815 68.8607C32.3452 69.2915 33.0398 68.9244 32.8878 68.3818C32.7679 67.9539 33.2019 67.5808 33.6077 67.7625C34.1223 67.993 34.5889 67.3614 34.2163 66.9385C33.9224 66.605 34.1512 66.0805 34.5957 66.0685C35.1591 66.0531 35.3052 65.2818 34.786 65.0623C34.3765 64.8893 34.3547 64.3175 34.7498 64.1141C35.2507 63.8562 35.047 63.0978 34.4841 63.1251C34.0401 63.1466 33.7721 62.6409 34.0397 62.2863C34.379 61.8369 33.8658 61.2421 33.3705 61.5106C32.9799 61.7223 32.5188 61.3827 32.6059 60.9472C32.7164 60.3951 31.9956 60.0818 31.6659 60.5383C31.4059 60.8985 30.843 60.7924 30.7323 60.3622C30.5918 59.8166 29.8064 59.8465 29.7077 60.401C29.6299 60.8384 29.0768 60.9868 28.7901 60.6471ZM27.5275 64.4359C27.3025 64.0111 27.4656 63.4868 27.888 63.2636C28.3103 63.0405 28.8362 63.2007 29.0612 63.6255C29.2863 64.0503 29.1231 64.5746 28.7007 64.7978C28.2784 65.021 27.7526 64.8607 27.5275 64.4359ZM29.2003 63.552C29.465 64.0517 29.274 64.6711 28.7737 64.9354C28.2734 65.1998 27.6532 65.009 27.3885 64.5094C27.1238 64.0097 27.3148 63.3904 27.8151 63.126C28.3154 62.8616 28.9355 63.0524 29.2003 63.552ZM32.167 64.6593C31.7446 64.8825 31.5815 65.4068 31.8065 65.8316C32.0316 66.2564 32.5574 66.4167 32.9798 66.1935C33.4021 65.9703 33.5653 65.446 33.3402 65.0212C33.1152 64.5964 32.5894 64.4361 32.167 64.6593ZM33.0527 66.3311C33.553 66.0667 33.744 65.4474 33.4793 64.9477C33.2146 64.4481 32.5944 64.2573 32.0941 64.5217C31.5938 64.7861 31.4028 65.4054 31.6675 65.9051C31.9322 66.4047 32.5524 66.5955 33.0527 66.3311ZM30.6593 62.1458C30.6469 61.9372 30.4677 61.7781 30.2591 61.7906C30.0505 61.803 29.8915 61.9822 29.9039 62.1908L30.2095 67.3123C30.222 67.5209 30.4012 67.6799 30.6098 67.6675C30.8184 67.655 30.9774 67.4758 30.9649 67.2672L30.6593 62.1458Z" fill="black"/>
<path d="M103.625 46.6312C103.625 49.7508 101.069 52.2863 97.9078 52.2863C94.7468 52.2863 92.1909 49.7508 92.1909 46.6312C92.1909 43.5116 94.7468 40.976 97.9078 40.976C101.069 40.976 103.625 43.5116 103.625 46.6312Z" stroke="black" stroke-width="0.756765"/>
<path d="M97.9609 49.3242V50.1861" stroke="black" stroke-width="0.756765" stroke-linecap="round"/>
<path d="M97.9609 43.9361V43.0742" stroke="black" stroke-width="0.756765" stroke-linecap="round"/>
<path d="M99.4714 44.3036C99.0882 44.1134 98.5065 43.9355 97.9625 43.9375C97.3069 43.94 96.7062 44.2039 96.5742 45.0228C96.4002 46.1027 97.7196 46.4904 98.5056 46.8807C99.5922 47.4201 99.5823 48.4313 98.9282 48.9184C98.634 49.1375 98.2999 49.2577 97.9625 49.3031C97.4692 49.3696 96.9685 49.2761 96.5742 49.0982" stroke="black" stroke-width="0.756765" stroke-linecap="round"/>
<path d="M65.5433 33.7019C64.6083 30.5954 64.779 24.2788 72.9332 23.7359C81.0243 23.1971 82.2649 23.3048 83.6135 23.5202" stroke="black" stroke-width="0.756765" stroke-linecap="round"/>
<path d="M50.1671 91.8793C52.6445 90.0823 58.0979 86.8044 60.0806 88.0677C62.558 89.6468 60.9763 89.8645 59.7109 89.5379" stroke="black" stroke-width="0.756765" stroke-linecap="round"/>
<path d="M57.4444 89.589C58.7207 89.3981 61.2957 89.4223 61.381 91.0479C61.4293 91.9958 61.1677 91.8382 60.6891 91.5422C60.3459 91.3304 59.8913 91.0479 59.3589 91.0479H57.0715" stroke="black" stroke-width="0.756765" stroke-linecap="round"/>
<path d="M57.0733 91.125H59.3745C59.9102 91.125 60.3675 91.4134 60.7127 91.6296C61.0506 92.2415 61.3007 93.3699 59.5892 92.9867C57.8777 92.6038 57.1983 92.7209 57.0733 92.8273" stroke="black" stroke-width="0.756765" stroke-linecap="round"/>
<path d="M59.6161 92.957C60.1821 93.603 60.835 94.8192 58.9261 94.5178C57.0173 94.2165 55.5154 95.1457 55.003 95.648C54.1374 96.222 52.0861 96.9395 50.8135 95.2175" stroke="black" stroke-width="0.756765" stroke-linecap="round"/>
<path d="M41.2879 94.6157C50.2578 89.6491 50.267 94.3266 49.5092 97.1791C48.3882 100.063 42.8274 103.24 40.331 103.62C36.8094 104.428 30.5738 103.47 33.8078 93.1737C37.8511 80.3036 39.6801 70.9045 53.1875 68.3945" stroke="black" stroke-width="0.756765" stroke-linecap="round"/>
<path d="M46.1758 83.4766C46.1758 88.3369 45.891 88.2224 43.8024 92.6346" stroke="black" stroke-width="0.756765" stroke-linecap="round"/>
<path d="M64.5156 86.0608V84.6602" stroke="black" stroke-width="0.756765" stroke-linecap="round"/>
<path d="M66.1364 85.9543L66.6758 84.2305" stroke="black" stroke-width="0.756765" stroke-linecap="round"/>
<path d="M67.7523 86.3839L69.0469 83.3672" stroke="black" stroke-width="0.756765" stroke-linecap="round"/>
<path d="M42.8316 103.301C43.2072 107.505 43.3674 107.238 44.0118 109.633C50.5185 111.549 64.9146 113.751 70.4492 107.238" stroke="black" stroke-width="0.756765" stroke-linecap="round"/>
<path d="M49.5215 78.0918L49.7251 77.7836C50.952 75.9348 53.3178 75.1966 55.3884 76.0172C57.2462 76.7534 59.37 76.2404 60.6794 74.7393L62.3594 72.8125" stroke="black" stroke-width="0.756765" stroke-linecap="round"/>
<path d="M61.181 68.2963C61.6529 66.9737 61.2214 66.0836 60.8027 65.9141C58.2797 68.1524 54.4529 67.3215 53.0353 65.9649C52.5303 66.4126 52.8241 67.7369 53.0353 68.1438C55.7676 71.074 59.6569 69.4326 61.181 68.2963Z" fill="black"/>
<path d="M68.6184 46.5469C67.4426 50.7743 66.8528 51.1488 65.1425 53.0216C65.1425 51.1708 64.8237 48.0641 64.8237 46.7703C59.2192 46.7703 54.49 44.4817 52.824 43.3372C52.8848 47.2181 49.2467 49.7557 49.2467 49.7557C49.2467 49.7557 49.7683 51.323 50.0668 54.8307C50.3064 57.6371 49.619 57.0947 49.2467 56.4727C48.1741 53.0097 46.4159 53.9351 45.6695 54.8307C36.5245 39.9652 50.5884 37.0929 53.2718 37.3666C55.2991 35.6351 58.1263 34.2782 60.113 34.0791C67.2823 33.3614 70.5259 39.6926 68.6184 46.5469Z" fill="black"/>
<path d="M49.3055 59.1171C50.2755 65.0295 56.7832 69.2812 61.48 64.4915C66.1769 59.702 65.2364 50.9349 64.7348 46.8438" stroke="black" stroke-width="0.756765" stroke-linecap="round"/>
<path d="M45.6185 54.3867C45.0487 55.8274 45.5833 59.0196 49.3086 59.0196" stroke="black" stroke-width="0.756765" stroke-linecap="round"/>
<path d="M47.4922 55.25C47.4262 55.5167 47.479 56.1489 48.2266 56.5429" stroke="black" stroke-width="0.756765" stroke-linecap="round"/>
<path d="M64.7324 58.2643C65.9609 57.7476 66.8281 55.834 66.4944 52.7695" stroke="black" stroke-width="0.756765" stroke-linecap="round"/>
<path d="M57.6128 61.8537C58.7585 62.1982 58.6861 61.25 59.5547 60.418" stroke="black" stroke-width="0.756765" stroke-linecap="round"/>
<path d="M61.3325 55.1418C61.7794 55.1418 62.1417 54.7559 62.1417 54.2799C62.1417 53.8039 61.7794 53.418 61.3325 53.418C60.8857 53.418 60.5234 53.8039 60.5234 54.2799C60.5234 54.7559 60.8857 55.1418 61.3325 55.1418Z" fill="black"/>
<path d="M54.2139 55.1412C54.7203 55.1412 55.1309 54.8035 55.1309 54.387C55.1309 53.9705 54.7203 53.6328 54.2139 53.6328C53.7074 53.6328 53.2969 53.9705 53.2969 54.387C53.2969 54.8035 53.7074 55.1412 54.2139 55.1412Z" fill="black"/>
<path d="M52.4343 52.554C52.6118 52.0988 53.3793 51.2568 55.0234 51.5299" stroke="black" stroke-width="0.756765" stroke-linecap="round"/>
<path d="M59.9851 51.5849C60.3771 51.3411 61.4442 50.9995 62.5742 51.5849" stroke="black" stroke-width="0.756765" stroke-linecap="round"/>
<path d="M57.2655 54.0625C57.1414 55.092 57.0551 57.1798 57.7188 57.2947" stroke="black" stroke-width="0.756765" stroke-linecap="round"/>
<path d="M55.7543 88.4313L52.9717 83.7625C52.7544 83.3976 52.8778 82.9248 53.2461 82.7138C53.6052 82.5083 54.0619 82.6278 54.2737 82.9824L57.1797 87.8388" stroke="black" stroke-width="0.756765" stroke-linecap="round"/>
<path d="M56.4236 104.701C57.9032 99.9243 61.3483 90.6507 63.5365 90.9157C63.6359 90.9279 63.7352 90.9562 63.8346 90.9701L72.0664 92.1218" stroke="black" stroke-width="0.756765" stroke-linecap="round"/>
<path d="M73.2539 94.0352L72.4987 96.2977" stroke="black" stroke-width="0.756765" stroke-linecap="round"/>
<path d="M63.7372 92.0977C62.1588 93.0601 59.8105 99.6644 58.4407 104.109C58.1416 105.077 58.8026 106.068 59.8124 106.194L67.6141 107.168C68.4116 107.268 69.1648 106.787 69.4066 106.025L70.0195 104.089" stroke="black" stroke-width="0.756765" stroke-linecap="round"/>
<path d="M65.0023 92.9555C65.5232 92.7666 66.6062 91.6524 66.297 90.5726C66.2446 90.3853 66.149 90.1988 66.001 90.0184C65.0023 88.7994 63.2823 90.0186 63.7264 91.016" stroke="black" stroke-width="0.756765" stroke-linecap="round"/>
<path d="M66.2435 90.6069C66.7747 89.9581 68.2108 89.6617 68.9615 90.9405C69.6595 92.4976 68.3178 93.3873 67.5127 93.4985" stroke="black" stroke-width="0.756765" stroke-linecap="round"/>
<path d="M69.0487 90.9062C69.6096 90.4788 71.1109 89.9025 71.9798 91.0179C73.0099 92.7466 71.1659 93.8619 70.4052 93.6945" stroke="black" stroke-width="0.756765" stroke-linecap="round"/>
<path d="M71.9616 91.0232C72.6777 90.6033 73.9498 90.4207 74.4389 91.5159C74.9281 92.6114 73.7229 94.0353 72.5661 94.0353" stroke="black" stroke-width="0.756765" stroke-linecap="round"/>
<path d="M67.8735 100.07C67.5791 100.472 67.6402 101.509 70.2344 102.441" stroke="black" stroke-width="0.756765" stroke-linecap="round"/>
<path d="M74.6562 97.9324C71.8522 97.3931 68.9743 97.1932 67.884 97.1606C67.2992 97.1433 66.6499 97.6419 66.9764 98.2065C67.0668 98.351 67.3509 98.6723 67.7623 98.8017C69.5093 99.3701 70.2546 99.4205 71.0239 99.4227" stroke="black" stroke-width="0.756765" stroke-linecap="round"/>
<path d="M70.9883 99.4001C70.2187 99.3979 69.4731 99.3473 67.7255 98.7773C67.3268 98.9213 67.2752 99.6066 67.9063 100.034C68.3049 100.306 69.0265 100.638 70.2187 101.04" stroke="black" stroke-width="0.756765" stroke-linecap="round"/>
<path d="M61.2803 68.3945C69.9998 71.8525 76.953 82.0135 76.0965 95.9518C75.9715 97.9201 74.9514 101.995 71.8709 102.549" stroke="black" stroke-width="0.756765" stroke-linecap="round"/>
<path d="M68.7773 48.462C70.4675 47.9951 74.2469 47.5139 75.8436 49.3239C77.8394 51.5865 76.8684 52.2868 79.134 49.3239C80.9464 46.9536 88.2679 46.5765 91.7021 46.6843" stroke="black" stroke-width="0.756765" stroke-linecap="round"/>
<path d="M100.332 40.6507C100.116 40.13 99.9251 38.2267 100.332 36.7721C100.979 34.4556 103.083 25.9442 100.817 24.0586C97.887 21.6199 95.8545 22.7658 91.2695 23.2506" stroke="black" stroke-width="0.756765" stroke-linecap="round"/>
<path d="M73.1043 36.6827L73.2973 42.9469C73.3039 43.1631 73.4902 43.3298 73.7058 43.3124L76.2897 43.1043C76.4929 43.0879 76.6465 42.9136 76.6374 42.71L76.3488 36.3227C76.3388 36.1009 76.1409 35.9354 75.9209 35.9647L73.4325 36.296C73.2401 36.3216 73.0983 36.4887 73.1043 36.6827Z" stroke="black" stroke-width="0.756765" stroke-linecap="round"/>
<path d="M78.8125 35.0267V42.7335C78.8125 43.0007 79.0818 43.1837 79.3302 43.0853L81.7116 42.1422C81.851 42.087 81.9447 41.9546 81.9503 41.8047L82.1971 35.2493C82.2047 35.0466 82.0511 34.8739 81.8489 34.8579L79.2208 34.6495C79.0007 34.6321 78.8125 34.806 78.8125 35.0267Z" stroke="black" stroke-width="0.756765" stroke-linecap="round"/>
<path d="M84.9062 33.0542V41.8325C84.9062 42.0415 85.0757 42.2109 85.2846 42.2109H87.8722C88.0812 42.2109 88.2506 42.0415 88.2506 41.8325V33.0542C88.2506 32.8452 88.0812 32.6758 87.8722 32.6758H85.2846C85.0757 32.6758 84.9062 32.8452 84.9062 33.0542Z" stroke="black" stroke-width="0.756765" stroke-linecap="round"/>
<path d="M91.3706 31.1463L91.1216 41.5377C91.1155 41.7921 91.3572 41.9799 91.6022 41.911L94.3153 41.149C94.4641 41.1072 94.5725 40.9791 94.5891 40.8255L95.6472 31.0642C95.672 30.8347 95.4875 30.6367 95.2568 30.6453L91.7347 30.7772C91.5348 30.7847 91.3753 30.9464 91.3706 31.1463Z" stroke="black" stroke-width="0.756765" stroke-linecap="round"/>
<path d="M44.7202 29.6055C44.6448 30.8384 44.5936 33.3618 44.9916 33.5919" stroke="black" stroke-width="0.756765" stroke-linecap="round"/>
<path d="M42.6172 32.0817L46.7167 31.543" stroke="black" stroke-width="0.756765" stroke-linecap="round"/>
<path d="M76.7593 65.8086C76.6839 67.0415 76.6326 69.5649 77.0307 69.795" stroke="black" stroke-width="0.756765" stroke-linecap="round"/>
<path d="M74.6562 68.2848L78.7557 67.7461" stroke="black" stroke-width="0.756765" stroke-linecap="round"/>
<path d="M93.4803 77.442C93.4803 77.6307 93.3093 77.9116 92.778 78.1677C92.2735 78.411 91.5499 78.572 90.7301 78.572C89.9103 78.572 89.1868 78.411 88.6822 78.1677C88.151 77.9116 87.9799 77.6307 87.9799 77.442C87.9799 77.2532 88.151 76.9724 88.6822 76.7162C89.1868 76.473 89.9103 76.312 90.7301 76.312C91.5499 76.312 92.2735 76.473 92.778 76.7162C93.3093 76.9724 93.4803 77.2532 93.4803 77.442Z" stroke="black" stroke-width="0.756765"/>
<path d="M87.8203 77.4961V79.3186C87.8203 79.4271 87.8656 79.5309 87.9511 79.5978C88.8154 80.2755 90.8558 81.1723 93.1065 80.028" stroke="black" stroke-width="0.756765" stroke-linecap="round"/>
<path d="M34.0389 40.8131C34.0389 41.0018 33.8679 41.2827 33.3366 41.5388C32.8321 41.7821 32.1085 41.9431 31.2887 41.9431C30.4689 41.9431 29.7453 41.7821 29.2408 41.5388C28.7096 41.2827 28.5385 41.0018 28.5385 40.8131C28.5385 40.6243 28.7096 40.3435 29.2408 40.0873C29.7453 39.8441 30.4689 39.6831 31.2887 39.6831C32.1085 39.6831 32.8321 39.8441 33.3366 40.0873C33.8679 40.3435 34.0389 40.6243 34.0389 40.8131Z" stroke="black" stroke-width="0.756765"/>
<path d="M28.3789 40.8633V42.6858C28.3789 42.7943 28.4242 42.8981 28.5096 42.965C29.374 43.6427 31.4144 44.5395 33.6651 43.3952" stroke="black" stroke-width="0.756765" stroke-linecap="round"/>
<path d="M89.1725 59.5521C89.0404 59.6876 88.7214 59.7694 88.1622 59.5827C87.6309 59.4054 87.0002 59.0165 86.413 58.4453C85.8259 57.8741 85.4201 57.2546 85.2287 56.7288C85.0272 56.1753 85.1008 55.8548 85.2329 55.7193C85.3651 55.5838 85.684 55.502 86.2433 55.6887C86.7746 55.866 87.4053 56.2549 87.9924 56.8261C88.5796 57.3973 88.9853 58.0168 89.1767 58.5426C89.3782 59.0961 89.3047 59.4166 89.1725 59.5521Z" stroke="black" stroke-width="0.756765"/>
<path d="M85.0781 55.6445L83.8046 56.9502C83.7288 57.0278 83.6889 57.1336 83.7033 57.241C83.8488 58.3287 84.6838 60.3932 87.0956 61.142" stroke="black" stroke-width="0.756765" stroke-linecap="round"/>
</svg>
