<svg width="24" height="24" viewBox="0 0 24 24" fill="none" xmlns="http://www.w3.org/2000/svg">
<path d="M15.6667 15.3333C15.6667 15.7933 15.2933 16.1667 14.8333 16.1667H13.1667V17.8333C13.1667 18.2933 12.7933 18.6667 12.3333 18.6667C11.8733 18.6667 11.5 18.2933 11.5 17.8333V16.1667H9.83333C9.37333 16.1667 9 15.7933 9 15.3333C9 14.8733 9.37333 14.5 9.83333 14.5H11.5V12.8333C11.5 12.3733 11.8733 12 12.3333 12C12.7933 12 13.1667 12.3733 13.1667 12.8333V14.5H14.8333C15.2933 14.5 15.6667 14.8733 15.6667 15.3333ZM20.6667 10.7375V17.8333C20.6667 20.1308 18.7975 22 16.5 22H8.16667C5.86917 22 4 20.1308 4 17.8333V6.16667C4 3.86917 5.86917 2 8.16667 2H11.9292C13.4875 2 14.9517 2.60667 16.0542 3.70833L18.9583 6.6125C20.06 7.71417 20.6667 9.17917 20.6667 10.7375ZM14.875 4.88667C14.61 4.62167 14.3158 4.3975 14 4.21583V7.83333C14 8.2925 14.3742 8.66667 14.8333 8.66667H18.4508C18.2692 8.35083 18.045 8.05583 17.78 7.79167L14.8758 4.8875L14.875 4.88667ZM19 10.7375C19 10.6017 18.9933 10.4667 18.9808 10.3333H14.8333C13.455 10.3333 12.3333 9.21167 12.3333 7.83333V3.68583C12.2 3.67333 12.065 3.66667 11.9292 3.66667H8.16667C6.78833 3.66667 5.66667 4.78833 5.66667 6.16667V17.8333C5.66667 19.2117 6.78833 20.3333 8.16667 20.3333H16.5C17.8783 20.3333 19 19.2117 19 17.8333V10.7375Z" fill="#333333"/>
</svg>
