<svg width="80" height="80" viewBox="0 0 80 80" fill="none" xmlns="http://www.w3.org/2000/svg">
<rect x="0.5" y="0.5" width="79" height="79" rx="11.5" stroke="#333333"/>
<g clip-path="url(#clip0_1441_9802)">
<mask id="mask0_1441_9802" style="mask-type:alpha" maskUnits="userSpaceOnUse" x="16" y="16" width="48" height="48">
<rect x="16" y="16" width="48" height="48" fill="#D9D9D9"/>
</mask>
<g mask="url(#mask0_1441_9802)">
<path d="M38.0031 49.9992H42.0031V43.9992H48.0031V39.9992H42.0031V33.9992H38.0031V39.9992H32.0031V43.9992H38.0031V49.9992ZM40.0031 59.9992C37.5031 59.9992 35.1615 59.5242 32.9781 58.5742C30.7948 57.6242 28.8948 56.3409 27.2781 54.7242C25.6615 53.1076 24.3781 51.2076 23.4281 49.0242C22.4781 46.8409 22.0031 44.4992 22.0031 41.9992C22.0031 39.4992 22.4781 37.1576 23.4281 34.9742C24.3781 32.7909 25.6615 30.8909 27.2781 29.2742C28.8948 27.6576 30.7948 26.3742 32.9781 25.4242C35.1615 24.4742 37.5031 23.9992 40.0031 23.9992C42.5031 23.9992 44.8448 24.4742 47.0281 25.4242C49.2115 26.3742 51.1115 27.6576 52.7281 29.2742C54.3448 30.8909 55.6281 32.7909 56.5781 34.9742C57.5281 37.1576 58.0031 39.4992 58.0031 41.9992C58.0031 44.4992 57.5281 46.8409 56.5781 49.0242C55.6281 51.2076 54.3448 53.1076 52.7281 54.7242C51.1115 56.3409 49.2115 57.6242 47.0281 58.5742C44.8448 59.5242 42.5031 59.9992 40.0031 59.9992ZM27.2031 20.6992L30.0031 23.4992L21.5031 31.9992L18.7031 29.1992L27.2031 20.6992ZM52.8031 20.6992L61.3031 29.1992L58.5031 31.9992L50.0031 23.4992L52.8031 20.6992ZM40.0031 55.9992C43.9031 55.9992 47.2115 54.6409 49.9281 51.9242C52.6448 49.2076 54.0031 45.8992 54.0031 41.9992C54.0031 38.0992 52.6448 34.7909 49.9281 32.0742C47.2115 29.3576 43.9031 27.9992 40.0031 27.9992C36.1031 27.9992 32.7948 29.3576 30.0781 32.0742C27.3615 34.7909 26.0031 38.0992 26.0031 41.9992C26.0031 45.8992 27.3615 49.2076 30.0781 51.9242C32.7948 54.6409 36.1031 55.9992 40.0031 55.9992Z" fill="#333333"/>
</g>
</g>
<defs>
<clipPath id="clip0_1441_9802">
<rect width="48" height="48" fill="white" transform="translate(16 16)"/>
</clipPath>
</defs>
</svg>
