<svg width="48" height="48" viewBox="0 0 48 48" fill="none" xmlns="http://www.w3.org/2000/svg">
<rect x="0.5" y="0.5" width="47" height="47" rx="11.5" fill="white"/>
<rect x="0.5" y="0.5" width="47" height="47" rx="11.5" stroke="#333333"/>
<g clip-path="url(#clip0_820_18905)">
<mask id="mask0_820_18905" style="mask-type:alpha" maskUnits="userSpaceOnUse" x="6" y="6" width="36" height="36">
<rect x="6" y="6" width="36" height="36" fill="#D9D9D9"/>
</mask>
<g mask="url(#mask0_820_18905)">
<path d="M24 37.5L13.5 31.8V22.8L7.5 19.5L24 10.5L40.5 19.5V31.5H37.5V21.15L34.5 22.8V31.8L24 37.5ZM24 25.05L34.275 19.5L24 13.95L13.725 19.5L24 25.05ZM24 34.0875L31.5 30.0375V24.375L24 28.5L16.5 24.375V30.0375L24 34.0875Z" fill="#333333"/>
</g>
</g>
<defs>
<clipPath id="clip0_820_18905">
<rect width="36" height="36" fill="white" transform="translate(6 6)"/>
</clipPath>
</defs>
</svg>
