<svg width="24" height="24" viewBox="0 0 24 24" fill="none" xmlns="http://www.w3.org/2000/svg">
<g clip-path="url(#clip0_1030_57316)">
<mask id="mask0_1030_57316" style="mask-type:alpha" maskUnits="userSpaceOnUse" x="0" y="0" width="24" height="24">
<rect width="24" height="24" fill="#D9D9D9"/>
</mask>
<g mask="url(#mask0_1030_57316)">
<path d="M13.6 14L11 11.4L6 16.4L8.6 19L13.6 14ZM12.425 9.975L15.025 12.575L20 7.6L17.4 5L12.425 9.975ZM10.325 9.275L15.725 14.675L10 20.4C9.6 20.8 9.13333 21 8.6 21C8.06667 21 7.6 20.8 7.2 20.4L7.15 20.35L6.5 21H1.5L4.65 17.85L4.6 17.8C4.2 17.4 4 16.9333 4 16.4C4 15.8667 4.2 15.4 4.6 15L10.325 9.275ZM10.325 9.275L16 3.6C16.4 3.2 16.8667 3 17.4 3C17.9333 3 18.4 3.2 18.8 3.6L21.4 6.2C21.8 6.6 22 7.06667 22 7.6C22 8.13333 21.8 8.6 21.4 9L15.725 14.675L10.325 9.275Z" fill="#333333"/>
</g>
</g>
<defs>
<clipPath id="clip0_1030_57316">
<rect width="24" height="24" fill="white"/>
</clipPath>
</defs>
</svg>
