<svg width="40" height="40" viewBox="0 0 40 40" fill="none" xmlns="http://www.w3.org/2000/svg">
<path d="M0.5 10C0.5 4.7533 4.7533 0.5 10 0.5H30C35.2467 0.5 39.5 4.7533 39.5 10V30C39.5 35.2467 35.2467 39.5 30 39.5H10C4.7533 39.5 0.5 35.2467 0.5 30V10Z" stroke="#C183D2"/>
<g clip-path="url(#clip0_844_21388)">
<mask id="mask0_844_21388" style="mask-type:alpha" maskUnits="userSpaceOnUse" x="5" y="5" width="30" height="30">
<rect x="5" y="5" width="30" height="30" fill="#D9D9D9"/>
</mask>
<g mask="url(#mask0_844_21388)">
<path d="M15 27.5H25V25H15V27.5ZM15 22.5H25V20H15V22.5ZM12.5 32.5C11.8125 32.5 11.224 32.2552 10.7344 31.7656C10.2448 31.276 10 30.6875 10 30V10C10 9.3125 10.2448 8.72396 10.7344 8.23438C11.224 7.74479 11.8125 7.5 12.5 7.5H22.5L30 15V30C30 30.6875 29.7552 31.276 29.2656 31.7656C28.776 32.2552 28.1875 32.5 27.5 32.5H12.5ZM21.25 16.25V10H12.5V30H27.5V16.25H21.25Z" fill="#9A4FB7"/>
</g>
</g>
<defs>
<clipPath id="clip0_844_21388">
<rect width="30" height="30" fill="white" transform="translate(5 5)"/>
</clipPath>
</defs>
</svg>
