<svg width="268" height="175" viewBox="0 0 268 175" fill="none" xmlns="http://www.w3.org/2000/svg">
<rect width="268" height="174.553" fill="#D3D3D3"/>
<path d="M77.4198 41.0273V41.0273C77.1985 41.2241 76.8391 41.045 76.8305 40.749C76.8149 40.2138 76.7082 39.7699 76.3826 40.0593C75.7603 40.6125 75.4145 42.6868 74.9997 41.857C74.5848 41.0273 74.4465 40.82 73.6167 41.5805C72.7869 42.3411 73.0635 41.0272 72.6486 41.3039V41.3039C71.9228 41.7879 71.0096 41.1255 71.2927 40.3002C72.3677 37.1658 74.1813 33.5318 76.5209 34.1816C79.1485 35.2189 77.7656 48.1495 80.324 44.8304C81.6565 43.1017 81.8453 36.505 84.058 37.5007C87.8082 38.7508 86.9259 49.2037 91.3586 59.7455C91.5513 60.2039 92.7284 60.1929 93.1855 60.3888V60.3888C94.1535 60.8036 93.7386 61.2185 94.6375 60.3888C95.5365 59.559 95.4673 61.6334 96.0205 60.5962C96.5737 59.559 96.0205 58.1069 97.4034 59.1441C98.7864 60.1813 99.063 60.8036 99.2704 59.8356C99.4779 58.8675 99.4779 59.0058 100.031 59.4207C100.464 59.745 100.6 60.1117 100.87 59.8267C101.085 59.601 101.083 59.2564 100.988 58.9602C99.8499 55.4114 97.6438 47.904 96.8503 42.8251C96.0205 37.5146 94.4301 36.0025 93.7386 35.9103C92.1021 35.8181 88.0132 35.8965 84.7495 36.9476" stroke="black" stroke-width="1.13703" stroke-linecap="round"/>
<path d="M120.789 74.1484C114.982 76.2822 108.392 83.5936 125.617 94.2014" stroke="black" stroke-width="1.13703" stroke-linecap="round"/>
<path d="M135.211 73.247C139.076 72.7271 149.264 75.0665 144.102 85.659C143.479 86.9371 141.215 89.4543 137.143 89.2983C131.925 89.0984 129.111 94.4105 127.415 96.9666" stroke="black" stroke-width="1.13703" stroke-linecap="round"/>
<path d="M136.82 77.4688C133.268 80.1522 126.373 88.8821 127.209 102.334C128.046 115.786 128.125 117.634 128.059 116.877" stroke="black" stroke-width="1.13703" stroke-linecap="round"/>
<path d="M131.703 91.5742V102.638" stroke="black" stroke-width="1.13703" stroke-linecap="round"/>
<path d="M123.539 92.957V103.468" stroke="black" stroke-width="1.13703" stroke-linecap="round"/>
<path d="M125.754 93.9229C125.514 90.2808 124.21 80.3693 120.914 69.8594" stroke="black" stroke-width="1.13703" stroke-linecap="round"/>
<path d="M132.809 81.0644C132.764 79.2056 133.249 74.834 135.545 72.2187C138.414 68.9497 138.734 66.3706 138.734 60.2812" stroke="black" stroke-width="1.13703" stroke-linecap="round"/>
<path d="M131.793 62.6873C132.877 62.493 134.721 61.1976 133.42 57.5703" stroke="black" stroke-width="1.13703" stroke-linecap="round"/>
<path d="M116.077 57C116.119 57.7347 116.536 59.2335 117.875 59.351" stroke="black" stroke-width="1.13703" stroke-linecap="round"/>
<path d="M117.875 62.6696C115.256 61.2004 111.051 57.5909 115.19 54.9067C115.758 54.512 117.089 54.2752 117.875 56.4856" stroke="black" stroke-width="1.13703" stroke-linecap="round"/>
<path d="M119.914 38.5777C105.296 40.0907 109.763 51.1208 113.823 56.4468C114.653 54.6207 116.286 54.5556 116.998 54.7511C117.672 44.4732 124.104 45.8601 127.236 47.8383C133.768 47.5774 135.401 50.1644 135.401 51.4904C138.232 49.7128 140.629 51.7997 140.824 52.2562C148.081 30.9699 129.85 34.3387 119.914 38.5777Z" fill="black"/>
<path d="M127.207 57.9659C127.856 57.9659 128.382 57.4086 128.382 56.7212C128.382 56.0338 127.856 55.4766 127.207 55.4766C126.558 55.4766 126.031 56.0338 126.031 56.7212C126.031 57.4086 126.558 57.9659 127.207 57.9659Z" fill="black"/>
<path d="M137.386 57.599C137.917 57.8141 138.556 57.4721 138.814 56.835C139.073 56.1979 138.852 55.5071 138.321 55.2919C137.79 55.0768 137.15 55.4188 136.892 56.0559C136.634 56.693 136.855 57.3838 137.386 57.599Z" fill="black"/>
<path d="M132.809 55.7539H130.458" stroke="black" stroke-width="1.13703" stroke-linecap="round"/>
<path d="M122.012 55.5195L117.593 55.7534" stroke="black" stroke-width="1.13703" stroke-linecap="round"/>
<path d="M121.836 54.3984L116.945 54.6628" stroke="black" stroke-width="1.13703" stroke-linecap="round"/>
<path d="M115.105 78.8477C101.534 86.3308 85.8311 106.274 108.284 130.432" stroke="black" stroke-width="1.13703" stroke-linecap="round"/>
<path d="M113.449 118.817C110.963 114.763 110.92 114.007 110.683 108.859" stroke="black" stroke-width="1.13703" stroke-linecap="round"/>
<path d="M151.477 93.7852C149.408 100.215 149.886 107.575 150.426 114.875" stroke="black" stroke-width="1.13703" stroke-linecap="round"/>
<path d="M133.777 67.7891C132.999 66.9542 130.776 65.7853 128.107 67.7891" stroke="black" stroke-width="1.13703" stroke-linecap="round"/>
<path d="M152.723 88.2534C152.315 87.325 148.86 79.9368 145.255 78.0195" stroke="black" stroke-width="1.13703" stroke-linecap="round"/>
<path d="M73.9668 84.5185L73.6211 82.6516L82.6103 79.5399L82.956 80.7154L87.9346 79.125L88.2112 79.8165L73.9668 84.5185Z" fill="black"/>
<path d="M70.1015 107.968C66.7161 100.124 63.6245 84.702 62.2309 76.3302C62.1216 75.6738 62.7438 75.1418 63.3793 75.339C63.7522 75.4547 64.1572 75.3162 64.3811 74.9963L64.653 74.6079C64.8381 74.3435 65.1867 74.2507 65.4787 74.3881C65.8363 74.5564 66.2607 74.3766 66.3886 74.0027L66.5888 73.4174C66.7984 72.8049 67.5818 72.6313 68.0305 73.0979L68.3605 73.4411C68.5741 73.6632 68.9384 73.6308 69.1094 73.3743C69.2373 73.1824 69.4845 73.1085 69.6975 73.1972C69.9498 73.3023 70.2408 73.1795 70.3394 72.9246L70.361 72.8689C70.5536 72.3714 71.2681 72.4187 71.3874 72.9386C73.6314 82.7221 75.4527 94.6719 78.705 105.462C78.7819 105.717 78.4941 105.928 78.2747 105.777C78.0884 105.649 77.8348 105.786 77.8348 106.012C77.8348 106.232 77.5963 106.373 77.4065 106.262L76.0801 105.488C75.7216 105.279 75.264 105.487 75.1863 105.895C75.1223 106.231 74.7911 106.446 74.4582 106.368C74.1431 106.294 73.8259 106.483 73.7407 106.795L73.7188 106.875C73.5985 107.316 73.089 107.519 72.6984 107.281L72.6746 107.267C72.2774 107.025 71.759 107.225 71.6272 107.671L71.5757 107.846C71.3607 108.573 70.4022 108.665 70.1015 107.968Z" stroke="black" stroke-width="1.13703" stroke-linecap="round"/>
<path d="M65.0415 77.952C65.3181 78.9432 65.733 80.9531 65.1798 81.0637C64.4884 81.202 64.765 79.335 66.0788 78.6435C67.3926 77.952 66.3554 80.3031 67.2543 80.0956C68.1532 79.8882 69.2595 77.1914 68.6372 77.1914C68.0149 77.1914 67.6692 80.0265 69.3287 79.9573C70.9882 79.8882 70.5042 76.8457 70.1585 77.3989C69.8127 77.952 70.2276 79.2658 71.4723 79.6116" stroke="black" stroke-width="1.13703" stroke-linecap="round"/>
<path d="M70.9898 102.776C70.9667 103.444 71.1972 104.38 72.3036 102.776C72.5802 102.43 72.5387 102.015 72.0961 102.291C71.5429 102.637 72.3036 103.744 73.2025 103.26C74.1014 102.776 75.2769 101.462 74.4471 101.6C73.6174 101.738 74.1706 102.983 75.2078 102.568" stroke="black" stroke-width="1.13703" stroke-linecap="round"/>
<path d="M69.5352 99.9411C70.4802 99.8489 72.55 99.4848 73.2691 98.7656" stroke="black" stroke-width="1.13703" stroke-linecap="round"/>
<path d="M70.1602 97.7969C70.8977 97.7048 72.4835 97.4374 72.9261 97.1055" stroke="black" stroke-width="1.13703" stroke-linecap="round"/>
<path d="M73.8906 96.8966V95.8594" stroke="black" stroke-width="1.13703" stroke-linecap="round"/>
<path d="M74.6562 96.8993V95.793" stroke="black" stroke-width="1.13703" stroke-linecap="round"/>
<path d="M68.0781 92.7486C69.4611 92.4259 72.3238 91.7252 72.711 91.5039" stroke="black" stroke-width="1.13703" stroke-linecap="round"/>
<path d="M66.7031 88.3232C67.8556 88.0927 70.4647 87.4796 71.6817 86.8711" stroke="black" stroke-width="1.13703" stroke-linecap="round"/>
<path d="M66.4258 87.4259C67.6704 87.4259 70.2704 86.7068 71.2661 86.043" stroke="black" stroke-width="1.13703" stroke-linecap="round"/>
<path d="M75.2734 90.3281L87.551 86.1413C89.0513 85.6297 89.8433 83.9899 89.3112 82.4967L88.1349 79.1953" stroke="black" stroke-width="1.13703" stroke-linecap="round"/>
<path d="M72.9961 79.7491L81.7087 76.9141" stroke="black" stroke-width="1.13703" stroke-linecap="round"/>
<path d="M82.0302 77.9245L80.6167 73.4014C80.1487 71.9038 80.9827 70.3102 82.4799 69.841L92.0824 66.8319C93.5725 66.365 95.1603 67.1874 95.6385 68.674L97.0808 73.1577C97.5631 74.6572 96.7342 76.263 95.2325 76.7383L85.6012 79.7867C84.1006 80.2617 82.4997 79.4269 82.0302 77.9245Z" stroke="black" stroke-width="1.13703" stroke-linecap="round"/>
<path d="M75 86.6628C75.2996 86.2479 76.0234 85.4458 76.5212 85.5564C77.1436 85.6947 77.351 85.6948 77.9733 84.9341C78.5957 84.1735 78.734 85.4873 79.7712 84.9341C80.8084 84.381 81.9147 83.3437 82.4679 83.8969C82.9105 84.3395 83.3899 83.7125 83.5743 83.3438" stroke="black" stroke-width="1.13703" stroke-linecap="round"/>
<path d="M84.6114 75.795L83.5991 76.1413C83.2463 76.262 82.841 75.9795 82.7276 75.6243C82.5641 75.1121 82.9922 74.2454 83.5009 74.0713L84.0311 73.8899C84.5064 73.7273 85.0246 73.9733 85.199 74.4443L85.2225 74.5077C85.4168 75.0323 85.1407 75.6139 84.6114 75.795Z" stroke="black" stroke-width="1.13703"/>
<path d="M92.7734 76.1537L93.1883 74.1484" stroke="black" stroke-width="1.13703" stroke-linecap="round"/>
<path d="M93.7383 74.9768C94.1532 74.7692 94.9829 75.2536 94.4989 75.4608C94.3082 75.5425 93.6691 74.4927 95.5361 74.5619" stroke="black" stroke-width="1.13703" stroke-linecap="round"/>
<path d="M90.5547 75.8088C90.9696 75.6013 91.7993 76.0856 91.3153 76.2928C91.1246 76.3745 90.4855 75.3248 92.3525 75.3939" stroke="black" stroke-width="1.13703" stroke-linecap="round"/>
<path d="M75.8984 34.0405C77.9729 33.349 82.675 32.1039 84.8876 32.6575C86.0631 32.9517 87.2847 35.3774 87.1003 36.3916" stroke="black" stroke-width="1.13703" stroke-linecap="round"/>
<path d="M78.8047 34.8708C80.5334 34.8707 83.1195 33.6952 83.7833 33.9718" stroke="black" stroke-width="1.13703" stroke-linecap="round"/>
<path d="M78.8711 35.702C79.6548 35.702 81.4157 35.5499 82.1902 34.9414" stroke="black" stroke-width="1.13703" stroke-linecap="round"/>
<path d="M88.0664 39.8505C89.8873 39.6891 93.6535 39.3111 94.1514 39.0898" stroke="black" stroke-width="1.13703" stroke-linecap="round"/>
<path d="M88.5547 40.8896C90.122 40.613 93.561 40.0736 94.778 40.129" stroke="black" stroke-width="1.13703" stroke-linecap="round"/>
<path d="M88.7578 44.207C90.2099 44.4145 93.6811 43.2804 94.013 43.4463" stroke="black" stroke-width="1.13703" stroke-linecap="round"/>
<path d="M88.832 45.2462C90.9756 45.2461 93.6032 43.7247 95.4702 44.0707" stroke="black" stroke-width="1.13703" stroke-linecap="round"/>
<path d="M172.059 44.6899L161.646 42.1457C161.149 42.0245 160.852 41.5164 160.99 41.0246C161.12 40.5603 161.592 40.2799 162.062 40.3876L172.511 42.781C173.088 42.9132 173.417 43.5226 173.212 44.0778C173.039 44.5449 172.543 44.8082 172.059 44.6899Z" fill="black"/>
<path d="M162.265 37.918L171.471 39.9016C173.198 40.2737 174.171 42.1146 173.505 43.7512L171.5 48.683C170.963 50.0021 169.534 50.7208 168.155 50.3642L158.531 47.8753" stroke="black" stroke-width="1.13703" stroke-linecap="round"/>
<path d="M163.3 34.3886C162.257 35.6507 159.336 45.7041 157.4 50.2526C157.368 50.3271 157.329 50.3966 157.28 50.4612C156.309 51.7447 156.166 50.3403 155.693 49.4628C155.209 48.5638 153.135 50.5692 152.236 50.8458C151.337 51.1224 152.374 49.0479 150.991 49.4628C149.608 49.8777 149.608 49.3245 149.539 48.7713C149.427 47.8769 147.763 47.9659 147.993 47.0942C149.357 41.9169 151.744 36.176 153.271 32.8699C153.582 32.1975 154.607 31.9947 155.218 31.5758C155.473 31.4004 155.732 31.1827 156.039 31.0695C157.353 30.5854 156.454 32.7982 157.63 32.5216C158.805 32.245 159.012 32.5216 159.151 32.7982C159.289 33.0749 159.911 32.9365 160.672 32.1067C161.433 31.2769 161.778 31.4152 161.917 32.5216C162.055 33.628 162.954 32.4524 163.438 32.9365C163.825 33.3237 163.507 34.0659 163.3 34.3886Z" stroke="black" stroke-width="1.13703" stroke-linecap="round"/>
<path d="M151.406 43.2383C153.619 43.9298 157.934 43.6947 158.321 44.1372" stroke="black" stroke-width="1.13703" stroke-linecap="round"/>
<path d="M154.52 44.8292C154.934 44.737 155.93 44.6079 156.594 44.8292" stroke="black" stroke-width="1.13703" stroke-linecap="round"/>
<path d="M152.648 39.5078L157.212 39.8536" stroke="black" stroke-width="1.13703" stroke-linecap="round"/>
<path d="M153.414 38.332C154.958 38.4473 158.254 38.7469 159.084 39.0235" stroke="black" stroke-width="1.13703" stroke-linecap="round"/>
<path d="M154.102 46.3501L154.793 45.7969" stroke="black" stroke-width="1.13703" stroke-linecap="round"/>
<path d="M155.761 45.9336L155.484 46.6942" stroke="black" stroke-width="1.13703" stroke-linecap="round"/>
<path d="M156.593 46.2109L156.523 46.695" stroke="black" stroke-width="1.13703" stroke-linecap="round"/>
<path d="M157.422 46.1445V46.6286" stroke="black" stroke-width="1.13703" stroke-linecap="round"/>
<path d="M154.586 34.3189C154.171 34.7568 153.494 35.5912 154.102 35.4253C154.51 35.3139 155.098 34.9238 155.533 34.8213C156.124 34.6821 155.922 35.1742 156.522 35.0795V35.0795C157.836 34.8721 156.73 35.5635 157.974 35.4253C159.219 35.287 160.118 33.5583 159.634 34.0423C159.15 34.5263 158.597 35.8401 159.91 35.771C161.224 35.7018 161.432 34.1114 161.017 34.9412C160.602 35.771 161.017 35.7018 161.017 35.9784" stroke="black" stroke-width="1.13703" stroke-linecap="round"/>
<path d="M159.91 44.0705C160.164 43.9322 160.906 43.8907 161.846 44.8312C163.022 46.0067 164.681 44.4854 165.165 45.1769C165.649 45.8684 165.58 45.9375 166.203 45.7301" stroke="black" stroke-width="1.13703" stroke-linecap="round"/>
<path d="M168.06 126.561H154.319C153.73 126.561 153.278 126.039 153.361 125.456C153.429 124.979 153.838 124.625 154.319 124.625H168.06C168.649 124.625 169.102 125.147 169.018 125.73C168.95 126.207 168.542 126.561 168.06 126.561Z" fill="black"/>
<path d="M169.217 124.051L168.324 131.289C168.219 132.144 167.493 132.786 166.631 132.786H154.259C153.225 132.786 152.429 131.874 152.569 130.85L153.556 123.612C153.671 122.767 154.393 122.137 155.246 122.137H167.524C168.549 122.137 169.343 123.034 169.217 124.051Z" stroke="black" stroke-width="1.13703" stroke-linecap="round"/>
<path d="M154.172 129.122C154.633 128.707 155.721 128.001 156.385 128.499C157.214 129.122 157.837 128.015 158.597 128.707C159.358 129.398 161.363 127.877 162.193 128.707C162.857 129.371 163.576 128.983 163.853 128.707" stroke="black" stroke-width="1.13703" stroke-linecap="round"/>
<path d="M156.459 121.928L156.917 118.587C157.15 116.88 155.823 115.359 154.1 115.359H144.132C142.715 115.359 141.515 116.402 141.317 117.805L140.605 122.854C140.361 124.583 141.719 126.121 143.465 126.093L153.14 125.939" stroke="black" stroke-width="1.13703" stroke-linecap="round"/>
<path d="M144.166 122.001H143.29C142.753 122.001 142.335 121.533 142.397 120.999C142.449 120.545 142.833 120.203 143.29 120.203H144.166C144.731 120.203 145.156 120.717 145.049 121.272C144.968 121.695 144.597 122.001 144.166 122.001Z" stroke="black" stroke-width="1.13703" stroke-linecap="round"/>
<path d="M150.785 124.628L152.099 122.969" stroke="black" stroke-width="1.13703" stroke-linecap="round"/>
<path d="M148.367 123.933C148.575 123.703 149.114 123.311 149.612 123.587C150.234 123.933 150.096 124.625 149.404 124.486C148.713 124.348 149.335 123.449 150.787 123.864" stroke="black" stroke-width="1.13703" stroke-linecap="round"/>
<path d="M152.379 123.865C152.586 124.049 153.084 124.28 153.416 123.727" stroke="black" stroke-width="1.13703" stroke-linecap="round"/>
<path d="M163.106 83.5508C162.729 84.0667 162.807 85.3975 166.133 86.5933" stroke="black" stroke-width="1.13703" stroke-linecap="round"/>
<path d="M167.152 82.7206C166.166 82.7178 165.21 82.653 162.971 81.9234C162.443 81.7573 162.079 81.3449 161.963 81.1594C161.545 80.4348 162.377 79.7947 163.127 79.817C163.944 79.8415 165.545 79.9394 167.453 80.155" stroke="black" stroke-width="1.13703" stroke-linecap="round"/>
<path d="M167.105 82.694C166.119 82.6911 165.163 82.6262 162.923 81.8945C162.412 82.0794 162.346 82.959 163.155 83.5081C163.666 83.8562 164.591 84.2832 166.119 84.7988" stroke="black" stroke-width="1.13703" stroke-linecap="round"/>
<path d="M150.16 109.898C154.125 113.102 161.732 112.869 164.889 104.505C167.654 97.1748 168.623 90.8363 168.761 87.8398" stroke="black" stroke-width="1.13703" stroke-linecap="round"/>
<path d="M153.621 103.951C153.69 103.536 155.073 97.6581 157.286 95.4453" stroke="black" stroke-width="1.13703" stroke-linecap="round"/>
<path d="M168.695 87.2879C169.272 85.7205 170.078 82.0741 168.695 80.0273" stroke="black" stroke-width="1.13703" stroke-linecap="round"/>
<path d="M164.479 86.0426L164.227 93.6674C164.216 93.9877 163.855 94.1693 163.592 93.9869V93.9869C163.426 93.8723 163.201 93.8967 163.064 94.0443L162.886 94.236C162.62 94.5226 162.172 94.5386 161.886 94.2718L161.859 94.2462C161.579 93.9855 161.148 93.9786 160.861 94.2301L160.712 94.3604C160.436 94.6022 160.046 94.6658 159.707 94.5247L159.315 94.3611C158.872 94.1769 158.366 94.2402 157.983 94.5276L157.492 94.8959C157.184 95.1263 156.75 95.0728 156.508 94.7748L156.367 94.6019C156.19 94.3832 155.866 94.3549 155.653 94.5395V94.5395C155.364 94.79 154.916 94.6405 154.857 94.2625C153.192 83.6067 156.826 57.1824 170.287 59.2823C172.615 59.628 177.064 62.5737 176.234 71.5906C175.476 79.8233 177.159 82.5722 178.334 83.0582C178.537 83.1419 178.788 83.1323 178.875 82.9315C178.947 82.7661 179.018 82.4864 179.069 82.032C179.201 80.8396 180.032 73.5556 182.958 76.5316C183.229 76.8068 183.356 77.1944 183.356 77.5804V85.8014C183.356 86.4001 183.975 86.7985 184.52 86.5508V86.5508C184.746 86.448 185.006 86.4528 185.228 86.5639L185.51 86.7045C185.975 86.9373 186.529 86.9087 186.968 86.6292L188.319 85.7696C188.863 85.4234 189.584 85.582 189.933 86.1244L190.039 86.289C190.322 86.7296 190.904 86.8656 191.353 86.5961L191.976 86.2226C192.136 86.1263 192.345 86.1901 192.424 86.3597V86.3597C192.545 86.6184 192.915 86.5958 192.994 86.3215C193.813 83.4881 194.719 78.4174 193.106 75.9469C192.564 75.1171 184.946 74.4026 181.973 75.3246" stroke="black" stroke-width="1.13703" stroke-linecap="round"/>
<path d="M170.355 59.2109C173.513 59.257 180.804 59.0967 183.148 60.8013C186.951 63.5673 184.807 73.1788 186.121 74.7693" stroke="black" stroke-width="1.13703" stroke-linecap="round"/>
<path d="M165.375 78.3681C166.043 74.2422 168.072 66.4055 174.848 62.8789" stroke="black" stroke-width="1.13703" stroke-linecap="round"/>
<path d="M176.578 61.7031C178.122 61.7031 181.432 61.7723 182.317 62.0489" stroke="black" stroke-width="1.13703" stroke-linecap="round"/>
<path d="M177.27 62.8789C179.966 62.8789 183.147 63.5289 183.424 63.3629" stroke="black" stroke-width="1.13703" stroke-linecap="round"/>
<path d="M177.82 67.2344L183.698 67.4418" stroke="black" stroke-width="1.13703" stroke-linecap="round"/>
<path d="M178.379 68.3398C179.531 68.4781 181.947 68.6718 182.389 68.3398" stroke="black" stroke-width="1.13703" stroke-linecap="round"/>
<path d="M177.82 72.5586L182.868 72.766" stroke="black" stroke-width="1.13703" stroke-linecap="round"/>
<path d="M178.512 73.457C179.226 73.5492 180.724 73.6783 181.001 73.457" stroke="black" stroke-width="1.13703" stroke-linecap="round"/>
<path d="M186.187 77.5352C186.325 78.7107 186.519 81.0755 186.187 81.1309C185.772 81.2 187.432 78.5032 187.916 79.0564C188.4 79.6096 186.464 82.5138 188.745 81.1309C189.368 80.6238 190.446 79.4022 189.783 78.5724C188.953 77.5352 189.091 81.684 189.575 81.1309C190.059 80.5777 191.442 78.0883 191.857 79.5405C192.272 80.9926 190.612 80.9926 191.166 80.4394C191.719 79.8862 192.41 79.5405 192.825 80.4394" stroke="black" stroke-width="1.13703" stroke-linecap="round"/>
<path d="M122.673 59.289C128.075 62.3762 130.062 58.0484 130.413 54.6536C130.479 54.011 129.934 53.4978 129.289 53.5281L123.096 53.8184C122.489 53.8469 122.012 54.3469 122.012 54.9542V55.6538" stroke="black" stroke-width="1.13703" stroke-linecap="round"/>
<path d="M139.069 59.7517C134.268 60.63 132.977 57.704 132.76 54.6505C132.714 54.0081 133.258 53.4953 133.902 53.5226L139.354 53.7536C139.994 53.7807 140.486 54.3314 140.44 54.9707L140.391 55.6538" stroke="black" stroke-width="1.13703" stroke-linecap="round"/>
</svg>
