<svg width="268" height="175" viewBox="0 0 268 175" fill="none" xmlns="http://www.w3.org/2000/svg">
<rect width="268" height="174.553" fill="#D3D3D3"/>
<path d="M155.117 105.105V119.832C155.117 120.021 155.264 120.178 155.453 120.191L167.778 121.022C167.795 121.023 167.813 121.023 167.83 121.021L172.793 120.643" stroke="black" stroke-width="0.72" stroke-linecap="round"/>
<path d="M155.117 105.056L167.4 103.538C167.615 103.512 167.804 103.679 167.804 103.896V120.832" stroke="black" stroke-width="0.72" stroke-linecap="round"/>
<path d="M170.316 103.633L186.24 104.657C186.429 104.669 186.576 104.826 186.576 105.016V111.045" stroke="black" stroke-width="0.72" stroke-linecap="round"/>
<path d="M155.167 120.168H150.68C150.481 120.168 150.32 120.329 150.32 120.528V125.655C150.32 125.833 150.451 125.985 150.627 126.011L164.114 128.041C164.332 128.074 164.528 127.905 164.528 127.685V122.544" stroke="black" stroke-width="0.72" stroke-linecap="round"/>
<path d="M164.48 128.104L175.742 127.059" stroke="black" stroke-width="0.72" stroke-linecap="round"/>
<path d="M171.133 127.817V115.938L176.265 127.817H171.133Z" fill="black" fill-opacity="0.3"/>
<path d="M185.229 121.781L178.349 107.463C178.114 106.974 178.483 106.411 179.025 106.431L181.202 106.513C181.468 106.523 181.706 106.678 181.822 106.917L188.963 121.558C189.098 121.834 189.043 122.165 188.825 122.383L187.724 123.484C187.596 123.612 187.425 123.687 187.244 123.694L185.687 123.757C185.056 123.783 184.702 123.04 185.12 122.566C185.311 122.35 185.354 122.041 185.229 121.781Z" fill="black"/>
<path d="M183.279 126.535H181.434C181.286 126.535 181.144 126.595 181.042 126.702C180.704 127.055 180.968 127.639 181.456 127.619L183.3 127.541C183.418 127.536 183.531 127.489 183.618 127.41C183.957 127.1 183.738 126.535 183.279 126.535Z" fill="black"/>
<path d="M159.777 105.53V105.116C159.777 104.755 160.044 104.45 160.402 104.402L161.813 104.214C162.245 104.157 162.628 104.492 162.628 104.928V105.365C162.628 105.731 162.355 106.038 161.992 106.08L160.581 106.245C160.153 106.295 159.777 105.961 159.777 105.53Z" fill="black"/>
<path d="M155.5 125.875V126.061C155.5 126.416 155.759 126.718 156.11 126.773L157.426 126.977C157.862 127.045 158.256 126.707 158.256 126.265V126.033C158.256 125.669 157.984 125.362 157.622 125.319L156.306 125.16C155.878 125.108 155.5 125.443 155.5 125.875Z" fill="black"/>
<path d="M159.969 119.318V119.787C159.969 120.162 160.257 120.474 160.631 120.504L162.137 120.626C162.556 120.659 162.915 120.328 162.915 119.908V119.318C162.915 118.92 162.592 118.598 162.195 118.598H160.689C160.291 118.598 159.969 118.92 159.969 119.318Z" fill="black"/>
<path d="M155.5 122V120.986C155.5 120.569 155.853 120.239 156.27 120.268L157.585 120.359C157.963 120.385 158.256 120.699 158.256 121.077V122.159C158.256 122.591 157.878 122.925 157.45 122.873L156.134 122.715C155.772 122.671 155.5 122.364 155.5 122Z" fill="black"/>
<path d="M176.107 127.395L169.466 112.158C169.411 112.03 169.434 111.882 169.525 111.777L174.051 106.611C174.222 106.416 174.536 106.459 174.647 106.693L181.997 122.119C182.064 122.26 182.033 122.427 181.92 122.535L176.685 127.512C176.504 127.684 176.207 127.624 176.107 127.395Z" stroke="black" stroke-width="0.72" stroke-linecap="round"/>
<path d="M176.406 127.818L186.489 127.349C186.575 127.345 186.657 127.311 186.719 127.252L191.72 122.538C191.962 122.31 191.792 121.903 191.459 121.916L183.857 122.212" stroke="black" stroke-width="0.72" stroke-linecap="round"/>
<path d="M174.414 106.246L184.088 106.618C184.218 106.623 184.334 106.697 184.394 106.812L192.233 121.879" stroke="black" stroke-width="0.72" stroke-linecap="round"/>
<path d="M98.9609 151.687C101.573 150.46 107.932 148.086 112.469 148.399C113.113 148.425 114.084 148.697 112.824 149.574C111.564 150.451 110.933 150.905 110.776 151.022C110.12 151.57 109.476 152.728 112.154 152.979C115.502 153.292 124.954 149.887 143.661 152.391" stroke="black" stroke-width="0.72" stroke-linecap="round"/>
<path d="M78.0195 128.244V125.984" stroke="black" stroke-width="0.72" stroke-linecap="round"/>
<path d="M76 127.238L77.2333 128.243" stroke="black" stroke-width="0.72" stroke-linecap="round"/>
<path d="M78.8438 128.244L79.769 126.773" stroke="black" stroke-width="0.72" stroke-linecap="round"/>
<path d="M125.211 141.805V138.469" stroke="black" stroke-width="0.72" stroke-linecap="round"/>
<path d="M122.207 140.324L124.039 141.807" stroke="black" stroke-width="0.72" stroke-linecap="round"/>
<path d="M126.434 141.808L127.808 139.637" stroke="black" stroke-width="0.72" stroke-linecap="round"/>
<path d="M145.634 59.4141L145.74 76.0709C145.741 76.2654 145.588 76.4257 145.393 76.4329L132.602 76.9044L124.469 76.42" stroke="black" stroke-width="0.72" stroke-linecap="round"/>
<path d="M145.633 59.3594H132.744C132.546 59.3594 132.384 59.5206 132.384 59.7194V66.5708" stroke="black" stroke-width="0.72" stroke-linecap="round"/>
<path d="M130.34 59.3594H119.552C119.353 59.3594 119.192 59.5206 119.192 59.7194V69.154" stroke="black" stroke-width="0.72" stroke-linecap="round"/>
<path d="M141.004 61.1787V60.831C141.004 60.4576 140.718 60.1462 140.347 60.1137L138.663 59.9668C138.242 59.93 137.88 60.2617 137.88 60.684V61.0771C137.88 61.4579 138.177 61.7728 138.557 61.7958L140.241 61.8974C140.654 61.9224 141.004 61.5934 141.004 61.1787Z" fill="black"/>
<path d="M140.625 75.3645V75.9847C140.625 76.3595 140.338 76.6716 139.964 76.7023L138.28 76.8408C137.861 76.8753 137.501 76.5441 137.501 76.1232V75.3645C137.501 74.9669 137.824 74.6445 138.221 74.6445H139.905C140.303 74.6445 140.625 74.9669 140.625 75.3645Z" fill="black"/>
<path d="M132.547 76.9022V73.5117" stroke="black" stroke-width="0.72" stroke-linecap="round"/>
<path d="M116.715 88.9587C116.715 87.7748 116.715 82.3824 116.715 80.6172" stroke="black" stroke-width="0.72" stroke-linecap="round"/>
<path d="M116.928 68.9909C116.928 64.1873 115.667 61.8457 113.926 59.5039" stroke="black" stroke-width="0.72" stroke-linecap="round"/>
<path d="M96.678 87.9348C95.6548 75.4494 96.3905 67.0003 100.765 60.2214C102.086 58.1744 105.037 56.3253 107.02 57.039" stroke="black" stroke-width="0.72" stroke-linecap="round"/>
<path d="M114.528 56.3869C115.495 55.6249 122.775 55.5076 123.151 45.4792C125.763 45.2062 126.235 43.6179 124.836 42.2238C122.892 40.2876 123.141 39.1746 123.387 37.947C123.818 36.3249 123.665 34.6921 123.494 34.3668" stroke="black" stroke-width="0.72" stroke-linecap="round"/>
<path d="M125.818 43.5462C122.671 44.0951 119.141 45.2552 112.15 39.8965C111.929 40.7039 111.306 42.7835 110.577 44.6433C109.665 46.9682 115.845 55.9348 120.086 53.9901C123.552 52.401 125.85 50.022 125.818 43.5462Z" fill="black"/>
<path d="M120.43 42.4569C120.715 42.5344 121.045 42.2355 121.167 41.789C121.288 41.3426 121.156 40.9178 120.871 40.8402C120.586 40.7627 120.256 41.0617 120.134 41.5082C120.013 41.9546 120.145 42.3794 120.43 42.4569Z" fill="black"/>
<path d="M118.462 40.8786C118.401 40.2405 118.639 38.939 120.073 38.837" stroke="black" stroke-width="0.72" stroke-linecap="round"/>
<path d="M109.776 40.4659C109.638 40.8943 109.59 41.8355 110.503 42.1747" stroke="black" stroke-width="0.72" stroke-linecap="round"/>
<path d="M100.105 37.3577C99.7367 43.0247 103.399 46.8321 106.075 49.7753C108.379 48.1617 112.041 44.5363 110.456 44.3755C108.79 44.2064 106.561 39.9778 107.98 38.4399C109.646 36.6353 111.595 38.8457 112.125 40.6319L113.316 37.8823C112.684 36.1295 112.151 32.9879 115.068 34.4445C117.986 35.901 121.908 34.9741 123.505 34.3287C126.486 31.6239 130.907 25.6098 124.74 23.191C119.61 21.1793 113.704 25.1643 110.209 28.5344C107.531 28.1514 100.607 29.6312 100.105 37.3577Z" fill="black"/>
<path d="M106.215 49.3828C107.553 50.6587 108.273 51.7637 108.484 54.2017" stroke="black" stroke-width="0.72" stroke-linecap="round"/>
<path d="M110.771 63.1289C111.877 71.5905 114.638 72.3513 115.88 71.6741C118.364 70.5388 123.836 68.6744 125.856 70.2997C127.875 71.9251 125.455 74.1241 123.993 75.0205C119.145 78.4665 108.62 84.1155 105.303 79.1437C101.985 74.1719 101.757 67.9094 102.057 65.3996" stroke="black" stroke-width="0.72" stroke-linecap="round"/>
<path d="M107.129 57.1302C106.815 56.0367 106.631 53.9509 108.406 54.3562C110.624 54.8629 115.078 58.1441 114.747 59.3591" stroke="black" stroke-width="0.72" stroke-linecap="round"/>
<path d="M132.564 71.4492C132.764 72.0632 132.443 73.484 129.505 73.8283C128.394 73.9587 128.227 73.9404 127.184 73.8524" stroke="black" stroke-width="0.72" stroke-linecap="round"/>
<path d="M132.973 69.668C133.462 69.8057 133.903 70.3391 132.565 71.4527C132.272 71.6962 131.895 71.9674 131.414 72.2685" stroke="black" stroke-width="0.72" stroke-linecap="round"/>
<path d="M132.752 68.3751C133.265 68.3692 133.762 68.6582 132.97 69.6682C132.627 70.1055 132.043 70.6779 131.113 71.4201" stroke="black" stroke-width="0.72" stroke-linecap="round"/>
<path d="M126.477 69.1632C128.81 66.7671 129.807 66.6462 129.338 68.6092C128.87 70.5722 130.609 68.8854 131.512 67.9149C131.875 67.5115 132.683 66.8627 133.012 67.4947C133.125 67.7122 133 68.027 132.752 68.3728C132.28 69.0319 131.359 69.8036 130.782 70.2286" stroke="black" stroke-width="0.72" stroke-linecap="round"/>
<path d="M113.786 118.974C117.465 105.207 117.573 99.977 116.978 88.5033C110.338 93.004 99.7608 89.3954 96.4195 87.7734C94.498 99.2591 95.7385 121.144 98.5264 134.544C99.5991 136.296 101.91 135.396 102.932 134.727L104.209 125.421L105.677 133.571C106.494 134.934 108.912 134.666 110.019 134.362L113.786 118.974Z" fill="black"/>
<path d="M96.3028 137.847C96.0012 136.943 98.098 137.47 99.0494 137.847C99.0494 138.665 101.06 139.3 102.065 139.515C98.1878 139.246 96.4644 138.331 96.3028 137.847Z" fill="black"/>
<path d="M104.95 137.017C104.304 136.415 105.435 136.336 106.135 136.425C106.351 138.147 106.512 137.663 107.535 138.255C107.374 138.524 105.597 137.62 104.95 137.017Z" fill="black"/>
<path d="M110.023 135.406C110.363 135.861 111.423 136.771 112.441 136.771C113.313 136.771 113.65 137.81 112.696 138.329C111.105 138.979 107.44 138.68 106.27 137.225V135.211" stroke="black" stroke-width="0.72" stroke-linecap="round"/>
<path d="M102.565 135.965C102.865 136.226 103.632 136.774 104.3 136.879C105.135 137.009 106.298 137.989 105.649 139.163C105.071 140.206 103.786 139.988 103.015 139.749L99.9953 138.641C99.6741 138.509 99.1602 138.313 99.1602 137.531C99.1602 136.748 99.1602 136.422 99.1602 136.357" stroke="black" stroke-width="0.72" stroke-linecap="round"/>
</svg>
