<svg width="268" height="175" viewBox="0 0 268 175" fill="none" xmlns="http://www.w3.org/2000/svg">
<rect width="268" height="174.553" fill="#D3D3D3"/>
<path d="M144.66 39.0078C145.853 38.8994 148.585 39.5697 150.547 42.9409C150.73 43.2553 151.2 43.258 151.37 42.9361C153.257 39.3533 155.711 36.0603 162.418 39.744C162.818 39.9639 163.371 39.4763 163.233 39.0415C162.357 36.2833 162.427 32.2061 167.076 29.8817C167.374 29.7325 167.352 29.2736 167.032 29.1801V29.1801C166.67 29.0747 166.714 28.6132 167.09 28.6072C168.454 28.5855 169.775 28.7922 169.158 29.5411C168.261 30.6286 168.04 31.3161 168.259 32.4514" stroke="black" stroke-width="0.880468" stroke-linecap="round"/>
<path fill-rule="evenodd" clip-rule="evenodd" d="M84.6876 81.9055C84.1798 81.3041 83.21 81.8163 83.4223 82.5737C83.5898 83.1708 82.9838 83.6915 82.4171 83.4378C81.6987 83.1162 81.0472 83.9974 81.5675 84.5876C81.9779 85.053 81.6583 85.7848 81.0378 85.8017C80.2514 85.8231 80.0471 86.8995 80.772 87.2056C81.3437 87.4471 81.3742 88.245 80.8227 88.5288C80.1236 88.8886 80.4078 89.9469 81.1936 89.9089C81.8134 89.8789 82.1876 90.5847 81.814 91.0793C81.3404 91.7063 82.0571 92.5363 82.7484 92.1617C83.2937 91.8663 83.9375 92.3403 83.8158 92.948C83.6616 93.7184 84.6681 94.1554 85.1282 93.5184C85.4912 93.0159 86.2772 93.1639 86.4318 93.7643C86.6279 94.5258 87.7243 94.4838 87.8621 93.71C87.9708 93.0997 88.7429 92.8925 89.1434 93.3667C89.6512 93.968 90.621 93.4558 90.4086 92.6985C90.2412 92.1013 90.8471 91.5807 91.4138 91.8343C92.1322 92.1559 92.7838 91.2747 92.2635 90.6845C91.8531 90.2191 92.1727 89.4873 92.7931 89.4704C93.5796 89.4491 93.7838 88.3727 93.059 88.0665C92.4872 87.825 92.4568 87.0271 93.0082 86.7433C93.7074 86.3836 93.4231 85.3252 92.6373 85.3633C92.0175 85.3933 91.6434 84.6875 92.017 84.1929C92.4905 83.5658 91.7738 82.7359 91.0825 83.1104C90.5372 83.4058 89.8935 82.9318 90.0151 82.3241C90.1693 81.5537 89.1629 81.1167 88.7027 81.7537C88.3397 82.2562 87.5538 82.1083 87.3991 81.5078C87.2031 80.7464 86.1066 80.7883 85.9688 81.5621C85.8601 82.1724 85.088 82.3796 84.6876 81.9055ZM83.3144 86.9882C83.1137 86.6094 83.2598 86.1436 83.6344 85.9458C84.0089 85.748 84.477 85.8894 84.6777 86.2682C84.8785 86.647 84.7324 87.1128 84.3578 87.3106C83.9832 87.5084 83.5152 87.367 83.3144 86.9882ZM85.2608 85.9603C85.6304 86.6575 85.3638 87.5217 84.6653 87.8906C83.9668 88.2595 83.1009 87.9934 82.7313 87.2961C82.3618 86.5989 82.6284 85.7347 83.3269 85.3658C84.0254 84.9969 84.8913 85.263 85.2608 85.9603ZM89.6103 87.8926C89.2358 88.0904 89.0896 88.5562 89.2904 88.935C89.4912 89.3138 89.9592 89.4552 90.3338 89.2574C90.7083 89.0596 90.8545 88.5938 90.6537 88.215C90.4529 87.8362 89.9849 87.6948 89.6103 87.8926ZM90.6412 89.8374C91.3397 89.4686 91.6064 88.6043 91.2368 87.9071C90.8672 87.2099 90.0014 86.9437 89.3029 87.3126C88.6044 87.6815 88.3377 88.5457 88.7073 89.243C89.0769 89.9402 89.9427 90.2063 90.6412 89.8374ZM87.2084 84.0012C87.1939 83.7585 86.9854 83.5735 86.7427 83.588C86.4999 83.6025 86.3149 83.811 86.3294 84.0536L86.756 91.2C86.7705 91.4427 86.9791 91.6277 87.2218 91.6132C87.4646 91.5987 87.6496 91.3903 87.6351 91.1476L87.2084 84.0012Z" fill="black"/>
<path d="M189.252 62.3449C189.252 66.7471 185.643 70.3238 181.182 70.3238C176.721 70.3238 173.112 66.7471 173.112 62.3449C173.112 57.9427 176.721 54.366 181.182 54.366C185.643 54.366 189.252 57.9427 189.252 62.3449Z" stroke="black" stroke-width="0.880468"/>
<path d="M181.262 66.1016V67.3049" stroke="black" stroke-width="0.880468" stroke-linecap="round"/>
<path d="M181.262 58.5862V57.3828" stroke="black" stroke-width="0.880468" stroke-linecap="round"/>
<path d="M183.367 59.0967C182.833 58.8313 182.02 58.5831 181.261 58.586C180.346 58.5894 179.507 58.9577 179.323 60.1003C179.08 61.6073 180.922 62.1483 182.019 62.6928C183.536 63.4455 183.522 64.8565 182.609 65.5362C182.198 65.842 181.732 66.0097 181.261 66.0731C180.572 66.1658 179.873 66.0354 179.323 65.7871" stroke="black" stroke-width="0.880468" stroke-linecap="round"/>
<path d="M135.997 44.3053C134.692 39.9704 134.93 31.1563 146.315 30.3987C157.611 29.647 159.343 29.7972 161.226 30.0978" stroke="black" stroke-width="0.880468" stroke-linecap="round"/>
<path d="M114.535 125.486C117.994 122.979 125.608 118.405 128.376 120.168C131.835 122.371 129.626 122.675 127.86 122.219" stroke="black" stroke-width="0.880468" stroke-linecap="round"/>
<path d="M124.695 122.293C126.477 122.027 130.072 122.06 130.191 124.329C130.259 125.651 129.893 125.431 129.225 125.018C128.746 124.723 128.111 124.329 127.368 124.329H124.174" stroke="black" stroke-width="0.880468" stroke-linecap="round"/>
<path d="M124.175 124.438H127.388C128.136 124.438 128.775 124.84 129.257 125.142C129.728 125.995 130.077 127.57 127.688 127.035C125.298 126.501 124.35 126.664 124.175 126.813" stroke="black" stroke-width="0.880468" stroke-linecap="round"/>
<path d="M127.729 126.992C128.519 127.894 129.431 129.591 126.766 129.17C124.101 128.75 122.004 130.046 121.288 130.747C120.08 131.548 117.216 132.549 115.439 130.146" stroke="black" stroke-width="0.880468" stroke-linecap="round"/>
<path d="M102.14 129.304C114.664 122.373 114.676 128.9 113.618 132.88C112.053 136.905 104.29 141.337 100.804 141.868C95.8877 142.995 87.1818 141.659 91.6969 127.292C97.3421 109.333 99.8956 96.2172 118.754 92.7148" stroke="black" stroke-width="0.880468" stroke-linecap="round"/>
<path d="M108.961 113.762C108.961 120.544 108.563 120.384 105.647 126.541" stroke="black" stroke-width="0.880468" stroke-linecap="round"/>
<path d="M134.57 117.368V115.414" stroke="black" stroke-width="0.880468" stroke-linecap="round"/>
<path d="M136.829 117.222L137.582 114.816" stroke="black" stroke-width="0.880468" stroke-linecap="round"/>
<path d="M139.087 117.823L140.895 113.613" stroke="black" stroke-width="0.880468" stroke-linecap="round"/>
<path d="M104.293 141.422C104.818 147.288 105.041 146.917 105.941 150.258C115.025 152.931 135.124 156.005 142.852 146.917" stroke="black" stroke-width="0.880468" stroke-linecap="round"/>
<path d="M113.631 106.246L113.915 105.816C115.628 103.236 118.931 102.206 121.822 103.351C124.416 104.378 127.381 103.662 129.209 101.568L131.555 98.8789" stroke="black" stroke-width="0.880468" stroke-linecap="round"/>
<path d="M129.912 92.582C130.571 90.7364 129.968 89.4944 129.384 89.2578C125.861 92.3812 120.519 91.2217 118.539 89.3287C117.834 89.9534 118.245 91.8013 118.539 92.3691C122.354 96.458 127.784 94.1675 129.912 92.582Z" fill="black"/>
<path d="M140.296 62.229C138.654 68.1278 137.831 68.6504 135.443 71.2637C135.443 68.6812 134.998 64.3461 134.998 62.5408C127.173 62.5408 120.571 59.3472 118.245 57.7502C118.329 63.1656 113.25 66.7066 113.25 66.7066C113.25 66.7066 113.978 68.8936 114.395 73.7882C114.73 77.7041 113.77 76.9474 113.25 76.0794C111.753 71.2471 109.298 72.5385 108.256 73.7882C95.4881 53.0451 115.123 49.037 118.87 49.4189C121.7 47.0028 125.647 45.1094 128.421 44.8316C138.431 43.8301 142.959 52.6646 140.296 62.229Z" fill="black"/>
<path d="M113.332 79.7707C114.686 88.0208 123.772 93.9535 130.329 87.27C136.887 80.5868 135.574 68.3532 134.873 62.6445" stroke="black" stroke-width="0.880468" stroke-linecap="round"/>
<path d="M108.18 73.168C107.385 75.1782 108.131 79.6326 113.332 79.6326" stroke="black" stroke-width="0.880468" stroke-linecap="round"/>
<path d="M110.8 74.3711C110.707 74.7433 110.781 75.6255 111.824 76.1752" stroke="black" stroke-width="0.880468" stroke-linecap="round"/>
<path d="M134.869 78.5815C136.584 77.8605 137.795 75.1902 137.329 70.9141" stroke="black" stroke-width="0.880468" stroke-linecap="round"/>
<path d="M124.929 83.5894C126.529 84.0701 126.428 82.747 127.641 81.5859" stroke="black" stroke-width="0.880468" stroke-linecap="round"/>
<path d="M130.126 74.2219C130.75 74.2219 131.255 73.6834 131.255 73.0191C131.255 72.3549 130.75 71.8164 130.126 71.8164C129.502 71.8164 128.996 72.3549 128.996 73.0191C128.996 73.6834 129.502 74.2219 130.126 74.2219Z" fill="black"/>
<path d="M120.187 74.222C120.894 74.222 121.467 73.7508 121.467 73.1696C121.467 72.5884 120.894 72.1172 120.187 72.1172C119.479 72.1172 118.906 72.5884 118.906 73.1696C118.906 73.7508 119.479 74.222 120.187 74.222Z" fill="black"/>
<path d="M117.702 70.6089C117.949 69.9737 119.021 68.7988 121.316 69.1799" stroke="black" stroke-width="0.880468" stroke-linecap="round"/>
<path d="M128.245 69.2596C128.792 68.9193 130.282 68.4427 131.859 69.2596" stroke="black" stroke-width="0.880468" stroke-linecap="round"/>
<path d="M124.446 72.7188C124.273 74.1553 124.152 77.0686 125.078 77.229" stroke="black" stroke-width="0.880468" stroke-linecap="round"/>
<path d="M122.334 120.677L118.449 114.162C118.146 113.653 118.318 112.993 118.832 112.699C119.334 112.412 119.971 112.579 120.267 113.074L124.324 119.85" stroke="black" stroke-width="0.880468" stroke-linecap="round"/>
<path d="M123.27 143.376C125.335 136.711 130.145 123.771 133.2 124.141C133.339 124.158 133.478 124.197 133.617 124.217L145.109 125.823" stroke="black" stroke-width="0.880468" stroke-linecap="round"/>
<path d="M146.77 128.492L145.716 131.649" stroke="black" stroke-width="0.880468" stroke-linecap="round"/>
<path d="M133.479 125.789C131.275 127.132 127.997 136.348 126.084 142.549C125.667 143.901 126.589 145.284 127.999 145.46L138.892 146.819C140.005 146.957 141.057 146.286 141.394 145.223L142.25 142.522" stroke="black" stroke-width="0.880468" stroke-linecap="round"/>
<path d="M135.245 126.991C135.972 126.727 137.484 125.172 137.053 123.665C136.98 123.404 136.846 123.144 136.639 122.892C135.245 121.191 132.844 122.892 133.464 124.284" stroke="black" stroke-width="0.880468" stroke-linecap="round"/>
<path d="M136.98 123.706C137.722 122.8 139.727 122.387 140.775 124.171C141.75 126.344 139.876 127.585 138.752 127.741" stroke="black" stroke-width="0.880468" stroke-linecap="round"/>
<path d="M140.892 124.13C141.675 123.533 143.771 122.729 144.984 124.285C146.422 126.698 143.847 128.254 142.785 128.02" stroke="black" stroke-width="0.880468" stroke-linecap="round"/>
<path d="M144.959 124.293C145.959 123.708 147.735 123.453 148.418 124.981C149.101 126.51 147.418 128.497 145.803 128.497" stroke="black" stroke-width="0.880468" stroke-linecap="round"/>
<path d="M139.255 136.914C138.844 137.475 138.929 138.922 142.551 140.222" stroke="black" stroke-width="0.880468" stroke-linecap="round"/>
<path d="M148.727 133.929C144.812 133.177 140.794 132.898 139.272 132.852C138.455 132.828 137.548 133.524 138.004 134.312C138.131 134.513 138.527 134.962 139.102 135.142C141.541 135.935 142.581 136.006 143.655 136.009" stroke="black" stroke-width="0.880468" stroke-linecap="round"/>
<path d="M143.605 135.978C142.531 135.975 141.49 135.905 139.05 135.109C138.494 135.31 138.421 136.267 139.303 136.864C139.859 137.242 140.867 137.706 142.531 138.267" stroke="black" stroke-width="0.880468" stroke-linecap="round"/>
<path d="M130.047 92.7148C142.22 97.5401 151.928 111.719 150.732 131.168C150.558 133.915 149.134 139.601 144.833 140.373" stroke="black" stroke-width="0.880468" stroke-linecap="round"/>
<path d="M140.52 64.9018C142.879 64.2503 148.156 63.5788 150.385 66.1045C153.171 69.2617 151.816 70.2389 154.979 66.1045C157.509 62.797 167.731 62.2708 172.526 62.4212" stroke="black" stroke-width="0.880468" stroke-linecap="round"/>
<path d="M184.574 53.9972C184.273 53.2705 184.006 50.6147 184.574 48.5849C185.478 45.3525 188.415 33.4758 185.252 30.8446C181.161 27.4416 178.323 29.0406 171.922 29.7171" stroke="black" stroke-width="0.880468" stroke-linecap="round"/>
<path d="M146.555 48.3817L146.83 57.294C146.838 57.5456 147.054 57.7394 147.305 57.7192L151.09 57.4146C151.326 57.3956 151.505 57.1928 151.494 56.9559L151.083 47.8627C151.072 47.6047 150.841 47.4121 150.585 47.4462L146.937 47.9317C146.713 47.9615 146.548 48.1559 146.555 48.3817Z" stroke="black" stroke-width="0.880468" stroke-linecap="round"/>
<path d="M154.523 46.0585V57.0368C154.523 57.3476 154.837 57.5605 155.126 57.4461L158.624 56.0613C158.787 55.997 158.896 55.843 158.902 55.6685L159.252 46.38C159.261 46.1441 159.082 45.9432 158.847 45.9245L154.998 45.6197C154.742 45.5994 154.523 45.8017 154.523 46.0585Z" stroke="black" stroke-width="0.880468" stroke-linecap="round"/>
<path d="M163.035 43.3152V55.74C163.035 55.9831 163.232 56.1802 163.475 56.1802H167.264C167.507 56.1802 167.704 55.9831 167.704 55.74V43.3152C167.704 43.0721 167.507 42.875 167.264 42.875H163.475C163.232 42.875 163.035 43.0721 163.035 43.3152Z" stroke="black" stroke-width="0.880468" stroke-linecap="round"/>
<path d="M172.062 40.655L171.71 55.3564C171.702 55.6524 171.984 55.8708 172.269 55.7908L176.229 54.6792C176.402 54.6306 176.528 54.4816 176.547 54.3028L178.042 40.5221C178.071 40.2551 177.856 40.0246 177.588 40.0347L172.486 40.2257C172.253 40.2344 172.068 40.4224 172.062 40.655Z" stroke="black" stroke-width="0.880468" stroke-linecap="round"/>
<path d="M106.928 38.5898C106.823 40.3102 106.752 43.8313 107.307 44.1525" stroke="black" stroke-width="0.880468" stroke-linecap="round"/>
<path d="M103.992 42.0486L109.716 41.2969" stroke="black" stroke-width="0.880468" stroke-linecap="round"/>
<path d="M151.659 89.1055C151.554 90.8259 151.482 94.347 152.038 94.6681" stroke="black" stroke-width="0.880468" stroke-linecap="round"/>
<path d="M148.727 92.5603L154.45 91.8086" stroke="black" stroke-width="0.880468" stroke-linecap="round"/>
<path d="M175.096 105.343C175.096 105.659 174.816 106.073 174.066 106.435C173.347 106.781 172.324 107.008 171.169 107.008C170.014 107.008 168.99 106.781 168.271 106.435C167.521 106.073 167.241 105.659 167.241 105.343C167.241 105.027 167.521 104.613 168.271 104.251C168.99 103.905 170.014 103.679 171.169 103.679C172.324 103.679 173.347 103.905 174.066 104.251C174.816 104.613 175.096 105.027 175.096 105.343Z" stroke="black" stroke-width="0.880468"/>
<path d="M167.102 105.418V108.001C167.102 108.127 167.154 108.247 167.253 108.326C168.441 109.274 171.312 110.562 174.482 108.951" stroke="black" stroke-width="0.880468" stroke-linecap="round"/>
<path d="M92.1042 54.2259C92.1042 54.5419 91.824 54.9562 91.074 55.3176C90.3553 55.6639 89.3314 55.8904 88.1765 55.8904C87.0217 55.8904 85.9978 55.6639 85.279 55.3176C84.5291 54.9562 84.2488 54.5419 84.2488 54.2259C84.2488 53.9098 84.5291 53.4955 85.279 53.1342C85.9978 52.7878 87.0217 52.5613 88.1765 52.5613C89.3314 52.5613 90.3553 52.7878 91.074 53.1342C91.824 53.4955 92.1042 53.9098 92.1042 54.2259Z" stroke="black" stroke-width="0.880468"/>
<path d="M84.1094 54.3008V56.8834C84.1094 57.0097 84.1621 57.1301 84.2608 57.2089C85.4491 58.1572 88.3201 59.4444 91.4897 57.8338" stroke="black" stroke-width="0.880468" stroke-linecap="round"/>
<path d="M169.053 80.4338C168.831 80.6606 168.34 80.7619 167.551 80.4985C166.794 80.2461 165.903 79.6952 165.075 78.891C164.248 78.0867 163.673 77.2115 163.401 76.4629C163.116 75.6821 163.205 75.1899 163.426 74.963C163.648 74.7361 164.138 74.6349 164.928 74.8982C165.685 75.1507 166.576 75.7015 167.403 76.5058C168.23 77.31 168.805 78.1853 169.078 78.9338C169.363 79.7147 169.274 80.2069 169.053 80.4338Z" stroke="black" stroke-width="0.880468"/>
<path d="M163.273 74.9219L161.468 76.7721C161.38 76.8624 161.333 76.9852 161.349 77.1103C161.537 78.6171 162.694 81.539 166.09 82.593" stroke="black" stroke-width="0.880468" stroke-linecap="round"/>
</svg>
