<svg width="424" height="424" viewBox="0 0 424 424" fill="none" xmlns="http://www.w3.org/2000/svg">
<path d="M108.196 81.107C97.8081 87.1613 87.9 97.8587 87.9 97.8587C87.666 98.1104 87.5406 98.4455 87.5514 98.7905C87.5622 99.1354 87.7083 99.4619 87.9575 99.6982C88.2067 99.9345 88.5388 100.061 88.8806 100.051C89.2224 100.04 89.546 99.893 89.7804 99.6417C89.7804 99.6417 99.6309 89.1067 109.488 83.3621C109.784 83.1892 110 82.9048 110.088 82.5713C110.177 82.2378 110.13 81.8825 109.959 81.5836C109.874 81.4355 109.761 81.3058 109.627 81.2017C109.492 81.0976 109.339 81.0212 109.175 80.977C109.012 80.9327 108.841 80.9214 108.673 80.9438C108.505 80.9661 108.343 81.0215 108.196 81.107Z" fill="#333333"/>
<path d="M107.942 131.773C107.942 131.773 105.528 134.071 104.383 135.99C104.207 136.285 104.155 136.64 104.237 136.975C104.32 137.309 104.531 137.597 104.824 137.775C104.969 137.864 105.13 137.922 105.298 137.948C105.465 137.973 105.636 137.965 105.801 137.924C105.965 137.883 106.12 137.809 106.256 137.708C106.393 137.606 106.508 137.479 106.595 137.332C107.324 136.111 109.746 133.633 109.746 133.633C109.99 133.391 110.13 133.062 110.134 132.717C110.138 132.371 110.005 132.039 109.766 131.792C109.526 131.545 109.2 131.405 108.857 131.401C108.515 131.398 108.186 131.531 107.942 131.773Z" fill="#333333"/>
<path d="M122.446 155.804C122.105 155.788 121.771 155.909 121.518 156.141C121.518 156.141 120.648 156.94 119.65 157.915C118.652 158.891 117.556 159.982 116.918 160.869C116.819 161.008 116.747 161.165 116.707 161.331C116.668 161.497 116.661 161.67 116.688 161.839C116.714 162.008 116.774 162.17 116.863 162.316C116.951 162.461 117.068 162.588 117.205 162.689C117.482 162.891 117.827 162.974 118.165 162.92C118.503 162.866 118.805 162.679 119.006 162.399C119.363 161.903 120.481 160.729 121.446 159.785C122.411 158.842 123.254 158.067 123.254 158.067C123.507 157.834 123.658 157.51 123.674 157.165C123.69 156.821 123.57 156.484 123.341 156.228C123.226 156.102 123.089 155.999 122.935 155.927C122.782 155.854 122.616 155.812 122.446 155.804Z" fill="#333333"/>
<path d="M110.133 200.308L107.966 202.324C107.715 202.558 107.566 202.884 107.552 203.229C107.538 203.574 107.66 203.91 107.892 204.164C108.124 204.418 108.447 204.568 108.789 204.582C109.13 204.596 109.464 204.472 109.715 204.238L111.883 202.223C112.134 201.989 112.284 201.664 112.298 201.319C112.312 200.974 112.189 200.638 111.958 200.384C111.843 200.258 111.705 200.156 111.551 200.084C111.397 200.012 111.23 199.971 111.061 199.964C110.891 199.957 110.722 199.984 110.563 200.043C110.404 200.102 110.258 200.192 110.133 200.308Z" fill="#333333"/>
<path d="M116.127 228.383C116.127 228.383 114.581 229.656 112.914 231.164C112.081 231.918 111.215 232.732 110.481 233.494C109.746 234.255 109.155 234.888 108.773 235.647C108.696 235.799 108.65 235.966 108.637 236.136C108.624 236.307 108.644 236.478 108.696 236.641C108.749 236.803 108.833 236.954 108.943 237.084C109.053 237.214 109.188 237.32 109.339 237.398C109.49 237.475 109.655 237.522 109.824 237.535C109.993 237.549 110.162 237.528 110.324 237.475C110.485 237.422 110.634 237.337 110.763 237.226C110.892 237.115 110.997 236.979 111.074 236.827C111.149 236.678 111.664 236.002 112.331 235.31C112.998 234.618 113.83 233.833 114.637 233.103C116.25 231.643 117.758 230.402 117.758 230.402C117.89 230.293 117.999 230.16 118.079 230.01C118.159 229.859 118.209 229.694 118.226 229.524C118.243 229.353 118.227 229.182 118.178 229.018C118.129 228.854 118.049 228.702 117.941 228.569C117.725 228.302 117.412 228.132 117.072 228.097C116.732 228.063 116.392 228.165 116.127 228.383Z" fill="#333333"/>
<path d="M33.9303 323.016C28.8478 325.099 22.1556 329.418 22.1556 329.418C21.8673 329.604 21.6636 329.897 21.5894 330.234C21.5152 330.57 21.5763 330.923 21.7596 331.214C21.8504 331.359 21.9686 331.484 22.1073 331.582C22.2459 331.68 22.4025 331.75 22.5679 331.787C22.7333 331.824 22.9044 331.828 23.0713 331.799C23.2383 331.769 23.3978 331.707 23.5408 331.615C23.5408 331.615 30.2514 327.333 34.9008 325.428C35.2178 325.298 35.4706 325.047 35.6037 324.729C35.7368 324.411 35.7394 324.053 35.6107 323.733C35.482 323.413 35.2326 323.158 34.9175 323.024C34.6024 322.889 34.2473 322.887 33.9303 323.016Z" fill="#333333"/>
<path d="M61.6066 343.285C61.6066 343.285 55.3959 345.788 48.1788 349.491C40.9617 353.195 32.7406 358.017 28.4684 363.116C28.2478 363.38 28.14 363.721 28.1686 364.065C28.1972 364.409 28.36 364.727 28.621 364.95C28.7503 365.06 28.9 365.144 29.0614 365.196C29.2228 365.248 29.3928 365.268 29.5617 365.254C29.7306 365.239 29.895 365.192 30.0457 365.114C30.1963 365.035 30.3302 364.928 30.4397 364.797C34.1522 360.366 42.2455 355.456 49.3481 351.812C56.4506 348.167 62.5642 345.703 62.5642 345.703C62.8819 345.575 63.1362 345.325 63.2712 345.008C63.4062 344.691 63.4109 344.333 63.2842 344.012C63.2214 343.853 63.1282 343.708 63.0099 343.586C62.8915 343.463 62.7504 343.365 62.5946 343.298C62.4388 343.23 62.2714 343.195 62.1019 343.192C61.9323 343.19 61.764 343.222 61.6066 343.285Z" fill="#333333"/>
<path d="M67.4804 367.61C67.2129 367.395 66.8716 367.296 66.5316 367.334C66.1916 367.373 65.8808 367.547 65.6675 367.816L61.9883 372.473C61.775 372.743 61.6768 373.088 61.7152 373.431C61.7535 373.774 61.9253 374.087 62.1928 374.303C62.4603 374.518 62.8017 374.617 63.1416 374.578C63.4816 374.54 63.7924 374.366 64.0057 374.096L67.6849 369.439C67.8981 369.169 67.9964 368.825 67.958 368.482C67.9197 368.139 67.7479 367.825 67.4804 367.61Z" fill="#333333"/>
<path d="M173.752 335.056C173.587 335.018 173.416 335.014 173.249 335.044C173.082 335.073 172.922 335.136 172.779 335.227L170.037 336.982C169.894 337.074 169.77 337.193 169.673 337.333C169.575 337.473 169.506 337.631 169.469 337.798C169.432 337.965 169.428 338.137 169.457 338.306C169.486 338.474 169.548 338.635 169.638 338.78C169.729 338.924 169.847 339.049 169.986 339.147C170.125 339.246 170.281 339.315 170.447 339.353C170.612 339.39 170.783 339.394 170.95 339.365C171.117 339.335 171.277 339.273 171.42 339.181L174.161 337.426C174.305 337.334 174.429 337.215 174.526 337.075C174.624 336.935 174.693 336.777 174.73 336.61C174.767 336.443 174.771 336.271 174.742 336.102C174.713 335.934 174.651 335.773 174.56 335.628C174.377 335.337 174.086 335.131 173.752 335.056Z" fill="#333333"/>
<path d="M201.625 348.42L180.827 359.989C180.528 360.156 180.306 360.436 180.211 360.768C180.116 361.099 180.155 361.455 180.32 361.758C180.486 362.06 180.763 362.284 181.092 362.379C181.42 362.475 181.773 362.436 182.073 362.269L202.87 350.702C203.019 350.619 203.15 350.508 203.256 350.374C203.362 350.241 203.44 350.087 203.487 349.923C203.535 349.759 203.549 349.586 203.53 349.416C203.511 349.246 203.459 349.082 203.377 348.932C203.212 348.63 202.935 348.406 202.606 348.31C202.277 348.214 201.924 348.254 201.625 348.42Z" fill="#333333"/>
<path d="M200.547 395.611C200.205 395.599 199.873 395.725 199.622 395.96L195.133 400.187C194.882 400.422 194.735 400.748 194.723 401.093C194.712 401.438 194.836 401.774 195.069 402.026C195.303 402.278 195.626 402.427 195.968 402.439C196.309 402.451 196.642 402.325 196.892 402.09L201.382 397.865C201.632 397.629 201.78 397.304 201.792 396.959C201.804 396.614 201.68 396.278 201.447 396.025C201.331 395.9 201.192 395.799 201.038 395.728C200.883 395.657 200.717 395.617 200.547 395.611Z" fill="#333333"/>
<path d="M187.239 101.878C187.073 101.844 186.902 101.844 186.735 101.877C186.569 101.91 186.411 101.976 186.27 102.071C185.985 102.263 185.788 102.56 185.72 102.899C185.653 103.237 185.722 103.589 185.911 103.876C188.382 107.619 193.069 109.184 199.747 108.13C199.914 108.104 200.075 108.044 200.22 107.955C200.364 107.866 200.49 107.749 200.59 107.611C200.69 107.473 200.762 107.316 200.802 107.15C200.842 106.984 200.849 106.811 200.822 106.642C200.769 106.301 200.584 105.996 200.308 105.792C200.031 105.589 199.686 105.505 199.348 105.558C193.197 106.529 189.909 105.236 188.058 102.433C187.869 102.146 187.574 101.946 187.239 101.878Z" fill="#333333"/>
<path d="M198.354 78.7619C198.19 78.8036 198.035 78.8776 197.899 78.9796C197.763 79.0817 197.648 79.2099 197.562 79.3567C197.475 79.5035 197.417 79.6661 197.393 79.8353C197.368 80.0045 197.377 80.1769 197.418 80.3427C198.405 84.2981 200.025 87.3696 202.339 89.4734C204.652 91.5772 207.63 92.6411 211.029 92.7092C211.198 92.7127 211.367 92.6825 211.525 92.6202C211.682 92.558 211.827 92.465 211.949 92.3465C212.071 92.2281 212.169 92.0864 212.237 91.9297C212.305 91.773 212.342 91.6045 212.345 91.4335C212.348 91.2625 212.318 91.0926 212.257 90.9333C212.195 90.774 212.103 90.6285 211.985 90.5052C211.868 90.3819 211.728 90.283 211.572 90.2144C211.417 90.1459 211.25 90.1089 211.081 90.1055C208.168 90.0467 205.897 89.2023 204.067 87.538C202.236 85.8737 200.82 83.3168 199.919 79.7063C199.836 79.3717 199.624 79.0843 199.33 78.9072C199.037 78.7301 198.686 78.6778 198.354 78.7619Z" fill="#333333"/>
<path d="M191.307 69.3266C190.223 69.4455 189.544 70.2759 189.119 71.126C188.695 71.9762 188.423 73.0064 188.23 74.2212C187.844 76.6509 187.81 79.8132 188.182 83.2634C188.553 86.7135 189.26 89.7932 190.154 92.0824C190.602 93.227 191.086 94.1757 191.682 94.914C192.277 95.6523 193.117 96.316 194.201 96.1971C195.285 96.0782 195.964 95.2479 196.389 94.3978C196.813 93.5476 197.084 92.5159 197.278 91.3011C197.664 88.8715 197.698 85.7105 197.326 82.2604C196.955 78.8102 196.248 75.729 195.354 73.4399C194.906 72.2954 194.421 71.3481 193.826 70.6098C193.231 69.8715 192.391 69.2078 191.307 69.3266ZM191.584 71.8978C191.411 71.9168 191.512 71.8376 191.838 72.2426C192.164 72.6474 192.583 73.4013 192.969 74.3899C193.742 76.3671 194.427 79.2801 194.778 82.5399C195.129 85.7996 195.08 88.7933 194.746 90.8918C194.58 91.9411 194.332 92.768 194.099 93.234C193.867 93.7001 193.751 93.6435 193.924 93.6245C194.097 93.6055 193.997 93.6861 193.671 93.281C193.345 92.8762 192.927 92.1223 192.54 91.1337C191.768 89.1566 191.081 86.2437 190.73 82.9839C190.379 79.724 190.429 76.7304 190.763 74.6318C190.93 73.5826 191.178 72.7555 191.41 72.2896C191.643 71.8235 191.757 71.8788 191.584 71.8978Z" fill="#333333"/>
<path d="M200.682 67.9235C199.836 68.0162 199.267 68.6148 198.928 69.1891C198.589 69.7633 198.379 70.4165 198.216 71.171C197.89 72.68 197.781 74.6018 197.887 76.7621C197.895 76.9321 197.936 77.0987 198.008 77.2525C198.08 77.4063 198.181 77.5443 198.306 77.6586C198.431 77.7729 198.577 77.8612 198.736 77.9185C198.895 77.9759 199.063 78.0012 199.231 77.9928C199.4 77.9844 199.565 77.9425 199.717 77.8697C199.87 77.7968 200.006 77.6943 200.12 77.5682C200.233 77.442 200.32 77.2947 200.377 77.1345C200.433 76.9742 200.458 76.8042 200.45 76.6343C200.353 74.6449 200.473 72.8893 200.725 71.7246C200.811 71.3262 200.909 71.1275 201.004 70.8978C201.205 71.1938 201.437 71.5735 201.674 72.1794C202.241 73.633 202.756 75.8099 203.019 78.2442C203.281 80.6786 203.242 82.9159 202.997 84.4587C202.891 85.1264 202.739 85.5786 202.601 85.9088C202.579 85.8768 202.568 85.8679 202.545 85.8318C202.36 85.544 202.068 85.3424 201.735 85.2713C201.402 85.2002 201.055 85.2653 200.77 85.4525C200.485 85.6399 200.285 85.9339 200.214 86.2699C200.144 86.6058 200.208 86.9562 200.394 87.2441C200.55 87.4867 200.714 87.7188 200.915 87.9401C200.918 87.9426 200.92 87.9451 200.923 87.9475C201.381 88.4469 202.08 88.9269 202.936 88.8339C203.909 88.7271 204.49 87.9898 204.834 87.3009C205.177 86.612 205.385 85.8085 205.533 84.8715C205.831 82.9976 205.855 80.5918 205.572 77.9668C205.29 75.3419 204.754 72.9979 204.065 71.2322C203.72 70.3493 203.346 69.6103 202.864 69.012C202.382 68.4136 201.657 67.8198 200.684 67.9266L200.682 67.9235Z" fill="#333333"/>
<path d="M209.492 21.5659C206.259 21.5324 203.357 23.0687 200.851 25.5151C198.344 27.962 196.153 31.333 194.122 35.2619C193.026 37.3749 191.491 40.0026 189.092 41.6304C186.692 43.2584 183.426 44.0542 178.223 42.2653C172.692 40.3638 168.18 39.1516 164.22 38.8537C160.26 38.5559 156.822 39.2146 153.72 41.0332C150.753 42.7657 144.693 47.4261 144.487 57.2632C141.204 56.9193 130.514 56.4457 124.681 64.7419C124.025 65.6786 120.997 69.6639 119.411 75.9794C117.825 82.295 117.621 91.0674 122.182 101.833C123.004 103.767 125.689 109.314 130.633 114.161C135.577 119.009 142.901 123.131 152.577 121.795C155.72 121.362 158.081 119.722 159.651 117.731C161.221 115.74 162.052 113.423 162.348 111.414C162.5 110.391 162.582 109.568 161.99 108.749C161.694 108.34 161.192 108.065 160.773 107.986C160.354 107.908 160.009 107.953 159.69 108.015C158.415 108.264 157.224 108.881 156.036 109.012C153.87 109.257 151.669 108.277 149.841 106.645C148.012 105.013 146.633 102.744 146.157 100.864C145.495 98.2461 145.209 95.4125 145.568 93.4677C145.748 92.4953 146.079 91.776 146.48 91.3463C146.881 90.9166 147.337 90.6809 148.203 90.6809C150.687 90.6809 152.997 91.913 154.855 93.4241C156.713 94.9353 158.08 96.6946 158.64 97.4867C159.605 98.8418 161.34 99.4356 162.911 98.7988C163.697 98.4804 164.393 97.7997 164.762 96.8968C165.131 95.994 165.21 94.905 165.011 93.6232C164.604 91.0135 163.052 87.4805 162.707 84.183C162.535 82.5343 162.659 81.0208 163.246 79.7775C163.832 78.5346 164.859 77.4712 166.877 76.6681C171.835 74.7009 178.662 71.6073 185.335 69.5745C192.008 67.5417 198.468 66.7001 202.459 68.6664C203.896 69.3748 205.494 69.7667 207.257 69.5077C209.02 69.2487 210.892 68.3954 213.119 66.8516C215.417 65.2564 219.413 61.7037 222.786 57.1703C226.159 52.6368 228.951 47.1044 228.213 41.5534C226.815 31.0452 219.071 21.6494 209.496 21.5586L209.492 21.5659ZM209.466 24.1696C217.334 24.2433 224.394 32.4642 225.65 41.9079C226.239 46.3404 223.886 51.3561 220.718 55.6141C217.55 59.8721 213.608 63.3546 211.652 64.7128C209.618 66.1224 208.092 66.7607 206.88 66.9388C205.668 67.1168 204.715 66.8904 203.587 66.3343C198.428 63.7924 191.483 64.9868 184.585 67.0885C177.686 69.1901 170.776 72.3296 165.928 74.2532C163.431 75.2466 161.78 76.8235 160.911 78.666C160.042 80.5084 159.934 82.5269 160.137 84.4649C160.542 88.3408 162.171 92.1954 162.458 94.0344C162.605 94.9807 162.505 95.5842 162.371 95.9117C162.238 96.2391 162.106 96.3249 161.947 96.3897C161.627 96.5192 160.992 96.3376 160.733 95.9742C160.077 95.0471 158.599 93.1333 156.468 91.4001C154.335 89.6658 151.509 88.0814 148.198 88.0814C146.749 88.0814 145.464 88.6365 144.596 89.565C143.729 90.4935 143.264 91.7007 143.026 92.9955C142.548 95.585 142.928 98.6536 143.652 101.512C144.29 104.035 145.913 106.623 148.127 108.599C150.34 110.575 153.219 111.953 156.315 111.604C157.891 111.43 159.161 110.892 159.846 110.684C159.856 110.814 159.846 110.67 159.794 111.033C159.56 112.617 158.861 114.555 157.631 116.114C156.402 117.674 154.693 118.879 152.226 119.219C143.418 120.435 136.996 116.775 132.429 112.297C127.862 107.819 125.27 102.497 124.552 100.808C120.201 90.5365 120.451 82.4376 121.911 76.6202C123.372 70.8035 125.982 67.3943 126.786 66.2472C132.54 58.0662 145.518 59.9745 145.518 59.9745C145.707 60.0046 145.9 59.992 146.083 59.9377C146.266 59.8834 146.435 59.7888 146.578 59.6607C146.72 59.5326 146.833 59.374 146.907 59.1966C146.982 59.0193 147.017 58.8274 147.009 58.6349C146.61 48.7865 152.217 44.9176 155.013 43.2854C157.647 41.7414 160.443 41.1823 164.025 41.4517C167.607 41.7211 171.947 42.8608 177.386 44.7311C183.154 46.7139 187.499 45.8469 190.528 43.7924C193.556 41.738 195.266 38.6636 196.404 36.4693C198.361 32.6836 200.451 29.5271 202.641 27.3895C204.83 25.2518 207.041 24.1471 209.462 24.1725L209.466 24.1696Z" fill="#333333"/>
<path fill-rule="evenodd" clip-rule="evenodd" d="M161.743 86.3331L150.787 89.7476C149.962 89.517 149.092 89.3831 148.2 89.3831C143.569 89.3831 143.518 95.7141 144.904 101.189C146.017 105.594 150.913 110.905 156.177 110.31C159.141 109.983 161.603 107.632 161.072 111.225C160.541 114.818 158.013 119.736 152.402 120.51C133.919 123.061 124.909 104.946 123.368 101.323C114.455 80.2848 124.275 67.5784 125.735 65.4953C132.053 56.5086 145.722 58.6882 145.722 58.6882C145.302 48.3103 151.414 43.8839 154.371 42.1579C160.107 38.7953 166.838 39.7253 177.808 43.4971C188.779 47.2688 193.033 40.1716 195.267 35.8643C199.255 28.1496 203.827 22.8082 209.481 22.8677C218.203 22.9495 225.605 31.7576 226.933 41.7338C228.26 51.7175 216.64 62.832 212.386 65.7854C208.125 68.7388 205.589 68.7686 203.023 67.5039C193.873 62.9957 176.208 71.5732 166.403 75.464C161.05 77.5991 160.859 82.0926 161.743 86.3331Z" fill="#333333"/>
<path d="M188.835 76.5192L150.402 88.5035C150.24 88.5539 150.09 88.6361 149.959 88.7453C149.829 88.8544 149.721 88.9883 149.641 89.1396C149.562 89.2909 149.513 89.4566 149.498 89.6269C149.482 89.7972 149.5 89.9689 149.55 90.1324C149.6 90.2957 149.681 90.4474 149.79 90.579C149.898 90.7105 150.031 90.8193 150.181 90.899C150.331 90.9787 150.495 91.028 150.663 91.0438C150.832 91.0595 151.002 91.0417 151.164 90.9911L189.597 79.0067C189.759 78.9563 189.91 78.8741 190.04 78.765C190.171 78.6558 190.279 78.5217 190.358 78.3705C190.437 78.2192 190.486 78.0537 190.502 77.8834C190.517 77.713 190.5 77.5413 190.449 77.3779C190.399 77.2145 190.318 77.0628 190.21 76.9313C190.101 76.7997 189.968 76.6908 189.819 76.6111C189.669 76.5313 189.505 76.4823 189.336 76.4665C189.167 76.4507 188.997 76.4686 188.835 76.5192Z" fill="#333333"/>
<path d="M159.175 114.783C159.005 114.791 158.839 114.833 158.686 114.907C158.533 114.98 158.396 115.083 158.282 115.21C158.053 115.466 157.934 115.804 157.951 116.148C157.968 116.493 158.12 116.817 158.374 117.048C158.374 117.048 159.541 118.094 160.486 120.386C161.432 122.677 162.095 126.115 160.763 130.86C160.67 131.193 160.711 131.549 160.878 131.85C161.045 132.151 161.324 132.373 161.653 132.467C161.982 132.561 162.335 132.52 162.633 132.351C162.932 132.183 163.152 131.902 163.245 131.569C164.73 126.279 164.009 122.15 162.868 119.385C161.727 116.619 160.105 115.117 160.105 115.117C159.851 114.886 159.516 114.765 159.175 114.783Z" fill="#333333"/>
<path d="M205.047 96.2601C204.725 96.3774 204.462 96.619 204.317 96.9315C204.172 97.2441 204.156 97.602 204.272 97.9267C206.719 104.765 204.09 113.784 197.998 119.6C191.905 125.416 182.567 128.136 171.213 122.481C170.906 122.328 170.552 122.305 170.228 122.416C169.903 122.526 169.636 122.763 169.485 123.072C169.41 123.226 169.365 123.392 169.354 123.563C169.343 123.734 169.366 123.905 169.42 124.067C169.474 124.228 169.56 124.378 169.671 124.507C169.783 124.635 169.919 124.74 170.071 124.816C182.243 130.878 192.99 127.964 199.77 121.491C206.551 115.019 209.581 105.097 206.698 97.0418C206.582 96.7171 206.342 96.4524 206.033 96.3058C205.723 96.1592 205.368 96.1428 205.047 96.2601Z" fill="#333333"/>
<path d="M166.746 149.628C156.17 149.531 151.099 159.203 151.099 159.203C150.939 159.508 150.906 159.865 151.006 160.195C151.107 160.525 151.334 160.801 151.636 160.963C151.939 161.124 152.292 161.158 152.619 161.056C152.946 160.954 153.22 160.726 153.38 160.421C153.38 160.421 157.716 152.15 166.721 152.231C173.144 152.294 184.652 156.105 196.386 164.241C198.264 165.542 202.401 168.481 206.983 170.993C211.565 173.504 216.535 175.711 220.683 175.195C227.495 174.354 236.009 175.263 236.009 175.263C236.084 175.272 236.159 175.275 236.235 175.271C236.235 175.271 237.539 175.068 238.915 176.785C240.281 178.489 241.657 182.472 240.343 191.261C240.22 191.355 239.926 191.52 239.505 191.681C238.662 192.002 237.325 192.327 235.676 192.606C232.377 193.165 227.806 193.575 222.844 193.875C217.565 194.198 209.201 196.397 198.107 194.285C187.013 192.173 173.253 185.778 157.713 168.594C157.599 168.468 157.461 168.365 157.307 168.293C157.154 168.22 156.988 168.179 156.819 168.171C156.649 168.163 156.48 168.189 156.321 168.247C156.161 168.305 156.015 168.395 155.89 168.51C155.765 168.625 155.663 168.764 155.591 168.919C155.519 169.074 155.478 169.241 155.47 169.412C155.463 169.583 155.488 169.754 155.546 169.914C155.604 170.075 155.692 170.223 155.806 170.349C171.644 187.863 185.978 194.626 197.628 196.843C209.277 199.061 218.304 196.761 223 196.474C228.006 196.172 232.628 195.763 236.105 195.174C237.844 194.879 239.289 194.549 240.419 194.118C240.984 193.902 241.473 193.667 241.907 193.334C242.34 193.002 242.774 192.512 242.88 191.817C244.299 182.522 242.969 177.701 240.922 175.147C238.875 172.593 236.062 172.674 236.062 172.674L236.288 172.682C236.288 172.682 227.654 171.717 220.369 172.616C217.469 172.977 212.629 171.129 208.217 168.71C203.805 166.292 199.763 163.426 197.851 162.101C185.787 153.737 174.114 149.706 166.75 149.634L166.746 149.628Z" fill="#333333"/>
<path d="M172.251 137.418C171.912 137.369 171.568 137.458 171.294 137.665C171.021 137.872 170.839 138.18 170.791 138.521C170.766 138.691 170.775 138.863 170.817 139.029C170.859 139.194 170.933 139.35 171.034 139.487C171.136 139.624 171.263 139.739 171.409 139.827C171.554 139.914 171.716 139.972 171.884 139.996C171.884 139.996 174.528 140.403 176.756 142.285C178.984 144.166 180.896 147.333 179.258 153.837C179.216 154.003 179.207 154.175 179.231 154.345C179.256 154.514 179.313 154.677 179.4 154.824C179.486 154.971 179.601 155.099 179.736 155.201C179.872 155.303 180.027 155.378 180.191 155.42C180.522 155.505 180.874 155.453 181.168 155.277C181.462 155.101 181.674 154.814 181.759 154.48C183.578 147.259 181.27 142.7 178.412 140.287C175.555 137.874 172.251 137.418 172.251 137.418Z" fill="#333333"/>
<path d="M165.689 134.59C147.807 139.727 136.658 160.06 131.804 168.667C125.259 180.273 122.391 192.669 121.519 203.403C120.647 214.136 121.748 223.171 123.278 228.294C124.812 233.442 127.661 236.455 131.141 237.525C134.622 238.595 138.495 237.799 142.261 236.134C162.47 227.209 173.177 214.238 176.768 209.877C178.791 207.417 179.542 204.432 179.536 201.678C179.529 198.924 178.804 196.38 177.704 194.549C176.962 193.313 176.444 190.975 176.21 189.012C175.975 187.05 175.968 185.473 175.968 185.473C175.967 185.302 175.933 185.132 175.867 184.975C175.802 184.817 175.706 184.674 175.586 184.554C175.466 184.433 175.323 184.338 175.166 184.273C175.009 184.209 174.841 184.176 174.672 184.176C174.33 184.178 174.002 184.317 173.761 184.562C173.52 184.807 173.386 185.139 173.387 185.484C173.387 185.484 173.395 187.203 173.648 189.324C173.902 191.446 174.346 193.981 175.498 195.899C176.294 197.223 176.951 199.407 176.956 201.684C176.963 203.96 176.351 206.308 174.783 208.215C171.193 212.573 160.903 225.059 141.225 233.75C137.788 235.27 134.5 235.836 131.893 235.034C129.286 234.233 127.119 232.143 125.749 227.546C124.366 222.915 123.245 214.049 124.093 203.618C124.94 193.186 127.734 181.155 134.047 169.959C138.91 161.336 149.997 141.808 166.398 137.096C166.727 137.002 167.005 136.779 167.171 136.477C167.338 136.176 167.378 135.82 167.285 135.488C167.191 135.156 166.97 134.875 166.671 134.707C166.372 134.539 166.02 134.498 165.691 134.593L165.689 134.59Z" fill="#333333"/>
<path d="M174.752 210.273C174.752 210.273 196.155 200.363 209.146 198.578C222.129 196.8 279.378 196.807 288.933 197.016C298.496 197.217 300.597 200.601 300.73 205.229C300.862 209.863 298.864 218.85 292.347 225.226C290.917 226.624 285.638 228.246 275.928 228.983C266.218 229.719 238.991 230.999 232.429 231.921C225.86 232.844 222.21 240.224 219.372 244.248C215.723 249.449 201.995 266.395 173.359 268.91C160.339 270.048 140.632 268.999 131.445 236.251C134.505 237.226 138.118 236.549 141.745 234.942C160.051 226.855 170.403 215.458 174.752 210.273Z" fill="#333333"/>
<path d="M288.96 195.715C284.126 195.61 267.452 195.556 250.311 195.75C233.169 195.945 215.714 196.366 208.972 197.289C195.536 199.136 174.213 209.09 174.213 209.09C174.042 209.17 173.889 209.286 173.767 209.432C169.467 214.557 159.29 225.77 141.228 233.749C137.767 235.282 134.453 235.843 131.835 235.009C131.613 234.938 131.376 234.929 131.15 234.983C130.923 235.037 130.715 235.152 130.548 235.316C130.381 235.479 130.261 235.686 130.201 235.912C130.14 236.139 130.142 236.378 130.205 236.604C134.863 253.21 142.309 262.033 150.35 266.431C158.391 270.83 166.872 270.783 173.472 270.206C202.567 267.652 216.654 250.373 220.424 245.003C223.391 240.795 226.903 234.014 232.605 233.213C235.725 232.774 244.235 232.211 253.071 231.684C261.907 231.157 271.132 230.653 276.021 230.282C280.929 229.91 284.737 229.315 287.547 228.619C290.357 227.922 292.136 227.244 293.242 226.163C300.1 219.454 302.161 210.254 302.016 205.193C301.944 202.69 301.269 200.199 299.186 198.461C297.104 196.724 293.887 195.82 288.958 195.717L288.96 195.715ZM288.905 198.318C293.537 198.415 296.151 199.305 297.543 200.467C298.935 201.628 299.377 203.143 299.438 205.267C299.559 209.476 297.624 218.249 291.447 224.291C291.121 224.609 289.546 225.441 286.932 226.089C284.318 226.737 280.632 227.32 275.83 227.684C271.009 228.05 261.765 228.556 252.92 229.083C244.075 229.611 235.691 230.149 232.249 230.632C224.814 231.676 221.028 239.653 218.319 243.494C214.787 248.527 201.42 265.138 173.247 267.611C166.827 268.173 158.943 268.171 151.578 264.143C144.54 260.293 137.86 252.661 133.327 237.908C136.208 238.189 139.267 237.46 142.262 236.133C160.577 228.043 171.012 216.7 175.509 211.366C175.888 211.192 196.883 201.577 209.317 199.868C215.558 199.013 233.221 198.548 250.338 198.354C267.455 198.16 284.181 198.215 288.903 198.317L288.905 198.318Z" fill="#333333"/>
<path d="M318.486 193.413C316.83 193.497 314.977 194.265 312.633 195.835C310.653 197.167 307.361 198.287 304.615 199.005C301.869 199.723 299.677 200.073 299.677 200.073C299.51 200.1 299.35 200.16 299.205 200.249C299.061 200.338 298.935 200.455 298.835 200.594C298.736 200.732 298.664 200.889 298.625 201.055C298.585 201.221 298.578 201.394 298.605 201.563C298.658 201.904 298.844 202.209 299.121 202.412C299.397 202.615 299.743 202.699 300.081 202.645C300.081 202.645 302.389 202.277 305.262 201.526C308.133 200.775 311.575 199.676 314.063 198.003C316.193 196.576 317.693 196.061 318.617 196.014C319.542 195.966 319.958 196.229 320.459 196.813C320.69 197.08 320.983 198.24 320.638 199.69C320.293 201.139 319.427 202.804 318.009 204.119C314.651 207.237 304.474 217.776 302.74 219.577C301.937 220.414 300.701 221.341 299.713 221.582C299.219 221.703 298.821 221.684 298.42 221.507C298.02 221.329 297.559 220.957 297.074 220.126C296.988 219.979 296.874 219.85 296.739 219.747C296.603 219.644 296.449 219.569 296.285 219.527C296.121 219.484 295.95 219.474 295.782 219.498C295.615 219.522 295.453 219.579 295.307 219.666C295.161 219.752 295.034 219.867 294.932 220.004C294.83 220.141 294.755 220.296 294.713 220.462C294.671 220.627 294.661 220.8 294.684 220.969C294.708 221.138 294.765 221.301 294.851 221.449C295.538 222.626 296.401 223.455 297.382 223.891C298.364 224.327 299.406 224.335 300.32 224.112C302.145 223.667 303.589 222.434 304.592 221.389C306.31 219.603 316.624 208.943 319.755 206.035C321.58 204.344 322.683 202.253 323.149 200.296C323.615 198.34 323.562 196.443 322.409 195.104C321.531 194.082 320.142 193.325 318.486 193.41V193.413Z" fill="#333333"/>
<path d="M305.078 217.988C304.912 217.957 304.741 217.96 304.575 217.996C304.409 218.032 304.252 218.101 304.113 218.198C303.974 218.295 303.855 218.419 303.763 218.563C303.671 218.707 303.608 218.867 303.578 219.036L278.24 359.987L220.67 390.215L217.389 265.418C217.686 264.969 220.043 261.418 223.928 257.008C228.066 252.312 233.722 247.005 239.51 244.502C239.666 244.435 239.807 244.337 239.925 244.215C240.044 244.092 240.137 243.948 240.2 243.789C240.263 243.63 240.294 243.46 240.292 243.289C240.289 243.118 240.254 242.949 240.187 242.792C240.052 242.475 239.798 242.224 239.481 242.096C239.163 241.968 238.808 241.972 238.494 242.108C232.065 244.887 226.264 250.437 221.999 255.278C217.733 260.119 215.009 264.305 215.009 264.305C214.864 264.528 214.79 264.789 214.797 265.055L218.145 392.366C218.151 392.586 218.213 392.802 218.324 392.992C218.435 393.182 218.592 393.341 218.78 393.453C218.969 393.565 219.182 393.626 219.401 393.632C219.62 393.638 219.836 393.588 220.03 393.486L279.992 362.002C280.167 361.911 280.319 361.78 280.435 361.62C280.552 361.46 280.631 361.275 280.666 361.08L306.116 219.5C306.177 219.161 306.102 218.811 305.907 218.527C305.713 218.244 305.415 218.05 305.078 217.988Z" fill="#333333"/>
<path d="M291.073 175.583C289.3 175.377 287.645 175.765 286.226 176.139C283.669 176.82 277.263 177.791 277.263 177.791C277.095 177.816 276.934 177.874 276.788 177.962C276.643 178.049 276.516 178.165 276.415 178.302C276.314 178.44 276.24 178.596 276.199 178.762C276.158 178.927 276.149 179.1 276.174 179.269C276.199 179.438 276.256 179.601 276.343 179.747C276.431 179.894 276.546 180.022 276.682 180.124C276.818 180.226 276.973 180.3 277.137 180.341C277.301 180.383 277.472 180.391 277.64 180.366C277.64 180.366 283.908 179.449 286.882 178.657H286.889C288.234 178.303 289.579 178.029 290.784 178.169C291.991 178.309 293.089 178.78 294.246 180.203C295.516 181.771 296.379 183.411 296.466 184.179C296.51 184.562 296.474 184.608 296.364 184.711C296.258 184.813 295.869 185.034 294.986 185.085C294.644 185.105 294.325 185.261 294.097 185.519C293.869 185.777 293.752 186.115 293.772 186.46C293.792 186.804 293.946 187.127 294.202 187.357C294.457 187.587 294.793 187.704 295.134 187.685C296.371 187.613 297.4 187.312 298.145 186.595C298.89 185.878 299.134 184.806 299.029 183.882C298.82 182.035 297.656 180.297 296.243 178.554C294.716 176.674 292.854 175.79 291.081 175.584L291.073 175.583Z" fill="#333333"/>
<path d="M290.982 180.26C290.859 180.142 290.715 180.049 290.557 179.987C290.399 179.925 290.231 179.895 290.061 179.899C289.892 179.902 289.725 179.94 289.57 180.008C289.415 180.077 289.274 180.176 289.157 180.3C289.04 180.423 288.948 180.569 288.886 180.728C288.825 180.887 288.795 181.057 288.798 181.228C288.802 181.399 288.838 181.568 288.906 181.724C288.975 181.881 289.073 182.022 289.195 182.141C289.195 182.141 290.306 183.216 291.536 184.476C292.766 185.735 294.173 187.298 294.48 187.77C294.871 188.373 294.999 188.87 295.005 189.121C295.013 189.372 294.985 189.312 294.998 189.301C294.995 189.301 294.993 189.301 294.99 189.301C295.024 189.278 295.007 189.358 294.596 189.21C294.186 189.061 293.51 188.651 292.692 187.905C290.934 186.29 287.239 182.681 287.239 182.681C287.117 182.562 286.973 182.469 286.816 182.406C286.658 182.343 286.49 182.312 286.32 182.315C286.151 182.318 285.984 182.354 285.828 182.422C285.673 182.49 285.532 182.589 285.415 182.712C285.297 182.835 285.204 182.979 285.141 183.138C285.079 183.297 285.048 183.467 285.051 183.638C285.054 183.809 285.09 183.978 285.157 184.135C285.224 184.292 285.321 184.434 285.443 184.553C285.443 184.553 289.118 188.143 290.958 189.833C291.938 190.728 292.828 191.334 293.724 191.659C294.62 191.984 295.648 191.998 296.44 191.456C297.221 190.924 297.604 189.958 297.582 189.056C297.561 188.152 297.223 187.246 296.635 186.34C295.961 185.302 294.632 183.935 293.372 182.645C292.112 181.355 290.978 180.258 290.978 180.258L290.982 180.26Z" fill="#333333"/>
<path d="M281.618 184.892C281.487 184.783 281.337 184.7 281.175 184.65C281.013 184.599 280.843 184.582 280.674 184.597C280.505 184.613 280.341 184.663 280.191 184.743C280.041 184.822 279.909 184.931 279.8 185.063C279.692 185.195 279.611 185.347 279.561 185.51C279.511 185.674 279.494 185.845 279.51 186.016C279.526 186.186 279.575 186.352 279.654 186.503C279.733 186.654 279.841 186.788 279.972 186.897C279.972 186.897 281.752 188.386 283.835 190.028C285.918 191.67 288.18 193.423 289.664 194.176C291.144 194.933 292.858 194.94 293.882 193.842C294.906 192.744 294.921 191.102 294.318 189.441C294.26 189.28 294.171 189.133 294.056 189.007C293.941 188.881 293.803 188.78 293.649 188.708C293.496 188.636 293.329 188.595 293.16 188.588C292.991 188.581 292.821 188.608 292.662 188.667C292.503 188.725 292.357 188.815 292.232 188.931C292.108 189.047 292.007 189.186 291.936 189.342C291.864 189.497 291.824 189.665 291.817 189.836C291.81 190.006 291.836 190.177 291.895 190.338C292.302 191.459 292.07 191.986 292.003 192.058C291.936 192.129 291.717 192.307 290.831 191.853C290.828 191.853 290.826 191.853 290.823 191.853C289.933 191.401 287.471 189.595 285.422 187.979C283.373 186.363 281.615 184.895 281.615 184.895L281.618 184.892Z" fill="#333333"/>
<path d="M257.875 183.663C256.833 183.684 255.769 183.774 254.697 183.937C251.277 184.463 241.921 185.834 241.921 185.834C241.583 185.883 241.278 186.067 241.073 186.343C240.868 186.62 240.781 186.967 240.83 187.308C240.879 187.65 241.06 187.958 241.334 188.164C241.608 188.371 241.953 188.459 242.291 188.41C242.291 188.41 251.63 187.043 255.083 186.512C258.905 185.93 262.739 186.481 264.99 187.561C267.795 188.915 272.288 190.363 275.474 189.883C275.618 189.862 276.297 189.973 277.106 190.357C277.914 190.74 278.864 191.327 279.787 191.952C280.71 192.578 281.61 193.241 282.37 193.79C283.131 194.34 283.609 194.744 284.294 195.024C285.18 195.384 286.394 195.697 287.728 195.355C288.396 195.185 289.187 194.709 289.527 193.867C289.867 193.026 289.724 192.111 289.33 191.157C289.264 191 289.169 190.856 289.049 190.736C288.929 190.615 288.786 190.52 288.63 190.455C288.473 190.39 288.305 190.356 288.136 190.357C287.966 190.357 287.798 190.391 287.642 190.457C287.486 190.523 287.344 190.619 287.224 190.74C287.104 190.861 287.01 191.005 286.945 191.163C286.881 191.322 286.848 191.491 286.848 191.662C286.849 191.833 286.883 192.002 286.948 192.16C287.195 192.758 287.11 192.951 287.137 192.885C287.163 192.819 287.271 192.786 287.094 192.831C286.743 192.922 285.638 192.762 285.261 192.609C285.32 192.633 284.612 192.209 283.869 191.672C283.125 191.135 282.202 190.452 281.222 189.789C280.243 189.125 279.212 188.479 278.2 187.999C277.187 187.519 276.206 187.138 275.089 187.306C273.234 187.585 268.469 186.356 266.098 185.21C263.905 184.157 261 183.6 257.876 183.663L257.875 183.663Z" fill="#333333"/>
<path d="M285.817 171.625C285.145 171.602 284.422 171.715 283.7 172.049C281.852 172.904 277.851 173.549 275.002 174.676C270.803 176.347 262.757 175.883 255.886 175.525C249.028 175.183 240.048 174.743 240.048 174.743C239.878 174.735 239.709 174.761 239.55 174.818C239.39 174.876 239.243 174.965 239.118 175.08C238.993 175.195 238.891 175.333 238.819 175.488C238.746 175.643 238.705 175.81 238.697 175.981C238.689 176.152 238.714 176.322 238.771 176.483C238.828 176.644 238.917 176.792 239.031 176.919C239.144 177.046 239.282 177.148 239.435 177.221C239.588 177.294 239.754 177.336 239.924 177.344C239.924 177.344 248.902 177.783 255.758 178.126C262.585 178.482 270.656 179.208 275.953 177.1C278.294 176.174 282.225 175.598 284.785 174.415C285.545 174.063 285.994 174.155 286.671 174.435C287.348 174.715 288.111 175.271 289.103 175.674C289.26 175.738 289.429 175.77 289.598 175.769C289.768 175.767 289.935 175.731 290.091 175.664C290.247 175.597 290.388 175.5 290.507 175.378C290.625 175.256 290.719 175.111 290.782 174.952C290.91 174.632 290.906 174.274 290.772 173.957C290.638 173.639 290.385 173.389 290.068 173.259C289.505 173.03 288.701 172.459 287.649 172.024C287.123 171.807 286.5 171.647 285.827 171.623L285.817 171.625Z" fill="#333333"/>
<path d="M395.876 138.588C369.994 138.86 356.311 139.336 347.954 140.338C339.597 141.339 336.447 142.967 332.298 145.266C329.826 146.637 322.337 151.269 312.738 157.275C303.138 163.282 291.494 170.627 280.95 177.294C280.66 177.477 280.455 177.769 280.378 178.106C280.302 178.442 280.361 178.795 280.543 179.088C280.725 179.38 281.014 179.588 281.347 179.665C281.681 179.742 282.031 179.683 282.321 179.499C292.863 172.834 304.505 165.491 314.099 159.488C323.692 153.486 331.302 148.788 333.541 147.548C337.672 145.257 340.136 143.898 348.259 142.924C356.382 141.951 370.044 141.464 395.904 141.192C397.147 141.178 398.109 141.301 398.71 141.513C399.312 141.726 399.522 141.932 399.675 142.28C399.98 142.977 399.784 145.038 398.15 148.563C393.622 158.329 390.803 163.709 388.435 167.086C386.066 170.463 384.182 171.881 381.145 173.982C378.233 175.999 358.588 188.689 339.815 200.773C321.042 212.856 303.034 224.412 303.034 224.412C302.891 224.503 302.767 224.622 302.669 224.762C302.572 224.902 302.503 225.06 302.466 225.227C302.429 225.394 302.425 225.567 302.454 225.735C302.484 225.903 302.545 226.065 302.636 226.209C302.727 226.353 302.845 226.478 302.984 226.576C303.123 226.674 303.279 226.744 303.445 226.781C303.61 226.818 303.781 226.822 303.948 226.792C304.115 226.763 304.275 226.7 304.418 226.608C304.418 226.608 322.429 215.053 341.203 202.968C359.978 190.883 379.406 178.346 382.605 176.13C385.688 173.997 387.988 172.232 390.543 168.59C393.097 164.948 395.941 159.474 400.489 149.666C402.224 145.923 402.962 143.342 402.037 141.229C401.574 140.172 400.629 139.431 399.564 139.055C398.499 138.679 397.285 138.573 395.878 138.588H395.876ZM266.964 186.154C257.865 191.92 251.566 195.931 251.566 195.931C251.277 196.116 251.072 196.408 250.997 196.745C250.921 197.082 250.982 197.435 251.164 197.727C251.347 198.019 251.637 198.226 251.971 198.302C252.305 198.378 252.655 198.317 252.944 198.132C252.944 198.132 259.239 194.124 268.336 188.36C268.48 188.269 268.604 188.15 268.702 188.011C268.8 187.871 268.87 187.713 268.908 187.547C268.946 187.38 268.95 187.207 268.922 187.038C268.893 186.87 268.832 186.708 268.742 186.564C268.56 186.271 268.27 186.064 267.937 185.987C267.603 185.91 267.253 185.97 266.964 186.154Z" fill="#333333"/>
<path fill-rule="evenodd" clip-rule="evenodd" d="M252.258 197.031C252.258 197.031 258.554 193.021 267.652 187.256Z" fill="#333333"/>
<path d="M185.095 141.773C184.955 141.675 184.798 141.607 184.633 141.57C184.467 141.534 184.296 141.531 184.129 141.562C183.962 141.593 183.803 141.656 183.661 141.749C183.518 141.842 183.396 141.962 183.299 142.102C183.105 142.386 183.03 142.736 183.091 143.076C183.153 143.415 183.345 143.716 183.626 143.913C183.626 143.913 189.641 148.114 196.741 152.821C203.841 157.528 211.954 162.718 216.481 164.826C225.446 168.998 236.133 169.592 241.771 171.106C247.873 172.747 258.66 174.263 266.298 173.833C273.76 173.405 279.723 172.473 279.723 172.473C280.061 172.42 280.364 172.234 280.566 171.955C280.768 171.677 280.852 171.329 280.8 170.988C280.774 170.819 280.716 170.657 280.628 170.51C280.54 170.364 280.424 170.237 280.287 170.136C280.15 170.035 279.995 169.962 279.83 169.921C279.665 169.881 279.495 169.874 279.327 169.9C279.327 169.9 273.48 170.813 266.153 171.234C259.001 171.637 248.172 170.132 242.433 168.589C236.216 166.919 225.891 166.337 217.561 162.46C213.446 160.544 205.228 155.333 198.158 150.646C191.088 145.959 185.095 141.773 185.095 141.773Z" fill="#333333"/>
<path fill-rule="evenodd" clip-rule="evenodd" d="M357.688 140.842C362.229 140.581 367.796 140.38 374.733 140.217C374.733 140.217 358.617 153.548 355.056 156.576C342.817 166.976 335.304 168.784 330.918 168.583C326.523 168.382 325.447 165.057 327.976 163.569C332.444 160.95 357.688 140.842 357.688 140.842Z" fill="#333333"/>
<path d="M127.349 305.534C127.059 305.35 126.71 305.29 126.376 305.366C126.043 305.442 125.753 305.649 125.57 305.941C125.57 305.941 117.847 318.297 109.471 332.573C101.096 346.849 92.0992 362.902 89.3881 370.899C89.0756 371.819 88.5964 372.641 88.1195 373.195C87.6624 373.726 87.2289 373.915 87.1403 373.939C87.1241 373.922 87.0923 373.907 87.0179 373.716C86.8288 373.229 86.6671 372.047 86.8566 370.181C87.2625 366.147 87.8688 356.604 88.4521 347.613C88.7438 343.118 89.0293 338.768 89.2772 335.345C89.5248 331.927 89.7619 329.313 89.8647 328.733C89.8647 328.718 90.3527 326.09 93.2271 322.303C96.1094 318.506 101.364 313.688 110.936 309.823C111.253 309.695 111.507 309.445 111.642 309.128C111.777 308.811 111.781 308.453 111.654 308.132C111.592 307.973 111.498 307.829 111.38 307.706C111.261 307.584 111.12 307.486 110.965 307.419C110.809 307.352 110.641 307.316 110.472 307.314C110.302 307.312 110.134 307.344 109.977 307.407C100.019 311.428 94.3431 316.55 91.178 320.72C88.0129 324.89 87.3303 328.243 87.3303 328.243C87.3278 328.249 87.3254 328.255 87.323 328.262C87.1344 329.319 86.9485 331.718 86.6995 335.156C86.4504 338.594 86.1661 342.947 85.8744 347.443C85.291 356.435 84.6765 366.037 84.2861 369.918C84.074 372.009 84.16 373.502 84.6116 374.666C84.8374 375.249 85.1784 375.768 85.68 376.127C86.1816 376.485 86.8236 376.623 87.3834 376.56C88.5031 376.432 89.335 375.751 90.0647 374.903C90.7943 374.056 91.4084 372.972 91.8258 371.743C94.305 364.43 103.335 348.14 111.689 333.901C120.042 319.662 127.749 307.331 127.749 307.331C127.839 307.187 127.901 307.025 127.929 306.857C127.958 306.688 127.953 306.516 127.916 306.349C127.879 306.182 127.809 306.025 127.711 305.885C127.613 305.745 127.489 305.626 127.346 305.535L127.349 305.534Z" fill="#333333"/>
<path d="M143.329 263.037C142.996 262.96 142.646 263.019 142.356 263.201C142.356 263.201 134.586 268.108 126.473 273.213C118.36 278.317 109.782 283.69 108.571 284.394C108.766 284.28 108.414 284.443 107.935 284.527C107.456 284.612 106.779 284.701 105.945 284.793C104.276 284.977 101.971 285.171 99.1897 285.4C93.6282 285.86 86.1524 286.461 77.8593 287.423C61.2732 289.348 41.4371 292.69 26.8956 299.358C24.8563 300.292 23.5576 301.135 22.7643 302.187C22.3676 302.713 22.1045 303.337 22.0904 303.987C22.0764 304.637 22.319 305.242 22.652 305.705C23.3181 306.629 24.2824 307.167 25.3419 307.644C26.4013 308.122 27.5806 308.497 28.6999 308.801C30.6508 309.328 38.5107 312.037 46.5269 315.12C54.5423 318.203 62.9534 321.789 65.9723 323.805C72.7166 328.316 79.4376 331.453 88.6347 330.487C88.8033 330.47 88.9667 330.419 89.1158 330.337C89.2649 330.256 89.3967 330.146 89.5036 330.013C89.6104 329.88 89.6903 329.727 89.7386 329.563C89.787 329.399 89.8028 329.228 89.7852 329.057C89.7678 328.887 89.7174 328.722 89.6367 328.572C89.5561 328.421 89.4467 328.288 89.3151 328.181C89.1835 328.073 89.0322 327.992 88.8698 327.943C88.7073 327.895 88.5369 327.879 88.3683 327.896C79.8562 328.79 73.9539 326.02 67.3979 321.634C63.7661 319.209 55.513 315.791 47.4456 312.688C39.3781 309.585 31.7361 306.926 29.3666 306.286C28.3258 306.003 27.2511 305.654 26.3888 305.266C25.5264 304.877 24.9007 304.406 24.7328 304.173C24.6488 304.057 24.6635 304.047 24.6635 304.042C24.6636 304.035 24.6561 303.967 24.8117 303.762C25.1213 303.351 26.1069 302.575 27.9567 301.728C41.9844 295.295 61.6686 291.921 78.1471 290.009C86.3863 289.053 93.8291 288.455 99.3955 287.996C102.179 287.766 104.49 287.572 106.218 287.382C107.082 287.287 107.798 287.193 108.374 287.092C108.95 286.99 109.313 286.964 109.851 286.651C111.383 285.762 119.717 280.527 127.832 275.421C135.947 270.315 143.718 265.409 143.718 265.409C143.862 265.318 143.986 265.2 144.085 265.06C144.183 264.921 144.254 264.764 144.292 264.597C144.33 264.43 144.335 264.258 144.307 264.089C144.279 263.921 144.218 263.759 144.128 263.614C143.946 263.322 143.657 263.114 143.323 263.037H143.329Z" fill="#333333"/>
<path fill-rule="evenodd" clip-rule="evenodd" d="M153.677 274.959C154.96 274.007 156.317 273.411 158.396 274.825C160.483 276.246 161.972 277.875 159.546 279.72C157.12 281.573 142.781 292.345 140.738 293.505C138.696 294.666 135.364 294.532 132.267 292.263C129.458 290.202 152.225 276.03 153.677 274.959Z" fill="#333333"/>
<path d="M216.745 279.551C216.409 279.484 216.061 279.555 215.778 279.748C215.778 279.748 199.719 290.664 182.191 302.412C164.664 314.16 145.563 326.794 139.855 330.028C127.427 337.057 117.833 337.341 109.369 334.717C109.207 334.666 109.037 334.649 108.868 334.665C108.699 334.681 108.535 334.73 108.386 334.81C108.236 334.89 108.103 334.999 107.995 335.131C107.887 335.263 107.806 335.415 107.756 335.578C107.706 335.742 107.689 335.914 107.705 336.084C107.721 336.254 107.77 336.42 107.85 336.571C107.929 336.722 108.037 336.856 108.168 336.965C108.299 337.074 108.449 337.156 108.611 337.206C117.665 340.013 128.212 339.598 141.118 332.299C147.176 328.867 166.082 316.335 183.619 304.581C201.155 292.828 217.219 281.909 217.219 281.909C217.503 281.716 217.699 281.417 217.764 281.079C217.83 280.74 217.76 280.389 217.569 280.103C217.474 279.961 217.353 279.839 217.211 279.744C217.07 279.65 216.912 279.585 216.745 279.552V279.551Z" fill="#333333"/>
</svg>
