<svg width="136" height="129" viewBox="0 0 136 129" fill="none" xmlns="http://www.w3.org/2000/svg">
<g clip-path="url(#clip0_1227_15673)">
<path fill-rule="evenodd" clip-rule="evenodd" d="M27.6985 115.086C28.0543 115.318 28.1024 115.852 27.7794 116.168C27.5856 116.358 27.3564 116.511 27.1562 116.694C26.7303 117.085 26.5667 117.593 26.7563 118.12C26.9469 118.649 27.3785 118.953 27.954 119.104C28.6423 119.284 29.2925 119.152 29.9304 118.967C30.1963 118.89 30.4102 118.659 30.3708 118.256C30.2975 117.509 30.3352 116.752 30.2844 116.001C30.258 115.613 30.5693 115.679 30.7401 115.626C31.1953 115.485 31.6684 115.332 32.1364 115.325C32.4698 115.32 32.8067 115.544 33.1156 115.692C32.5842 115.719 32.0751 115.682 31.5764 115.738C31.3983 115.758 31.2453 116.002 31.0809 116.144C31.1964 116.248 31.308 116.436 31.4281 116.441C31.8903 116.463 32.3555 116.434 32.8186 116.408C33.1842 116.387 33.3193 116.176 33.2475 115.824C33.4832 116.405 33.3739 116.758 32.8966 116.986C32.8247 117.021 32.7765 117.102 32.7091 117.149C32.6292 117.206 32.5404 117.25 32.4556 117.299C32.4733 117.215 32.5346 117.105 32.5022 117.052C32.1582 116.496 31.6103 116.864 31.1594 116.793C31.0678 116.779 30.8457 117.022 30.8363 117.157C30.7985 117.698 30.7904 118.247 30.8376 118.788C30.8534 118.967 31.0341 119.217 31.1988 119.28C31.4107 119.362 31.7115 119.382 31.8038 119.011C31.9137 118.569 32.0613 118.135 32.1923 117.698C32.2108 117.636 32.2281 117.573 32.246 117.511C32.2633 117.574 32.2945 117.637 32.2956 117.7C32.3035 118.175 32.2026 118.713 32.7263 118.979C33.0621 119.149 33.4538 119.243 33.8307 119.292C34.5885 119.394 35.3527 119.452 36.1157 119.507C36.3724 119.526 36.6388 119.467 36.6201 119.12C36.5918 118.593 36.6275 118.039 36.4729 117.547C36.2809 116.937 36.4273 116.337 36.7819 116.017C37.0491 115.777 37.6969 115.941 38.174 115.959C38.3256 115.964 38.4719 116.08 38.6231 116.139C38.7993 116.207 39.1237 116.256 39.13 116.334C39.1522 116.608 39.142 116.937 39.0073 117.163C38.4553 118.091 38.5406 118.807 39.2238 119.479C39.4871 119.738 40.0188 119.783 40.4368 119.815C41.127 119.867 41.1702 119.823 41.2573 120.428C41.3971 121.398 41.5219 122.374 41.571 123.351C41.6241 124.408 41.5767 125.47 41.5912 126.529C41.593 126.66 41.707 126.789 41.7689 126.918C41.8828 126.841 42.0169 126.783 42.1068 126.685C42.3847 126.381 42.4395 126.017 42.4355 125.607C42.4166 123.729 42.4248 121.85 42.429 119.971C42.4298 119.556 42.3906 119.208 41.824 119.402C41.818 119.403 41.7568 119.315 41.7665 119.282C41.9119 118.782 41.7053 118.608 41.2184 118.666C41.1031 118.68 40.9821 118.646 40.8637 118.636C40.5688 118.611 40.2717 118.602 39.9797 118.558C39.8085 118.533 39.6455 118.454 39.4787 118.4C39.5984 118.349 39.716 118.261 39.838 118.255C40.2122 118.236 40.5903 118.222 40.9626 118.254C41.4806 118.299 42.0009 118.36 42.5084 118.47C42.8234 118.537 43.0734 118.698 43.0695 119.127C43.0493 121.251 43.0834 123.376 43.0517 125.5C43.0323 126.801 41.9132 127.887 40.6636 127.855C39.8688 127.835 39.0305 128.167 38.2809 128.01C36.7057 127.681 35.113 127.846 33.5422 127.634C33.0165 127.563 32.4804 127.574 31.952 127.519C30.6909 127.388 29.4327 127.229 28.1707 127.106C27.5026 127.042 26.8291 127.032 26.1582 126.996C24.9039 126.926 23.6496 126.859 22.3958 126.783C21.9034 126.753 21.1537 126.042 21.117 125.548C21.0018 123.994 20.8408 122.44 20.8207 120.886C20.8093 120 20.9867 119.132 21.6288 118.375C22.1369 117.776 22.7315 117.592 23.4298 117.512C23.5512 117.498 23.6757 117.513 23.7986 117.51C23.9236 117.506 24.0484 117.498 24.1733 117.492C24.07 117.548 23.9689 117.61 23.863 117.661C23.4528 117.858 23.033 118.038 22.6349 118.257C22.5189 118.321 22.4205 118.486 22.3973 118.62C22.3853 118.689 22.5433 118.85 22.6427 118.868C23.2653 118.979 23.8839 119.145 24.4309 118.587C24.8973 118.112 25.0915 117.449 24.8087 116.831C24.6072 116.392 24.5058 115.94 24.763 115.511C24.8614 115.348 25.1251 115.288 25.304 115.166C26.0419 114.666 27.0008 114.631 27.6985 115.086ZM21.644 119.197C21.5726 119.311 21.4429 119.424 21.4395 119.541C21.4199 120.213 21.406 120.887 21.4352 121.558C21.4867 122.742 21.5839 123.922 21.6359 125.104C21.667 125.808 21.9798 126.24 22.6715 126.359C23.4148 126.485 24.1652 126.665 24.9115 126.659C26.1963 126.649 27.4324 126.946 28.692 127.083C30.0598 127.232 31.4425 127.253 32.8196 127.307C33.5273 127.335 34.2373 127.298 34.9457 127.315C35.9154 127.337 36.8846 127.381 37.8538 127.419C37.9354 127.422 38.0156 127.46 38.0972 127.464C38.5812 127.486 39.0656 127.517 39.5494 127.51C39.6306 127.509 39.7094 127.34 39.7894 127.249C39.7051 127.199 39.6243 127.115 39.5364 127.107C39.0249 127.059 38.4866 127.119 38.0037 126.98C36.1005 126.434 34.1278 126.628 32.1971 126.385C31.4201 126.288 30.6063 126.513 29.8203 126.452C28.3248 126.335 26.8339 126.14 25.3477 125.932C24.632 125.831 23.9312 125.626 23.1709 125.414C22.9423 125.141 22.5966 124.899 22.5105 124.585C22.3513 124.007 22.3253 123.389 22.2782 122.784C22.1931 121.692 22.145 120.595 22.0456 119.504C22.0353 119.39 21.7836 119.298 21.644 119.197ZM23.2687 119.297C22.7643 119.387 22.6427 119.693 22.6936 120.148C22.7408 120.57 22.7808 120.996 22.7988 121.42C22.8427 122.459 22.8628 123.498 22.9125 124.536C22.9285 124.87 23.052 125.143 23.4564 125.21C24.2095 125.331 24.9527 125.529 25.709 125.615C26.9441 125.757 28.1854 125.853 29.4261 125.938C31.1916 126.058 32.9589 126.153 34.7256 126.257C34.8307 126.263 34.9372 126.249 35.0418 126.259C36.4951 126.398 37.9485 126.537 39.4013 126.681C39.5825 126.699 39.7635 126.736 39.9403 126.779C40.72 126.976 41.1724 126.642 41.1563 125.85C41.1476 125.426 41.0763 125.003 41.0583 124.577C41.0144 123.539 40.9832 122.5 40.9505 121.461C40.9146 120.321 40.4375 120.077 39.4406 120.05C39.1157 120.041 38.8329 120.214 38.8449 120.603C38.8561 120.976 38.9539 121.348 38.9367 121.718C38.8915 122.691 38.8292 123.663 38.7217 124.632C38.6806 125 38.6 125.48 38.352 125.681C38.0945 125.888 37.6803 126.185 37.2443 125.939C36.8693 125.729 36.7383 125.382 36.7272 124.966C36.6988 123.903 36.659 122.841 36.6239 121.673C36.659 121.407 36.6849 121.139 36.7312 120.874C36.8446 120.228 36.5232 119.842 35.8813 119.825C35.0343 119.804 34.1874 119.77 33.3415 119.72C32.6418 119.679 32.471 119.803 32.5155 120.477C32.5543 121.064 32.6622 121.647 32.7163 122.233C32.7682 122.797 32.8345 123.364 32.8086 123.927C32.7934 124.256 32.6874 124.616 32.306 124.785C31.6931 125.056 30.9303 124.861 30.6312 124.272C30.3847 123.788 30.2366 123.211 30.2086 122.667C30.1646 121.808 30.2668 120.941 30.2895 120.078C30.3018 119.61 30.0896 119.466 29.6369 119.585C29.5399 119.611 29.4291 119.635 29.3347 119.614C28.7408 119.481 28.1548 119.298 27.5547 119.219C27.3598 119.193 26.9621 119.408 26.9459 119.548C26.877 120.136 26.8047 120.765 26.9407 121.329C27.1992 122.401 26.923 123.347 26.4796 124.278C26.4279 124.387 26.17 124.398 26.0078 124.454C26.0676 124.367 26.1326 124.283 26.1857 124.192C26.2261 124.123 26.2691 124.046 26.2808 123.97C26.391 123.242 26.5178 122.515 26.5913 121.783C26.6346 121.35 26.3311 121.097 25.871 121.094C25.4841 121.09 24.975 121.504 25.0257 121.834C25.1362 122.554 25.2899 123.268 25.4315 123.981C25.4639 124.146 25.5185 124.305 25.5628 124.466C25.384 124.346 25.1839 124.247 25.0336 124.1C24.9239 123.991 24.831 123.821 24.8152 123.669C24.7576 123.124 24.718 122.577 24.7052 122.029C24.6877 121.275 24.7074 120.519 24.6942 119.765C24.6922 119.645 24.6303 119.5 24.5483 119.412C24.162 118.992 23.7127 119.217 23.2687 119.297ZM37.8214 121.113C37.6215 121.135 37.3446 121.317 37.279 121.493C37.1647 121.799 37.1778 122.156 37.1535 122.493C37.1112 123.075 37.0936 123.659 37.0423 124.239C36.995 124.773 37.0459 125.279 37.5217 125.602C37.6485 125.688 37.9714 125.668 38.0711 125.568C38.2152 125.421 38.2377 125.155 38.3121 124.835C38.3473 123.797 38.4109 122.758 38.3988 121.721C38.3954 121.442 38.2145 121.067 37.8214 121.113ZM62.3572 90.0076C62.9056 90.0121 63.4549 90.0597 64.001 90.1134C64.3208 90.1449 64.4516 90.3538 64.4881 90.6799C64.5455 91.1945 64.3577 91.628 64.1531 92.0739C63.8757 92.6785 63.6267 93.296 63.3663 93.9084C63.3473 93.9531 63.3345 94.0006 63.3189 94.0468C63.5738 94.104 63.8307 94.2106 64.0828 94.2002C64.2364 94.194 64.4563 94.0399 64.5192 93.8966C64.7877 93.2852 65.0058 92.652 65.2509 92.0301C65.2864 91.9399 65.3932 91.8768 65.4253 91.7865C65.75 90.8747 66.4586 90.7229 67.3235 90.7254C68.1893 90.7279 68.8022 91.1923 69.1567 91.8302C69.5037 92.4546 69.587 93.2317 69.7491 93.95C69.8844 94.5494 70.0077 95.1572 70.0624 95.7678C70.1532 96.7832 69.7559 97.6779 69.2789 98.5481C68.9584 99.1324 68.5476 99.7133 68.4203 100.345C68.2887 100.997 68.1487 101.674 68.3515 102.402C68.5928 103.269 68.5953 104.203 68.6988 105.108C68.7086 105.194 68.7321 105.301 68.6953 105.368C68.1023 106.461 68.6669 107.55 68.7104 108.639C68.7163 108.786 68.8304 108.847 68.5747 108.882C67.9147 108.972 67.2854 109.112 66.5886 109.011C66.0879 108.939 65.5361 109.219 64.9807 109.369C64.481 109.709 64.0606 110.758 64.2849 111.201C64.3607 111.351 64.6238 111.482 64.8067 111.489C65.5966 111.521 66.3887 111.492 67.1796 111.508C67.57 111.515 67.9678 111.538 68.3449 111.626C68.4882 111.66 68.667 111.891 68.6827 112.046C68.7152 112.371 68.8288 112.77 68.4222 112.971C68.2646 113.049 68.0691 113.07 67.889 113.08C67.033 113.126 66.6027 113.537 66.4846 114.444C66.4122 115 66.3289 115.556 66.2917 116.114C66.287 116.185 66.5252 116.304 66.6667 116.342C66.8142 116.382 66.9809 116.347 67.139 116.352C68.2498 116.385 69.3613 116.404 70.4709 116.462C71.2921 116.504 72.1026 117.396 72.2672 118.21C72.3699 118.718 72.2821 119.266 72.2639 119.796C72.2547 120.067 72.1825 120.336 72.1967 120.603C72.2019 120.701 72.3633 120.854 72.4723 120.873C73.1988 120.998 73.9372 121.059 74.6581 121.21C75.2638 121.335 75.8458 121.57 76.4473 121.721C77.2309 121.916 78.0168 122.121 78.8137 122.243C80.1948 122.454 81.5889 122.581 82.969 122.797C83.3043 122.849 83.6061 123.115 83.9232 123.283C83.8864 123.327 83.8578 123.392 83.8115 123.409C83.1241 123.66 82.4403 123.922 81.7437 124.146C80.5823 124.517 79.3707 124.561 78.1691 124.705C76.6299 124.888 75.0871 125.122 73.5518 124.971C70.5565 124.677 67.5585 124.876 64.5651 124.768C62.8622 124.706 61.1622 124.525 59.4654 124.354C58.0927 124.214 56.7177 124.059 55.3615 123.814C54.6341 123.681 53.9367 123.361 53.2392 123.091C52.2247 122.699 51.2265 122.263 50.2123 121.869C49.8329 121.721 49.4029 121.692 49.0402 121.517C48.2775 121.15 48.2962 120.649 48.8635 120.061C49.6037 119.292 50.5076 119.146 51.4775 119.091C51.5651 119.087 51.659 119.071 51.7402 119.095C52.0762 119.191 52.1717 119.081 52.1427 118.74C52.0986 118.222 52.1493 117.695 52.0812 117.181C52.0412 116.881 51.8821 116.58 51.7184 116.315C51.2883 115.618 50.7241 114.994 50.6054 114.139C50.5918 114.041 50.5621 113.944 50.5529 113.846C50.4804 113.067 50.3549 112.288 50.3561 111.509C50.3574 110.695 50.4426 109.876 50.5608 109.069C50.7367 107.869 50.9531 106.674 51.1895 105.485C51.5722 103.558 52.1351 101.683 52.9849 99.9065C53.2175 99.4203 53.541 98.9786 53.8006 98.5045C54.2393 97.7039 54.5625 96.8174 55.1161 96.1086C55.6783 95.3888 55.9879 94.4164 56.9253 94.0238C57.3297 93.8544 57.7687 93.5784 58.1647 93.6187C58.9331 93.6969 58.9979 93.1979 59.0912 92.7174C59.4074 91.0878 60.6949 89.9943 62.3572 90.0076ZM31.2955 122.569C30.9457 122.562 30.7688 122.7 30.8148 123.081C30.8394 123.284 30.7585 123.505 30.8071 123.698C30.8744 123.964 30.9542 124.337 31.1461 124.435C31.409 124.569 31.8262 124.589 32.0966 124.472C32.4358 124.325 32.5379 123.346 32.2861 122.885C32.1117 122.564 31.7518 122.522 31.2955 122.569ZM56.8962 94.7936C56.4536 95.3232 55.9846 95.844 55.6295 96.4304C55.0726 97.3499 54.6056 98.3235 54.091 99.269C53.9106 99.6004 53.6554 99.8974 53.5144 100.243C52.9785 101.553 52.3363 102.822 52.1219 104.254C51.936 105.496 51.6337 106.721 51.3992 107.956C51.2748 108.612 51.151 109.27 51.0898 109.933C51.0401 110.472 51.0239 111.028 51.1003 111.561C51.2222 112.41 51.4751 113.24 51.5967 114.089C51.7599 115.23 52.2606 116.07 53.4121 116.411C53.9307 116.564 54.5497 116.28 54.998 116.769C55.0348 116.809 55.1226 116.802 55.1868 116.818C55.1122 116.838 55.028 116.842 54.9646 116.88C54.4616 117.186 53.9469 117.12 53.4025 116.998C53.1441 116.941 52.7208 116.835 52.7662 117.387C52.8074 117.887 52.7343 118.425 52.8932 118.882C53.3033 120.063 53.9986 121.054 55.3711 121.186C56.7428 121.317 58.1244 121.368 59.503 121.405C62.674 121.487 65.8566 121.208 69.0144 121.64C69.8384 121.752 70.6748 121.577 71.4799 121.831C71.5356 121.849 71.5893 121.874 71.644 121.894C71.5941 121.944 71.5503 122.026 71.4932 122.037C71.0494 122.116 70.604 122.233 70.1571 122.243C68.909 122.271 67.6601 122.256 66.4116 122.249C66.2478 122.247 66.0853 122.176 65.9206 122.167C65.2381 122.128 64.5432 122.009 63.8754 122.094C63.1389 122.188 62.437 122.232 61.7025 122.08C61.1379 121.961 60.544 121.937 59.965 121.95C59.4126 121.961 58.8561 122.167 58.3125 122.129C57.1532 122.049 55.9933 121.911 54.8483 121.712C53.908 121.549 53.1257 121.095 52.6314 120.2C52.5029 119.967 52.1283 119.802 51.839 119.745C51.5382 119.685 51.1886 119.745 50.8882 119.841C50.4571 119.978 50.0322 120.161 49.6418 120.389C49.4261 120.515 49.5379 121.013 49.7736 121.09C50.331 121.275 50.8982 121.431 51.4522 121.623C52.2349 121.898 53.0475 122.121 53.7782 122.498C54.8617 123.058 56.0261 123.16 57.1909 123.303C58.2001 123.427 59.2135 123.515 60.2245 123.623C61.5031 123.762 62.7791 123.926 64.0599 124.037C64.9211 124.111 65.7889 124.148 66.6534 124.142C68.2919 124.133 69.9301 124.062 71.5687 124.049C74.1318 124.029 76.698 124.122 79.2458 123.731C80.0264 123.61 80.8116 123.52 81.593 123.406C81.6609 123.396 81.7166 123.303 81.7779 123.249C81.714 123.232 81.6505 123.206 81.5861 123.204C80.6513 123.166 79.7161 123.132 78.7811 123.096C78.4868 123.084 78.1719 123.137 77.9021 123.05C76.9115 122.732 75.9462 122.333 74.9516 122.029C74.0186 121.743 73.074 121.4 72.073 121.779C71.7037 121.919 71.5793 121.699 71.5502 121.379C71.5418 121.285 71.5634 121.188 71.5464 121.097C71.4825 120.757 71.3678 120.42 71.3471 120.077C71.3131 119.517 71.3386 118.954 71.3376 118.392C71.3369 117.916 71.1884 117.532 70.6755 117.408C70.3214 117.322 69.9623 117.214 69.6026 117.203C67.9473 117.148 66.2909 117.126 64.6348 117.088C63.1898 117.055 61.7448 117.019 60.2998 116.983C60.0294 116.976 59.7139 117.075 59.6244 116.668C59.5244 116.213 59.9372 116.278 60.1509 116.143C60.1888 116.12 60.26 116.155 60.3062 116.138C60.6823 115.996 60.7953 115.861 60.7265 115.343C60.5704 114.167 59.677 113.047 60.3619 111.788C60.405 111.709 60.4117 111.61 60.4353 111.521C60.5523 111.557 60.6998 111.563 60.7779 111.639C60.8539 111.713 60.903 111.867 60.8859 111.973C60.8453 112.228 60.6601 112.496 60.7083 112.721C60.9103 113.666 61.1651 114.6 61.4251 115.531C61.5356 115.927 61.7589 116.298 62.2073 116.341C63.248 116.441 64.2933 116.495 65.3373 116.558C65.5051 116.568 65.6759 116.53 65.8452 116.515C65.7373 116.368 65.6316 116.219 65.5202 116.075C65.4776 116.02 65.4221 115.975 65.3721 115.925C64.2838 114.849 63.6928 113.558 63.7489 112.016C63.7702 111.428 63.8699 110.843 63.9551 110.259C64.0466 109.633 64.0721 108.976 64.2945 108.397C64.5101 107.835 64.4077 107.231 64.7624 106.669C65.1863 105.997 65.3148 105.146 65.6527 104.41C65.9819 103.694 66.414 103.024 66.8008 102.386C66.4293 103.39 66.0595 104.394 65.6855 105.396C65.5295 105.814 65.7346 106.16 66.2025 106.23C66.357 106.253 66.5193 106.247 66.6757 106.231C67.5442 106.144 68.2308 105.671 68.0635 104.741C67.9409 104.059 67.8358 103.367 67.6214 102.713C67.5294 102.433 67.2778 102.015 66.8008 102.281C67.3102 101.456 67.7821 100.605 68.3385 99.8131C68.9822 98.8973 69.4064 97.9327 69.3292 96.7969C69.3016 96.391 69.2132 96.1057 68.6476 96.0915C67.761 96.0691 67.1993 96.5824 66.6274 97.0905C65.4032 98.1783 64.9271 99.7591 64.0573 101.082C63.4931 101.94 63.5273 103.097 62.6868 103.818C62.6642 103.837 62.6575 103.875 62.6434 103.904C62.6223 103.867 62.5807 103.828 62.5835 103.793C62.6065 103.506 62.6009 103.21 62.6724 102.934C63.0823 101.353 63.9347 99.97 64.7303 98.5718C65.4876 97.2409 66.4738 96.1011 67.9403 95.4819C68.0524 95.4346 68.1565 95.3687 68.2643 95.3115C68.1435 95.2634 68.0263 95.187 67.9016 95.1716C66.979 95.0579 66.0574 94.926 65.1311 94.8574C63.4004 94.7293 61.667 94.6385 59.9343 94.5356C59.2634 94.4956 58.5821 94.5222 57.924 94.4098C57.4582 94.3303 57.1542 94.4849 56.8962 94.7936ZM31.1987 119.421C31.0142 119.478 30.7369 119.684 30.7395 119.817C30.7497 120.331 30.8558 120.844 30.9261 121.463C30.8731 122.009 31.2668 121.958 31.5939 121.928C31.8626 121.903 32.2985 122.028 32.1919 121.479C32.0881 120.945 32.0142 120.402 31.8626 119.882C31.7807 119.601 31.5664 119.308 31.1987 119.421ZM70.8733 120.259C70.9944 120.262 71.1128 120.381 71.2324 120.447C71.1193 120.557 71.0115 120.674 70.8902 120.775C70.8444 120.812 70.7675 120.812 70.6785 120.856C70.3546 120.882 70.0571 120.886 69.7597 120.881C69.5587 120.879 69.3354 120.978 69.284 120.608C69.2684 120.496 68.8614 120.435 68.6314 120.357C68.554 120.331 68.4701 120.324 68.3891 120.309C68.4823 120.289 68.5754 120.253 68.6687 120.253C69.4036 120.249 70.1387 120.241 70.8733 120.259ZM37.5263 119.937C37.4351 119.945 37.3467 119.985 37.257 120.011C37.3098 120.161 37.3624 120.311 37.468 120.513C37.5442 120.626 37.6279 120.835 37.6952 120.83C37.9605 120.81 38.2235 120.731 38.479 120.648C38.509 120.639 38.5227 120.452 38.4841 120.379C38.2815 119.993 37.9285 119.9 37.5263 119.937ZM25.2135 119.506C25.1355 119.577 25.1884 119.835 25.2366 119.99C25.2884 120.158 25.4043 120.305 25.545 120.513C25.9515 120.776 26.2121 120.714 26.3745 120.317C26.6286 119.698 26.4885 119.448 25.8452 119.22C25.5084 119.101 25.3756 119.36 25.2135 119.506ZM37.1537 117.271C37.0686 117.282 36.9422 117.509 36.9525 117.627C36.9939 118.107 37.1301 118.582 37.138 119.059C37.146 119.551 37.5111 119.588 37.7952 119.596C38.0763 119.604 38.3804 119.446 38.3121 118.933C38.3121 118.619 38.2128 118.256 38.3365 118.003C38.5027 117.662 38.4156 117.353 38.1921 117.272C37.8839 117.16 37.4988 117.226 37.1537 117.271ZM69.9926 118.538C70.142 118.704 70.2652 118.842 70.3883 118.981C70.2181 119.054 70.0496 119.182 69.8775 119.187C68.1524 119.238 66.4265 119.26 64.7011 119.305C64.0824 119.321 63.4649 119.386 62.8462 119.4C62.5987 119.406 62.3409 119.361 62.1039 119.288C61.9446 119.239 61.8134 119.098 61.6696 118.999C61.8496 118.925 62.0279 118.79 62.2096 118.785C63.1054 118.763 64.0024 118.788 64.8986 118.772C66.2904 118.747 67.6822 118.712 69.0733 118.663C69.3724 118.653 69.6687 118.564 69.9926 118.538ZM25.5903 116.49C25.4244 116.661 25.3494 116.775 25.3335 116.981C25.2999 117.421 25.2636 117.861 25.2284 118.406C25.3148 118.563 25.3662 118.766 25.4972 118.862C25.6303 118.959 25.8474 118.993 26.017 118.972C26.1497 118.954 26.3619 118.821 26.3732 118.719C26.4406 118.126 26.4862 117.527 26.4809 116.93C26.4789 116.703 26.3832 116.387 26.2189 116.276C26.0583 116.168 25.8169 116.256 25.5903 116.49ZM35.5882 118.04C35.6231 118.049 35.6602 118.102 35.6689 118.141C35.6742 118.164 35.6264 118.226 35.6028 118.225C34.7825 118.219 33.9623 118.206 33.1156 118.169C33.278 118.094 33.4676 118.048 33.6558 117.998C34.3043 117.823 34.9478 117.876 35.5882 118.04ZM27.8285 117.624C28.2289 117.627 28.6297 117.644 29.0289 117.677C29.1168 117.684 29.1941 117.78 29.2842 117.815C29.3646 117.847 29.456 117.851 29.5425 117.867C29.4516 117.924 29.3567 118.035 29.2706 118.028C28.8364 117.995 28.4044 117.932 27.9454 117.853C27.8366 117.814 27.7541 117.802 27.6718 117.79C27.7241 117.732 27.7767 117.623 27.8285 117.624ZM37.7963 116.209C37.6518 116.215 37.5089 116.265 37.3655 116.295C37.4326 116.454 37.4592 116.702 37.5749 116.755C37.8511 116.88 38.1692 116.913 38.5759 116.983L38.61 116.893C38.6159 116.878 38.6222 116.863 38.6292 116.849C38.6982 116.707 38.7694 116.566 38.8397 116.425C38.6773 116.365 38.5191 116.285 38.3517 116.251C38.1709 116.213 37.981 116.202 37.7963 116.209ZM27.1804 115.297C26.603 115.312 26.0242 115.309 25.4495 115.356C25.3355 115.365 25.2368 115.563 25.131 115.674C25.3057 115.759 25.477 115.852 25.6564 115.926C25.7612 115.969 25.8785 115.999 25.991 116.003L26.4224 116.017C26.782 116.029 27.1417 116.037 27.499 116.012C27.6029 116.005 27.69 115.753 27.7849 115.613C27.6186 115.508 27.4523 115.402 27.1804 115.297ZM64.6749 112.997C64.6241 112.991 64.5007 113.218 64.4886 113.346C64.4602 113.64 64.405 113.965 64.4989 114.229C64.6101 114.541 64.8642 114.804 65.065 115.082C65.0771 115.099 65.2085 115.068 65.2117 115.047C65.2902 114.554 65.3726 114.06 65.4177 113.563C65.4268 113.463 65.2884 113.349 65.2709 113.189C65.0729 113.119 64.8783 113.021 64.6749 112.997ZM0.62074 112.929C0.62074 112.929 4.16296 112.904 9.32913 112.935C10.8324 112.944 12.4733 112.967 14.2052 112.99C17.3803 113.031 20.8587 113.094 24.3501 113.142L25.5825 113.159C26.946 113.176 28.3063 113.19 29.6455 113.2C31.6464 113.214 33.6006 113.217 35.4511 113.222C42.5772 113.243 48.1641 113.249 48.9114 113.25L48.9964 113.25C49.0949 113.251 49.1743 113.331 49.1732 113.429C49.1732 113.527 49.0928 113.606 48.9943 113.606C48.9943 113.606 43.1125 113.531 35.4501 113.45C34.278 113.437 33.0643 113.423 31.8235 113.411L31.3839 113.401C32.8815 113.433 34.3791 113.471 35.8767 113.505C37.4446 113.541 39.0261 113.459 40.5772 113.639C42.6266 113.877 44.6712 113.773 46.7176 113.821C46.8054 113.823 46.9058 113.794 46.979 113.827C47.191 113.922 47.392 114.041 47.5974 114.151C47.3892 114.182 47.1803 114.243 46.9731 114.238C46.073 114.215 45.1734 114.173 44.2209 114.138C43.3769 114.138 42.5845 114.165 41.7947 114.131C40.873 114.091 39.9543 113.954 39.0331 113.939C38.0287 113.922 37.0219 114.042 36.0176 114.022C34.1823 113.987 32.3481 113.891 30.5134 113.822C30.3501 113.816 30.1832 113.835 30.0247 113.806C29.9639 113.795 29.8655 113.645 29.8811 113.621C29.9379 113.533 30.0327 113.414 30.1184 113.41C30.213 113.405 30.3077 113.401 30.4024 113.399C30.1509 113.397 29.898 113.395 29.6445 113.393C28.6842 113.387 27.7131 113.384 26.7377 113.382C26.7483 113.392 26.759 113.402 26.7698 113.411C26.6878 113.443 26.608 113.487 26.5231 113.502C26.3747 113.53 26.2229 113.54 26.0461 113.584C25.8446 113.611 25.669 113.618 25.4944 113.607C25.4112 113.602 25.3301 113.563 25.2479 113.538C25.2812 113.493 25.3126 113.435 25.3445 113.38C21.9316 113.378 18.505 113.392 15.3351 113.394L12.631 113.393C11.4739 113.393 10.3667 113.391 9.32595 113.383C4.15978 113.344 0.618623 113.271 0.618623 113.271C0.524404 113.271 0.448182 113.194 0.449229 113.098C0.449229 113.004 0.526521 112.928 0.62074 112.929ZM69.2917 113.395C69.2917 113.395 73.6585 113.376 80.0273 113.415C81.881 113.425 83.9051 113.452 86.0394 113.477C90.4137 113.529 95.257 113.608 100.066 113.663C101.747 113.682 103.424 113.7 105.076 113.712C107.542 113.729 109.952 113.734 112.233 113.742C121.019 113.775 127.907 113.79 128.829 113.792L128.933 113.792C129.031 113.793 129.11 113.872 129.11 113.971C129.109 114.069 129.029 114.148 128.93 114.147C128.93 114.147 121.679 114.064 112.231 113.971C109.95 113.948 107.541 113.921 105.075 113.904C103.423 113.894 101.745 113.888 100.064 113.885C95.2548 113.875 90.4115 113.888 86.0362 113.881C83.902 113.877 81.8778 113.876 80.0242 113.862C73.7827 113.816 69.465 113.739 69.2948 113.736L69.2895 113.736C69.1953 113.736 69.1191 113.659 69.1191 113.565C69.1202 113.47 69.1974 113.393 69.2917 113.395ZM80.1057 112.669C82.3948 112.68 84.6836 112.736 86.9726 112.767C89.8067 112.805 92.6408 112.867 95.4748 112.861C96.9816 112.858 98.488 112.684 99.9951 112.674C102.02 112.661 104.046 112.729 106.071 112.769C107.516 112.797 108.96 112.854 110.405 112.866C111.076 112.872 111.748 112.769 112.419 112.775C113.829 112.787 115.238 112.835 116.648 112.874C117.794 112.905 118.94 112.952 120.086 112.975C120.901 112.991 121.716 112.965 122.531 112.982C123.536 113.003 124.542 113.043 125.546 113.095C125.629 113.099 125.767 113.264 125.765 113.353C125.764 113.44 125.617 113.6 125.535 113.599C123.704 113.579 121.872 113.545 120.04 113.502C119.597 113.491 119.155 113.417 118.712 113.403C117.302 113.359 115.893 113.301 114.483 113.302C112.88 113.304 111.276 113.393 109.673 113.388C108.876 113.386 108.08 113.238 107.281 113.198C106.894 113.179 106.502 113.289 106.112 113.29C101.223 113.297 96.3349 113.307 91.4466 113.29C88.208 113.279 84.9695 113.224 81.6782 113.189C80.5353 113.189 79.4442 113.162 78.3551 113.197C77.2226 113.233 76.0924 113.374 74.9604 113.385C74.1638 113.393 73.3668 113.217 72.5684 113.201C71.7224 113.184 70.8747 113.271 70.0273 113.287C69.8018 113.291 69.5746 113.199 69.3482 113.152C69.5458 113.059 69.7487 112.975 69.94 112.871C70.3756 112.634 70.8143 112.722 71.288 112.741C73.0439 112.808 74.8041 112.78 76.5622 112.763C77.7436 112.752 78.9248 112.664 80.1057 112.669ZM42.897 107.608C42.9514 107.723 43.0369 107.833 43.055 107.953C43.1373 108.501 43.1988 109.052 43.2724 109.602C43.301 109.816 43.2993 110.048 43.3856 110.239C43.5624 110.63 43.9148 110.402 44.1992 110.419C44.8805 110.46 45.5645 110.484 46.2401 110.572C46.4057 110.593 46.5802 110.808 46.6826 110.976C46.7711 111.121 46.7632 111.325 46.7978 111.503C46.6423 111.414 46.4795 111.335 46.3347 111.231C46.2754 111.188 46.2725 111.056 46.2131 111.027C46.0689 110.955 45.9065 110.92 45.7514 110.871C45.7688 111.006 45.7517 111.16 45.8099 111.275C46.0009 111.654 46.2393 112.01 46.4205 112.392C46.5485 112.663 46.784 112.756 47.0434 112.847C47.2709 112.648 47.3713 112.474 47.2051 112.2C47.1371 112.088 47.1938 111.901 47.1938 111.748C47.2447 111.772 47.3061 111.784 47.3448 111.821C47.4687 111.938 47.6623 112.051 47.6871 112.19C47.7435 112.51 47.8563 112.892 47.4351 113.085C47.022 113.274 46.6184 113.27 46.2576 112.956C45.9357 112.677 45.6231 112.386 45.2997 112.108C45.0105 111.86 44.7049 111.909 44.3668 112.031C43.9829 112.169 43.5769 112.247 43.1773 112.338C43.1522 112.343 43.0751 112.234 43.0639 112.17C42.8469 110.942 42.6442 109.714 42.7378 108.458C42.7471 108.335 42.6248 108.194 42.6519 108.082C42.6927 107.914 42.8113 107.765 42.897 107.608ZM30.4786 45.0276C30.4583 45.1001 30.4617 45.1998 30.4142 45.2408C29.7352 45.8269 29.468 46.6316 29.2726 47.4561C29.168 47.898 29.149 48.3656 29.1381 48.8227C29.1181 49.6713 29.1458 50.5209 29.129 51.3696C29.1078 52.4442 29.051 53.5181 29.0293 54.5926C28.9862 56.7205 28.9716 58.8491 28.917 60.9767C28.868 62.88 28.7871 64.7825 28.7083 66.685C28.6484 68.1314 28.5799 69.5779 28.4966 71.0233C28.4029 72.6487 28.2914 74.2732 28.1819 75.8977C28.0806 77.3998 27.9638 78.9009 27.8709 80.4035C27.8414 80.8818 27.8952 81.3656 27.8611 81.8434C27.7333 83.6302 27.5815 85.4152 27.4461 87.2014C27.3992 87.8183 27.345 88.4366 27.3434 89.0543C27.3339 92.7775 27.3387 96.5008 27.3387 100.224C27.3387 100.88 27.3253 101.536 27.3429 102.191C27.3572 102.722 27.4105 103.251 27.4431 103.781C27.4506 103.904 27.4427 104.027 27.4447 104.15C27.4467 104.282 27.452 104.415 27.4559 104.547C27.5575 104.407 27.7424 104.27 27.7482 104.126C27.8366 101.943 27.8992 99.7591 27.973 97.5754C28.0011 96.7408 28.0554 95.9067 28.0735 95.072C28.0911 94.2584 28.0672 93.4441 28.0793 92.6304C28.1082 90.6955 28.1338 88.7602 28.1867 86.8258C28.2392 84.905 28.3228 82.9852 28.3941 81.0648C28.4275 80.1661 28.4548 79.2669 28.5017 78.3689C28.5625 77.2032 28.6541 76.0391 28.7064 74.8732C28.7594 73.6943 28.7673 72.5134 28.8197 71.3345C28.8731 70.1334 28.9534 68.9336 29.0278 67.7336C29.0936 66.6735 29.1742 65.6144 29.2362 64.5541C29.3136 63.2314 29.3733 61.9075 29.4507 60.5848C29.5127 59.5245 29.5857 58.4648 29.661 57.4055C29.7626 55.9736 29.893 54.5434 29.97 53.1103C30.0369 51.8621 30.0411 50.6105 30.0851 49.361C30.1013 48.9007 30.1513 48.4415 30.1895 47.9822C30.1933 47.9358 30.223 47.8916 30.2406 47.8465C30.2581 47.8918 30.2811 47.9361 30.2921 47.983C30.3298 48.1435 30.3936 48.3048 30.3941 48.466C30.4006 50.9247 30.4479 53.3848 30.3802 55.8416C30.3392 57.3316 30.1144 58.8165 29.9776 60.3041C29.9012 61.1349 29.8569 61.9693 29.7599 62.7977C29.6508 63.7288 29.5197 64.6586 29.3566 65.5816C29.2672 66.0877 29.6806 67.1968 30.2212 67.524C31.3963 68.2352 32.6624 68.4721 34.0306 68.2057C34.8375 68.0484 35.6619 67.896 36.4781 67.898C37.0884 67.8996 37.6981 68.1508 38.3073 68.2942C38.3414 68.3022 38.3685 68.3398 38.3989 68.3636C38.3685 68.3749 38.3388 68.3923 38.3074 68.3966C38.0408 68.4334 37.774 68.4974 37.5072 68.4983C35.0808 68.5062 32.6544 68.5027 30.2281 68.5031C29.5676 68.5032 29.4758 68.6191 29.4439 69.2488C29.3528 71.0499 29.2464 72.8504 29.1263 74.6498C29.0975 75.0802 28.9918 75.5055 28.9215 75.9857C28.9215 77.2152 28.9487 78.3926 28.9142 79.5682C28.8749 80.91 28.7821 82.2501 28.7097 83.5907C28.6783 84.1735 28.6158 84.7556 28.6088 85.3385C28.5658 88.9593 28.5501 92.5804 28.4916 96.2008C28.4685 97.6301 28.3234 99.0576 28.2995 100.487C28.2799 101.648 28.3664 102.811 28.3909 103.973C28.4063 104.699 28.3809 105.425 28.397 106.151C28.4199 107.191 28.4474 108.231 28.5064 109.269C28.5359 109.786 28.6866 110.298 28.6985 110.815C28.7132 111.449 28.6419 112.085 28.6013 112.72C28.598 112.773 28.5274 112.869 28.5182 112.866C28.3683 112.809 28.1422 112.777 28.0914 112.667C27.8818 112.21 27.6352 111.742 27.5669 111.256C27.3766 109.898 27.2637 108.53 27.13 107.165C27.0801 106.654 27.0545 106.141 27.0227 105.628C26.9506 104.463 26.8764 103.298 26.8171 102.132C26.809 101.973 26.9194 101.808 26.9105 101.65C26.852 100.607 26.7751 99.5652 26.7067 98.5228C26.6987 98.4004 26.7057 98.277 26.7057 98.154C26.7057 96.4856 26.693 94.8171 26.7101 93.1488C26.7212 92.0743 26.6422 90.9749 26.8396 89.9312C27.2229 87.9047 27.1849 85.8695 27.2379 83.8308C27.286 81.9802 27.2737 80.1197 27.4739 78.2837C27.6551 76.6222 27.7508 74.9689 27.7773 73.3012C27.7939 72.2545 28.0089 71.2125 28.0679 70.1648C28.1421 68.8467 28.0241 67.5077 28.206 66.2079C28.7568 62.2696 28.375 58.3183 28.4995 54.3757C28.5339 53.2838 28.6097 52.1914 28.5932 51.1003C28.5778 50.0923 28.4776 49.0848 28.3893 48.0793C28.3281 47.3833 28.6913 46.8384 28.9783 46.2662C29.2542 45.7159 29.7877 45.4355 30.2711 45.1079C30.3309 45.0674 30.409 45.0538 30.4786 45.0276ZM39.7207 103.08C40.1858 103.111 40.6449 103.223 41.109 103.28C42.0299 103.393 42.9514 103.504 43.875 103.592C44.1663 103.62 44.5858 103.54 44.6104 103.882C44.6338 104.204 44.4783 104.656 44.2384 104.853C43.8337 105.185 43.3076 105.377 42.8186 105.596C42.2251 105.863 42.0572 106.235 42.0948 106.872C42.132 107.502 42.0097 108.14 42.0128 108.774C42.0168 109.601 42.0759 110.428 42.1098 111.255C42.1125 111.324 42.1009 111.453 42.0998 111.453C41.4827 111.429 41.7934 112.085 41.4878 112.287C41.4316 112.325 41.3979 112.396 41.3537 112.451C41.3246 112.382 41.2751 112.315 41.2698 112.244C41.2286 111.698 41.1937 111.151 41.1616 110.605C41.118 109.862 41.2039 109.084 41.0096 108.384C40.677 107.185 40.1702 106.034 39.7102 104.837C39.5226 104.474 39.3371 104.146 39.2063 103.798C39.0398 103.355 39.2525 103.049 39.7207 103.08ZM66.9151 112.138C66.4722 112.166 66.0299 112.205 65.4819 112.241C65.4116 112.241 65.3408 112.236 65.271 112.242C65.1878 112.249 65.1053 112.265 65.0226 112.278C65.1083 112.3 65.193 112.338 65.2798 112.344C65.9155 112.383 66.5514 112.42 67.1876 112.448C67.3028 112.454 67.4199 112.418 67.5361 112.402C67.4286 112.327 67.3281 112.237 67.2111 112.184C67.1235 112.143 67.0134 112.132 66.9151 112.138ZM27.7649 109.549C27.7286 109.691 27.6586 109.834 27.6635 109.975C27.6719 110.224 27.7223 110.472 27.7615 110.719C27.8291 111.145 27.8998 111.571 27.9758 111.995C27.9803 112.021 28.0421 112.036 28.0773 112.056C28.1476 111.857 28.2868 111.655 28.2751 111.462C28.243 110.929 28.1476 110.4 28.0246 109.817L27.7649 109.549ZM115.894 99.2913C115.987 99.3559 116.078 99.5123 116.067 99.6192C115.944 100.753 116.276 101.906 115.883 103.034C115.793 103.292 115.989 103.636 115.96 103.931C115.873 104.799 115.739 105.663 115.622 106.528C115.6 106.694 115.549 106.859 115.552 107.024C115.58 108.379 115.618 109.734 115.653 111.089C115.655 111.16 115.676 111.24 115.65 111.298C115.553 111.511 115.417 111.901 115.337 111.891C115.036 111.855 114.995 111.573 115.017 111.292C115.035 111.065 115.021 110.835 115.021 110.554C114.902 109.936 114.756 109.399 114.879 108.782C114.967 108.341 114.933 107.841 114.764 107.328C114.592 106.807 114.848 106.143 114.923 105.542C114.946 105.361 115.009 105.184 115.017 105.003C115.093 103.417 115.146 101.829 115.246 100.245C115.264 99.9568 115.452 99.6719 115.595 99.4038C115.636 99.3283 115.842 99.2546 115.894 99.2913ZM109.93 0.208984C110.536 0.524589 111.085 0.93712 111.703 1.13287C112.602 1.41786 113.311 1.97448 113.936 2.59292C114.656 3.3064 115.304 4.1291 115.823 5.00002C116.407 5.98017 116.826 7.06351 116.918 8.23077C116.966 8.84756 117.024 9.46648 117.018 10.0839C117.006 11.2769 116.526 12.3224 115.886 13.2998C115.738 13.5256 115.42 13.6796 115.358 13.9135C115.224 14.4218 115.404 14.7325 116.414 14.9643C116.477 14.9788 116.54 14.9988 116.603 15.0163C116.54 15.0339 116.475 15.0725 116.415 15.066C115.827 15.0021 115.241 14.9303 114.654 14.8621C114.602 14.8561 114.548 14.8505 114.498 14.86C114.253 14.9053 114.01 14.9557 113.766 15.0044C113.895 15.1762 114.013 15.358 114.155 15.5178C114.534 15.9436 114.925 16.3586 115.307 16.7821C115.35 16.8298 115.363 16.9042 115.39 16.9663C115.33 16.9415 115.262 16.9272 115.211 16.8899C114.67 16.4952 114.136 16.0917 113.591 15.7031C113.465 15.6128 113.304 15.5703 113.159 15.5059C113.146 15.6412 113.102 15.7833 113.129 15.9102C113.172 16.1152 113.222 16.3381 113.339 16.505C114.23 17.7812 114.736 19.2287 115.203 20.6882C115.664 22.1338 116.102 23.5891 116.482 25.0576C116.646 25.6895 116.658 26.364 116.704 27.0216C116.79 28.2386 116.829 29.4589 116.924 30.675C117.139 33.4383 116.693 36.0882 115.636 38.6457C115.065 40.0257 114.532 41.421 113.958 42.7995C113.802 43.1742 113.526 43.4988 113.368 43.8729C113.236 44.1858 112.968 44.5 113.217 44.8923C113.262 44.9629 113.207 45.1272 113.155 45.2247C112.388 46.6503 112.656 47.9519 113.578 49.2063C114.34 50.2421 115.229 51.0959 116.34 51.7856C117.629 52.5867 118.791 53.5912 120.032 54.4751C120.866 55.0697 121.773 55.566 122.586 56.1859C123.206 56.6581 123.733 57.2526 124.296 57.7978C124.858 58.3417 125.413 58.8927 125.972 59.4391C127.034 60.4757 128.117 61.4913 129.15 62.5549C129.73 63.1511 130.232 63.8222 130.759 64.4682C130.893 64.6324 130.99 64.8274 131.097 65.0119C131.683 66.0165 132.372 66.977 132.827 68.0378C133.564 69.7554 134.346 71.4749 134.638 73.3457C134.785 74.2793 134.983 75.2316 134.93 76.1627C134.868 77.2461 134.952 78.3567 134.561 79.4224C134.403 79.8545 134.517 80.3784 134.424 80.8447C134.273 81.6168 134.1 82.3904 133.854 83.1367C133.606 83.8903 133.305 84.6334 132.946 85.3411C132.525 86.1752 131.918 86.8696 131.198 87.4893C130.63 87.977 130.196 88.6167 129.681 89.1686C129.507 89.3553 129.252 89.4634 129.058 89.6352C128.312 90.2968 127.626 91.0375 126.825 91.6218C125.665 92.4675 124.435 93.2182 123.218 93.9812C121.881 94.819 120.53 95.6352 119.173 96.4395C118.598 96.7798 118.003 97.09 117.397 97.3706C116.335 97.8618 115.269 98.3475 114.185 98.784C113.084 99.2268 111.96 99.6114 110.844 100.014C109.875 100.363 108.919 100.716 108.055 101.313C107.249 101.869 106.286 102.068 105.326 102.23C104.358 102.393 103.393 102.571 102.426 102.741C101.393 102.922 100.358 103.091 99.3276 103.286C98.6144 103.421 97.9096 103.601 97.1979 103.744C96.6757 103.849 96.1515 103.96 95.6227 104.012C94.9371 104.079 94.2462 104.104 93.5569 104.123C91.9539 104.166 90.3504 104.194 88.7473 104.231C87.1664 104.269 85.639 103.957 84.116 103.573C83.6897 103.465 83.2218 103.487 82.7764 103.511C82.6505 103.518 82.4492 103.732 82.4312 103.871C82.3309 104.646 82.3098 105.431 82.1986 106.204C81.9859 107.683 81.8181 109.161 81.8822 110.659C81.8865 110.759 81.7903 110.864 81.7407 110.966C81.6847 110.873 81.5923 110.784 81.5787 110.685C81.4963 110.084 81.3925 109.481 81.3708 108.876C81.3366 107.923 81.2988 106.962 81.3813 106.015C81.4495 105.231 81.6878 104.462 81.8541 103.687C81.919 103.384 82.0272 103.199 81.5336 103.036C80.63 102.739 79.7747 102.267 78.9422 101.792C78.4486 101.511 78.0293 101.095 77.5903 100.724C76.7915 100.048 76.1181 99.2485 75.4367 98.4609C75.0248 97.9848 74.7815 97.4244 74.817 96.7687C74.834 96.4534 74.8198 96.1365 74.8198 95.8204C74.8198 94.668 75.9299 93.8472 77.0472 94.1784C78.0626 94.4794 79.0415 94.8587 79.8365 95.5909C80.1425 95.8727 80.3964 96.2176 80.7244 96.4677C81.7129 97.2213 82.7946 97.7986 84.0383 98.0104C84.7309 98.1284 85.4245 98.2629 86.1233 98.3176C86.8024 98.3707 87.462 98.3163 87.9658 97.7096C88.2281 97.3936 88.0766 97.2446 87.8629 97.0818C87.1859 96.5662 86.4871 96.0786 85.822 95.5483C85.6375 95.4012 85.47 95.1604 85.4167 94.9339C85.1775 93.9168 85.0449 92.87 85.6263 91.9321C86.0381 91.2679 86.7704 91.1183 87.5203 91.0497C88.6133 90.9499 89.6133 91.3073 90.5749 91.7067C92.1058 92.3427 93.6357 92.9583 95.3225 92.827C95.9782 92.7761 96.6269 92.5175 97.258 92.2945C98.1879 91.966 98.9457 91.3445 99.7507 90.7906C101.029 89.9106 101.899 88.6149 103.091 87.6678C103.873 87.0465 104.729 86.4566 105.647 86.0877C106.436 85.7704 107.317 85.9526 107.992 86.6163L108.216 86.8351C108.639 87.2489 109.045 87.6743 109.215 88.2712C109.29 88.5345 109.411 88.6001 109.658 88.4594C110.454 88.0065 111.336 87.662 112.038 87.0946C113.354 86.0308 114.529 84.8007 115.276 83.2491C115.541 82.6965 115.641 82.0664 115.871 81.4938C116.433 80.0977 116.431 78.6393 116.384 77.1782C116.364 76.5733 116.226 75.9727 116.197 75.3675C116.188 75.1858 116.388 75.002 116.457 74.8069C116.528 74.6064 116.556 74.3908 116.603 74.1819C116.618 74.1177 116.634 74.054 116.649 73.9901C116.704 74.0506 116.798 74.1053 116.808 74.1726C116.923 74.9355 117.069 75.6974 117.12 76.4653C117.196 77.5897 117.26 78.7208 117.223 79.8457C117.161 81.6932 116.636 83.3845 115.611 84.9758C114.401 86.8546 112.671 88.0958 110.894 89.316C110.646 89.486 110.331 89.5744 110.034 89.6538C109.436 89.814 109.946 90.1696 109.917 90.4132C109.883 90.6965 110.071 91.0032 110.148 91.3034C110.669 93.3241 110.938 95.3733 110.795 97.4622C110.758 97.9975 110.664 98.5291 110.587 99.0612C110.535 99.425 110.83 99.3958 110.985 99.3403C111.964 98.9904 112.941 98.6304 113.899 98.2281C115.113 97.7188 116.346 97.2369 117.501 96.6143C118.989 95.8123 120.413 94.891 121.855 94.0054C123.44 93.0319 125.034 92.069 126.583 91.0404C127.084 90.7079 127.451 90.1772 127.889 89.7473C128.17 89.4715 128.571 89.265 128.735 88.9361C128.94 88.5261 129.117 87.9875 129.026 87.5647C128.629 85.7231 127.605 84.2036 126.038 83.2053C125.101 82.6081 123.949 82.2854 122.85 82.0194C121.615 81.7207 120.372 81.3476 119.065 81.4582C118.82 81.4789 118.559 81.4212 118.32 81.3518C118.162 81.306 118.03 81.1744 117.886 81.0811C118.062 80.9284 118.232 80.6519 118.417 80.6419C120.557 80.5251 122.704 80.4972 124.715 81.3782L124.977 81.4937C125.631 81.7851 126.275 82.1038 126.837 82.6313C128.027 83.7494 129.025 84.9625 129.605 86.4969C129.659 86.64 129.705 86.7864 129.755 86.9312C129.768 86.7607 129.778 86.59 129.794 86.4198C129.799 86.3541 129.817 86.2894 129.83 86.2243C129.852 86.2924 129.874 86.3607 129.898 86.4283C130.097 86.9984 130.298 87.1141 130.753 86.7211C131.5 86.0752 132.152 85.3364 132.442 84.3365C132.585 83.8421 132.926 83.4014 133.047 82.9048C133.248 82.082 133.409 81.2382 133.47 80.395C133.563 79.1315 133.464 77.8499 133.614 76.5956C133.814 74.9118 133.228 73.3904 132.847 71.8235C132.491 70.3652 132.049 68.9234 131.274 67.6292C130.427 66.2143 129.521 64.8326 128.589 63.4715C128.075 62.7203 127.487 62.0115 126.872 61.3391C126.449 60.8765 125.909 60.523 125.444 60.0962C124.727 59.4375 124.029 58.7568 123.321 58.0876C122.13 56.9619 120.824 55.9937 119.445 55.1043C118.391 54.425 117.424 53.6128 116.409 52.8737C115.778 52.414 115.125 51.9842 114.488 51.5319C114.336 51.4241 114.215 51.2721 114.064 51.1625C114.042 51.1462 113.904 51.2374 113.865 51.3051C113.778 51.4596 113.74 51.6433 113.645 51.7916C113.448 52.0998 113.22 52.388 113.017 52.6927C112.578 53.3529 112.214 54.0772 111.695 54.6666C111.048 55.4013 110.332 56.1016 109.546 56.681C108.446 57.4918 107.271 58.2061 106.096 58.9087C104.773 59.6996 103.348 60.2612 101.839 60.5976C101.339 60.709 100.84 60.8574 100.334 60.8971C100.018 60.9218 99.6618 60.8276 99.3797 60.6802C99.2489 60.6119 99.2196 60.2923 99.1997 60.0813C99.1464 59.5179 99.137 58.9503 99.0795 58.3875C99.0625 58.2216 98.9389 58.0679 98.8732 57.9049C98.8307 57.7995 98.7663 57.683 98.7782 57.5789C98.8287 57.1302 98.9163 56.6855 98.9585 56.2365C98.9666 56.1517 98.804 55.9642 98.7626 55.9758C98.4981 56.0498 98.2161 56.1234 97.9945 56.2764C97.3064 56.7516 96.6164 57.2314 95.9804 57.7717C95.6562 58.047 95.4579 58.4658 95.1771 58.7982C95.0856 58.9064 94.878 59.0341 94.7858 58.9973C94.6441 58.9407 94.4559 58.7454 94.4613 58.6162C94.5024 57.643 94.5284 56.6619 94.6877 55.7046C94.7432 55.3708 94.6751 55.3477 94.4505 55.3325C93.7799 55.2874 93.1047 55.1991 92.438 55.2387C91.6066 55.288 90.9337 54.8876 90.2036 54.6314C89.8637 54.5121 89.5009 54.4007 89.1463 54.3939C88.5112 54.3815 87.8713 54.4226 87.2391 54.4921C86.1695 54.6097 85.105 54.7743 84.0367 54.9057C82.1634 55.1363 80.4347 55.8801 78.6462 56.4112C78.0217 56.5966 77.4061 56.8121 76.7871 57.016C76.6638 57.0567 76.5327 57.0896 76.4241 57.1568C75.9636 57.4415 75.9653 57.5534 76.338 57.9563C77.2048 58.8934 78.0382 59.8648 78.5701 61.0367C79.0327 62.056 79.4354 63.1062 79.4597 64.2503C79.4745 64.9411 79.4609 65.6324 79.4652 66.3234C79.4656 66.3826 79.5055 66.4415 79.527 66.5005C79.5759 66.4512 79.6318 66.4069 79.6722 66.3515C79.8592 66.096 80.0091 65.8004 80.2403 65.5959C80.3491 65.4997 80.6687 65.5002 80.7898 65.5922C80.965 65.725 81.2348 65.8881 80.9547 66.24C80.2039 67.183 79.4606 68.1373 78.7996 69.143C78.4956 69.6057 78.308 70.185 78.2144 70.7363C78.0449 71.7357 77.9842 72.7535 77.8801 73.7638C77.7958 74.5816 78.1931 75.2722 78.4672 75.9973C78.6396 76.4536 78.6991 76.9743 78.9565 77.3707C79.2436 77.8129 79.3482 78.4172 79.9435 78.6488C80.0667 78.6967 80.2123 78.9913 80.1677 79.0944C80.0991 79.2529 79.8871 79.4219 79.714 79.4497C79.0945 79.549 78.8547 79.0195 78.6325 78.6231C77.8313 77.1941 77.1126 75.6929 76.9622 74.0571C76.8189 72.4991 76.7758 70.8924 77.6197 69.4445C77.7273 69.2602 77.717 69.0838 77.4419 69.1416C77.0582 69.2221 76.6845 69.3487 76.3053 69.4509C75.3878 69.6985 74.4576 69.9063 73.5549 70.1988C72.4884 70.5443 71.4317 70.929 70.3966 71.3585C69.4963 71.732 68.6017 72.1403 67.7622 72.6313C67.2044 72.9576 66.7477 73.4564 66.2458 73.8779C66.3053 73.9482 66.3548 74.0651 66.426 74.0804C66.6884 74.1365 66.965 74.1318 67.2234 74.1988C68.3039 74.4787 68.6921 75.366 69.0063 76.2973C69.0462 76.4156 68.9292 76.5792 68.9141 76.7248C68.8612 77.2362 69.0169 77.3564 69.5145 77.2303C69.9458 77.1211 70.3797 76.9633 70.8169 76.9461C72.7848 76.8692 74.7096 77.0896 76.5164 77.9458C77.0754 78.2107 77.649 78.4545 78.1764 78.7732C78.878 79.1972 78.9073 80.0802 78.2563 80.6105C77.1428 81.5174 75.82 81.9439 74.4337 82.2012C73.5978 82.3563 72.7609 82.5676 71.9176 82.6067C70.5524 82.67 69.1789 82.6742 67.8518 82.2131C67.4524 82.0743 67.1078 82.348 67.0118 82.7808C66.8119 83.6821 65.9049 84.4016 64.9851 84.4207C64.0849 84.4393 63.1852 84.4842 62.2857 84.5265C62.1757 84.5317 62.0609 84.5782 61.961 84.6302C60.88 85.1927 59.5891 85.0171 58.7086 84.1918C58.6158 84.1049 58.479 83.9977 58.3702 84.0055C57.562 84.0635 57.1557 83.4632 56.6774 82.9927C56.3613 82.6817 56.0851 82.3307 55.784 82.004C54.8374 80.9768 53.9605 79.9192 53.8126 78.4426C53.774 78.0579 53.6009 77.6883 53.5092 77.3071C53.4242 76.9533 53.3354 76.5961 53.2999 76.2354C53.0731 73.9314 52.9411 71.6246 52.9656 69.3058C52.9835 67.6137 53.8017 66.3892 55.0248 65.36C55.643 64.8398 56.2388 64.2459 56.9477 63.89C58.3971 63.1625 59.8437 62.4289 61.4169 61.9449C63.6224 61.2663 65.7885 60.4527 67.9495 59.6386C69.1946 59.1694 70.3865 58.5615 71.6202 58.0599C72.9145 57.5336 74.2254 57.0467 75.5377 56.5665C77.004 56.0297 78.4708 55.4915 79.9548 55.0071C81.1508 54.6167 82.3619 54.2589 83.587 53.9765C84.3094 53.81 85.0717 53.8133 85.8169 53.7494C86.7016 53.6736 87.5878 53.6127 88.4714 53.526C88.5319 53.52 88.6392 53.2906 88.6185 53.2695C88.417 53.065 88.1963 52.8785 87.9732 52.6966C87.8989 52.6361 87.7763 52.6246 87.7189 52.5551C87.2887 52.0336 86.8544 51.5142 86.4508 50.9724C86.0342 50.4131 85.6248 49.8453 85.2585 49.2527C84.5526 48.1105 83.9193 46.9498 83.6565 45.5899C83.4624 44.586 83.8724 43.8824 84.3438 43.0963C84.7378 42.4396 85.1806 41.867 85.8149 41.4548C86.5684 40.9652 87.341 40.5154 88.2978 40.567C88.5269 40.5794 88.7596 40.4912 88.9925 40.4706C90.793 40.3123 92.4912 40.7659 94.1841 41.3048C95.8335 41.8299 97.4851 42.3699 99.1701 42.7518C99.8726 42.911 100.664 42.6361 101.415 42.6331C102.554 42.6287 102.818 41.6872 103.273 40.9682C104.239 39.4405 105.197 37.9061 106.096 36.3382C106.339 35.9137 106.409 35.3648 106.461 34.8629C106.544 34.0744 106.523 33.2757 106.584 32.4843C106.724 30.6749 108.677 29.512 110.317 30.2457C111.48 30.7658 111.759 31.613 111.112 32.7713C110.728 33.4591 110.296 34.1206 109.887 34.7945C109.836 34.8782 109.745 34.9698 109.752 35.0512C109.821 35.9005 109.674 36.741 109.928 37.6073C110.392 39.1845 111.522 40.2298 112.582 41.351C112.775 41.5553 112.989 41.7402 113.174 41.9517C113.272 42.0648 113.327 42.2155 113.402 42.3491C113.484 42.1724 113.563 41.9939 113.649 41.8194C114.213 40.684 114.507 39.4641 114.823 38.2453C115.055 37.351 115.472 36.5038 115.697 35.6083C115.9 34.8006 116.015 33.9593 116.062 33.1268L116.101 32.4531C116.17 31.2172 116.226 29.9767 116.155 28.7465C116.072 27.3311 115.784 25.9265 115.564 24.5207C115.26 22.5865 114.493 20.7898 113.846 18.961C113.619 18.3222 113.237 17.737 112.908 17.137C112.46 16.3197 112.004 15.5066 111.53 14.7048C111.456 14.5801 111.256 14.5359 111.131 14.4336C111.009 14.3339 110.909 14.2075 110.8 14.0929C110.911 13.9968 111.02 13.8215 111.132 13.8195C111.468 13.8132 111.805 13.8971 112.143 13.9029C112.411 13.9075 112.69 13.8839 112.947 13.8113C113.527 13.6476 114.099 13.4542 114.668 13.2573C115.288 13.0431 115.643 12.556 115.843 11.9723C116.205 10.9173 116.301 9.83811 116.086 8.72829C115.992 8.24484 116.064 7.7277 115.958 7.24838C115.73 6.21681 115.355 5.2187 114.635 4.43158C113.91 3.63902 113.124 2.89233 112.295 2.20923C111.881 1.86786 111.313 1.71289 110.814 1.47365C110.667 1.40332 110.514 1.34351 110.375 1.261C109.874 0.964898 109.359 0.786647 108.754 0.8279C108.281 0.860051 107.794 0.707805 107.323 0.747048C105.446 0.903078 103.706 1.41443 102.19 2.62093C100.995 3.57165 100.245 4.78856 99.7263 6.17615C99.2548 7.43668 100.267 8.46931 101.393 8.51813C102.616 8.57108 103.681 8.98621 104.678 9.64201C105.136 9.94308 105.583 10.2599 106.032 10.5743C106.077 10.6061 106.099 10.6712 106.132 10.7209C106.072 10.7142 106.003 10.7243 105.953 10.6984C105.287 10.3544 104.627 9.99544 103.957 9.65998C102.918 9.14059 101.824 8.77605 100.653 8.86376C99.5639 8.94532 98.4858 9.20938 97.3971 9.25312C96.0395 9.30761 94.794 9.74898 93.5801 10.2437C92.1516 10.8258 90.6915 11.4301 89.4285 12.2925C87.9196 13.3229 86.6724 14.7001 85.5682 16.1813C85.0616 16.8608 84.7425 17.6195 84.3969 18.385C83.6543 20.0298 82.7778 21.6137 82.0031 23.2448C81.4673 24.3729 81.0075 25.5372 80.5191 26.6877C80.3669 27.0462 80.2713 27.4345 80.0788 27.7685C79.8875 28.1003 79.9855 28.1322 80.3017 28.1428C81.5343 28.1843 82.5828 27.644 83.605 27.0742C84.7241 26.4506 85.8366 25.8026 86.8872 25.0722C88.0332 24.2754 89.1035 23.37 90.2106 22.5169C90.4204 22.3552 90.6392 22.1992 90.874 22.08C90.9354 22.0488 91.1655 22.1818 91.1602 22.2129C91.1005 22.569 91.0511 22.9362 90.9206 23.2696C90.4591 24.4482 89.9654 25.6143 89.489 26.7872C89.4522 26.8779 89.4548 26.9846 89.4391 27.0839C89.53 27.0488 89.6296 27.0274 89.7106 26.9765C90.9941 26.1687 92.301 25.3946 93.5465 24.5316C94.2337 24.0553 94.8215 23.434 95.4449 22.8681C95.9948 22.3688 96.5084 21.8256 97.0893 21.3665C97.2632 21.2292 97.6092 21.3089 97.8763 21.2891C97.8582 21.4959 97.8426 21.7029 97.8214 21.9093C97.7523 22.583 97.6866 23.257 97.6094 23.9297C97.5096 24.8 97.3952 25.6687 97.2981 26.5394C97.2793 26.7086 97.3106 26.8835 97.3188 27.0557C97.4616 26.9948 97.6147 26.9507 97.7457 26.8706C99.0051 26.0992 100.288 25.3811 101.436 24.4188C102.292 23.7011 102.808 22.758 103.518 21.9518C103.721 21.7219 103.815 21.2401 104.269 21.6618C104.285 21.6768 104.353 21.6617 104.377 21.6396C104.907 21.1508 104.771 21.6444 104.786 21.9151C104.821 22.5856 104.907 23.2582 104.879 23.926C104.843 24.77 104.683 25.6083 104.636 26.4524C104.581 27.4267 104.591 28.4046 104.583 29.3811C104.583 29.4083 104.738 29.4798 104.772 29.4572C105.099 29.2409 105.435 29.0309 105.731 28.7756C106.107 28.4501 106.389 28.4861 106.484 28.9475C106.582 29.4234 106.643 29.9103 106.669 30.3951C106.676 30.5155 106.489 30.6465 106.391 30.7726C106.278 30.6614 106.075 30.5557 106.067 30.438C106.034 29.8981 105.627 29.8191 105.219 29.9893C104.936 30.1071 104.722 30.383 104.443 30.5168C104.222 30.6232 103.948 30.6212 103.697 30.6673C103.708 30.5375 103.723 30.4077 103.723 30.2779C103.723 30.2671 103.619 30.2594 103.565 30.2451C103.422 30.2077 103.201 30.2065 103.158 30.1188C103.101 30.0029 103.169 29.8146 103.209 29.664C103.304 29.301 103.462 28.9478 103.509 28.5798C103.584 27.9847 103.577 27.3797 103.629 26.7809C103.684 26.1411 103.802 25.5051 103.825 24.8651C103.844 24.3195 103.767 23.7704 103.729 23.223C103.726 23.176 103.699 23.1306 103.683 23.0845C103.634 23.1305 103.58 23.1734 103.535 23.2232C103.161 23.63 102.792 24.0416 102.414 24.4452C101.323 25.6118 99.9428 26.3806 98.5907 27.1843C98.2146 27.4079 97.8086 27.7094 97.4053 27.7273C96.8884 27.7503 97.0024 28.0097 96.9607 28.3016C96.9464 28.4019 96.7243 28.5517 96.6162 28.5371C96.5127 28.5232 96.3464 28.3152 96.3585 28.2097C96.4537 27.3783 96.5841 26.551 96.7056 25.7226C96.7588 25.3589 96.8362 24.9975 96.8677 24.632C96.9194 24.0332 96.9441 23.4321 96.976 22.8317C96.9803 22.7481 96.9606 22.6632 96.9519 22.5791C96.8898 22.6232 96.8235 22.6626 96.766 22.7122C96.2346 23.1704 95.6926 23.6175 95.1764 24.0923C93.2263 25.8862 91.0833 27.3915 88.6612 28.4844C88.5242 28.5462 88.2556 28.6321 88.2452 28.6108C88.1122 28.3386 87.8505 27.9799 87.9364 27.775C88.4008 26.667 88.9534 25.5961 89.4757 24.5124C89.5694 24.318 89.6631 24.1235 89.7568 23.929C89.5622 24.0487 89.3603 24.1582 89.174 24.2896C88.1938 24.9814 87.2466 25.7254 86.2315 26.3611C85.2507 26.9752 84.1958 27.4703 83.1839 28.0362C82.6214 28.3507 81.9226 28.5421 81.808 29.3302C81.7749 29.5579 81.801 29.7939 81.7775 30.0237C81.7702 30.096 81.6892 30.1609 81.642 30.2291C81.6189 30.1619 81.6046 30.09 81.5712 30.0282C81.3839 29.6808 81.2706 29.2183 80.9792 29.0234C80.6931 28.8322 80.2219 28.8696 79.8364 28.8897C79.5342 28.9053 79.2395 29.0505 78.9395 29.1305C78.8958 29.1421 78.8212 29.1272 78.7969 29.0962C78.7746 29.068 78.7856 28.9928 78.8081 28.9531C79.3996 27.9046 79.5973 26.704 80.0981 25.6219C80.5554 24.6337 81.0282 23.6525 81.5063 22.674C81.942 21.7823 82.4026 20.9025 82.8366 20.0098C83.334 18.9869 83.8683 17.9769 84.288 16.9222C84.7905 15.6589 85.7194 14.7535 86.6566 13.8472L87.1623 13.3576C87.8379 12.7051 88.5222 12.0593 89.2596 11.4843C89.8277 11.0413 90.5521 10.8004 91.2001 10.457C92.6178 9.7056 94.1377 9.20986 95.6666 8.76695C96.4494 8.54035 97.2971 8.54047 98.1137 8.42451C98.2636 8.40323 98.4042 8.31671 98.5492 8.26021C98.4258 8.14106 98.3216 7.95701 98.1757 7.91363C97.4999 7.71292 96.8122 7.55181 96.1292 7.37486C96.0507 7.35453 95.9694 7.33372 95.8987 7.29578C95.7748 7.22899 95.6581 7.14885 95.5384 7.07438C95.68 7.03431 95.8193 6.97486 95.9637 6.95784C96.3523 6.91174 96.7787 6.96836 97.1224 6.82379C97.4368 6.69152 97.7474 6.39164 97.8998 6.08608C98.0172 5.85086 98.0159 5.93301 98.1222 6.04116C98.3028 6.22485 98.4789 6.41422 98.673 6.58266C98.7309 6.63289 98.8731 6.66493 98.9239 6.62958C99.0639 6.53206 99.1759 6.39459 99.299 6.27284C98.8253 5.8453 99.199 5.48572 99.3978 5.11846C99.939 4.11893 100.471 3.12519 101.325 2.32495C102.012 1.68074 102.792 1.25024 103.662 0.948704C104.35 0.710287 105.044 0.490073 105.735 0.235344C107.125 0.208984 108.514 0.208984 109.93 0.208984ZM65.4303 107.435C65.6072 107.73 65.7913 108.02 65.9791 108.308C66.0555 108.425 66.1503 108.53 66.2367 108.641C66.2489 108.524 66.2337 108.394 66.2808 108.293C66.3292 108.189 66.4263 108.096 66.5228 108.028C66.8316 107.809 67.1596 107.616 67.46 107.386C67.5786 107.296 67.6439 107.135 67.7335 107.007C67.6161 106.995 67.4986 106.983 67.2756 106.971C66.7657 106.936 66.2562 106.884 65.7457 106.871C65.3119 106.859 65.2064 107.062 65.4303 107.435ZM41.4149 106.564C41.3645 106.788 41.314 107.011 41.3193 107.287C41.3449 107.347 41.3706 107.406 41.3962 107.465C41.4611 107.426 41.5819 107.386 41.5818 107.346C41.5806 107.112 41.5554 106.878 41.5269 106.646C41.5231 106.615 41.4539 106.591 41.4149 106.564ZM40.069 104.35C40.4639 104.994 40.862 105.637 41.2724 106.271C41.3268 106.355 41.4613 106.388 41.5587 106.444C41.602 106.354 41.6729 106.268 41.6841 106.174C41.7626 105.518 42.0387 105.079 42.779 105.064C42.9268 105.061 43.072 104.933 43.3241 104.863C43.444 104.814 43.5903 104.792 43.6784 104.709C43.8747 104.524 44.0418 104.307 44.2209 104.104C43.9306 104.067 43.6411 104.016 43.3496 103.998C42.9745 103.975 42.5943 104.008 42.2222 103.966C41.6594 103.902 41.1041 103.749 40.5411 103.718C40.0787 103.692 39.869 104.024 40.069 104.35ZM27.7125 104.973C27.6583 105.138 27.6016 105.303 27.5507 105.469C27.5271 105.546 27.5145 105.627 27.4442 105.759C27.4442 105.863 27.41 105.984 27.452 106.067C27.5188 106.198 27.6363 106.303 27.7323 106.42C27.8121 106.283 27.9417 106.152 27.9589 106.007C27.979 105.838 27.9079 105.655 27.8644 105.481C27.8216 105.31 27.7637 105.142 27.7125 104.973ZM106.213 86.7651C105.479 86.9061 104.839 87.29 104.359 87.9099C103.863 88.5515 103.406 89.2523 102.799 89.7718C101.89 90.5495 100.885 91.2232 99.8828 91.8826C98.7485 92.6287 97.4976 93.1698 96.2072 93.5687C95.0396 93.9295 93.8571 93.6129 92.6984 93.3643C92.1702 93.2511 91.6458 93.1106 91.1301 92.9494C90.4 92.721 89.6267 92.5548 88.9741 92.1828C88.553 91.9428 88.1984 91.8402 87.7488 91.8962C87.4924 91.9282 87.1973 91.848 86.9781 91.9473C86.0436 92.371 85.6008 93.9749 86.2799 94.7212C86.869 95.3684 87.5834 95.9239 88.3133 96.4147C88.9455 96.8396 89.2628 97.8658 88.844 98.5015C88.259 99.3894 87.3186 99.5612 86.3911 99.6848C85.3379 99.8252 84.3132 99.5494 83.3364 99.1817C81.9747 98.669 80.8468 97.7642 79.7984 96.7918C79.0483 96.0962 78.2738 95.4929 77.2466 95.1144C76.9837 95.1663 76.7216 95.2249 76.457 95.267C76.3504 95.2839 76.238 95.2648 76.1283 95.2619C76.1974 95.1999 76.2627 95.1325 76.3373 95.0775C76.3845 95.0427 76.4454 95.026 76.5002 95.0012C76.4361 94.9862 76.3418 94.9364 76.3125 94.9618C76.0546 95.1849 75.7452 95.3848 75.5806 95.6669C75.4714 95.8541 75.4765 96.1917 75.8179 96.3362C75.8989 96.3704 75.9515 96.5228 75.9769 96.6304C76.3258 98.108 77.2976 99.2088 78.3015 100.244C79.2396 101.211 80.4643 101.792 81.7419 102.226C81.9893 102.311 82.2425 102.384 82.4984 102.436C83.2298 102.585 83.9642 102.719 84.6968 102.861C85.8307 103.081 86.9287 103.455 88.119 103.4C90.4971 103.289 92.8788 103.258 95.2581 103.17C95.9516 103.144 96.6538 103.093 97.3313 102.954C98.6682 102.679 99.9845 102.304 101.321 102.025C103.138 101.645 104.967 101.319 106.789 100.957C106.94 100.927 107.203 100.772 107.193 100.717C107.053 99.9778 107.704 100.01 108.054 99.9342C109.001 99.7295 109.588 99.2523 109.749 98.2777C109.824 97.8229 109.997 97.3793 110.03 96.9239C110.079 96.2475 110.108 95.557 110.026 94.8872C109.929 94.1053 109.689 93.3422 109.537 92.5658C109.247 91.085 108.971 89.5954 108.253 88.2503C108.018 87.8096 107.659 87.4006 107.266 87.0897C106.992 86.8725 106.538 86.7026 106.213 86.7651ZM83.3759 98.2856C83.4255 98.3351 83.4751 98.3846 83.6302 98.4343C83.9751 98.5328 84.3144 98.677 84.6661 98.72C85.2991 98.7973 85.9394 98.8155 86.577 98.8524C86.6255 98.8552 86.6769 98.8101 86.727 98.7873C86.6795 98.775 86.6322 98.7527 86.5845 98.7519C85.5425 98.7319 84.5183 98.6111 83.5351 98.2395C83.4938 98.2239 83.4295 98.2689 83.3759 98.2856ZM32.9428 96.757C33.4894 96.7779 34.0352 96.8245 34.5805 96.8708C34.6753 96.879 34.7659 96.9532 34.8594 96.9551C36.8368 96.995 38.8142 97.029 40.8445 97.0642C41.2196 97.1344 41.5389 97.2368 41.8649 97.268C42.4808 97.3271 43.1003 97.3526 43.7187 97.3789C45.4646 97.4532 47.2105 97.5251 48.9566 97.5896C50.1193 97.6326 51.2826 97.6609 52.4455 97.6976C52.5114 97.6998 52.5769 97.7187 52.6426 97.7298C52.5776 97.7539 52.5135 97.7961 52.4475 97.7992C50.895 97.8729 49.3426 97.9896 47.7897 97.9974C46.5889 98.0034 45.3881 97.8591 44.1862 97.805C42.3705 97.7231 40.5528 97.6806 38.7379 97.585C37.3213 97.5103 35.9069 97.3883 34.4928 97.2709C33.9399 97.2251 33.3902 97.1385 32.8407 97.0592C32.7668 97.0486 32.7026 96.9716 32.6338 96.9254C32.737 96.8663 32.8421 96.7531 32.9428 96.757ZM81.1064 95.8131C81.6808 95.9911 82.241 96.2734 82.8269 96.342C83.6611 96.4397 84.5135 96.3889 85.3582 96.3886C85.6358 96.3885 85.913 96.3387 86.1909 96.3311C86.3038 96.328 86.4181 96.377 86.5318 96.4023C86.4233 96.4824 86.3246 96.5841 86.2046 96.6393C84.9539 97.215 83.666 97.168 82.3113 96.8533C82.1123 96.7831 81.9513 96.7329 81.8227 96.6387C81.5015 96.4033 81.1948 96.1486 80.884 95.8994C80.8672 95.8859 80.8675 95.8513 80.8598 95.8265C80.9424 95.8207 81.0327 95.7902 81.1064 95.8131ZM45.5909 59.0865C45.7843 59.1809 45.8612 59.6171 45.8914 59.9067C45.9135 60.1197 45.9196 60.3912 45.4914 60.4083C44.8276 60.4349 45.0818 61.0081 45.0756 61.3729C45.0675 61.8494 45.1581 62.3268 45.1658 62.8044C45.1816 63.7878 45.2492 64.78 45.1445 65.7523C45.0666 66.4749 45.1457 67.1177 45.3553 67.8016C45.4711 68.1797 45.6702 68.2001 45.9238 68.1767C46.2151 68.1499 46.498 68.0395 46.7876 67.9795C46.8946 67.9573 47.0817 67.9365 47.1072 67.9831C47.1643 68.0882 47.2009 68.3081 47.1441 68.3532C46.9146 68.5349 46.6415 68.804 46.3935 68.7949C45.4555 68.761 45.2354 69.202 45.2695 69.9752C45.3004 70.6764 45.3077 71.3817 45.2695 72.0822C45.1871 73.5921 45.0158 75.0848 44.6798 76.5715C44.4859 77.4296 44.6319 78.3669 44.6477 79.2681C44.6561 79.7459 44.6894 80.2263 44.7586 80.6985C44.7929 80.9321 44.8814 81.1991 45.0371 81.3655C45.4243 81.7795 45.8413 82.1456 46.3615 82.4321C48.2539 83.4744 49.5468 85.0007 50.161 87.13C50.4037 87.9717 50.5601 88.8098 50.6445 89.662C50.7737 90.9683 50.2152 92.1211 49.6639 93.254C49.0003 94.6182 47.9222 95.5196 46.5545 96.1916C45.2458 96.8346 43.8993 97.0278 42.4933 96.9423C41.9622 96.9101 41.4495 96.6431 40.9163 96.5681C39.91 96.4262 39.1405 95.8235 38.3195 95.3213C38.046 95.154 37.7834 94.9373 37.5821 94.6896C36.5872 93.465 35.7715 92.1217 35.4826 90.5594C35.2379 89.2359 35.2337 87.8775 35.6844 86.5786C36.0518 85.5194 36.688 84.6068 37.4306 83.7719C38.0834 83.0379 38.8161 82.3627 39.3816 81.5678C39.7463 81.055 39.9665 80.3905 40.0831 79.7628C40.2442 78.8954 40.2784 77.9996 40.3062 77.114C40.3262 76.4804 40.2127 75.8434 40.2184 75.2085C40.2304 73.8703 40.3273 72.5316 40.2956 71.1953C40.2819 70.6182 40.1108 70.0134 39.8752 69.4812C39.5983 68.8557 39.631 68.2601 39.8427 67.6754C40.1236 66.8996 40.2282 66.1178 40.2202 65.2991C40.2131 64.5764 40.301 63.8531 40.3096 63.1297C40.3146 62.7057 40.2544 62.2799 40.2096 61.8564C40.1378 61.1782 40.1471 60.5163 40.5543 59.8872C41.1661 58.9281 42.0486 58.6214 43.1065 58.5846C43.9856 58.5541 44.8201 58.7102 45.5909 59.0865ZM40.9508 70.0843C40.9132 71.9485 40.8663 73.8127 40.8511 75.6771C40.8453 76.3997 40.9716 77.1257 40.9353 77.8451C40.8922 78.7 40.6325 79.553 40.6605 80.4004C40.6951 81.4503 40.2247 82.1704 39.4804 82.7646C38.2562 83.742 37.2697 84.9085 36.5118 86.273C36.4851 86.3211 36.5028 86.3953 36.504 86.4574C36.5077 86.637 36.5716 86.8407 36.5085 86.992C36.197 87.7391 35.7879 88.4653 36.1005 89.3138C36.2237 89.648 36.4148 89.9575 36.5321 90.2934C36.5834 90.4403 36.5904 90.7174 36.5072 90.7742C36.2912 90.9216 36.2614 91.0123 36.4032 91.2372C36.5209 91.4242 36.5325 91.6743 36.6273 91.8798C37.2827 93.3003 38.1501 94.5288 39.5926 95.2773C41.5205 96.2778 43.5075 96.1913 45.5058 95.6105C47.1832 95.123 48.3104 93.9395 49.18 92.3742C49.7201 91.1762 50.0317 89.9634 49.8378 88.6108C49.6897 87.5786 49.3003 86.6483 48.7243 85.8618C48.0697 84.9678 47.1749 84.2478 46.3738 83.4632C45.994 83.0913 45.6208 82.6995 45.1879 82.398C44.5844 81.9778 44.1696 81.4255 43.9128 80.7673C43.4593 79.6051 43.5635 78.3567 43.8434 77.2252C44.2336 75.6473 44.1222 74.0558 44.3094 72.4788C44.4061 71.665 44.3269 70.8303 44.3262 70.0051C44.3258 69.5256 43.8695 69.1964 43.4062 69.2501C42.964 69.3014 42.5001 69.306 42.0632 69.2306C41.4009 69.1163 40.9644 69.4112 40.9508 70.0843ZM47.5992 94.5875L47.3942 94.85C47.4781 94.8283 47.5797 94.8324 47.6397 94.7752C47.6766 94.7401 47.6504 94.611 47.5992 94.5875ZM65.2244 94.1609C65.2375 94.2247 65.3377 94.3128 65.4025 94.3174C66.0521 94.3634 66.717 94.3229 67.3494 94.4485C68.0461 94.5869 68.2356 94.2424 68.3835 93.6389C68.5141 93.3974 68.5231 93.2096 68.1937 93.1305C67.6856 93.0086 67.1833 92.8626 66.6743 92.7453C65.7309 92.5278 65.0297 93.213 65.2244 94.1609ZM86.7465 83.5973C87.658 83.6456 88.5506 83.8079 89.4218 84.2524C90.7713 84.941 91.1212 86.437 90.6495 87.5719C90.4255 88.1111 90.5661 88.8014 90.5413 89.476C90.4585 90.1412 90.4913 90.7299 90.8847 91.2492C90.8976 91.2662 90.8476 91.3306 90.8269 91.373C90.5351 91.2292 90.2417 91.0883 89.9535 90.9376C89.923 90.9216 89.9091 90.848 89.9102 90.8015C89.943 89.4469 89.9833 88.0924 90.0119 86.7375C90.0262 86.0572 90.0149 86.0496 89.3787 86.2108C88.728 86.3757 88.085 86.5734 87.4292 86.7125C87.3382 86.7318 87.1932 86.4976 87.0732 86.3807C87.222 86.2531 87.3511 86.077 87.5233 86.0076C87.9452 85.8377 88.3952 85.7371 88.8163 85.5654C88.9609 85.5064 89.1695 85.2923 89.1469 85.1968C89.0896 84.9548 88.9437 84.7186 88.7821 84.5223C88.6893 84.4096 88.4994 84.3283 88.3482 84.3197C86.9174 84.2376 85.4985 83.9133 84.048 84.19C83.5166 84.2913 82.9471 84.1724 82.3993 84.2133C81.219 84.3014 80.0387 84.4125 78.918 84.8397C78.8505 84.8654 78.7885 84.9057 78.7238 84.9392C78.7827 84.9821 78.8356 85.0442 78.9014 85.0647C79.5706 85.2743 80.2318 85.5257 80.9155 85.669C81.686 85.8303 82.4778 85.8894 83.2592 86.0005C83.4265 86.0243 83.5933 86.069 83.7512 86.1282C83.7991 86.1462 83.8575 86.2615 83.8405 86.3047C83.7814 86.4549 83.6736 86.7242 83.6156 86.7164C82.5074 86.567 81.4018 86.3956 80.3004 86.2015C79.9998 86.1485 79.7183 85.9959 79.4222 85.9086C79.0324 85.7936 78.7359 86.0085 78.7237 86.3962C78.6535 88.6315 78.583 90.8669 78.5133 93.1022C78.5095 93.2249 78.4959 93.3507 78.5158 93.4703C78.5926 93.933 78.4461 94.1055 77.9746 94.0617C77.9359 94.058 77.8819 93.9062 77.8842 93.8247C77.9125 92.8209 78.0068 91.8153 77.9706 90.8144C77.9275 89.627 77.7099 88.4448 77.6896 87.2581C77.674 86.3522 77.6789 85.4003 78.2704 84.6121C78.6647 84.0866 79.3264 84.1225 79.8631 84.025C80.9792 83.8222 82.1235 83.7564 83.2595 83.6873C84.4203 83.6165 85.5887 83.536 86.7465 83.5973ZM59.7381 93.2768C59.6501 93.593 59.8309 93.8637 60.1439 93.8899C60.7826 93.9435 61.428 93.9123 62.0693 93.9434C62.4782 93.9631 62.6856 93.7443 62.9011 93.4372C63.3565 92.7884 63.3097 92.3055 62.633 91.7945C62.4577 91.7945 62.2692 91.8371 62.109 91.7878C60.816 91.39 60.0243 92.2489 59.7381 93.2768ZM66.8592 91.3798C66.6846 91.4651 66.2211 91.3878 66.4843 91.9526C67.1633 92.1742 67.8411 92.3994 68.5248 92.6055C68.557 92.6152 68.6909 92.4557 68.692 92.3737C68.6999 91.7572 67.4685 91.082 66.8592 91.3798ZM63.3356 90.6016C62.6983 90.6599 62.0608 90.7179 61.4261 90.7986C61.3587 90.8072 61.3096 90.961 61.2521 91.0475C61.3411 91.0857 61.4282 91.1497 61.5196 91.157C61.7283 91.1735 61.9562 91.1101 62.1454 91.1727C62.5903 91.3195 63.3042 91.0393 63.3468 91.8752C63.4085 91.8652 63.5023 91.8769 63.5262 91.8415C63.6259 91.6941 63.7638 91.5371 63.7769 91.3748C63.7963 91.1322 63.7223 90.8821 63.5827 90.6352C63.5002 90.6231 63.4163 90.5943 63.3356 90.6016ZM85.5483 85.7789C85.736 85.925 85.9864 85.9875 86.1989 86.1054C86.824 86.4517 86.875 86.8407 86.3472 87.3418C86.3619 87.0253 86.4715 86.6673 86.0197 86.6451C85.7565 86.6322 85.4753 86.7409 85.223 86.8451C85.0754 86.9061 84.9688 87.0659 84.8436 87.1814C85.0204 87.2788 85.1925 87.4457 85.3749 87.458C85.6868 87.479 86.0052 87.4033 86.3208 87.368C85.8781 87.8943 85.4633 88.0154 84.8775 87.7897C84.5277 87.6549 84.0117 86.4563 84.221 86.1795C84.3792 85.9703 84.6297 85.8291 84.8444 85.6645C85.118 85.4546 85.319 85.6004 85.5483 85.7789ZM60.098 63.3777C59.2455 63.6841 58.3821 64.0506 57.6452 64.5662C56.6455 65.2654 55.7484 66.1145 54.8301 66.925C54.0592 67.6053 53.8217 68.5532 53.8421 69.5081C53.881 71.345 54.0763 73.1785 54.1215 75.0154C54.1445 75.9544 54.2896 76.8436 54.5475 77.742C54.8433 78.7727 55.0657 79.8148 55.822 80.6437C56.1018 80.9503 56.3286 81.307 56.5635 81.6519C56.8046 82.0058 57.0107 82.3844 57.2665 82.7266C57.3286 82.8099 57.5249 82.7928 57.6596 82.8219C57.6671 82.7239 57.6566 82.6205 57.6852 82.529C57.7723 82.2491 57.8744 81.9738 57.9706 81.6967C58.0652 81.9079 58.161 82.1184 58.2536 82.3304C58.2925 82.4196 58.3336 82.5094 58.3584 82.6029C58.7596 84.1105 60.3806 84.6542 61.5747 84.1731C62.2972 83.8819 62.4223 83.3187 61.7315 82.7771C61.5175 82.6094 61.3123 82.4304 61.0503 82.2038C60.9631 82.0817 60.8285 81.969 60.8015 81.8347C60.7717 81.687 60.794 81.4784 60.8843 81.3759C60.9396 81.313 61.2163 81.3447 61.3057 81.4281C61.8542 81.9393 62.3622 82.4939 62.9133 83.0021L63.0246 83.1048C63.5629 83.6006 64.113 84.0729 64.9714 83.9019C65.4666 83.8032 66.1672 83.4147 66.2733 83.053C66.3637 82.7445 66.0102 81.8029 65.6709 81.6919C64.9404 81.453 64.394 80.9613 63.7958 80.5249C62.9016 79.8726 62.7153 78.6409 63.4185 77.8173C63.5011 77.7205 63.496 77.5522 63.5459 77.4225C63.5678 77.3654 63.6251 77.3219 63.6664 77.2721C63.6913 77.3176 63.7399 77.3646 63.7373 77.4085C63.7079 77.9036 63.6939 78.4013 63.6278 78.8919C63.5775 79.2653 63.8111 79.8613 64.1586 80.0353C64.6028 80.2576 64.9535 80.5937 65.5611 80.5623C66.0681 80.5362 66.5924 80.9094 67.1142 81.0913C67.6984 81.295 68.2862 81.4894 68.8778 81.6701C68.9795 81.7012 69.1082 81.6439 69.2244 81.6274C69.2017 81.5674 69.1959 81.4891 69.1537 81.4503C68.3753 80.7351 68.4958 79.7881 68.4985 78.8785C68.499 78.7221 68.6152 78.5608 68.6962 78.4116C68.7477 78.3165 68.833 78.2394 68.9031 78.1543C68.7759 78.1056 68.6371 77.9984 68.524 78.0206C68.2882 78.0672 68.0708 78.1979 67.8377 78.2665C66.8027 78.5706 65.7652 78.8669 64.7257 79.155C64.6891 79.1652 64.5803 79.0643 64.5732 79.0069C64.5084 78.4837 64.8992 78.3335 65.2785 78.2024C66.047 77.9368 66.8956 77.9227 67.5726 77.365C68.0566 76.9663 68.3835 76.3613 68.2372 75.8923C68.0037 75.1442 67.5776 74.8305 66.8076 74.8252C66.2142 74.8209 65.621 74.8001 65.0275 74.7955C64.38 74.7906 63.7285 74.7518 63.0861 74.8103C62.5477 74.8594 62.021 75.0323 61.4867 75.1374C61.4046 75.1536 61.309 75.1003 61.2195 75.079C61.4338 74.8543 61.626 74.4641 61.8659 74.4323C63.2005 74.2554 64.4725 73.8941 65.6955 73.3462C65.7981 73.3002 65.8909 73.1998 65.9527 73.1021C66.1099 72.8537 66.1831 72.474 66.4026 72.356C67.6782 71.6706 68.9881 71.0492 70.2814 70.396C70.4716 70.2999 70.755 70.1762 70.7888 70.0207C70.9133 69.4468 71.0479 68.846 70.9989 68.2706C70.9231 67.3794 70.4124 66.6411 69.7641 66.056C69.0283 65.392 68.1844 64.853 67.2249 64.5623C66.0193 64.197 64.8058 63.8488 63.5794 63.564C62.9242 63.412 62.2357 63.3886 61.5598 63.3456C61.0715 63.3145 60.5337 63.2211 60.098 63.3777ZM69.1855 80.5112C69.6896 81.3638 70.4616 81.8717 71.6016 81.8878C72.1142 81.8525 72.6325 81.8543 73.1378 81.7743C74.0708 81.6266 74.9998 81.4471 75.9223 81.2439C76.1476 81.1943 76.3331 81.05 76.0632 80.7411C75.49 80.085 75.5145 79.3879 76.0513 78.6999C76.1249 78.6056 76.1375 78.4637 76.1783 78.344C76.0608 78.3308 75.9434 78.3065 75.8258 78.3062C74.8887 78.303 73.9506 78.3315 73.0148 78.2961C72.2167 78.2659 71.4222 78.1217 70.6245 78.1031C69.2963 78.0721 68.5119 79.3721 69.1855 80.5112ZM90.8482 79.8338C91.5867 80.0783 92.325 80.3311 93.04 80.6355C93.3363 80.7616 93.5779 81.0207 93.8359 81.2297C94.0115 81.372 94.1724 81.5324 94.3398 81.6847C94.1584 81.7404 93.9799 81.8253 93.7949 81.8439C93.5855 81.8648 93.3577 81.8668 93.1596 81.8063C92.2586 81.5309 91.3568 81.253 90.4717 80.9311C89.9045 80.725 89.5687 81.0138 89.1997 81.3545C88.9186 81.6141 88.5506 81.7127 88.2852 81.3549C88.0498 81.0378 88.2849 80.7802 88.563 80.544C89.0576 80.1478 89.5488 79.8197 90.1683 79.7844C90.3943 79.7716 90.6385 79.7645 90.8482 79.8338ZM77.0246 78.9784C76.9046 79.0343 76.7848 79.0902 76.6648 79.146C76.2264 79.3499 76.0979 79.6398 76.2763 80.0226C76.4415 80.3773 77.1542 80.7327 77.43 80.5979C77.8614 80.387 78.0748 79.8607 77.8797 79.3056C77.5115 79.2545 77.713 79.6375 77.55 79.7373C77.4003 79.8291 77.2412 79.9054 77.0861 79.9885C77.069 79.8314 77.0455 79.6747 77.0363 79.5173C77.0258 79.3381 77.0279 79.1581 77.0246 78.9784ZM73.4382 58.2756C71.5024 59.0305 69.6157 59.91 67.6917 60.697C66.6243 61.1336 65.5152 61.4678 64.432 61.8676C63.9298 62.0529 63.4383 62.2713 62.9559 62.5037C62.8075 62.5752 62.7055 62.7427 62.5822 62.8664C62.757 62.9536 62.9232 63.0768 63.1082 63.1217C63.8933 63.3121 64.6835 63.4815 65.4728 63.6544C67.2641 64.047 68.881 64.7216 70.1288 66.1631C70.9309 67.0897 71.537 68.0436 71.4398 69.313C71.4106 69.6923 71.5779 69.8457 71.9237 69.7615C72.3988 69.6456 72.8642 69.4891 73.3325 69.3455C74.1277 69.1016 74.922 68.8542 75.8223 68.6084C76.3649 68.4327 76.9349 68.3143 77.4445 68.0698C78.6334 67.4995 78.6552 67.7232 78.6153 66.4765C78.5762 65.2573 78.6612 64.0441 78.4363 62.8178C78.1799 61.4198 77.5636 60.2395 76.6321 59.2408C76.2183 58.7972 75.5714 58.5083 74.9762 58.3155C74.5025 58.162 73.8844 58.1015 73.4382 58.2756ZM44.4398 67.9704C43.4557 67.9877 42.4708 67.9713 41.4865 67.9807C41.325 67.9822 41.164 68.0462 40.8972 68.0814C40.705 68.2406 40.5127 68.3999 40.3205 68.5592C40.4779 68.6458 40.6307 68.7969 40.7936 68.8089C42.0112 68.898 43.2311 68.9583 44.45 69.0307C44.8573 69.0548 44.8497 68.7727 44.8535 68.4979C44.8574 68.2133 44.8497 67.9632 44.4398 67.9704ZM41.2625 60.5119C40.758 60.7562 40.9941 61.2869 40.9499 61.8106C40.9148 62.4282 40.8583 63.0456 40.8491 63.6636C40.8325 64.7697 40.8266 65.8768 40.8613 66.9821C40.8673 67.1765 41.0802 67.5177 41.2199 67.5296C42.1859 67.6118 43.1578 67.6418 44.1277 67.6399C44.2618 67.6397 44.6968 67.6221 44.4512 67.1579C44.2807 66.8359 44.2386 66.4196 44.2306 66.0435C44.2045 64.8322 44.2056 63.6198 44.2291 62.4086C44.2374 61.98 44.2858 61.5351 44.4193 61.1316C44.5134 60.8471 44.4768 60.5239 44.172 60.4985C43.5376 60.4456 42.9009 60.4053 42.2645 60.395C41.928 60.3895 41.5492 60.373 41.2625 60.5119ZM112.984 49.9744C112.909 50.0352 112.822 50.0858 112.762 50.1589C112.483 50.4984 112.24 50.8713 111.934 51.1825C110.842 52.2922 109.794 53.4536 108.393 54.2098C107.517 54.6828 106.685 55.2433 105.63 55.487C104.757 55.7154 103.894 55.9909 103.01 56.1588C102.134 56.3251 101.237 56.3885 100.348 56.4847C100.095 56.512 99.7111 56.4999 99.8467 56.8422C100.184 57.6944 100.113 58.5475 100.039 59.4154C99.9851 60.047 100.154 60.2387 100.754 60.0592C101.969 59.6953 103.218 59.3742 104.355 58.83C106.168 57.9618 107.875 56.8873 109.48 55.6593C110.372 54.977 111.163 54.2334 111.628 53.1895C111.741 52.9368 111.85 52.6529 112.044 52.4713C112.7 51.8552 113.178 51.1845 113.016 50.2244C113.002 50.1415 112.994 50.0577 112.984 49.9744ZM44.7561 59.2245C43.801 59.2352 42.8448 59.2067 41.891 59.243C41.6352 59.2527 41.3579 59.4015 41.1458 59.5602C41.0356 59.6426 40.802 59.966 41.2455 59.9931C41.9374 60.0353 42.6311 60.047 43.4295 60.0716C44.077 60.0508 44.7256 60.0459 45.3709 59.9969C45.5141 59.986 45.6683 59.8375 45.768 59.7131C45.7981 59.6756 45.6693 59.4998 45.6 59.3964C45.3766 59.0628 45.0548 59.2211 44.7561 59.2245ZM95.6061 55.8032C95.5005 56.1264 95.3832 56.4464 95.2964 56.7745C95.269 56.8781 95.3232 57.0032 95.3401 57.1185C95.4597 57.0709 95.5965 57.0459 95.6956 56.9712C96.0847 56.6783 96.4613 56.369 96.8435 56.0669C97.0553 55.8997 97.269 55.7349 97.4818 55.5689C97.2702 55.4889 97.0549 55.4172 96.8475 55.3273C96.2675 55.0762 95.9186 55.1974 95.6061 55.8032ZM109.061 37.2034C109.024 37.3447 109.013 37.5014 108.944 37.6242C108.806 37.8657 108.566 38.0676 108.49 38.3222C107.942 40.1511 107.427 41.9903 106.895 43.824C106.622 44.7631 106.321 45.6943 106.055 46.6351C105.641 48.0953 105.221 49.557 104.355 50.8268C103.884 51.5182 103.63 52.3525 102.826 52.8304C101.509 53.6126 100.302 54.6087 98.6507 54.5985C98.4807 54.5974 98.31 54.6974 98.1397 54.7506C98.2888 54.8293 98.4396 54.9049 98.5859 54.9885C98.6301 55.0137 98.6784 55.0544 98.6963 55.0993C98.9359 55.7011 99.473 55.7843 99.9903 55.7364C100.991 55.644 101.987 55.4896 102.979 55.3244C104.554 55.0619 106.049 54.5772 107.454 53.7856C109.157 52.8263 110.575 51.5602 111.855 50.0066C111.992 49.7999 112.157 49.6056 112.256 49.3822C112.331 49.2127 112.323 49.0061 112.351 48.816C112.225 48.8089 112.099 48.8025 111.973 48.7946C111.615 48.7719 111.477 48.54 111.547 48.2338C111.7 47.5595 111.795 46.8905 111.648 46.2033C111.632 46.128 111.66 46.0359 111.689 45.9594C111.918 45.352 112.13 44.7373 112.388 44.1428C112.676 43.4823 112.943 42.8343 112.38 42.1931C111.994 41.753 111.602 41.3156 111.181 40.9092C110.238 39.9983 109.573 38.9273 109.216 37.6654C109.172 37.5093 109.113 37.3573 109.061 37.2034ZM88.6953 41.1703C87.2874 41.3007 86.1225 41.752 85.2861 42.8477C84.581 43.7714 84.1777 44.7895 84.6146 46.0378C85.3445 48.1233 86.3817 50.0053 87.8537 51.6544C88.0686 51.8952 88.2072 52.2051 88.3734 52.4875C88.4479 52.6139 88.4972 52.7551 88.5745 52.8792C88.5866 52.8986 88.7305 52.8777 88.7407 52.8494C88.7896 52.7126 88.878 52.5439 88.8367 52.4277C88.4334 51.2964 88.0099 50.172 87.5864 49.0479C86.8447 47.0801 86.2644 45.0826 86.4272 42.9439C86.4335 42.861 86.4222 42.7364 86.4696 42.7034C86.7367 42.5172 87.0181 42.3512 87.2981 42.1838C87.3355 42.1614 87.3918 42.1709 87.4395 42.1657C87.4426 42.2256 87.4725 42.3048 87.4451 42.3426C86.7374 43.3197 86.9388 44.3448 87.2697 45.381C87.7104 46.7616 88.1484 48.143 88.5815 49.5259C88.8883 50.5057 89.1939 51.486 89.4829 52.4711C89.6522 53.0483 89.8876 53.5279 90.4151 53.9134C91.6695 54.8304 93.065 54.6174 94.4417 54.5285C95.2736 54.4747 96.0975 54.2935 97.0305 54.1697C97.2446 54.1345 97.4597 54.1046 97.6725 54.0633C98.5017 53.9023 99.3548 53.8136 100.153 53.5557C101.251 53.2009 102.185 52.5205 103.034 51.7426C103.169 51.6188 103.246 51.4105 103.304 51.227C103.627 50.2062 103.222 49.2415 103.033 48.2673C102.849 47.3171 102.56 46.3877 102.365 45.4392C102.097 44.1295 101.152 43.3234 99.8736 43.4051C99.1552 43.451 98.401 43.458 97.7091 43.2915C96.3148 42.9558 94.9456 42.5093 93.5778 42.072C91.9878 41.5636 90.443 41.0085 88.6953 41.1703ZM108.45 30.8471C107.707 31.144 107.454 31.8153 107.344 32.466C107.175 33.4733 107.212 34.5135 107.095 35.5321C107.02 36.1835 106.826 36.8212 106.685 37.5704C106.436 37.9592 106.184 38.3455 105.94 38.737C104.997 40.2495 104.032 41.7521 102.723 42.9789C102.275 43.3983 102.237 43.7486 102.425 44.2997C102.742 45.2265 102.944 46.192 103.205 47.1381C103.413 47.8929 103.637 48.6437 103.861 49.3942C103.886 49.4771 103.995 49.6149 104.007 49.6089C104.128 49.5505 104.3 49.4903 104.338 49.3867C105.06 47.4557 105.721 45.5008 106.486 43.5876C107.325 41.4906 107.76 39.2939 108.272 37.1124C108.515 36.0739 108.806 35.0592 109.511 34.1983C109.88 33.7476 110.153 33.2073 110.405 32.6771C110.564 32.3437 110.858 32.0342 110.612 31.5665C110.231 30.8389 109.298 30.5082 108.45 30.8471ZM89.4521 29.6246C90.3798 29.6462 91.311 29.7126 92.23 29.8377C92.911 29.9304 93.5797 30.1305 94.2435 30.3193C94.4889 30.389 94.6908 30.2668 94.8888 30.2715C95.3449 30.2822 95.8169 30.3765 96.2488 30.5311C98.3037 31.2667 100.403 31.6498 102.596 31.5227C103.339 31.4797 104.091 31.5807 104.865 31.6158C104.4 31.7212 103.913 31.8559 103.417 31.9249C102.711 32.0229 101.999 32.0794 101.289 32.1369C101.146 32.1486 100.992 32.0493 100.851 32.0672C100.666 32.0907 100.489 32.1795 100.309 32.2402C100.368 32.3746 100.394 32.5444 100.492 32.6377C100.995 33.116 101.564 33.3278 102.273 33.0989C102.928 32.8875 103.611 32.7671 104.265 32.5534C104.616 32.4385 104.943 32.2305 105.259 32.0303C105.566 31.836 105.817 31.8984 105.87 32.2256C105.876 32.2668 105.882 32.3386 105.862 32.3494C105.404 32.6006 104.964 32.9076 104.476 33.0763C103.796 33.3115 103.088 33.506 102.376 33.598C101.811 33.6713 101.767 33.988 101.839 34.3836C102.058 35.6023 102.137 36.8167 101.95 38.05C101.901 38.3723 102.013 38.7191 102.051 39.0547C102.285 38.8852 102.521 38.7185 102.753 38.5458C103.318 38.1251 103.88 37.7014 104.445 37.2806C104.476 37.2574 104.519 37.2501 104.556 37.2354C104.543 37.2953 104.55 37.3712 104.516 37.4128C104.137 37.8699 103.775 38.3432 103.364 38.7702C102.577 39.5891 101.79 40.4128 100.949 41.1751C100.084 41.9593 99.0578 42.4048 97.8714 42.0402C96.5183 41.6242 95.1882 41.1339 93.8466 40.6806C93.3062 40.4981 92.6727 40.4474 92.2394 40.1251C91.5543 39.6158 90.7555 39.441 90.0149 39.1057C89.5424 38.8919 89.0489 38.7027 88.5456 38.5835C87.9843 38.4507 87.4765 38.6171 87.055 39.0451C86.0748 40.0404 85.0796 41.0209 84.0931 42.01C83.6563 42.4481 82.4113 42.4244 81.9402 41.9369C80.8749 40.8341 80.2367 39.4874 80.0135 37.9991C79.8282 36.7632 79.7774 35.4949 79.8023 34.2437C79.8214 33.2782 80.2771 32.4301 80.8505 31.6256C81.6495 30.5048 82.9342 30.5219 84.0364 30.1732C84.9829 29.8738 86.0166 29.8293 87.0175 29.7282C87.8247 29.6465 88.6414 29.6057 89.4521 29.6246ZM95.0785 30.8452C95.1482 30.8913 95.2164 30.9399 95.2878 30.9829C95.4141 31.0589 95.5452 31.1273 95.6696 31.2062C96.2546 31.5771 96.8428 31.9429 97.4206 32.3249C98.0674 32.7525 98.5972 33.2899 98.8747 34.0307C99.1312 34.7152 99.3694 35.4066 99.6155 36.2003C99.6155 36.2705 99.6008 36.3446 99.6178 36.4105C99.8574 37.3365 99.7664 38.2541 99.6307 39.1888C99.5093 40.0245 99.1609 40.7233 98.6608 41.3738C98.6153 41.4328 98.6023 41.5168 98.5743 41.5891C98.6216 41.6021 98.672 41.6329 98.7159 41.6254C99.7679 41.4454 100.59 40.9212 100.956 39.899C101.188 39.2528 101.363 38.5575 101.398 37.8758C101.454 36.7743 101.482 35.6493 101.318 34.5653C101.17 33.5924 100.174 33.1789 99.5013 32.5798C99.055 32.182 98.5082 31.8496 97.9497 31.635C97.0986 31.3081 96.1988 31.1071 95.3184 30.8572C95.2433 30.836 95.1586 30.8485 95.0785 30.8452ZM86.6065 30.3799C85.5167 30.487 84.4392 30.7999 83.3794 31.1028C82.5651 31.3354 81.9704 31.8899 81.9024 32.7827C81.8406 33.5919 81.8833 34.4096 81.8906 35.2235C81.9016 36.4244 82.2052 37.5423 82.8325 38.5754C82.9933 38.8403 83.1165 39.1567 82.7243 39.3808C82.6977 39.3959 82.701 39.5084 82.7252 39.5592C82.8021 39.7211 82.8981 39.874 82.9811 40.0332C83.01 40.0886 83.0227 40.1524 83.0427 40.2124C82.9806 40.1807 82.9003 40.1641 82.859 40.1149C82.246 39.3847 81.838 38.5518 81.5728 37.5704C81.3969 36.6244 81.1432 35.6842 81.0703 34.7303C81.0143 33.9963 81.1869 33.245 81.2537 32.501C81.2578 32.4562 81.2264 32.4082 81.2116 32.3616C81.1743 32.3935 81.1202 32.4179 81.1022 32.4583C80.9041 32.9031 80.5863 33.3388 80.5438 33.7993C80.4566 34.7458 80.5178 35.7059 80.5175 36.6602C80.5173 37.9866 80.9871 39.179 81.5963 40.3228C81.798 40.7015 82.0587 41.0582 82.3421 41.3816C82.6633 41.7483 83.3947 41.6264 83.957 41.0803C85.1878 39.8848 86.3905 38.6601 87.6047 37.4473C87.8658 37.1866 88.0998 36.8866 88.3987 36.6803C88.5647 36.5658 88.938 36.5014 89.0442 36.6003C89.2895 36.829 89.2371 37.0839 88.8705 37.2557C88.6468 37.3605 88.4966 37.5866 88.7909 37.8286C88.9499 37.9592 89.0654 38.1736 89.243 38.245C90.0871 38.5845 90.9543 38.867 91.7961 39.2119C92.2919 39.4151 92.7393 39.7379 93.2369 39.9349C94.3398 40.3716 95.456 40.7764 96.5759 41.1688C97.7281 41.5725 98.484 41.112 98.7758 39.9844C99.0401 38.963 99.0532 37.9355 98.99 36.8907C98.8997 35.3965 98.5217 34.0759 97.3195 33.0396C96.0956 31.9848 94.7431 31.195 93.1943 30.79C92.2929 30.5543 91.3501 30.42 90.4187 30.3686C89.1506 30.2985 87.8664 30.2559 86.6065 30.3799ZM93.435 35.2278C93.6227 35.2795 93.7595 35.5153 93.9178 35.7261C93.9454 36.0522 93.9762 36.3254 93.9945 36.5995C93.9959 36.6216 93.8984 36.6816 93.8701 36.6696C93.6028 36.5561 93.2766 36.4884 93.0974 36.2903C92.9582 36.1365 92.9377 35.7996 92.9914 35.5744C93.0278 35.4222 93.3195 35.196 93.435 35.2278ZM85.554 34.8618C85.6439 35.2223 85.7226 35.6609 85.3294 35.9018C85.1479 36.0129 84.868 35.9637 84.6326 35.9871C84.6326 35.9177 84.6326 35.8482 84.6062 35.7524C84.4579 35.303 84.527 34.9196 84.9552 34.7444C85.1212 34.6764 85.5316 34.7718 85.554 34.8618ZM108.083 32.0636C108.298 32.085 108.486 32.1328 108.675 32.1804C108.612 32.3583 108.56 32.5412 108.483 32.7126C108.429 32.832 108.31 32.9265 108.274 33.0483C108.197 33.3057 108.033 33.4166 107.846 33.2243C107.728 33.1024 107.669 32.8408 107.708 32.6705C107.756 32.4614 107.935 32.2822 108.083 32.0636ZM106.368 31.2663C106.317 31.3126 106.272 31.3893 106.214 31.4002C105.792 31.4795 105.368 31.5455 104.918 31.6158C105.328 31.4752 105.763 31.3315 106.202 31.1992C106.247 31.1859 106.313 31.2424 106.368 31.2663Z" fill="#333333"/>
</g>
<defs>
<clipPath id="clip0_1227_15673">
<rect width="134.672" height="127.984" fill="white" transform="translate(0.390625 0.160156)"/>
</clipPath>
</defs>
</svg>
