<svg width="48" height="48" viewBox="0 0 48 48" fill="none" xmlns="http://www.w3.org/2000/svg">
<path d="M12 32V36C12 38.2091 13.7909 40 16 40H32C34.2091 40 36 38.2091 36 36V32M12 16V12C12 9.79086 13.7909 8 16 8H32C34.2091 8 36 9.79086 36 12V16" stroke="black" stroke-width="2"/>
<path d="M14.9062 18.5195L34.6363 26.0932" stroke="black" stroke-width="0.728685" stroke-linecap="round"/>
<path d="M13.7344 21.582L33.4645 29.1557" stroke="black" stroke-width="0.728685" stroke-linecap="round"/>
<path d="M14.7344 18.4512L13.5593 21.5125" stroke="black" stroke-width="0.364342" stroke-linecap="round"/>
<path d="M34.8203 26.1621L33.6367 29.2456" stroke="black" stroke-width="0.364342" stroke-linecap="round"/>
<path d="M14.3625 18.3339C14.4372 18.1392 14.333 17.9188 14.1266 17.8891C13.6994 17.8276 13.2572 17.8874 12.8786 18.0696C12.388 18.3058 12.022 18.7231 11.8613 19.2298C11.7005 19.7365 11.7582 20.291 12.0215 20.7713C12.2262 21.1447 12.4205 21.4042 12.7473 21.5823C12.9169 21.6747 13.1184 21.5749 13.1876 21.3946C13.2622 21.2002 13.1468 20.994 12.9884 20.8588C12.8702 20.758 12.7872 20.6264 12.6902 20.4495C12.522 20.1427 12.4852 19.7886 12.5878 19.4651C12.6905 19.1415 12.9242 18.875 13.2375 18.7242C13.4474 18.6232 13.6727 18.5773 13.901 18.5913C14.094 18.6031 14.2932 18.5144 14.3625 18.3339Z" fill="black"/>
<path d="M36.7222 28.6488L34.4041 29.334L35.458 26.5885L36.7222 28.6488Z" stroke="black" stroke-width="0.728685"/>
<line x1="25.9793" y1="24.5252" x2="29.9254" y2="26.04" stroke="black" stroke-width="0.364342"/>
<path d="M27.7588 20.8466L24 19.4785L27.1454 16.6843L27.7588 20.8466Z" fill="black" stroke="black" stroke-width="2"/>
<path d="M21.8516 32.1094L24.0173 26.7491" stroke="black"/>
<path d="M24.375 31.207L25.8734 27.4983" stroke="black"/>
<path d="M20.6719 29.6875L22.1621 25.9991" stroke="black"/>
</svg>
