<svg width="48" height="48" viewBox="0 0 48 48" fill="none" xmlns="http://www.w3.org/2000/svg">
<circle cx="24" cy="24" r="20" fill="white"/>
<mask id="path-3-inside-1_886_42671" fill="white">
<path d="M22.3153 35.8295C22.3153 35.1595 22.0492 34.5169 21.5754 34.0432C21.1016 33.5694 20.459 33.3032 19.789 33.3032C19.119 33.3032 18.4764 33.5694 18.0026 34.0432C17.5289 34.5169 17.2627 35.1595 17.2627 35.8295L19.789 35.8295H22.3153Z"/>
</mask>
<path d="M22.3153 35.8295C22.3153 35.1595 22.0492 34.5169 21.5754 34.0432C21.1016 33.5694 20.459 33.3032 19.789 33.3032C19.119 33.3032 18.4764 33.5694 18.0026 34.0432C17.5289 34.5169 17.2627 35.1595 17.2627 35.8295L19.789 35.8295H22.3153Z" stroke="black" stroke-width="1.01053" mask="url(#path-3-inside-1_886_42671)"/>
<path d="M23.2373 38.4399L24.8417 35.661L26.4462 38.4399H23.2373Z" stroke="black" stroke-width="0.673684"/>
<path d="M27.9636 34.1452L29.8945 32.2144L31.8253 34.1452L29.8945 36.0761L27.9636 34.1452Z" stroke="black" stroke-width="0.842104"/>
<path d="M28.0858 26.8207L29.8945 25.5066L31.7032 26.8207L31.0123 28.947H28.7766L28.0858 26.8207Z" stroke="black" stroke-width="1.01053"/>
<path d="M18.3985 19.5627L19.789 18.893L21.1796 19.5627L21.523 21.0674L20.5607 22.274H19.0173L18.055 21.0674L18.3985 19.5627Z" stroke="black" stroke-width="1.34737"/>
<path d="M18.5827 12.7285L19.789 12.2288L20.9953 12.7285L21.495 13.9348L20.9953 15.1411L19.789 15.6407L18.5827 15.1411L18.083 13.9348L18.5827 12.7285Z" stroke="black" stroke-width="1.51579"/>
<path d="M23.7939 9.31757L24.8417 8.93619L25.8896 9.31757L26.4471 10.2833L26.2535 11.3814L25.3993 12.0982H24.2842L23.43 11.3814L23.2363 10.2833L23.7939 9.31757Z" stroke="black" stroke-width="1.68421"/>
<path d="M29.4504 13.3236L29.8945 13.1793L30.3385 13.3236L30.6129 13.7013V14.1682L30.3385 14.5459L29.8945 14.6902L29.4504 14.5459L29.176 14.1682V13.7013L29.4504 13.3236Z" stroke="black" stroke-width="3.36842"/>
<path d="M23.2434 23.1172L24.8417 22.1943L26.4401 23.1172V24.9628L24.8417 25.8856L23.2434 24.9628V23.1172Z" stroke="black" stroke-width="1.17895"/>
<path d="M18.7791 29.9347C18.7791 30.7718 18.1005 31.4505 17.2633 31.4505C16.4262 31.4505 15.7475 30.7718 15.7475 29.9347C15.7475 29.0976 16.4262 28.4189 17.2633 28.4189C18.1005 28.4189 18.7791 29.0976 18.7791 29.9347Z" stroke="black" stroke-width="0.336842"/>
</svg>
