<svg width="48" height="48" viewBox="0 0 48 48" fill="none" xmlns="http://www.w3.org/2000/svg">
<rect width="48" height="48" rx="4" fill="white"/>
<circle cx="24" cy="24" r="20" fill="black"/>
<mask id="path-3-inside-1_1205_17568" fill="white">
<path d="M22.3143 35.83C22.3143 35.16 22.0482 34.5174 21.5744 34.0437C21.1006 33.5699 20.458 33.3037 19.788 33.3037C19.118 33.3037 18.4754 33.5699 18.0017 34.0437C17.5279 34.5174 17.2617 35.16 17.2617 35.83L19.788 35.83H22.3143Z"/>
</mask>
<path d="M22.3143 35.83C22.3143 35.16 22.0482 34.5174 21.5744 34.0437C21.1006 33.5699 20.458 33.3037 19.788 33.3037C19.118 33.3037 18.4754 33.5699 18.0017 34.0437C17.5279 34.5174 17.2617 35.16 17.2617 35.83L19.788 35.83H22.3143Z" stroke="white" stroke-width="1.01053" mask="url(#path-3-inside-1_1205_17568)"/>
<path d="M23.2383 38.4399L24.8427 35.661L26.4471 38.4399H23.2383Z" stroke="white" stroke-width="0.673684"/>
<path d="M27.9626 34.1455L29.8935 32.2146L31.8244 34.1455L29.8935 36.0763L27.9626 34.1455Z" stroke="white" stroke-width="0.842104"/>
<path d="M28.0848 26.8205L29.8935 25.5064L31.7022 26.8205L31.0113 28.9467H28.7757L28.0848 26.8205Z" stroke="white" stroke-width="1.01053"/>
<path d="M18.3975 19.5629L19.788 18.8932L21.1786 19.5629L21.522 21.0676L20.5597 22.2743H19.0163L18.054 21.0676L18.3975 19.5629Z" stroke="white" stroke-width="1.34737"/>
<path d="M18.5817 12.7282L19.788 12.2285L20.9943 12.7282L21.494 13.9345L20.9943 15.1408L19.788 15.6405L18.5817 15.1408L18.0821 13.9345L18.5817 12.7282Z" stroke="white" stroke-width="1.51579"/>
<path d="M23.7949 9.31757L24.8427 8.93619L25.8906 9.31757L26.4481 10.2833L26.2545 11.3814L25.4003 12.0982H24.2852L23.431 11.3814L23.2373 10.2833L23.7949 9.31757Z" stroke="white" stroke-width="1.68421"/>
<path d="M29.4495 13.3234L29.8935 13.1791L30.3375 13.3234L30.612 13.7011V14.168L30.3375 14.5457L29.8935 14.69L29.4495 14.5457L29.175 14.168V13.7011L29.4495 13.3234Z" stroke="white" stroke-width="3.36842"/>
<path d="M23.2443 23.1172L24.8427 22.1943L26.4411 23.1172V24.9628L24.8427 25.8856L23.2443 24.9628V23.1172Z" stroke="white" stroke-width="1.17895"/>
<path d="M18.7781 29.9352C18.7781 30.7723 18.0995 31.451 17.2623 31.451C16.4252 31.451 15.7465 30.7723 15.7465 29.9352C15.7465 29.098 16.4252 28.4194 17.2623 28.4194C18.0995 28.4194 18.7781 29.098 18.7781 29.9352Z" stroke="white" stroke-width="0.336842"/>
</svg>
