<svg width="24" height="24" viewBox="0 0 24 24" fill="none" xmlns="http://www.w3.org/2000/svg">
<g clip-path="url(#clip0_1047_33010)">
<mask id="mask0_1047_33010" style="mask-type:alpha" maskUnits="userSpaceOnUse" x="0" y="0" width="24" height="24">
<rect width="24" height="24" fill="#D9D9D9"/>
</mask>
<g mask="url(#mask0_1047_33010)">
<path d="M6.80039 21.4L5.85039 20.45L4.80039 21.5C4.48372 21.8167 4.09622 21.9792 3.63789 21.9875C3.17956 21.9958 2.80039 21.8333 2.50039 21.5C2.18372 21.1833 2.02539 20.8 2.02539 20.35C2.02539 19.9 2.18372 19.5167 2.50039 19.2L3.55039 18.15L2.60039 17.15L16.4504 3.3C16.6504 3.1 16.8921 3 17.1754 3C17.4587 3 17.7004 3.1 17.9004 3.3L20.7004 6.1C20.9004 6.3 21.0004 6.54167 21.0004 6.825C21.0004 7.10833 20.9004 7.35 20.7004 7.55L6.80039 21.4ZM11.1004 11.5L5.40039 17.15L6.85039 18.6L12.5004 12.9L11.1004 11.5Z" fill="#333333"/>
</g>
</g>
<defs>
<clipPath id="clip0_1047_33010">
<rect width="24" height="24" fill="white"/>
</clipPath>
</defs>
</svg>
