<svg width="48" height="48" viewBox="0 0 48 48" fill="none" xmlns="http://www.w3.org/2000/svg">
<rect width="48" height="48" rx="6.4" fill="#828282"/>
<g clip-path="url(#clip0_847_25075)">
<mask id="mask0_847_25075" style="mask-type:alpha" maskUnits="userSpaceOnUse" x="4" y="4" width="40" height="40">
<rect x="4.80078" y="4.80078" width="38.4" height="38.4" fill="#D9D9D9"/>
</mask>
<g mask="url(#mask0_847_25075)">
<path d="M19.2 24.801H20.8V21.601H22.4C22.8533 21.601 23.2333 21.4476 23.54 21.141C23.8467 20.8343 24 20.4543 24 20.001V18.401C24 17.9476 23.8467 17.5676 23.54 17.261C23.2333 16.9543 22.8533 16.801 22.4 16.801H19.2V24.801ZM20.8 20.001V18.401H22.4V20.001H20.8ZM25.6 24.801H28.8C29.2533 24.801 29.6333 24.6476 29.94 24.341C30.2467 24.0343 30.4 23.6543 30.4 23.201V18.401C30.4 17.9476 30.2467 17.5676 29.94 17.261C29.6333 16.9543 29.2533 16.801 28.8 16.801H25.6V24.801ZM27.2 23.201V18.401H28.8V23.201H27.2ZM32 24.801H33.6V21.601H35.2V20.001H33.6V18.401H35.2V16.801H32V24.801ZM17.6 33.601C16.72 33.601 15.9667 33.2876 15.34 32.661C14.7133 32.0343 14.4 31.281 14.4 30.401V11.201C14.4 10.321 14.7133 9.56764 15.34 8.94098C15.9667 8.31431 16.72 8.00098 17.6 8.00098H36.8C37.68 8.00098 38.4333 8.31431 39.06 8.94098C39.6867 9.56764 40 10.321 40 11.201V30.401C40 31.281 39.6867 32.0343 39.06 32.661C38.4333 33.2876 37.68 33.601 36.8 33.601H17.6ZM17.6 30.401H36.8V11.201H17.6V30.401ZM11.2 40.001C10.32 40.001 9.56667 39.6876 8.94 39.061C8.31333 38.4343 8 37.681 8 36.801V14.401H11.2V36.801H33.6V40.001H11.2Z" fill="#F5F5F5"/>
</g>
</g>
<defs>
<clipPath id="clip0_847_25075">
<rect width="38.4" height="38.4" fill="white" transform="translate(4.80078 4.80078)"/>
</clipPath>
</defs>
</svg>
