<svg width="24" height="24" viewBox="0 0 24 24" fill="none" xmlns="http://www.w3.org/2000/svg">
<g clip-path="url(#clip0_1029_57308)">
<mask id="mask0_1029_57308" style="mask-type:alpha" maskUnits="userSpaceOnUse" x="0" y="0" width="24" height="24">
<rect width="24" height="24" fill="#D9D9D9"/>
</mask>
<g mask="url(#mask0_1029_57308)">
<path d="M4.17424 21.0004C3.82424 21.0837 3.52007 20.9962 3.26174 20.7379C3.0034 20.4796 2.9159 20.1754 2.99924 19.8254L3.99924 15.0504L8.94924 20.0004L4.17424 21.0004ZM8.94924 20.0004L3.99924 15.0504L15.4492 3.60039C15.8326 3.21706 16.3076 3.02539 16.8742 3.02539C17.4409 3.02539 17.9159 3.21706 18.2992 3.60039L20.3992 5.70039C20.7826 6.08372 20.9742 6.55872 20.9742 7.12539C20.9742 7.69206 20.7826 8.16706 20.3992 8.55039L8.94924 20.0004ZM16.8742 5.00039L6.52424 15.3504L8.64924 17.4754L18.9992 7.12539L16.8742 5.00039Z" fill="#333333"/>
</g>
</g>
<defs>
<clipPath id="clip0_1029_57308">
<rect width="24" height="24" fill="white"/>
</clipPath>
</defs>
</svg>
