<svg width="48" height="48" viewBox="0 0 48 48" fill="none" xmlns="http://www.w3.org/2000/svg">
<rect width="48" height="48" rx="12" fill="#D3D3D3"/>
<g clip-path="url(#clip0_847_25479)">
<mask id="mask0_847_25479" style="mask-type:alpha" maskUnits="userSpaceOnUse" x="6" y="6" width="36" height="36">
<rect x="6" y="6" width="36" height="36" fill="#D9D9D9"/>
</mask>
<g mask="url(#mask0_847_25479)">
<path d="M27 28.5C27.425 28.5 27.7938 28.3438 28.1063 28.0312C28.4188 27.7188 28.575 27.35 28.575 26.925C28.575 26.5 28.4188 26.1313 28.1063 25.8188C27.7938 25.5063 27.425 25.35 27 25.35C26.575 25.35 26.2062 25.5063 25.8937 25.8188C25.5812 26.1313 25.425 26.5 25.425 26.925C25.425 27.35 25.5812 27.7188 25.8937 28.0312C26.2062 28.3438 26.575 28.5 27 28.5ZM25.875 23.7H28.125C28.125 22.975 28.2 22.4438 28.35 22.1063C28.5 21.7688 28.85 21.325 29.4 20.775C30.15 20.025 30.65 19.4188 30.9 18.9563C31.15 18.4938 31.275 17.95 31.275 17.325C31.275 16.2 30.8813 15.2812 30.0938 14.5688C29.3062 13.8563 28.275 13.5 27 13.5C25.975 13.5 25.0813 13.7875 24.3188 14.3625C23.5563 14.9375 23.025 15.7 22.725 16.65L24.75 17.475C24.975 16.85 25.2812 16.3812 25.6688 16.0688C26.0562 15.7563 26.5 15.6 27 15.6C27.6 15.6 28.0875 15.7688 28.4625 16.1063C28.8375 16.4438 29.025 16.9 29.025 17.475C29.025 17.825 28.925 18.1562 28.725 18.4688C28.525 18.7812 28.175 19.175 27.675 19.65C26.85 20.375 26.3438 20.9438 26.1562 21.3563C25.9688 21.7688 25.875 22.55 25.875 23.7ZM18 33C17.175 33 16.4688 32.7063 15.8813 32.1188C15.2938 31.5312 15 30.825 15 30V12C15 11.175 15.2938 10.4688 15.8813 9.88125C16.4688 9.29375 17.175 9 18 9H36C36.825 9 37.5312 9.29375 38.1188 9.88125C38.7063 10.4688 39 11.175 39 12V30C39 30.825 38.7063 31.5312 38.1188 32.1188C37.5312 32.7063 36.825 33 36 33H18ZM18 30H36V12H18V30ZM12 39C11.175 39 10.4688 38.7063 9.88125 38.1188C9.29375 37.5312 9 36.825 9 36V15H12V36H33V39H12Z" fill="#333333"/>
</g>
</g>
<defs>
<clipPath id="clip0_847_25479">
<rect width="36" height="36" fill="white" transform="translate(6 6)"/>
</clipPath>
</defs>
</svg>
