<svg width="24" height="24" viewBox="0 0 24 24" fill="none" xmlns="http://www.w3.org/2000/svg">
<g clip-path="url(#clip0_1030_57332)">
<mask id="mask0_1030_57332" style="mask-type:alpha" maskUnits="userSpaceOnUse" x="0" y="0" width="24" height="24">
<rect width="24" height="24" fill="#D9D9D9"/>
</mask>
<g mask="url(#mask0_1030_57332)">
<path d="M4.02539 11.1L2.02539 10.9C2.12539 10.1333 2.29622 9.3875 2.53789 8.6625C2.77956 7.9375 3.10872 7.25 3.52539 6.6L5.22539 7.65C4.89206 8.16667 4.62956 8.71667 4.43789 9.3C4.24622 9.88333 4.10872 10.4833 4.02539 11.1ZM4.92539 19C4.37539 18.4667 3.90039 17.8792 3.50039 17.2375C3.10039 16.5958 2.77539 15.9167 2.52539 15.2L4.42539 14.55C4.62539 15.1333 4.88372 15.6792 5.20039 16.1875C5.51706 16.6958 5.89206 17.1667 6.32539 17.6L4.92539 19ZM7.67539 5.2L6.62539 3.5C7.27539 3.08333 7.96289 2.75417 8.68789 2.5125C9.41289 2.27083 10.1587 2.1 10.9254 2L11.1254 4C10.5087 4.08333 9.90872 4.22083 9.32539 4.4125C8.74206 4.60417 8.19206 4.86667 7.67539 5.2ZM11.9754 21.95C11.3921 21.95 10.8129 21.9042 10.2379 21.8125C9.66289 21.7208 9.10872 21.5667 8.57539 21.35L9.22539 19.45C9.67539 19.6 10.1254 19.7208 10.5754 19.8125C11.0254 19.9042 11.4921 19.95 11.9754 19.95V21.95ZM17.6254 6.3C17.1921 5.86667 16.7212 5.49167 16.2129 5.175C15.7046 4.85833 15.1587 4.6 14.5754 4.4L15.2254 2.5C15.9421 2.75 16.6212 3.075 17.2629 3.475C17.9046 3.875 18.4921 4.35 19.0254 4.9L17.6254 6.3ZM19.7754 21.15L16.9754 18.35V20.95H14.9754V14.95H20.9754V16.95H18.3754L21.1754 19.75L19.7754 21.15ZM19.9754 11.95C19.9754 11.4667 19.9296 11 19.8379 10.55C19.7462 10.1 19.6254 9.65 19.4754 9.2L21.3754 8.55C21.5921 9.08333 21.7462 9.6375 21.8379 10.2125C21.9296 10.7875 21.9754 11.3667 21.9754 11.95H19.9754Z" fill="#333333"/>
</g>
</g>
<defs>
<clipPath id="clip0_1030_57332">
<rect width="24" height="24" fill="white"/>
</clipPath>
</defs>
</svg>
