<svg width="80" height="80" viewBox="0 0 80 80" fill="none" xmlns="http://www.w3.org/2000/svg">
<rect x="0.5" y="0.5" width="79" height="79" rx="11.5" stroke="#333333"/>
<path d="M21.8649 46.3726L23.4115 46.092C23.6469 46.0493 23.8457 45.8924 23.942 45.6735L24.4148 44.5987C24.5333 44.3294 24.476 44.0152 24.2702 43.805L23.2006 42.7127C22.9029 42.4087 22.9323 41.9144 23.2639 41.6478L25.3664 39.9575C25.6799 39.7055 26.139 39.7592 26.3859 40.0768L27.5535 41.5786C27.797 41.8919 28.2481 41.9491 28.5621 41.7064L29.0794 41.3068C29.2846 41.1483 29.3887 40.8917 29.3519 40.635L29.1176 38.9978C29.0555 38.564 29.3921 38.1758 29.8303 38.1758H31.8002C32.1979 38.1758 32.5202 38.4981 32.5202 38.8958V40.0925C32.5202 40.3939 32.7079 40.6634 32.9906 40.7679L34.5917 41.3597C34.837 41.4503 35.1121 41.4009 35.3104 41.2306L36.3913 40.3024C36.6997 40.0376 37.166 40.0804 37.421 40.397L38.3961 41.6074C38.6383 41.908 38.6002 42.3462 38.3099 42.6006L37.3342 43.4556C37.1065 43.6551 37.0279 43.9757 37.1375 44.2579L37.5808 45.3988C37.7176 45.7509 38.1032 45.9374 38.4642 45.8261L39.5235 45.4993C39.9495 45.3679 40.3913 45.6512 40.4496 46.0932L40.7167 48.1192C40.7622 48.4645 40.5541 48.7929 40.2224 48.8991L38.7443 49.3722C38.5122 49.4465 38.3335 49.6331 38.2693 49.8681L37.9084 51.1887C37.8544 51.3861 37.887 51.5972 37.9981 51.7691L38.78 52.9799C38.9873 53.301 38.9077 53.728 38.5986 53.9528L36.8798 55.203C36.6253 55.3881 36.28 55.3864 36.0273 55.1989L35.0587 54.4801C34.8232 54.3053 34.5051 54.2909 34.2547 54.4436L33.4569 54.9302C33.1968 55.0888 33.0647 55.3939 33.127 55.692L33.3141 56.5885C33.4024 57.0117 33.1005 57.4168 32.6697 57.4531L30.3855 57.6453C29.9962 57.6781 29.6518 57.3944 29.6094 57.0061L29.469 55.7216C29.4347 55.4082 29.2006 55.1536 28.8912 55.0932L27.7568 54.8716C27.483 54.8182 27.203 54.9276 27.0381 55.1526L26.3993 56.0239C26.1503 56.3635 25.6642 56.4179 25.3463 56.1416L23.5742 54.6012C23.3035 54.3659 23.2473 53.9671 23.4424 53.6661L24.3867 52.2097C24.5256 51.9955 24.5407 51.7238 24.4263 51.4955L23.6214 49.8888C23.4993 49.6452 23.2501 49.4913 22.9776 49.4913H21.9934C21.5958 49.4913 21.2734 49.169 21.2734 48.7713V47.081C21.2734 46.733 21.5224 46.4347 21.8649 46.3726Z" stroke="black" stroke-width="0.479998"/>
<path d="M39.0132 53.5962L36.6075 55.3774C36.3528 55.5661 36.0046 55.5659 35.75 55.377L34.7853 54.661C34.5497 54.4862 34.2317 54.4718 33.9813 54.6245L33.1834 55.1111C32.9234 55.2697 32.7913 55.5748 32.8535 55.873L33.0406 56.7694C33.129 57.1926 32.8271 57.5977 32.3962 57.634L30.112 57.8262C29.7228 57.859 29.3784 57.5754 29.3359 57.187L29.1955 55.9025C29.1613 55.5891 28.9271 55.3345 28.6178 55.2741L27.4833 55.0526C27.2096 54.9991 26.9296 55.1086 26.7647 55.3335L26.1259 56.2048C25.8768 56.5445 25.3907 56.5988 25.0729 56.3225L23.3008 54.7822C23.03 54.5468 22.9738 54.1481 23.169 53.8471L24.1133 52.3906C24.2522 52.1764 24.2672 51.9047 24.1529 51.6764L23.3479 50.0697C23.2259 49.8261 22.9767 49.6723 22.7042 49.6723H21.72C21.3224 49.6723 21 49.3499 21 48.9523V47.262C21 46.9139 21.249 46.6157 21.5915 46.5535L23.1381 46.2729C23.3735 46.2302 23.5723 46.0734 23.6686 45.8544L24.1414 44.7796C24.2598 44.5104 24.2026 44.1961 23.9968 43.986L22.9271 42.8936C22.6295 42.5897 22.6589 42.0953 22.9904 41.8287L25.0929 40.1385C25.4064 39.8864 25.8656 39.9401 26.1125 40.2577L27.2801 41.7595C27.5236 42.0728 27.9747 42.13 28.2887 41.8874L28.8581 41.4474C29.0346 41.3111 29.1379 41.1007 29.1379 40.8777V38.4023" stroke="black" stroke-width="0.479998" stroke-linecap="round"/>
<path d="M34.2021 47.9389C34.2021 49.6707 32.7954 51.0753 31.059 51.0753C29.3226 51.0753 27.9158 49.6707 27.9158 47.9389C27.9158 46.2072 29.3226 44.8025 31.059 44.8025C32.7954 44.8025 34.2021 46.2072 34.2021 47.9389Z" stroke="black" stroke-width="0.479998"/>
<path d="M31.4693 51.0419C32.9323 50.6769 33.801 49.5016 33.801 47.9393C33.801 46.3769 32.7952 44.791 30.875 44.791" stroke="black" stroke-width="0.479998" stroke-linecap="round"/>
<path d="M49.8475 38.3575C49.8475 39.4845 48.932 40.3989 47.8016 40.3989C46.6712 40.3989 45.7556 39.4845 45.7556 38.3575C45.7556 37.2306 46.6712 36.3162 47.8016 36.3162C48.932 36.3162 49.8475 37.2306 49.8475 38.3575Z" stroke="black" stroke-width="0.479998"/>
<path d="M47.9844 40.4111C49.0359 39.9549 49.6302 39.4073 49.6302 38.3579C49.5388 37.3085 48.9902 36.6697 47.9844 36.3047" stroke="black" stroke-width="0.479998" stroke-linecap="round"/>
<path d="M48.2934 53.962C48.2934 54.9125 47.5211 55.6839 46.5675 55.6839C45.6138 55.6839 44.8416 54.9125 44.8416 53.962C44.8416 53.0114 45.6138 52.24 46.5675 52.24C47.5211 52.24 48.2934 53.0114 48.2934 53.962Z" stroke="black" stroke-width="0.479998"/>
<path d="M46.6133 55.6955C47.619 55.4217 48.0875 54.7829 48.1676 54.0529C48.2857 52.9758 47.4818 52.4559 46.9332 52.2734" stroke="black" stroke-width="0.479998" stroke-linecap="round"/>
<path d="M41.8805 39.8561L42.1173 40.3831C42.2364 40.6483 42.1843 40.9591 41.9852 41.171L41.3955 41.7988C41.1393 42.0715 41.1347 42.495 41.3849 42.7732L42.1293 43.601C42.367 43.8654 42.7622 43.9166 43.0595 43.7216L43.7967 43.2381C44.011 43.0976 44.2838 43.0815 44.513 43.196L44.9329 43.4055C45.1771 43.5273 45.3314 43.7768 45.3314 44.0497V44.5725C45.3314 44.9702 45.6538 45.2925 46.0514 45.2925H47.6289C48.0265 45.2925 48.3489 44.9702 48.3489 44.5725V44.4261C48.3489 44.1243 48.5371 43.8545 48.8204 43.7503L49.5611 43.478C49.87 43.3644 50.2166 43.4748 50.403 43.746L50.7053 44.186C50.9562 44.5511 51.4741 44.6053 51.7951 44.2999L52.6801 43.4577C52.9469 43.2038 52.9791 42.7896 52.7547 42.4975L52.3899 42.0226C52.213 41.7923 52.1918 41.4783 52.3361 41.2262L52.6524 40.6738C52.7639 40.4791 52.9598 40.3474 53.1822 40.3178L54.2299 40.1784C54.6011 40.129 54.8725 39.8033 54.854 39.4293L54.7852 38.0325C54.7655 37.6332 54.4242 37.3263 54.0251 37.3491L53.6113 37.3727C53.3299 37.3887 53.065 37.2391 52.9335 36.9897L52.4978 36.1637C52.3434 35.8709 52.4086 35.5105 52.6557 35.2903L53.0184 34.9671C53.2989 34.7172 53.3401 34.2938 53.1132 33.9945L52.7 33.4497C52.4484 33.1178 51.9684 33.068 51.654 33.3413L51.2381 33.7028C50.9905 33.918 50.6288 33.9387 50.3584 33.7531L49.6167 33.2442C49.4498 33.1297 49.3388 32.9502 49.3109 32.7498L49.2241 32.1265C49.1698 31.736 48.8114 31.4618 48.4203 31.5115L47.2408 31.6613C46.8812 31.707 46.6116 32.013 46.6116 32.3756V32.7948C46.6116 33.1164 46.3983 33.399 46.089 33.4872L45.6584 33.61C45.4514 33.669 45.2288 33.6323 45.0517 33.51L44.0348 32.8073C43.7521 32.612 43.3707 32.6437 43.1241 32.883L42.4182 33.5679C42.1332 33.8444 42.1259 34.2994 42.4018 34.585L42.7363 34.9311C42.9705 35.1735 43.0052 35.5459 42.8198 35.8274L42.2988 36.6187C42.1656 36.821 41.9396 36.9428 41.6974 36.9428H41.1924C40.8379 36.9428 40.5361 37.2008 40.4811 37.551L40.3234 38.5543C40.2614 38.9488 40.5322 39.3183 40.927 39.378L41.3314 39.4392C41.5734 39.4758 41.7803 39.6328 41.8805 39.8561Z" stroke="black" stroke-width="0.479998"/>
<path d="M53.2416 34.7062L52.4266 33.6313C52.1749 33.2994 51.6949 33.2497 51.3806 33.5229L50.9646 33.8845C50.7171 34.0996 50.3554 34.1203 50.0849 33.9348L49.3432 33.4258C49.1763 33.3113 49.0653 33.1319 49.0374 32.9314L48.9507 32.3082C48.8964 31.9177 48.538 31.6435 48.1469 31.6932L46.9674 31.843C46.6077 31.8887 46.3381 32.1947 46.3381 32.5572V32.9765C46.3381 33.2981 46.1248 33.5807 45.8156 33.6689L45.385 33.7916C45.1779 33.8507 44.9554 33.814 44.7783 33.6916L43.7613 32.989C43.4786 32.7937 43.0973 32.8253 42.8507 33.0646L42.1447 33.7496C41.8598 34.0261 41.8524 34.4811 42.1283 34.7666L42.4628 35.1128C42.697 35.3552 42.7317 35.7276 42.5464 36.009L42.0253 36.8004C41.8921 37.0026 41.6662 37.1244 41.424 37.1244H40.9189C40.5644 37.1244 40.2627 37.3824 40.2077 37.7326L40.0499 38.736C39.988 39.1304 40.2588 39.5 40.6536 39.5597L41.058 39.6208C41.3 39.6574 41.5068 39.8144 41.6071 40.0377L41.8619 40.6049C41.9717 40.8494 41.9366 41.1347 41.7708 41.3453L41.0347 42.2803" stroke="black" stroke-width="0.479998" stroke-linecap="round"/>
<path d="M51.8952 52.3984L51.4807 52.6552C51.2688 52.7865 51.1399 53.018 51.1399 53.2673V53.8386C51.1399 54.1332 51.3193 54.398 51.5929 54.5073L51.729 54.5616C52.0503 54.6898 52.2349 55.0284 52.1688 55.368L52.0763 55.8429C52.0104 56.1811 51.7141 56.4252 51.3695 56.4252H50.5851C50.3587 56.4252 50.1455 56.5317 50.0095 56.7127L49.8369 56.9423C49.6579 57.1806 49.6441 57.5045 49.8023 57.757L50.0414 58.1388C50.264 58.4943 50.1368 58.9641 49.7653 59.1587L49.2439 59.4319C48.8992 59.6125 48.4735 59.4866 48.2825 59.1477L48.009 58.6624C47.8813 58.436 47.6416 58.296 47.3817 58.296H46.6487C46.3519 58.296 46.0856 58.478 45.9778 58.7545L45.7586 59.3172C45.622 59.6678 45.2385 59.8541 44.8784 59.7447L44.1645 59.5279C43.7606 59.4052 43.5484 58.9629 43.7054 58.5711L43.825 58.2729C43.9566 57.9444 43.8301 57.5691 43.5266 57.3873L43.0477 57.1006C42.8235 56.9663 42.5426 56.97 42.322 57.1101C41.9764 57.3296 41.5168 57.2023 41.3334 56.8362L41.0727 56.316C40.8992 55.9695 41.0309 55.5479 41.3708 55.3619L41.8047 55.1244C42.0355 54.9981 42.179 54.7559 42.179 54.4928V53.8166C42.179 53.5663 42.0491 53.334 41.8358 53.2031L41.5325 53.0168C41.2228 52.8266 41.1034 52.4355 41.254 52.1048L41.4078 51.7672C41.5604 51.4322 41.941 51.2662 42.2903 51.3824L42.5067 51.4544C42.8237 51.5599 43.1715 51.4335 43.3469 51.1492L43.5461 50.826C43.689 50.5943 43.689 50.3019 43.5461 50.0702L43.415 49.8574C43.2104 49.5258 43.3069 49.0916 43.6326 48.8777L44.1172 48.5595C44.4743 48.3251 44.9557 48.4512 45.1519 48.8306L45.3152 49.1463C45.4388 49.3854 45.6855 49.5355 45.9547 49.5355H46.8213C47.1336 49.5355 47.4103 49.3342 47.5064 49.037L47.5665 48.8509C47.6943 48.4555 48.1293 48.2501 48.5159 48.4026L49.139 48.6485C49.4927 48.788 49.6769 49.1786 49.5597 49.5403L49.4229 49.9621C49.3286 50.2532 49.4285 50.5721 49.672 50.7573L49.7931 50.8493C50.049 51.0439 50.403 51.0453 50.6603 50.8526L50.8299 50.7257C51.1845 50.4603 51.6924 50.5749 51.8986 50.9669L52.1533 51.4511C52.3293 51.7857 52.2166 52.1994 51.8952 52.3984Z" stroke="black" stroke-width="0.479998"/>
<path d="M47.9225 48.3496L48.9684 48.8026C49.3087 48.9499 49.4814 49.3317 49.3674 49.6846L49.2356 50.0924C49.1418 50.3828 49.2413 50.7009 49.484 50.8861L49.5799 50.9592C49.8362 51.1548 50.1912 51.1561 50.449 50.9625L50.5817 50.8628C50.9366 50.5963 51.4458 50.7111 51.6518 51.1042L51.8822 51.5437C52.0574 51.8778 51.945 52.2904 51.6247 52.4895L51.2427 52.7269C51.0314 52.8583 50.9029 53.0895 50.9029 53.3384V53.8766C50.9029 54.1709 51.0819 54.4355 51.3551 54.5449L51.4624 54.5879C51.7831 54.7164 51.9673 55.0545 51.9015 55.3935L51.8167 55.8303C51.751 56.1687 51.4546 56.413 51.1099 56.413H50.3735C50.1467 56.413 49.9332 56.5199 49.7972 56.7015L49.6414 56.9095C49.4633 57.1473 49.4496 57.4701 49.6069 57.7222L49.8252 58.0719C50.0468 58.427 49.9199 58.8956 49.5494 59.0904L49.0762 59.3392C48.7311 59.5207 48.3043 59.3945 48.1133 59.0545L47.862 58.607C47.7345 58.38 47.4945 58.2396 47.2342 58.2396H46.5619C46.2575 58.2396 45.9859 58.431 45.8837 58.7177L45.6094 59.487" stroke="black" stroke-width="0.479998" stroke-linecap="round"/>
<path d="M36.3496 36.0141C36.4844 35.46 37.007 34.5033 37.384 33.6669C37.4937 33.4237 38.135 33.4124 38.2294 33.6619C38.6113 34.6724 38.9916 35.5685 39.1189 36.0141C39.2967 36.6366 39.3552 38.2037 37.7896 38.1744C36.224 38.1451 36.1773 36.722 36.3496 36.0141Z" fill="black"/>
<path d="M39.254 30.039C39.3272 29.7404 39.5666 29.2705 39.7917 28.8049C39.9077 28.5651 40.5959 28.5649 40.6932 28.8129C40.9011 29.3425 41.0868 29.7921 41.1579 30.039C41.2802 30.4639 41.3204 31.5335 40.244 31.5135C39.1677 31.4935 39.1355 30.5222 39.254 30.039Z" fill="black"/>
<path d="M40.2109 25.7136L41.5732 23.3836C41.6965 23.1727 41.8812 23.0045 42.1026 22.9014L46.5955 20.8093C47.0355 20.6043 47.5743 20.6846 47.777 21.1257C47.8262 21.2329 47.8702 21.3496 47.9048 21.4745C48.0363 21.9491 47.6563 22.3661 47.1803 22.4924L43.0552 23.5871C42.7644 23.6642 42.5132 23.8478 42.3514 24.1014L41.116 26.0372" stroke="black" stroke-width="0.479998" stroke-linecap="round"/>
<path d="M41.3033 26.1449C41.3932 25.71 40.4046 25.362 40.0451 25.536C39.7755 25.71 40.0451 26.0579 40.4945 26.2319C40.854 26.3711 41.3033 26.3189 41.3033 26.1449Z" fill="black"/>
<path d="M47.2539 20.5359C47.3145 19.3817 48.2388 16.9972 51.3798 16.1484C51.7842 16.0391 52.2118 16.1871 52.4546 16.5285C53.2791 17.6876 54.32 19.8185 54.1925 22.2514C54.1667 22.7433 53.7914 23.1367 53.3047 23.2128C51.4606 23.5013 48.8148 23.5517 47.9854 22.2509" stroke="black" stroke-width="0.479998" stroke-linecap="round"/>
</svg>
