<svg width="189" height="277" viewBox="0 0 189 277" fill="none" xmlns="http://www.w3.org/2000/svg">
<rect x="0.5" y="0.5" width="188" height="276" rx="11.5" fill="white"/>
<rect x="0.5" y="0.5" width="188" height="276" rx="11.5" stroke="#B8B8B8"/>
<path d="M24 36C24 29.3726 29.3726 24 36 24H60C66.6274 24 72 29.3726 72 36V60C72 66.6274 66.6274 72 60 72H36C29.3726 72 24 66.6274 24 60V36Z" fill="#D3D3D3"/>
<g clip-path="url(#clip0_846_27485)">
<mask id="mask0_846_27485" style="mask-type:alpha" maskUnits="userSpaceOnUse" x="30" y="30" width="36" height="36">
<rect x="30" y="30" width="36" height="36" fill="#D9D9D9"/>
</mask>
<g mask="url(#mask0_846_27485)">
<path d="M39 60V57L48.75 48L39 39V36H57V40.5H46.1625L54.225 48L46.1625 55.5H57V60H39Z" fill="#333333"/>
</g>
</g>
<path d="M25.328 136V124.8H30.176C31.1787 124.8 32.0427 124.965 32.768 125.296C33.4933 125.616 34.0533 126.08 34.448 126.688C34.8427 127.296 35.04 128.021 35.04 128.864C35.04 129.696 34.8427 130.416 34.448 131.024C34.0533 131.632 33.4933 132.101 32.768 132.432C32.0427 132.752 31.1787 132.912 30.176 132.912H26.768L27.92 131.744V136H25.328ZM27.92 132.032L26.768 130.8H30.032C30.832 130.8 31.4293 130.629 31.824 130.288C32.2187 129.947 32.416 129.472 32.416 128.864C32.416 128.245 32.2187 127.765 31.824 127.424C31.4293 127.083 30.832 126.912 30.032 126.912H26.768L27.92 125.68V132.032ZM42.1028 127.264C42.7854 127.264 43.3934 127.403 43.9268 127.68C44.4708 127.947 44.8974 128.363 45.2068 128.928C45.5161 129.483 45.6708 130.197 45.6708 131.072V136H43.1748V131.456C43.1748 130.763 43.0201 130.251 42.7108 129.92C42.4121 129.589 41.9854 129.424 41.4308 129.424C41.0361 129.424 40.6788 129.509 40.3588 129.68C40.0494 129.84 39.8041 130.091 39.6228 130.432C39.4521 130.773 39.3668 131.211 39.3668 131.744V136H36.8708V124.128H39.3668V129.776L38.8068 129.056C39.1161 128.48 39.5588 128.037 40.1348 127.728C40.7108 127.419 41.3668 127.264 42.1028 127.264ZM48.865 139.232C48.417 139.232 47.9743 139.163 47.537 139.024C47.0997 138.885 46.7423 138.693 46.465 138.448L47.377 136.672C47.569 136.843 47.7877 136.976 48.033 137.072C48.289 137.168 48.5397 137.216 48.785 137.216C49.137 137.216 49.4143 137.131 49.617 136.96C49.8303 136.8 50.0223 136.528 50.193 136.144L50.641 135.088L50.833 134.816L53.921 127.392H56.321L52.433 136.528C52.1557 137.221 51.8357 137.765 51.473 138.16C51.121 138.555 50.7263 138.832 50.289 138.992C49.8623 139.152 49.3877 139.232 48.865 139.232ZM50.337 136.336L46.497 127.392H49.073L52.049 134.592L50.337 136.336ZM60.1105 136.128C59.3745 136.128 58.6652 136.043 57.9825 135.872C57.3105 135.691 56.7772 135.467 56.3825 135.2L57.2145 133.408C57.6092 133.653 58.0732 133.856 58.6065 134.016C59.1505 134.165 59.6838 134.24 60.2065 134.24C60.7825 134.24 61.1878 134.171 61.4225 134.032C61.6678 133.893 61.7905 133.701 61.7905 133.456C61.7905 133.253 61.6945 133.104 61.5025 133.008C61.3212 132.901 61.0758 132.821 60.7665 132.768C60.4572 132.715 60.1158 132.661 59.7425 132.608C59.3798 132.555 59.0118 132.485 58.6385 132.4C58.2652 132.304 57.9238 132.165 57.6145 131.984C57.3052 131.803 57.0545 131.557 56.8625 131.248C56.6812 130.939 56.5905 130.539 56.5905 130.048C56.5905 129.504 56.7452 129.024 57.0545 128.608C57.3745 128.192 57.8332 127.867 58.4305 127.632C59.0278 127.387 59.7425 127.264 60.5745 127.264C61.1612 127.264 61.7585 127.328 62.3665 127.456C62.9745 127.584 63.4812 127.771 63.8865 128.016L63.0545 129.792C62.6385 129.547 62.2172 129.381 61.7905 129.296C61.3745 129.2 60.9692 129.152 60.5745 129.152C60.0198 129.152 59.6145 129.227 59.3585 129.376C59.1025 129.525 58.9745 129.717 58.9745 129.952C58.9745 130.165 59.0652 130.325 59.2465 130.432C59.4385 130.539 59.6892 130.624 59.9985 130.688C60.3078 130.752 60.6438 130.811 61.0065 130.864C61.3798 130.907 61.7532 130.976 62.1265 131.072C62.4998 131.168 62.8358 131.307 63.1345 131.488C63.4438 131.659 63.6945 131.899 63.8865 132.208C64.0785 132.507 64.1745 132.901 64.1745 133.392C64.1745 133.925 64.0145 134.4 63.6945 134.816C63.3745 135.221 62.9105 135.541 62.3025 135.776C61.7052 136.011 60.9745 136.128 60.1105 136.128ZM65.7145 136V127.392H68.2105V136H65.7145ZM66.9625 126.192C66.5038 126.192 66.1305 126.059 65.8425 125.792C65.5545 125.525 65.4105 125.195 65.4105 124.8C65.4105 124.405 65.5545 124.075 65.8425 123.808C66.1305 123.541 66.5038 123.408 66.9625 123.408C67.4212 123.408 67.7945 123.536 68.0825 123.792C68.3705 124.037 68.5145 124.357 68.5145 124.752C68.5145 125.168 68.3705 125.515 68.0825 125.792C67.8052 126.059 67.4318 126.192 66.9625 126.192ZM74.687 136.128C73.759 136.128 72.9323 135.941 72.207 135.568C71.4817 135.184 70.911 134.656 70.495 133.984C70.0897 133.312 69.887 132.549 69.887 131.696C69.887 130.832 70.0897 130.069 70.495 129.408C70.911 128.736 71.4817 128.213 72.207 127.84C72.9323 127.456 73.759 127.264 74.687 127.264C75.5937 127.264 76.383 127.456 77.055 127.84C77.727 128.213 78.223 128.752 78.543 129.456L76.607 130.496C76.383 130.091 76.1003 129.792 75.759 129.6C75.4283 129.408 75.0657 129.312 74.671 129.312C74.2443 129.312 73.8603 129.408 73.519 129.6C73.1777 129.792 72.9057 130.064 72.703 130.416C72.511 130.768 72.415 131.195 72.415 131.696C72.415 132.197 72.511 132.624 72.703 132.976C72.9057 133.328 73.1777 133.6 73.519 133.792C73.8603 133.984 74.2443 134.08 74.671 134.08C75.0657 134.08 75.4283 133.989 75.759 133.808C76.1003 133.616 76.383 133.312 76.607 132.896L78.543 133.952C78.223 134.645 77.727 135.184 77.055 135.568C76.383 135.941 75.5937 136.128 74.687 136.128ZM82.8761 136.128C82.1401 136.128 81.4308 136.043 80.7481 135.872C80.0761 135.691 79.5428 135.467 79.1481 135.2L79.9801 133.408C80.3748 133.653 80.8388 133.856 81.3721 134.016C81.9161 134.165 82.4495 134.24 82.9721 134.24C83.5481 134.24 83.9535 134.171 84.1881 134.032C84.4335 133.893 84.5561 133.701 84.5561 133.456C84.5561 133.253 84.4601 133.104 84.2681 133.008C84.0868 132.901 83.8415 132.821 83.5321 132.768C83.2228 132.715 82.8815 132.661 82.5081 132.608C82.1455 132.555 81.7775 132.485 81.4041 132.4C81.0308 132.304 80.6895 132.165 80.3801 131.984C80.0708 131.803 79.8201 131.557 79.6281 131.248C79.4468 130.939 79.3561 130.539 79.3561 130.048C79.3561 129.504 79.5108 129.024 79.8201 128.608C80.1401 128.192 80.5988 127.867 81.1961 127.632C81.7935 127.387 82.5081 127.264 83.3401 127.264C83.9268 127.264 84.5241 127.328 85.1321 127.456C85.7401 127.584 86.2468 127.771 86.6521 128.016L85.8201 129.792C85.4041 129.547 84.9828 129.381 84.5561 129.296C84.1401 129.2 83.7348 129.152 83.3401 129.152C82.7855 129.152 82.3801 129.227 82.1241 129.376C81.8681 129.525 81.7401 129.717 81.7401 129.952C81.7401 130.165 81.8308 130.325 82.0121 130.432C82.2041 130.539 82.4548 130.624 82.7641 130.688C83.0735 130.752 83.4095 130.811 83.7721 130.864C84.1455 130.907 84.5188 130.976 84.8921 131.072C85.2655 131.168 85.6015 131.307 85.9001 131.488C86.2095 131.659 86.4601 131.899 86.6521 132.208C86.8441 132.507 86.9401 132.901 86.9401 133.392C86.9401 133.925 86.7801 134.4 86.4601 134.816C86.1401 135.221 85.6761 135.541 85.0681 135.776C84.4708 136.011 83.7401 136.128 82.8761 136.128Z" fill="black"/>
<rect x="24" y="148" width="141" height="1" fill="#3C3C43"/>
<path d="M28.8398 160.929L25.5449 170H24.1982L27.9922 160.047H28.8604L28.8398 160.929ZM31.6016 170L28.2998 160.929L28.2793 160.047H29.1475L32.9551 170H31.6016ZM31.4307 166.315V167.396H25.8389V166.315H31.4307ZM35.4707 159.5V170H34.1992V159.5H35.4707ZM42.293 162.604H43.4414V169.843C43.4414 170.494 43.3092 171.05 43.0449 171.511C42.7806 171.971 42.4115 172.32 41.9375 172.557C41.4681 172.798 40.9258 172.919 40.3105 172.919C40.0553 172.919 39.7546 172.878 39.4082 172.796C39.0664 172.718 38.7292 172.584 38.3965 172.393C38.0684 172.206 37.7926 171.953 37.5693 171.634L38.2324 170.882C38.5423 171.256 38.8659 171.515 39.2031 171.661C39.5449 171.807 39.8822 171.88 40.2148 171.88C40.6159 171.88 40.9622 171.805 41.2539 171.654C41.5456 171.504 41.7712 171.281 41.9307 170.984C42.0947 170.693 42.1768 170.333 42.1768 169.904V164.23L42.293 162.604ZM37.2002 166.384V166.24C37.2002 165.675 37.2663 165.162 37.3984 164.702C37.5352 164.237 37.7288 163.839 37.9795 163.506C38.2347 163.173 38.5423 162.918 38.9023 162.74C39.2624 162.558 39.668 162.467 40.1191 162.467C40.584 162.467 40.9896 162.549 41.3359 162.713C41.6868 162.872 41.9831 163.107 42.2246 163.417C42.4707 163.722 42.6644 164.091 42.8057 164.524C42.9469 164.957 43.0449 165.447 43.0996 165.994V166.623C43.0495 167.165 42.9515 167.653 42.8057 168.086C42.6644 168.519 42.4707 168.888 42.2246 169.193C41.9831 169.499 41.6868 169.733 41.3359 169.897C40.985 170.057 40.5749 170.137 40.1055 170.137C39.6634 170.137 39.2624 170.043 38.9023 169.856C38.5469 169.67 38.2415 169.408 37.9863 169.07C37.7311 168.733 37.5352 168.337 37.3984 167.881C37.2663 167.421 37.2002 166.922 37.2002 166.384ZM38.4648 166.24V166.384C38.4648 166.753 38.5013 167.099 38.5742 167.423C38.6517 167.746 38.7679 168.031 38.9229 168.277C39.0824 168.523 39.2852 168.717 39.5312 168.858C39.7773 168.995 40.0713 169.063 40.4131 169.063C40.8324 169.063 41.1787 168.975 41.4521 168.797C41.7256 168.619 41.9421 168.384 42.1016 168.093C42.2656 167.801 42.3932 167.484 42.4844 167.143V165.495C42.4342 165.244 42.3568 165.003 42.252 164.771C42.1517 164.534 42.0195 164.324 41.8555 164.142C41.696 163.955 41.4977 163.807 41.2607 163.697C41.0238 163.588 40.7458 163.533 40.4268 163.533C40.0804 163.533 39.7819 163.606 39.5312 163.752C39.2852 163.893 39.0824 164.089 38.9229 164.34C38.7679 164.586 38.6517 164.873 38.5742 165.201C38.5013 165.525 38.4648 165.871 38.4648 166.24ZM48.4316 170.137C47.9167 170.137 47.4495 170.05 47.0303 169.877C46.6156 169.699 46.2578 169.451 45.957 169.132C45.6608 168.813 45.4329 168.435 45.2734 167.997C45.1139 167.56 45.0342 167.081 45.0342 166.562V166.274C45.0342 165.673 45.123 165.137 45.3008 164.668C45.4785 164.194 45.7201 163.793 46.0254 163.465C46.3307 163.137 46.6771 162.888 47.0645 162.72C47.4518 162.551 47.8529 162.467 48.2676 162.467C48.7962 162.467 49.252 162.558 49.6348 162.74C50.0221 162.923 50.3389 163.178 50.585 163.506C50.8311 163.829 51.0133 164.212 51.1318 164.654C51.2503 165.092 51.3096 165.57 51.3096 166.09V166.657H45.7861V165.625H50.0449V165.529C50.0267 165.201 49.9583 164.882 49.8398 164.572C49.7259 164.262 49.5436 164.007 49.293 163.807C49.0423 163.606 48.7005 163.506 48.2676 163.506C47.9805 163.506 47.7161 163.567 47.4746 163.69C47.2331 163.809 47.0257 163.987 46.8525 164.224C46.6794 164.461 46.5449 164.75 46.4492 165.092C46.3535 165.434 46.3057 165.828 46.3057 166.274V166.562C46.3057 166.912 46.3535 167.243 46.4492 167.553C46.5495 167.858 46.693 168.127 46.8799 168.359C47.0713 168.592 47.3014 168.774 47.5703 168.906C47.8438 169.038 48.1536 169.104 48.5 169.104C48.9466 169.104 49.3249 169.013 49.6348 168.831C49.9447 168.649 50.2158 168.405 50.4482 168.1L51.2139 168.708C51.0544 168.95 50.8516 169.18 50.6055 169.398C50.3594 169.617 50.0563 169.795 49.6963 169.932C49.3408 170.068 48.9193 170.137 48.4316 170.137ZM52.7793 159.5H54.0508V168.564L53.9414 170H52.7793V159.5ZM59.0479 166.24V166.384C59.0479 166.922 58.984 167.421 58.8564 167.881C58.7288 168.337 58.542 168.733 58.2959 169.07C58.0498 169.408 57.749 169.67 57.3936 169.856C57.0381 170.043 56.6302 170.137 56.1699 170.137C55.7005 170.137 55.2881 170.057 54.9326 169.897C54.5817 169.733 54.2855 169.499 54.0439 169.193C53.8024 168.888 53.6087 168.519 53.4629 168.086C53.3216 167.653 53.2236 167.165 53.1689 166.623V165.994C53.2236 165.447 53.3216 164.957 53.4629 164.524C53.6087 164.091 53.8024 163.722 54.0439 163.417C54.2855 163.107 54.5817 162.872 54.9326 162.713C55.2835 162.549 55.6914 162.467 56.1562 162.467C56.6211 162.467 57.0335 162.558 57.3936 162.74C57.7536 162.918 58.0544 163.173 58.2959 163.506C58.542 163.839 58.7288 164.237 58.8564 164.702C58.984 165.162 59.0479 165.675 59.0479 166.24ZM57.7764 166.384V166.24C57.7764 165.871 57.7422 165.525 57.6738 165.201C57.6055 164.873 57.4961 164.586 57.3457 164.34C57.1953 164.089 56.9971 163.893 56.751 163.752C56.5049 163.606 56.2018 163.533 55.8418 163.533C55.5228 163.533 55.2448 163.588 55.0078 163.697C54.7754 163.807 54.5771 163.955 54.4131 164.142C54.249 164.324 54.1146 164.534 54.0098 164.771C53.9095 165.003 53.8343 165.244 53.7842 165.495V167.143C53.8571 167.462 53.9756 167.769 54.1396 168.065C54.3083 168.357 54.5316 168.596 54.8096 168.783C55.0921 168.97 55.4408 169.063 55.8555 169.063C56.1973 169.063 56.4889 168.995 56.7305 168.858C56.9766 168.717 57.1748 168.523 57.3252 168.277C57.4801 168.031 57.5941 167.746 57.667 167.423C57.7399 167.099 57.7764 166.753 57.7764 166.384ZM61.9121 163.766V170H60.6475V162.604H61.8779L61.9121 163.766ZM64.2227 162.562L64.2158 163.738C64.111 163.715 64.0107 163.702 63.915 163.697C63.8239 163.688 63.7191 163.684 63.6006 163.684C63.3089 163.684 63.0514 163.729 62.8281 163.82C62.6048 163.911 62.4157 164.039 62.2607 164.203C62.1058 164.367 61.9827 164.563 61.8916 164.791C61.805 165.014 61.748 165.26 61.7207 165.529L61.3652 165.734C61.3652 165.288 61.4085 164.868 61.4951 164.477C61.5863 164.085 61.7253 163.738 61.9121 163.438C62.099 163.132 62.3359 162.895 62.623 162.727C62.9147 162.553 63.2611 162.467 63.6621 162.467C63.7533 162.467 63.8581 162.478 63.9766 162.501C64.0951 162.519 64.1771 162.54 64.2227 162.562ZM69.4795 168.735V164.928C69.4795 164.636 69.4202 164.383 69.3018 164.169C69.1878 163.95 69.0146 163.782 68.7822 163.663C68.5498 163.545 68.2627 163.485 67.9209 163.485C67.6019 163.485 67.3216 163.54 67.0801 163.649C66.8431 163.759 66.6562 163.902 66.5195 164.08C66.3874 164.258 66.3213 164.449 66.3213 164.654H65.0566C65.0566 164.39 65.125 164.128 65.2617 163.868C65.3984 163.608 65.5944 163.374 65.8496 163.164C66.1094 162.95 66.4193 162.781 66.7793 162.658C67.1439 162.531 67.5495 162.467 67.9961 162.467C68.5339 162.467 69.0078 162.558 69.418 162.74C69.8327 162.923 70.1562 163.198 70.3887 163.567C70.6257 163.932 70.7441 164.39 70.7441 164.941V168.387C70.7441 168.633 70.7646 168.895 70.8057 169.173C70.8512 169.451 70.9173 169.69 71.0039 169.891V170H69.6846C69.6208 169.854 69.5706 169.66 69.5342 169.419C69.4977 169.173 69.4795 168.945 69.4795 168.735ZM69.6982 165.516L69.7119 166.404H68.4336C68.0736 166.404 67.7523 166.434 67.4697 166.493C67.1872 166.548 66.9502 166.632 66.7588 166.746C66.5674 166.86 66.4215 167.004 66.3213 167.177C66.221 167.345 66.1709 167.544 66.1709 167.771C66.1709 168.004 66.2233 168.216 66.3281 168.407C66.4329 168.599 66.5902 168.751 66.7998 168.865C67.014 168.975 67.276 169.029 67.5859 169.029C67.9733 169.029 68.3151 168.947 68.6113 168.783C68.9076 168.619 69.1423 168.419 69.3154 168.182C69.4932 167.945 69.5889 167.715 69.6025 167.491L70.1426 168.1C70.1107 168.291 70.0241 168.503 69.8828 168.735C69.7415 168.968 69.5524 169.191 69.3154 169.405C69.083 169.615 68.805 169.79 68.4814 169.932C68.1624 170.068 67.8024 170.137 67.4014 170.137C66.9001 170.137 66.4603 170.039 66.082 169.843C65.7083 169.647 65.4167 169.385 65.207 169.057C65.002 168.724 64.8994 168.353 64.8994 167.942C64.8994 167.546 64.9769 167.197 65.1318 166.896C65.2868 166.591 65.5101 166.338 65.8018 166.138C66.0934 165.933 66.4443 165.778 66.8545 165.673C67.2646 165.568 67.7227 165.516 68.2285 165.516H69.6982ZM78.8379 165.249V166.288H75.502V165.249H78.8379ZM89.7754 168.927V170H84.7988V168.927H89.7754ZM85.0586 160.047V170H83.7393V160.047H85.0586ZM92.4688 162.604V170H91.1973V162.604H92.4688ZM91.1016 160.642C91.1016 160.437 91.1631 160.263 91.2861 160.122C91.4137 159.981 91.6006 159.91 91.8467 159.91C92.0882 159.91 92.2728 159.981 92.4004 160.122C92.5326 160.263 92.5986 160.437 92.5986 160.642C92.5986 160.838 92.5326 161.006 92.4004 161.147C92.2728 161.284 92.0882 161.353 91.8467 161.353C91.6006 161.353 91.4137 161.284 91.2861 161.147C91.1631 161.006 91.1016 160.838 91.1016 160.642ZM95.7637 164.183V170H94.499V162.604H95.6953L95.7637 164.183ZM95.4629 166.021L94.9365 166.001C94.9411 165.495 95.0163 165.028 95.1621 164.6C95.3079 164.167 95.513 163.791 95.7773 163.472C96.0417 163.153 96.3561 162.907 96.7207 162.733C97.0898 162.556 97.4977 162.467 97.9443 162.467C98.3089 162.467 98.637 162.517 98.9287 162.617C99.2204 162.713 99.4688 162.868 99.6738 163.082C99.8835 163.296 100.043 163.574 100.152 163.916C100.262 164.253 100.316 164.666 100.316 165.153V170H99.0449V165.14C99.0449 164.752 98.988 164.442 98.874 164.21C98.7601 163.973 98.5938 163.802 98.375 163.697C98.1562 163.588 97.8874 163.533 97.5684 163.533C97.2539 163.533 96.9668 163.599 96.707 163.731C96.4518 163.864 96.2308 164.046 96.0439 164.278C95.8617 164.511 95.7181 164.777 95.6133 165.078C95.513 165.374 95.4629 165.689 95.4629 166.021ZM105.307 170.137C104.792 170.137 104.325 170.05 103.905 169.877C103.491 169.699 103.133 169.451 102.832 169.132C102.536 168.813 102.308 168.435 102.148 167.997C101.989 167.56 101.909 167.081 101.909 166.562V166.274C101.909 165.673 101.998 165.137 102.176 164.668C102.354 164.194 102.595 163.793 102.9 163.465C103.206 163.137 103.552 162.888 103.939 162.72C104.327 162.551 104.728 162.467 105.143 162.467C105.671 162.467 106.127 162.558 106.51 162.74C106.897 162.923 107.214 163.178 107.46 163.506C107.706 163.829 107.888 164.212 108.007 164.654C108.125 165.092 108.185 165.57 108.185 166.09V166.657H102.661V165.625H106.92V165.529C106.902 165.201 106.833 164.882 106.715 164.572C106.601 164.262 106.419 164.007 106.168 163.807C105.917 163.606 105.576 163.506 105.143 163.506C104.855 163.506 104.591 163.567 104.35 163.69C104.108 163.809 103.901 163.987 103.728 164.224C103.554 164.461 103.42 164.75 103.324 165.092C103.229 165.434 103.181 165.828 103.181 166.274V166.562C103.181 166.912 103.229 167.243 103.324 167.553C103.424 167.858 103.568 168.127 103.755 168.359C103.946 168.592 104.176 168.774 104.445 168.906C104.719 169.038 105.029 169.104 105.375 169.104C105.822 169.104 106.2 169.013 106.51 168.831C106.82 168.649 107.091 168.405 107.323 168.1L108.089 168.708C107.929 168.95 107.727 169.18 107.48 169.398C107.234 169.617 106.931 169.795 106.571 169.932C106.216 170.068 105.794 170.137 105.307 170.137ZM114.022 168.735V164.928C114.022 164.636 113.963 164.383 113.845 164.169C113.731 163.95 113.558 163.782 113.325 163.663C113.093 163.545 112.806 163.485 112.464 163.485C112.145 163.485 111.865 163.54 111.623 163.649C111.386 163.759 111.199 163.902 111.062 164.08C110.93 164.258 110.864 164.449 110.864 164.654H109.6C109.6 164.39 109.668 164.128 109.805 163.868C109.941 163.608 110.137 163.374 110.393 163.164C110.652 162.95 110.962 162.781 111.322 162.658C111.687 162.531 112.092 162.467 112.539 162.467C113.077 162.467 113.551 162.558 113.961 162.74C114.376 162.923 114.699 163.198 114.932 163.567C115.169 163.932 115.287 164.39 115.287 164.941V168.387C115.287 168.633 115.308 168.895 115.349 169.173C115.394 169.451 115.46 169.69 115.547 169.891V170H114.228C114.164 169.854 114.114 169.66 114.077 169.419C114.041 169.173 114.022 168.945 114.022 168.735ZM114.241 165.516L114.255 166.404H112.977C112.617 166.404 112.295 166.434 112.013 166.493C111.73 166.548 111.493 166.632 111.302 166.746C111.11 166.86 110.965 167.004 110.864 167.177C110.764 167.345 110.714 167.544 110.714 167.771C110.714 168.004 110.766 168.216 110.871 168.407C110.976 168.599 111.133 168.751 111.343 168.865C111.557 168.975 111.819 169.029 112.129 169.029C112.516 169.029 112.858 168.947 113.154 168.783C113.451 168.619 113.685 168.419 113.858 168.182C114.036 167.945 114.132 167.715 114.146 167.491L114.686 168.1C114.654 168.291 114.567 168.503 114.426 168.735C114.285 168.968 114.095 169.191 113.858 169.405C113.626 169.615 113.348 169.79 113.024 169.932C112.705 170.068 112.345 170.137 111.944 170.137C111.443 170.137 111.003 170.039 110.625 169.843C110.251 169.647 109.96 169.385 109.75 169.057C109.545 168.724 109.442 168.353 109.442 167.942C109.442 167.546 109.52 167.197 109.675 166.896C109.83 166.591 110.053 166.338 110.345 166.138C110.636 165.933 110.987 165.778 111.397 165.673C111.808 165.568 112.266 165.516 112.771 165.516H114.241ZM118.541 163.766V170H117.276V162.604H118.507L118.541 163.766ZM120.852 162.562L120.845 163.738C120.74 163.715 120.64 163.702 120.544 163.697C120.453 163.688 120.348 163.684 120.229 163.684C119.938 163.684 119.68 163.729 119.457 163.82C119.234 163.911 119.045 164.039 118.89 164.203C118.735 164.367 118.612 164.563 118.521 164.791C118.434 165.014 118.377 165.26 118.35 165.529L117.994 165.734C117.994 165.288 118.037 164.868 118.124 164.477C118.215 164.085 118.354 163.738 118.541 163.438C118.728 163.132 118.965 162.895 119.252 162.727C119.544 162.553 119.89 162.467 120.291 162.467C120.382 162.467 120.487 162.478 120.605 162.501C120.724 162.519 120.806 162.54 120.852 162.562ZM31.4785 184.927V186H26.208V184.927H31.4785ZM26.4746 176.047V186H25.1553V176.047H26.4746ZM30.7812 180.326V181.399H26.208V180.326H30.7812ZM31.4102 176.047V177.127H26.208V176.047H31.4102ZM37.4395 188.844V180.025L37.5488 178.604H38.7109V188.844H37.4395ZM32.4697 182.384V182.24C32.4697 181.675 32.5358 181.162 32.668 180.702C32.8001 180.237 32.9938 179.839 33.249 179.506C33.5042 179.173 33.8118 178.918 34.1719 178.74C34.5365 178.558 34.9512 178.467 35.416 178.467C35.8809 178.467 36.2887 178.549 36.6396 178.713C36.9951 178.872 37.2959 179.107 37.542 179.417C37.7926 179.722 37.9909 180.091 38.1367 180.524C38.2826 180.957 38.3828 181.447 38.4375 181.994V182.623C38.3874 183.165 38.2894 183.653 38.1436 184.086C37.9977 184.519 37.7995 184.888 37.5488 185.193C37.3027 185.499 36.9997 185.733 36.6396 185.897C36.2842 186.057 35.8717 186.137 35.4023 186.137C34.9466 186.137 34.5365 186.043 34.1719 185.856C33.8118 185.67 33.5042 185.408 33.249 185.07C32.9984 184.733 32.8047 184.337 32.668 183.881C32.5358 183.421 32.4697 182.922 32.4697 182.384ZM33.7412 182.24V182.384C33.7412 182.753 33.7799 183.102 33.8574 183.43C33.9349 183.753 34.0534 184.04 34.2129 184.291C34.377 184.542 34.582 184.74 34.8281 184.886C35.0788 185.027 35.375 185.098 35.7168 185.098C36.1361 185.098 36.4847 185.007 36.7627 184.824C37.0452 184.642 37.2708 184.403 37.4395 184.106C37.6081 183.806 37.738 183.484 37.8291 183.143V181.495C37.779 181.244 37.6992 181.001 37.5898 180.764C37.485 180.527 37.3483 180.315 37.1797 180.128C37.0111 179.937 36.806 179.786 36.5645 179.677C36.3275 179.563 36.0495 179.506 35.7305 179.506C35.3841 179.506 35.0856 179.579 34.835 179.725C34.5843 179.87 34.377 180.071 34.2129 180.326C34.0534 180.577 33.9349 180.866 33.8574 181.194C33.7799 181.522 33.7412 181.871 33.7412 182.24ZM45.2666 184.291V178.604H46.5381V186H45.3281L45.2666 184.291ZM45.5059 182.732L46.0322 182.719C46.0322 183.211 45.9798 183.667 45.875 184.086C45.7747 184.501 45.6107 184.861 45.3828 185.166C45.1549 185.471 44.8564 185.711 44.4873 185.884C44.1182 186.052 43.6693 186.137 43.1406 186.137C42.7806 186.137 42.4502 186.084 42.1494 185.979C41.8532 185.875 41.598 185.713 41.3838 185.494C41.1696 185.275 41.0033 184.991 40.8848 184.64C40.7708 184.289 40.7139 183.867 40.7139 183.375V178.604H41.9785V183.389C41.9785 183.721 42.015 183.997 42.0879 184.216C42.1654 184.43 42.2679 184.601 42.3955 184.729C42.5277 184.852 42.6735 184.938 42.833 184.988C42.9971 185.038 43.1657 185.063 43.3389 185.063C43.8766 185.063 44.3027 184.961 44.6172 184.756C44.9316 184.546 45.1572 184.266 45.2939 183.915C45.4352 183.56 45.5059 183.165 45.5059 182.732ZM52.8271 184.735V180.928C52.8271 180.636 52.7679 180.383 52.6494 180.169C52.5355 179.95 52.3623 179.782 52.1299 179.663C51.8975 179.545 51.6104 179.485 51.2686 179.485C50.9495 179.485 50.6693 179.54 50.4277 179.649C50.1908 179.759 50.0039 179.902 49.8672 180.08C49.735 180.258 49.6689 180.449 49.6689 180.654H48.4043C48.4043 180.39 48.4727 180.128 48.6094 179.868C48.7461 179.608 48.9421 179.374 49.1973 179.164C49.457 178.95 49.7669 178.781 50.127 178.658C50.4915 178.531 50.8971 178.467 51.3438 178.467C51.8815 178.467 52.3555 178.558 52.7656 178.74C53.1803 178.923 53.5039 179.198 53.7363 179.567C53.9733 179.932 54.0918 180.39 54.0918 180.941V184.387C54.0918 184.633 54.1123 184.895 54.1533 185.173C54.1989 185.451 54.265 185.69 54.3516 185.891V186H53.0322C52.9684 185.854 52.9183 185.66 52.8818 185.419C52.8454 185.173 52.8271 184.945 52.8271 184.735ZM53.0459 181.516L53.0596 182.404H51.7812C51.4212 182.404 51.0999 182.434 50.8174 182.493C50.5348 182.548 50.2979 182.632 50.1064 182.746C49.915 182.86 49.7692 183.004 49.6689 183.177C49.5687 183.345 49.5186 183.544 49.5186 183.771C49.5186 184.004 49.571 184.216 49.6758 184.407C49.7806 184.599 49.9378 184.751 50.1475 184.865C50.3617 184.975 50.6237 185.029 50.9336 185.029C51.321 185.029 51.6628 184.947 51.959 184.783C52.2552 184.619 52.4899 184.419 52.6631 184.182C52.8408 183.945 52.9365 183.715 52.9502 183.491L53.4902 184.1C53.4583 184.291 53.3717 184.503 53.2305 184.735C53.0892 184.968 52.9001 185.191 52.6631 185.405C52.4307 185.615 52.1527 185.79 51.8291 185.932C51.5101 186.068 51.1501 186.137 50.749 186.137C50.2477 186.137 49.8079 186.039 49.4297 185.843C49.056 185.647 48.7643 185.385 48.5547 185.057C48.3496 184.724 48.2471 184.353 48.2471 183.942C48.2471 183.546 48.3245 183.197 48.4795 182.896C48.6344 182.591 48.8577 182.338 49.1494 182.138C49.4411 181.933 49.792 181.778 50.2021 181.673C50.6123 181.568 51.0703 181.516 51.5762 181.516H53.0459ZM59.1777 178.604V179.574H55.1787V178.604H59.1777ZM56.5322 176.806H57.7969V184.168C57.7969 184.419 57.8356 184.608 57.9131 184.735C57.9906 184.863 58.0908 184.947 58.2139 184.988C58.3369 185.029 58.4691 185.05 58.6104 185.05C58.7152 185.05 58.8245 185.041 58.9385 185.022C59.057 185 59.1458 184.981 59.2051 184.968L59.2119 186C59.1117 186.032 58.9795 186.062 58.8154 186.089C58.6559 186.121 58.4622 186.137 58.2344 186.137C57.9245 186.137 57.6396 186.075 57.3799 185.952C57.1201 185.829 56.9128 185.624 56.7578 185.337C56.6074 185.045 56.5322 184.653 56.5322 184.161V176.806ZM62.0352 178.604V186H60.7637V178.604H62.0352ZM60.668 176.642C60.668 176.437 60.7295 176.263 60.8525 176.122C60.9801 175.981 61.167 175.91 61.4131 175.91C61.6546 175.91 61.8392 175.981 61.9668 176.122C62.099 176.263 62.165 176.437 62.165 176.642C62.165 176.838 62.099 177.006 61.9668 177.147C61.8392 177.284 61.6546 177.353 61.4131 177.353C61.167 177.353 60.9801 177.284 60.8525 177.147C60.7295 177.006 60.668 176.838 60.668 176.642ZM63.7305 182.384V182.227C63.7305 181.693 63.8079 181.199 63.9629 180.743C64.1178 180.283 64.3411 179.884 64.6328 179.547C64.9245 179.205 65.2777 178.941 65.6924 178.754C66.1071 178.562 66.5719 178.467 67.0869 178.467C67.6064 178.467 68.0736 178.562 68.4883 178.754C68.9076 178.941 69.263 179.205 69.5547 179.547C69.8509 179.884 70.0765 180.283 70.2314 180.743C70.3864 181.199 70.4639 181.693 70.4639 182.227V182.384C70.4639 182.917 70.3864 183.411 70.2314 183.867C70.0765 184.323 69.8509 184.722 69.5547 185.063C69.263 185.401 68.9098 185.665 68.4951 185.856C68.085 186.043 67.6201 186.137 67.1006 186.137C66.5811 186.137 66.1139 186.043 65.6992 185.856C65.2845 185.665 64.929 185.401 64.6328 185.063C64.3411 184.722 64.1178 184.323 63.9629 183.867C63.8079 183.411 63.7305 182.917 63.7305 182.384ZM64.9951 182.227V182.384C64.9951 182.753 65.0384 183.102 65.125 183.43C65.2116 183.753 65.3415 184.04 65.5146 184.291C65.6924 184.542 65.9134 184.74 66.1777 184.886C66.4421 185.027 66.7497 185.098 67.1006 185.098C67.4469 185.098 67.75 185.027 68.0098 184.886C68.2741 184.74 68.4928 184.542 68.666 184.291C68.8392 184.04 68.9691 183.753 69.0557 183.43C69.1468 183.102 69.1924 182.753 69.1924 182.384V182.227C69.1924 181.862 69.1468 181.518 69.0557 181.194C68.9691 180.866 68.8369 180.577 68.6592 180.326C68.486 180.071 68.2673 179.87 68.0029 179.725C67.7432 179.579 67.4378 179.506 67.0869 179.506C66.7406 179.506 66.4352 179.579 66.1709 179.725C65.9111 179.87 65.6924 180.071 65.5146 180.326C65.3415 180.577 65.2116 180.866 65.125 181.194C65.0384 181.518 64.9951 181.862 64.9951 182.227ZM73.3145 180.183V186H72.0498V178.604H73.2461L73.3145 180.183ZM73.0137 182.021L72.4873 182.001C72.4919 181.495 72.5671 181.028 72.7129 180.6C72.8587 180.167 73.0638 179.791 73.3281 179.472C73.5924 179.153 73.9069 178.907 74.2715 178.733C74.6406 178.556 75.0485 178.467 75.4951 178.467C75.8597 178.467 76.1878 178.517 76.4795 178.617C76.7712 178.713 77.0195 178.868 77.2246 179.082C77.4342 179.296 77.5938 179.574 77.7031 179.916C77.8125 180.253 77.8672 180.666 77.8672 181.153V186H76.5957V181.14C76.5957 180.752 76.5387 180.442 76.4248 180.21C76.3109 179.973 76.1445 179.802 75.9258 179.697C75.707 179.588 75.4382 179.533 75.1191 179.533C74.8047 179.533 74.5176 179.599 74.2578 179.731C74.0026 179.864 73.7816 180.046 73.5947 180.278C73.4124 180.511 73.2689 180.777 73.1641 181.078C73.0638 181.374 73.0137 181.689 73.0137 182.021ZM84.0947 184.038C84.0947 183.856 84.0537 183.687 83.9717 183.532C83.8942 183.373 83.7324 183.229 83.4863 183.102C83.2448 182.969 82.8802 182.855 82.3926 182.76C81.9824 182.673 81.611 182.571 81.2783 182.452C80.9502 182.334 80.6699 182.19 80.4375 182.021C80.2096 181.853 80.0342 181.655 79.9111 181.427C79.7881 181.199 79.7266 180.932 79.7266 180.627C79.7266 180.335 79.7904 180.06 79.918 179.8C80.0501 179.54 80.2347 179.31 80.4717 179.109C80.7132 178.909 81.0026 178.752 81.3398 178.638C81.6771 178.524 82.0531 178.467 82.4678 178.467C83.0602 178.467 83.5661 178.572 83.9854 178.781C84.4046 178.991 84.7259 179.271 84.9492 179.622C85.1725 179.968 85.2842 180.354 85.2842 180.777H84.0195C84.0195 180.572 83.958 180.374 83.835 180.183C83.7165 179.987 83.541 179.825 83.3086 179.697C83.0807 179.57 82.8005 179.506 82.4678 179.506C82.1169 179.506 81.832 179.561 81.6133 179.67C81.3991 179.775 81.2419 179.909 81.1416 180.073C81.0459 180.237 80.998 180.41 80.998 180.593C80.998 180.729 81.0208 180.853 81.0664 180.962C81.1165 181.067 81.2031 181.165 81.3262 181.256C81.4492 181.342 81.6224 181.424 81.8457 181.502C82.069 181.579 82.3538 181.657 82.7002 181.734C83.3063 181.871 83.8053 182.035 84.1973 182.227C84.5892 182.418 84.8809 182.653 85.0723 182.931C85.2637 183.209 85.3594 183.546 85.3594 183.942C85.3594 184.266 85.291 184.562 85.1543 184.831C85.0221 185.1 84.8285 185.332 84.5732 185.528C84.3226 185.72 84.0218 185.87 83.6709 185.979C83.3245 186.084 82.9349 186.137 82.502 186.137C81.8503 186.137 81.2988 186.021 80.8477 185.788C80.3965 185.556 80.0547 185.255 79.8223 184.886C79.5898 184.517 79.4736 184.127 79.4736 183.717H80.7451C80.7633 184.063 80.8636 184.339 81.0459 184.544C81.2282 184.744 81.4515 184.888 81.7158 184.975C81.9801 185.057 82.2422 185.098 82.502 185.098C82.8483 185.098 83.1377 185.052 83.3701 184.961C83.6071 184.87 83.7871 184.744 83.9102 184.585C84.0332 184.425 84.0947 184.243 84.0947 184.038Z" fill="#666666"/>
<g clip-path="url(#clip1_846_27485)">
<rect x="24" y="205" width="129" height="48" rx="8" fill="#333333"/>
<path d="M48.4258 234.12V235.5H41.6494V234.12H48.4258ZM41.9922 222.703V235.5H40.2959V222.703H41.9922ZM47.5293 228.205V229.585H41.6494V228.205H47.5293ZM48.3379 222.703V224.092H41.6494V222.703H48.3379ZM51.3789 225.99L53.4619 229.453L55.5713 225.99H57.4785L54.3672 230.684L57.5752 235.5H55.6943L53.4971 231.932L51.2998 235.5H49.4102L52.6094 230.684L49.5068 225.99H51.3789ZM60.8359 227.818V239.156H59.2012V225.99H60.6953L60.8359 227.818ZM67.2432 230.666V230.851C67.2432 231.542 67.1611 232.184 66.9971 232.775C66.833 233.361 66.5928 233.871 66.2764 234.305C65.9658 234.738 65.582 235.075 65.125 235.315C64.668 235.556 64.1436 235.676 63.5518 235.676C62.9482 235.676 62.415 235.576 61.9521 235.377C61.4893 235.178 61.0967 234.888 60.7744 234.507C60.4521 234.126 60.1943 233.669 60.001 233.136C59.8135 232.603 59.6846 232.002 59.6143 231.334V230.35C59.6846 229.646 59.8164 229.017 60.0098 228.46C60.2031 227.903 60.458 227.429 60.7744 227.036C61.0967 226.638 61.4863 226.336 61.9434 226.131C62.4004 225.92 62.9277 225.814 63.5254 225.814C64.123 225.814 64.6533 225.932 65.1162 226.166C65.5791 226.395 65.9688 226.723 66.2852 227.15C66.6016 227.578 66.8389 228.091 66.9971 228.688C67.1611 229.28 67.2432 229.939 67.2432 230.666ZM65.6084 230.851V230.666C65.6084 230.191 65.5586 229.746 65.459 229.33C65.3594 228.908 65.2041 228.539 64.9932 228.223C64.7881 227.9 64.5244 227.648 64.2021 227.467C63.8799 227.279 63.4961 227.186 63.0508 227.186C62.6406 227.186 62.2832 227.256 61.9785 227.396C61.6797 227.537 61.4248 227.728 61.2139 227.968C61.0029 228.202 60.8301 228.472 60.6953 228.776C60.5664 229.075 60.4697 229.386 60.4053 229.708V231.984C60.5225 232.395 60.6865 232.781 60.8975 233.145C61.1084 233.502 61.3896 233.792 61.7412 234.015C62.0928 234.231 62.5352 234.34 63.0684 234.34C63.5078 234.34 63.8857 234.249 64.2021 234.067C64.5244 233.88 64.7881 233.625 64.9932 233.303C65.2041 232.98 65.3594 232.611 65.459 232.195C65.5586 231.773 65.6084 231.325 65.6084 230.851ZM71.084 222V235.5H69.4492V222H71.084ZM73.2637 230.851V230.648C73.2637 229.963 73.3633 229.327 73.5625 228.741C73.7617 228.149 74.0488 227.637 74.4238 227.203C74.7988 226.764 75.2529 226.424 75.7861 226.184C76.3193 225.938 76.917 225.814 77.5791 225.814C78.2471 225.814 78.8477 225.938 79.3809 226.184C79.9199 226.424 80.377 226.764 80.752 227.203C81.1328 227.637 81.4229 228.149 81.6221 228.741C81.8213 229.327 81.9209 229.963 81.9209 230.648V230.851C81.9209 231.536 81.8213 232.172 81.6221 232.758C81.4229 233.344 81.1328 233.856 80.752 234.296C80.377 234.729 79.9229 235.069 79.3896 235.315C78.8623 235.556 78.2646 235.676 77.5967 235.676C76.9287 235.676 76.3281 235.556 75.7949 235.315C75.2617 235.069 74.8047 234.729 74.4238 234.296C74.0488 233.856 73.7617 233.344 73.5625 232.758C73.3633 232.172 73.2637 231.536 73.2637 230.851ZM74.8896 230.648V230.851C74.8896 231.325 74.9453 231.773 75.0566 232.195C75.168 232.611 75.335 232.98 75.5576 233.303C75.7861 233.625 76.0703 233.88 76.4102 234.067C76.75 234.249 77.1455 234.34 77.5967 234.34C78.042 234.34 78.4316 234.249 78.7656 234.067C79.1055 233.88 79.3867 233.625 79.6094 233.303C79.832 232.98 79.999 232.611 80.1104 232.195C80.2275 231.773 80.2861 231.325 80.2861 230.851V230.648C80.2861 230.18 80.2275 229.737 80.1104 229.321C79.999 228.899 79.8291 228.527 79.6006 228.205C79.3779 227.877 79.0967 227.619 78.7568 227.432C78.4229 227.244 78.0303 227.15 77.5791 227.15C77.1338 227.15 76.7412 227.244 76.4014 227.432C76.0674 227.619 75.7861 227.877 75.5576 228.205C75.335 228.527 75.168 228.899 75.0566 229.321C74.9453 229.737 74.8896 230.18 74.8896 230.648ZM85.5859 227.484V235.5H83.96V225.99H85.542L85.5859 227.484ZM88.5566 225.938L88.5479 227.449C88.4131 227.42 88.2842 227.402 88.1611 227.396C88.0439 227.385 87.9092 227.379 87.7568 227.379C87.3818 227.379 87.0508 227.438 86.7637 227.555C86.4766 227.672 86.2334 227.836 86.0342 228.047C85.835 228.258 85.6768 228.51 85.5596 228.803C85.4482 229.09 85.375 229.406 85.3398 229.752L84.8828 230.016C84.8828 229.441 84.9385 228.902 85.0498 228.398C85.167 227.895 85.3457 227.449 85.5859 227.062C85.8262 226.67 86.1309 226.365 86.5 226.148C86.875 225.926 87.3203 225.814 87.8359 225.814C87.9531 225.814 88.0879 225.829 88.2402 225.858C88.3926 225.882 88.498 225.908 88.5566 225.938ZM93.8301 235.676C93.168 235.676 92.5674 235.564 92.0283 235.342C91.4951 235.113 91.0352 234.794 90.6484 234.384C90.2676 233.974 89.9746 233.487 89.7695 232.925C89.5645 232.362 89.4619 231.747 89.4619 231.079V230.71C89.4619 229.937 89.5762 229.248 89.8047 228.645C90.0332 228.035 90.3438 227.52 90.7363 227.098C91.1289 226.676 91.5742 226.356 92.0723 226.14C92.5703 225.923 93.0859 225.814 93.6191 225.814C94.2988 225.814 94.8848 225.932 95.377 226.166C95.875 226.4 96.2822 226.729 96.5986 227.15C96.915 227.566 97.1494 228.059 97.3018 228.627C97.4541 229.189 97.5303 229.805 97.5303 230.473V231.202H90.4287V229.875H95.9043V229.752C95.8809 229.33 95.793 228.92 95.6406 228.521C95.4941 228.123 95.2598 227.795 94.9375 227.537C94.6152 227.279 94.1758 227.15 93.6191 227.15C93.25 227.15 92.9102 227.229 92.5996 227.388C92.2891 227.54 92.0225 227.769 91.7998 228.073C91.5771 228.378 91.4043 228.75 91.2812 229.189C91.1582 229.629 91.0967 230.136 91.0967 230.71V231.079C91.0967 231.53 91.1582 231.955 91.2812 232.354C91.4102 232.746 91.5947 233.092 91.835 233.391C92.0811 233.689 92.377 233.924 92.7227 234.094C93.0742 234.264 93.4727 234.349 93.918 234.349C94.4922 234.349 94.9785 234.231 95.377 233.997C95.7754 233.763 96.124 233.449 96.4229 233.057L97.4072 233.839C97.2021 234.149 96.9414 234.445 96.625 234.727C96.3086 235.008 95.9189 235.236 95.4561 235.412C94.999 235.588 94.457 235.676 93.8301 235.676Z" fill="white"/>
<g clip-path="url(#clip2_846_27485)">
<mask id="mask1_846_27485" style="mask-type:alpha" maskUnits="userSpaceOnUse" x="114" y="217" width="25" height="24">
<rect x="114.5" y="217" width="24" height="24" fill="#D9D9D9"/>
</mask>
<g mask="url(#mask1_846_27485)">
<path d="M120.9 235L119.5 233.6L129.1 224H120.5V222H132.5V234H130.5V225.4L120.9 235Z" fill="#F5F5F5"/>
</g>
</g>
</g>
<defs>
<clipPath id="clip0_846_27485">
<rect width="36" height="36" fill="white" transform="translate(30 30)"/>
</clipPath>
<clipPath id="clip1_846_27485">
<rect x="24" y="205" width="129" height="48" rx="8" fill="white"/>
</clipPath>
<clipPath id="clip2_846_27485">
<rect width="24" height="24" fill="white" transform="translate(114.5 217)"/>
</clipPath>
</defs>
</svg>
