<svg width="119" height="625" viewBox="0 0 119 625" fill="none" xmlns="http://www.w3.org/2000/svg">
<path d="M23.0752 23.2305V24.748C23.0752 25.5638 23.0023 26.252 22.8564 26.8125C22.7106 27.373 22.501 27.8242 22.2275 28.166C21.9541 28.5078 21.6237 28.7562 21.2363 28.9111C20.8535 29.0615 20.4206 29.1367 19.9375 29.1367C19.5547 29.1367 19.2015 29.0889 18.8779 28.9932C18.5544 28.8975 18.2627 28.7448 18.0029 28.5352C17.7477 28.321 17.529 28.043 17.3467 27.7012C17.1644 27.3594 17.0254 26.9447 16.9297 26.457C16.834 25.9694 16.7861 25.3997 16.7861 24.748V23.2305C16.7861 22.4147 16.859 21.7311 17.0049 21.1797C17.1553 20.6283 17.3672 20.1862 17.6406 19.8535C17.9141 19.5163 18.2422 19.2747 18.625 19.1289C19.0124 18.9831 19.4453 18.9102 19.9238 18.9102C20.3112 18.9102 20.6667 18.958 20.9902 19.0537C21.3184 19.1449 21.61 19.293 21.8652 19.498C22.1204 19.6986 22.3369 19.9674 22.5146 20.3047C22.6969 20.6374 22.8359 21.0452 22.9316 21.5283C23.0273 22.0114 23.0752 22.5788 23.0752 23.2305ZM21.8037 24.9531V23.0186C21.8037 22.5719 21.7764 22.18 21.7217 21.8428C21.6715 21.501 21.5964 21.2093 21.4961 20.9678C21.3958 20.7262 21.2682 20.5303 21.1133 20.3799C20.9629 20.2295 20.7874 20.1201 20.5869 20.0518C20.391 19.9788 20.1699 19.9424 19.9238 19.9424C19.623 19.9424 19.3564 19.9993 19.124 20.1133C18.8916 20.2227 18.6956 20.3981 18.5361 20.6396C18.3812 20.8812 18.2627 21.1979 18.1807 21.5898C18.0986 21.9818 18.0576 22.458 18.0576 23.0186V24.9531C18.0576 25.3997 18.0827 25.7939 18.1328 26.1357C18.1875 26.4775 18.2673 26.7738 18.3721 27.0244C18.4769 27.2705 18.6045 27.4733 18.7549 27.6328C18.9053 27.7923 19.0785 27.9108 19.2744 27.9883C19.4749 28.0612 19.696 28.0977 19.9375 28.0977C20.2474 28.0977 20.5186 28.0384 20.751 27.9199C20.9834 27.8014 21.1771 27.6169 21.332 27.3662C21.4915 27.111 21.61 26.7852 21.6875 26.3887C21.765 25.9876 21.8037 25.5091 21.8037 24.9531ZM30.9775 26.3066C30.9775 26.9128 30.8363 27.4277 30.5537 27.8516C30.2757 28.2708 29.8975 28.5898 29.4189 28.8086C28.945 29.0273 28.4095 29.1367 27.8125 29.1367C27.2155 29.1367 26.6777 29.0273 26.1992 28.8086C25.7207 28.5898 25.3424 28.2708 25.0645 27.8516C24.7865 27.4277 24.6475 26.9128 24.6475 26.3066C24.6475 25.9102 24.7227 25.5479 24.873 25.2197C25.028 24.887 25.2445 24.5977 25.5225 24.3516C25.805 24.1055 26.1377 23.9163 26.5205 23.7842C26.9079 23.6475 27.334 23.5791 27.7988 23.5791C28.4095 23.5791 28.9541 23.6976 29.4326 23.9346C29.9111 24.167 30.2871 24.4883 30.5605 24.8984C30.8385 25.3086 30.9775 25.778 30.9775 26.3066ZM29.7061 26.2793C29.7061 25.9102 29.6263 25.5843 29.4668 25.3018C29.3073 25.0146 29.084 24.7913 28.7969 24.6318C28.5098 24.4723 28.1771 24.3926 27.7988 24.3926C27.4115 24.3926 27.0765 24.4723 26.7939 24.6318C26.516 24.7913 26.2995 25.0146 26.1445 25.3018C25.9896 25.5843 25.9121 25.9102 25.9121 26.2793C25.9121 26.6621 25.9873 26.9902 26.1377 27.2637C26.2926 27.5326 26.5114 27.7399 26.7939 27.8857C27.0811 28.027 27.4206 28.0977 27.8125 28.0977C28.2044 28.0977 28.5417 28.027 28.8242 27.8857C29.1068 27.7399 29.3232 27.5326 29.4736 27.2637C29.6286 26.9902 29.7061 26.6621 29.7061 26.2793ZM30.7451 21.6377C30.7451 22.1208 30.6175 22.556 30.3623 22.9434C30.1071 23.3307 29.7585 23.6361 29.3164 23.8594C28.8743 24.0827 28.373 24.1943 27.8125 24.1943C27.2428 24.1943 26.7347 24.0827 26.2881 23.8594C25.846 23.6361 25.4997 23.3307 25.249 22.9434C24.9984 22.556 24.873 22.1208 24.873 21.6377C24.873 21.0589 24.9984 20.5667 25.249 20.1611C25.5042 19.7555 25.8529 19.4456 26.2949 19.2314C26.737 19.0173 27.2406 18.9102 27.8057 18.9102C28.3753 18.9102 28.8812 19.0173 29.3232 19.2314C29.7653 19.4456 30.1117 19.7555 30.3623 20.1611C30.6175 20.5667 30.7451 21.0589 30.7451 21.6377ZM29.4805 21.6582C29.4805 21.3255 29.4098 21.0316 29.2686 20.7764C29.1273 20.5212 28.9313 20.3206 28.6807 20.1748C28.43 20.0244 28.1383 19.9492 27.8057 19.9492C27.473 19.9492 27.1813 20.0199 26.9307 20.1611C26.6846 20.2979 26.4909 20.4938 26.3496 20.749C26.2129 21.0042 26.1445 21.3073 26.1445 21.6582C26.1445 22 26.2129 22.2985 26.3496 22.5537C26.4909 22.8089 26.6868 23.0072 26.9375 23.1484C27.1882 23.2897 27.4798 23.3604 27.8125 23.3604C28.1452 23.3604 28.4346 23.2897 28.6807 23.1484C28.9313 23.0072 29.1273 22.8089 29.2686 22.5537C29.4098 22.2985 29.4805 22 29.4805 21.6582ZM32.6592 28.3301C32.6592 28.1159 32.7253 27.9359 32.8574 27.79C32.9941 27.6396 33.1901 27.5645 33.4453 27.5645C33.7005 27.5645 33.8942 27.6396 34.0264 27.79C34.1631 27.9359 34.2314 28.1159 34.2314 28.3301C34.2314 28.5397 34.1631 28.7174 34.0264 28.8633C33.8942 29.0091 33.7005 29.082 33.4453 29.082C33.1901 29.082 32.9941 29.0091 32.8574 28.8633C32.7253 28.7174 32.6592 28.5397 32.6592 28.3301ZM32.666 22.2939C32.666 22.0798 32.7321 21.8997 32.8643 21.7539C33.001 21.6035 33.1969 21.5283 33.4521 21.5283C33.7074 21.5283 33.901 21.6035 34.0332 21.7539C34.1699 21.8997 34.2383 22.0798 34.2383 22.2939C34.2383 22.5036 34.1699 22.6813 34.0332 22.8271C33.901 22.973 33.7074 23.0459 33.4521 23.0459C33.1969 23.0459 33.001 22.973 32.8643 22.8271C32.7321 22.6813 32.666 22.5036 32.666 22.2939ZM45.6885 23.2305V24.748C45.6885 25.5638 45.6156 26.252 45.4697 26.8125C45.3239 27.373 45.1143 27.8242 44.8408 28.166C44.5674 28.5078 44.237 28.7562 43.8496 28.9111C43.4668 29.0615 43.0339 29.1367 42.5508 29.1367C42.168 29.1367 41.8148 29.0889 41.4912 28.9932C41.1676 28.8975 40.876 28.7448 40.6162 28.5352C40.361 28.321 40.1423 28.043 39.96 27.7012C39.7777 27.3594 39.6387 26.9447 39.543 26.457C39.4473 25.9694 39.3994 25.3997 39.3994 24.748V23.2305C39.3994 22.4147 39.4723 21.7311 39.6182 21.1797C39.7686 20.6283 39.9805 20.1862 40.2539 19.8535C40.5273 19.5163 40.8555 19.2747 41.2383 19.1289C41.6257 18.9831 42.0586 18.9102 42.5371 18.9102C42.9245 18.9102 43.2799 18.958 43.6035 19.0537C43.9316 19.1449 44.2233 19.293 44.4785 19.498C44.7337 19.6986 44.9502 19.9674 45.1279 20.3047C45.3102 20.6374 45.4492 21.0452 45.5449 21.5283C45.6406 22.0114 45.6885 22.5788 45.6885 23.2305ZM44.417 24.9531V23.0186C44.417 22.5719 44.3896 22.18 44.335 21.8428C44.2848 21.501 44.2096 21.2093 44.1094 20.9678C44.0091 20.7262 43.8815 20.5303 43.7266 20.3799C43.5762 20.2295 43.4007 20.1201 43.2002 20.0518C43.0042 19.9788 42.7832 19.9424 42.5371 19.9424C42.2363 19.9424 41.9697 19.9993 41.7373 20.1133C41.5049 20.2227 41.3089 20.3981 41.1494 20.6396C40.9945 20.8812 40.876 21.1979 40.7939 21.5898C40.7119 21.9818 40.6709 22.458 40.6709 23.0186V24.9531C40.6709 25.3997 40.696 25.7939 40.7461 26.1357C40.8008 26.4775 40.8805 26.7738 40.9854 27.0244C41.0902 27.2705 41.2178 27.4733 41.3682 27.6328C41.5186 27.7923 41.6917 27.9108 41.8877 27.9883C42.0882 28.0612 42.3092 28.0977 42.5508 28.0977C42.8607 28.0977 43.1318 28.0384 43.3643 27.9199C43.5967 27.8014 43.7904 27.6169 43.9453 27.3662C44.1048 27.111 44.2233 26.7852 44.3008 26.3887C44.3783 25.9876 44.417 25.5091 44.417 24.9531ZM53.5635 23.2305V24.748C53.5635 25.5638 53.4906 26.252 53.3447 26.8125C53.1989 27.373 52.9893 27.8242 52.7158 28.166C52.4424 28.5078 52.112 28.7562 51.7246 28.9111C51.3418 29.0615 50.9089 29.1367 50.4258 29.1367C50.043 29.1367 49.6898 29.0889 49.3662 28.9932C49.0426 28.8975 48.751 28.7448 48.4912 28.5352C48.236 28.321 48.0173 28.043 47.835 27.7012C47.6527 27.3594 47.5137 26.9447 47.418 26.457C47.3223 25.9694 47.2744 25.3997 47.2744 24.748V23.2305C47.2744 22.4147 47.3473 21.7311 47.4932 21.1797C47.6436 20.6283 47.8555 20.1862 48.1289 19.8535C48.4023 19.5163 48.7305 19.2747 49.1133 19.1289C49.5007 18.9831 49.9336 18.9102 50.4121 18.9102C50.7995 18.9102 51.1549 18.958 51.4785 19.0537C51.8066 19.1449 52.0983 19.293 52.3535 19.498C52.6087 19.6986 52.8252 19.9674 53.0029 20.3047C53.1852 20.6374 53.3242 21.0452 53.4199 21.5283C53.5156 22.0114 53.5635 22.5788 53.5635 23.2305ZM52.292 24.9531V23.0186C52.292 22.5719 52.2646 22.18 52.21 21.8428C52.1598 21.501 52.0846 21.2093 51.9844 20.9678C51.8841 20.7262 51.7565 20.5303 51.6016 20.3799C51.4512 20.2295 51.2757 20.1201 51.0752 20.0518C50.8792 19.9788 50.6582 19.9424 50.4121 19.9424C50.1113 19.9424 49.8447 19.9993 49.6123 20.1133C49.3799 20.2227 49.1839 20.3981 49.0244 20.6396C48.8695 20.8812 48.751 21.1979 48.6689 21.5898C48.5869 21.9818 48.5459 22.458 48.5459 23.0186V24.9531C48.5459 25.3997 48.571 25.7939 48.6211 26.1357C48.6758 26.4775 48.7555 26.7738 48.8604 27.0244C48.9652 27.2705 49.0928 27.4733 49.2432 27.6328C49.3936 27.7923 49.5667 27.9108 49.7627 27.9883C49.9632 28.0612 50.1842 28.0977 50.4258 28.0977C50.7357 28.0977 51.0068 28.0384 51.2393 27.9199C51.4717 27.8014 51.6654 27.6169 51.8203 27.3662C51.9798 27.111 52.0983 26.7852 52.1758 26.3887C52.2533 25.9876 52.292 25.5091 52.292 24.9531Z" fill="#333333"/>
<line x1="16" y1="63.5" x2="48" y2="63.5" stroke="#333333"/>
<path d="M16 96.042L80 96" stroke="#333333"/>
<line x1="16" y1="127.542" x2="48" y2="127.542" stroke="#333333"/>
<path d="M23.0752 167.272V168.79C23.0752 169.606 23.0023 170.294 22.8564 170.854C22.7106 171.415 22.501 171.866 22.2275 172.208C21.9541 172.55 21.6237 172.798 21.2363 172.953C20.8535 173.104 20.4206 173.179 19.9375 173.179C19.5547 173.179 19.2015 173.131 18.8779 173.035C18.5544 172.939 18.2627 172.787 18.0029 172.577C17.7477 172.363 17.529 172.085 17.3467 171.743C17.1644 171.401 17.0254 170.987 16.9297 170.499C16.834 170.011 16.7861 169.442 16.7861 168.79V167.272C16.7861 166.457 16.859 165.773 17.0049 165.222C17.1553 164.67 17.3672 164.228 17.6406 163.896C17.9141 163.558 18.2422 163.317 18.625 163.171C19.0124 163.025 19.4453 162.952 19.9238 162.952C20.3112 162.952 20.6667 163 20.9902 163.096C21.3184 163.187 21.61 163.335 21.8652 163.54C22.1204 163.741 22.3369 164.009 22.5146 164.347C22.6969 164.679 22.8359 165.087 22.9316 165.57C23.0273 166.053 23.0752 166.621 23.0752 167.272ZM21.8037 168.995V167.061C21.8037 166.614 21.7764 166.222 21.7217 165.885C21.6715 165.543 21.5964 165.251 21.4961 165.01C21.3958 164.768 21.2682 164.572 21.1133 164.422C20.9629 164.271 20.7874 164.162 20.5869 164.094C20.391 164.021 20.1699 163.984 19.9238 163.984C19.623 163.984 19.3564 164.041 19.124 164.155C18.8916 164.265 18.6956 164.44 18.5361 164.682C18.3812 164.923 18.2627 165.24 18.1807 165.632C18.0986 166.024 18.0576 166.5 18.0576 167.061V168.995C18.0576 169.442 18.0827 169.836 18.1328 170.178C18.1875 170.52 18.2673 170.816 18.3721 171.066C18.4769 171.312 18.6045 171.515 18.7549 171.675C18.9053 171.834 19.0785 171.953 19.2744 172.03C19.4749 172.103 19.696 172.14 19.9375 172.14C20.2474 172.14 20.5186 172.08 20.751 171.962C20.9834 171.843 21.1771 171.659 21.332 171.408C21.4915 171.153 21.61 170.827 21.6875 170.431C21.765 170.03 21.8037 169.551 21.8037 168.995ZM25.96 171.982H26.0898C26.819 171.982 27.4115 171.88 27.8672 171.675C28.3229 171.47 28.6738 171.194 28.9199 170.848C29.166 170.501 29.3346 170.112 29.4258 169.679C29.5169 169.241 29.5625 168.792 29.5625 168.332V166.808C29.5625 166.356 29.5101 165.955 29.4053 165.604C29.305 165.254 29.1637 164.96 28.9814 164.723C28.8037 164.486 28.6009 164.306 28.373 164.183C28.1452 164.06 27.9036 163.998 27.6484 163.998C27.3568 163.998 27.0947 164.057 26.8623 164.176C26.6344 164.29 26.4408 164.451 26.2812 164.661C26.1263 164.871 26.0078 165.117 25.9258 165.399C25.8438 165.682 25.8027 165.99 25.8027 166.322C25.8027 166.618 25.8392 166.906 25.9121 167.184C25.985 167.462 26.0967 167.712 26.2471 167.936C26.3975 168.159 26.5843 168.337 26.8076 168.469C27.0355 168.596 27.3021 168.66 27.6074 168.66C27.89 168.66 28.1543 168.605 28.4004 168.496C28.651 168.382 28.8721 168.229 29.0635 168.038C29.2594 167.842 29.4144 167.621 29.5283 167.375C29.6468 167.129 29.7152 166.871 29.7334 166.603H30.335C30.335 166.981 30.2598 167.354 30.1094 167.724C29.9635 168.088 29.7585 168.421 29.4941 168.722C29.2298 169.022 28.9199 169.264 28.5645 169.446C28.209 169.624 27.8216 169.713 27.4023 169.713C26.9102 169.713 26.484 169.617 26.124 169.426C25.764 169.234 25.4678 168.979 25.2354 168.66C25.0075 168.341 24.8366 167.986 24.7227 167.594C24.6133 167.197 24.5586 166.796 24.5586 166.391C24.5586 165.917 24.6247 165.472 24.7568 165.058C24.889 164.643 25.085 164.278 25.3447 163.964C25.6045 163.645 25.9258 163.396 26.3086 163.219C26.696 163.041 27.1426 162.952 27.6484 162.952C28.2181 162.952 28.7035 163.066 29.1045 163.294C29.5055 163.522 29.8314 163.827 30.082 164.21C30.3372 164.593 30.5241 165.023 30.6426 165.502C30.7611 165.98 30.8203 166.473 30.8203 166.979V167.437C30.8203 167.951 30.7861 168.476 30.7178 169.009C30.654 169.537 30.5286 170.043 30.3418 170.526C30.1595 171.009 29.8929 171.442 29.542 171.825C29.1911 172.203 28.7331 172.504 28.168 172.728C27.6074 172.946 26.9147 173.056 26.0898 173.056H25.96V171.982ZM32.6592 172.372C32.6592 172.158 32.7253 171.978 32.8574 171.832C32.9941 171.682 33.1901 171.606 33.4453 171.606C33.7005 171.606 33.8942 171.682 34.0264 171.832C34.1631 171.978 34.2314 172.158 34.2314 172.372C34.2314 172.582 34.1631 172.759 34.0264 172.905C33.8942 173.051 33.7005 173.124 33.4453 173.124C33.1901 173.124 32.9941 173.051 32.8574 172.905C32.7253 172.759 32.6592 172.582 32.6592 172.372ZM32.666 166.336C32.666 166.122 32.7321 165.942 32.8643 165.796C33.001 165.646 33.1969 165.57 33.4521 165.57C33.7074 165.57 33.901 165.646 34.0332 165.796C34.1699 165.942 34.2383 166.122 34.2383 166.336C34.2383 166.546 34.1699 166.723 34.0332 166.869C33.901 167.015 33.7074 167.088 33.4521 167.088C33.1969 167.088 33.001 167.015 32.8643 166.869C32.7321 166.723 32.666 166.546 32.666 166.336ZM45.6885 167.272V168.79C45.6885 169.606 45.6156 170.294 45.4697 170.854C45.3239 171.415 45.1143 171.866 44.8408 172.208C44.5674 172.55 44.237 172.798 43.8496 172.953C43.4668 173.104 43.0339 173.179 42.5508 173.179C42.168 173.179 41.8148 173.131 41.4912 173.035C41.1676 172.939 40.876 172.787 40.6162 172.577C40.361 172.363 40.1423 172.085 39.96 171.743C39.7777 171.401 39.6387 170.987 39.543 170.499C39.4473 170.011 39.3994 169.442 39.3994 168.79V167.272C39.3994 166.457 39.4723 165.773 39.6182 165.222C39.7686 164.67 39.9805 164.228 40.2539 163.896C40.5273 163.558 40.8555 163.317 41.2383 163.171C41.6257 163.025 42.0586 162.952 42.5371 162.952C42.9245 162.952 43.2799 163 43.6035 163.096C43.9316 163.187 44.2233 163.335 44.4785 163.54C44.7337 163.741 44.9502 164.009 45.1279 164.347C45.3102 164.679 45.4492 165.087 45.5449 165.57C45.6406 166.053 45.6885 166.621 45.6885 167.272ZM44.417 168.995V167.061C44.417 166.614 44.3896 166.222 44.335 165.885C44.2848 165.543 44.2096 165.251 44.1094 165.01C44.0091 164.768 43.8815 164.572 43.7266 164.422C43.5762 164.271 43.4007 164.162 43.2002 164.094C43.0042 164.021 42.7832 163.984 42.5371 163.984C42.2363 163.984 41.9697 164.041 41.7373 164.155C41.5049 164.265 41.3089 164.44 41.1494 164.682C40.9945 164.923 40.876 165.24 40.7939 165.632C40.7119 166.024 40.6709 166.5 40.6709 167.061V168.995C40.6709 169.442 40.696 169.836 40.7461 170.178C40.8008 170.52 40.8805 170.816 40.9854 171.066C41.0902 171.312 41.2178 171.515 41.3682 171.675C41.5186 171.834 41.6917 171.953 41.8877 172.03C42.0882 172.103 42.3092 172.14 42.5508 172.14C42.8607 172.14 43.1318 172.08 43.3643 171.962C43.5967 171.843 43.7904 171.659 43.9453 171.408C44.1048 171.153 44.2233 170.827 44.3008 170.431C44.3783 170.03 44.417 169.551 44.417 168.995ZM53.5635 167.272V168.79C53.5635 169.606 53.4906 170.294 53.3447 170.854C53.1989 171.415 52.9893 171.866 52.7158 172.208C52.4424 172.55 52.112 172.798 51.7246 172.953C51.3418 173.104 50.9089 173.179 50.4258 173.179C50.043 173.179 49.6898 173.131 49.3662 173.035C49.0426 172.939 48.751 172.787 48.4912 172.577C48.236 172.363 48.0173 172.085 47.835 171.743C47.6527 171.401 47.5137 170.987 47.418 170.499C47.3223 170.011 47.2744 169.442 47.2744 168.79V167.272C47.2744 166.457 47.3473 165.773 47.4932 165.222C47.6436 164.67 47.8555 164.228 48.1289 163.896C48.4023 163.558 48.7305 163.317 49.1133 163.171C49.5007 163.025 49.9336 162.952 50.4121 162.952C50.7995 162.952 51.1549 163 51.4785 163.096C51.8066 163.187 52.0983 163.335 52.3535 163.54C52.6087 163.741 52.8252 164.009 53.0029 164.347C53.1852 164.679 53.3242 165.087 53.4199 165.57C53.5156 166.053 53.5635 166.621 53.5635 167.272ZM52.292 168.995V167.061C52.292 166.614 52.2646 166.222 52.21 165.885C52.1598 165.543 52.0846 165.251 51.9844 165.01C51.8841 164.768 51.7565 164.572 51.6016 164.422C51.4512 164.271 51.2757 164.162 51.0752 164.094C50.8792 164.021 50.6582 163.984 50.4121 163.984C50.1113 163.984 49.8447 164.041 49.6123 164.155C49.3799 164.265 49.1839 164.44 49.0244 164.682C48.8695 164.923 48.751 165.24 48.6689 165.632C48.5869 166.024 48.5459 166.5 48.5459 167.061V168.995C48.5459 169.442 48.571 169.836 48.6211 170.178C48.6758 170.52 48.7555 170.816 48.8604 171.066C48.9652 171.312 49.0928 171.515 49.2432 171.675C49.3936 171.834 49.5667 171.953 49.7627 172.03C49.9632 172.103 50.1842 172.14 50.4258 172.14C50.7357 172.14 51.0068 172.08 51.2393 171.962C51.4717 171.843 51.6654 171.659 51.8203 171.408C51.9798 171.153 52.0983 170.827 52.1758 170.431C52.2533 170.03 52.292 169.551 52.292 168.995Z" fill="#333333"/>
<line x1="16" y1="207.542" x2="48" y2="207.542" stroke="#333333"/>
<path d="M16 240.084L80 240.042" stroke="#333333"/>
<line x1="16" y1="271.584" x2="48" y2="271.584" stroke="#333333"/>
<path d="M20.9834 307.076V317.084H19.7188V308.655L17.1689 309.585V308.443L20.7852 307.076H20.9834ZM30.9502 311.314V312.832C30.9502 313.648 30.8773 314.336 30.7314 314.896C30.5856 315.457 30.376 315.908 30.1025 316.25C29.8291 316.592 29.4987 316.84 29.1113 316.995C28.7285 317.146 28.2956 317.221 27.8125 317.221C27.4297 317.221 27.0765 317.173 26.7529 317.077C26.4294 316.981 26.1377 316.829 25.8779 316.619C25.6227 316.405 25.404 316.127 25.2217 315.785C25.0394 315.443 24.9004 315.029 24.8047 314.541C24.709 314.053 24.6611 313.484 24.6611 312.832V311.314C24.6611 310.499 24.734 309.815 24.8799 309.264C25.0303 308.712 25.2422 308.27 25.5156 307.938C25.7891 307.6 26.1172 307.359 26.5 307.213C26.8874 307.067 27.3203 306.994 27.7988 306.994C28.1862 306.994 28.5417 307.042 28.8652 307.138C29.1934 307.229 29.485 307.377 29.7402 307.582C29.9954 307.783 30.2119 308.051 30.3896 308.389C30.5719 308.721 30.7109 309.129 30.8066 309.612C30.9023 310.095 30.9502 310.663 30.9502 311.314ZM29.6787 313.037V311.103C29.6787 310.656 29.6514 310.264 29.5967 309.927C29.5465 309.585 29.4714 309.293 29.3711 309.052C29.2708 308.81 29.1432 308.614 28.9883 308.464C28.8379 308.313 28.6624 308.204 28.4619 308.136C28.266 308.063 28.0449 308.026 27.7988 308.026C27.498 308.026 27.2314 308.083 26.999 308.197C26.7666 308.307 26.5706 308.482 26.4111 308.724C26.2562 308.965 26.1377 309.282 26.0557 309.674C25.9736 310.066 25.9326 310.542 25.9326 311.103V313.037C25.9326 313.484 25.9577 313.878 26.0078 314.22C26.0625 314.562 26.1423 314.858 26.2471 315.108C26.3519 315.354 26.4795 315.557 26.6299 315.717C26.7803 315.876 26.9535 315.995 27.1494 316.072C27.3499 316.145 27.571 316.182 27.8125 316.182C28.1224 316.182 28.3936 316.122 28.626 316.004C28.8584 315.885 29.0521 315.701 29.207 315.45C29.3665 315.195 29.485 314.869 29.5625 314.473C29.64 314.072 29.6787 313.593 29.6787 313.037ZM32.6592 316.414C32.6592 316.2 32.7253 316.02 32.8574 315.874C32.9941 315.724 33.1901 315.648 33.4453 315.648C33.7005 315.648 33.8942 315.724 34.0264 315.874C34.1631 316.02 34.2314 316.2 34.2314 316.414C34.2314 316.624 34.1631 316.801 34.0264 316.947C33.8942 317.093 33.7005 317.166 33.4453 317.166C33.1901 317.166 32.9941 317.093 32.8574 316.947C32.7253 316.801 32.6592 316.624 32.6592 316.414ZM32.666 310.378C32.666 310.164 32.7321 309.984 32.8643 309.838C33.001 309.688 33.1969 309.612 33.4521 309.612C33.7074 309.612 33.901 309.688 34.0332 309.838C34.1699 309.984 34.2383 310.164 34.2383 310.378C34.2383 310.588 34.1699 310.765 34.0332 310.911C33.901 311.057 33.7074 311.13 33.4521 311.13C33.1969 311.13 33.001 311.057 32.8643 310.911C32.7321 310.765 32.666 310.588 32.666 310.378ZM45.6885 311.314V312.832C45.6885 313.648 45.6156 314.336 45.4697 314.896C45.3239 315.457 45.1143 315.908 44.8408 316.25C44.5674 316.592 44.237 316.84 43.8496 316.995C43.4668 317.146 43.0339 317.221 42.5508 317.221C42.168 317.221 41.8148 317.173 41.4912 317.077C41.1676 316.981 40.876 316.829 40.6162 316.619C40.361 316.405 40.1423 316.127 39.96 315.785C39.7777 315.443 39.6387 315.029 39.543 314.541C39.4473 314.053 39.3994 313.484 39.3994 312.832V311.314C39.3994 310.499 39.4723 309.815 39.6182 309.264C39.7686 308.712 39.9805 308.27 40.2539 307.938C40.5273 307.6 40.8555 307.359 41.2383 307.213C41.6257 307.067 42.0586 306.994 42.5371 306.994C42.9245 306.994 43.2799 307.042 43.6035 307.138C43.9316 307.229 44.2233 307.377 44.4785 307.582C44.7337 307.783 44.9502 308.051 45.1279 308.389C45.3102 308.721 45.4492 309.129 45.5449 309.612C45.6406 310.095 45.6885 310.663 45.6885 311.314ZM44.417 313.037V311.103C44.417 310.656 44.3896 310.264 44.335 309.927C44.2848 309.585 44.2096 309.293 44.1094 309.052C44.0091 308.81 43.8815 308.614 43.7266 308.464C43.5762 308.313 43.4007 308.204 43.2002 308.136C43.0042 308.063 42.7832 308.026 42.5371 308.026C42.2363 308.026 41.9697 308.083 41.7373 308.197C41.5049 308.307 41.3089 308.482 41.1494 308.724C40.9945 308.965 40.876 309.282 40.7939 309.674C40.7119 310.066 40.6709 310.542 40.6709 311.103V313.037C40.6709 313.484 40.696 313.878 40.7461 314.22C40.8008 314.562 40.8805 314.858 40.9854 315.108C41.0902 315.354 41.2178 315.557 41.3682 315.717C41.5186 315.876 41.6917 315.995 41.8877 316.072C42.0882 316.145 42.3092 316.182 42.5508 316.182C42.8607 316.182 43.1318 316.122 43.3643 316.004C43.5967 315.885 43.7904 315.701 43.9453 315.45C44.1048 315.195 44.2233 314.869 44.3008 314.473C44.3783 314.072 44.417 313.593 44.417 313.037ZM53.5635 311.314V312.832C53.5635 313.648 53.4906 314.336 53.3447 314.896C53.1989 315.457 52.9893 315.908 52.7158 316.25C52.4424 316.592 52.112 316.84 51.7246 316.995C51.3418 317.146 50.9089 317.221 50.4258 317.221C50.043 317.221 49.6898 317.173 49.3662 317.077C49.0426 316.981 48.751 316.829 48.4912 316.619C48.236 316.405 48.0173 316.127 47.835 315.785C47.6527 315.443 47.5137 315.029 47.418 314.541C47.3223 314.053 47.2744 313.484 47.2744 312.832V311.314C47.2744 310.499 47.3473 309.815 47.4932 309.264C47.6436 308.712 47.8555 308.27 48.1289 307.938C48.4023 307.6 48.7305 307.359 49.1133 307.213C49.5007 307.067 49.9336 306.994 50.4121 306.994C50.7995 306.994 51.1549 307.042 51.4785 307.138C51.8066 307.229 52.0983 307.377 52.3535 307.582C52.6087 307.783 52.8252 308.051 53.0029 308.389C53.1852 308.721 53.3242 309.129 53.4199 309.612C53.5156 310.095 53.5635 310.663 53.5635 311.314ZM52.292 313.037V311.103C52.292 310.656 52.2646 310.264 52.21 309.927C52.1598 309.585 52.0846 309.293 51.9844 309.052C51.8841 308.81 51.7565 308.614 51.6016 308.464C51.4512 308.313 51.2757 308.204 51.0752 308.136C50.8792 308.063 50.6582 308.026 50.4121 308.026C50.1113 308.026 49.8447 308.083 49.6123 308.197C49.3799 308.307 49.1839 308.482 49.0244 308.724C48.8695 308.965 48.751 309.282 48.6689 309.674C48.5869 310.066 48.5459 310.542 48.5459 311.103V313.037C48.5459 313.484 48.571 313.878 48.6211 314.22C48.6758 314.562 48.7555 314.858 48.8604 315.108C48.9652 315.354 49.0928 315.557 49.2432 315.717C49.3936 315.876 49.5667 315.995 49.7627 316.072C49.9632 316.145 50.1842 316.182 50.4258 316.182C50.7357 316.182 51.0068 316.122 51.2393 316.004C51.4717 315.885 51.6654 315.701 51.8203 315.45C51.9798 315.195 52.0983 314.869 52.1758 314.473C52.2533 314.072 52.292 313.593 52.292 313.037Z" fill="#333333"/>
<line x1="16" y1="351.584" x2="48" y2="351.584" stroke="#333333"/>
<path d="M16 384.126L80 384.084" stroke="#333333"/>
<line x1="16" y1="415.626" x2="48" y2="415.626" stroke="#333333"/>
<path d="M20.9834 451.118V461.126H19.7188V452.697L17.1689 453.627V452.485L20.7852 451.118H20.9834ZM28.8584 451.118V461.126H27.5938V452.697L25.0439 453.627V452.485L28.6602 451.118H28.8584ZM32.6592 460.456C32.6592 460.242 32.7253 460.062 32.8574 459.916C32.9941 459.766 33.1901 459.69 33.4453 459.69C33.7005 459.69 33.8942 459.766 34.0264 459.916C34.1631 460.062 34.2314 460.242 34.2314 460.456C34.2314 460.666 34.1631 460.843 34.0264 460.989C33.8942 461.135 33.7005 461.208 33.4453 461.208C33.1901 461.208 32.9941 461.135 32.8574 460.989C32.7253 460.843 32.6592 460.666 32.6592 460.456ZM32.666 454.42C32.666 454.206 32.7321 454.026 32.8643 453.88C33.001 453.729 33.1969 453.654 33.4521 453.654C33.7074 453.654 33.901 453.729 34.0332 453.88C34.1699 454.026 34.2383 454.206 34.2383 454.42C34.2383 454.63 34.1699 454.807 34.0332 454.953C33.901 455.099 33.7074 455.172 33.4521 455.172C33.1969 455.172 33.001 455.099 32.8643 454.953C32.7321 454.807 32.666 454.63 32.666 454.42ZM45.6885 455.356V456.874C45.6885 457.69 45.6156 458.378 45.4697 458.938C45.3239 459.499 45.1143 459.95 44.8408 460.292C44.5674 460.634 44.237 460.882 43.8496 461.037C43.4668 461.188 43.0339 461.263 42.5508 461.263C42.168 461.263 41.8148 461.215 41.4912 461.119C41.1676 461.023 40.876 460.871 40.6162 460.661C40.361 460.447 40.1423 460.169 39.96 459.827C39.7777 459.485 39.6387 459.071 39.543 458.583C39.4473 458.095 39.3994 457.526 39.3994 456.874V455.356C39.3994 454.541 39.4723 453.857 39.6182 453.306C39.7686 452.754 39.9805 452.312 40.2539 451.979C40.5273 451.642 40.8555 451.401 41.2383 451.255C41.6257 451.109 42.0586 451.036 42.5371 451.036C42.9245 451.036 43.2799 451.084 43.6035 451.18C43.9316 451.271 44.2233 451.419 44.4785 451.624C44.7337 451.825 44.9502 452.093 45.1279 452.431C45.3102 452.763 45.4492 453.171 45.5449 453.654C45.6406 454.137 45.6885 454.705 45.6885 455.356ZM44.417 457.079V455.145C44.417 454.698 44.3896 454.306 44.335 453.969C44.2848 453.627 44.2096 453.335 44.1094 453.094C44.0091 452.852 43.8815 452.656 43.7266 452.506C43.5762 452.355 43.4007 452.246 43.2002 452.178C43.0042 452.105 42.7832 452.068 42.5371 452.068C42.2363 452.068 41.9697 452.125 41.7373 452.239C41.5049 452.349 41.3089 452.524 41.1494 452.766C40.9945 453.007 40.876 453.324 40.7939 453.716C40.7119 454.108 40.6709 454.584 40.6709 455.145V457.079C40.6709 457.526 40.696 457.92 40.7461 458.262C40.8008 458.604 40.8805 458.9 40.9854 459.15C41.0902 459.396 41.2178 459.599 41.3682 459.759C41.5186 459.918 41.6917 460.037 41.8877 460.114C42.0882 460.187 42.3092 460.224 42.5508 460.224C42.8607 460.224 43.1318 460.164 43.3643 460.046C43.5967 459.927 43.7904 459.743 43.9453 459.492C44.1048 459.237 44.2233 458.911 44.3008 458.515C44.3783 458.114 44.417 457.635 44.417 457.079ZM53.5635 455.356V456.874C53.5635 457.69 53.4906 458.378 53.3447 458.938C53.1989 459.499 52.9893 459.95 52.7158 460.292C52.4424 460.634 52.112 460.882 51.7246 461.037C51.3418 461.188 50.9089 461.263 50.4258 461.263C50.043 461.263 49.6898 461.215 49.3662 461.119C49.0426 461.023 48.751 460.871 48.4912 460.661C48.236 460.447 48.0173 460.169 47.835 459.827C47.6527 459.485 47.5137 459.071 47.418 458.583C47.3223 458.095 47.2744 457.526 47.2744 456.874V455.356C47.2744 454.541 47.3473 453.857 47.4932 453.306C47.6436 452.754 47.8555 452.312 48.1289 451.979C48.4023 451.642 48.7305 451.401 49.1133 451.255C49.5007 451.109 49.9336 451.036 50.4121 451.036C50.7995 451.036 51.1549 451.084 51.4785 451.18C51.8066 451.271 52.0983 451.419 52.3535 451.624C52.6087 451.825 52.8252 452.093 53.0029 452.431C53.1852 452.763 53.3242 453.171 53.4199 453.654C53.5156 454.137 53.5635 454.705 53.5635 455.356ZM52.292 457.079V455.145C52.292 454.698 52.2646 454.306 52.21 453.969C52.1598 453.627 52.0846 453.335 51.9844 453.094C51.8841 452.852 51.7565 452.656 51.6016 452.506C51.4512 452.355 51.2757 452.246 51.0752 452.178C50.8792 452.105 50.6582 452.068 50.4121 452.068C50.1113 452.068 49.8447 452.125 49.6123 452.239C49.3799 452.349 49.1839 452.524 49.0244 452.766C48.8695 453.007 48.751 453.324 48.6689 453.716C48.5869 454.108 48.5459 454.584 48.5459 455.145V457.079C48.5459 457.526 48.571 457.92 48.6211 458.262C48.6758 458.604 48.7555 458.9 48.8604 459.15C48.9652 459.396 49.0928 459.599 49.2432 459.759C49.3936 459.918 49.5667 460.037 49.7627 460.114C49.9632 460.187 50.1842 460.224 50.4258 460.224C50.7357 460.224 51.0068 460.164 51.2393 460.046C51.4717 459.927 51.6654 459.743 51.8203 459.492C51.9798 459.237 52.0983 458.911 52.1758 458.515C52.2533 458.114 52.292 457.635 52.292 457.079Z" fill="#333333"/>
<line x1="16" y1="495.626" x2="48" y2="495.626" stroke="#333333"/>
<line x1="16" y1="527.626" x2="80" y2="527.626" stroke="#333333"/>
<line x1="16" y1="559.626" x2="48" y2="559.626" stroke="#333333"/>
<path d="M20.9834 595.118V605.126H19.7188V596.697L17.1689 597.627V596.485L20.7852 595.118H20.9834ZM31.2236 604.087V605.126H24.709V604.217L27.9697 600.587C28.3708 600.14 28.6807 599.762 28.8994 599.452C29.1227 599.138 29.2777 598.857 29.3643 598.611C29.4554 598.361 29.501 598.105 29.501 597.846C29.501 597.518 29.4326 597.221 29.2959 596.957C29.1637 596.688 28.9678 596.474 28.708 596.314C28.4482 596.155 28.1338 596.075 27.7646 596.075C27.3226 596.075 26.9535 596.162 26.6572 596.335C26.3656 596.504 26.1468 596.741 26.001 597.046C25.8551 597.351 25.7822 597.702 25.7822 598.099H24.5176C24.5176 597.538 24.6406 597.025 24.8867 596.561C25.1328 596.096 25.4974 595.727 25.9805 595.453C26.4635 595.175 27.0583 595.036 27.7646 595.036C28.3936 595.036 28.9313 595.148 29.3779 595.371C29.8245 595.59 30.1663 595.9 30.4033 596.301C30.6449 596.697 30.7656 597.162 30.7656 597.695C30.7656 597.987 30.7155 598.283 30.6152 598.584C30.5195 598.88 30.3851 599.176 30.2119 599.473C30.0433 599.769 29.8451 600.061 29.6172 600.348C29.3939 600.635 29.1546 600.917 28.8994 601.195L26.2334 604.087H31.2236ZM32.6592 604.456C32.6592 604.242 32.7253 604.062 32.8574 603.916C32.9941 603.766 33.1901 603.69 33.4453 603.69C33.7005 603.69 33.8942 603.766 34.0264 603.916C34.1631 604.062 34.2314 604.242 34.2314 604.456C34.2314 604.666 34.1631 604.843 34.0264 604.989C33.8942 605.135 33.7005 605.208 33.4453 605.208C33.1901 605.208 32.9941 605.135 32.8574 604.989C32.7253 604.843 32.6592 604.666 32.6592 604.456ZM32.666 598.42C32.666 598.206 32.7321 598.026 32.8643 597.88C33.001 597.729 33.1969 597.654 33.4521 597.654C33.7074 597.654 33.901 597.729 34.0332 597.88C34.1699 598.026 34.2383 598.206 34.2383 598.42C34.2383 598.63 34.1699 598.807 34.0332 598.953C33.901 599.099 33.7074 599.172 33.4521 599.172C33.1969 599.172 33.001 599.099 32.8643 598.953C32.7321 598.807 32.666 598.63 32.666 598.42ZM45.6885 599.356V600.874C45.6885 601.69 45.6156 602.378 45.4697 602.938C45.3239 603.499 45.1143 603.95 44.8408 604.292C44.5674 604.634 44.237 604.882 43.8496 605.037C43.4668 605.188 43.0339 605.263 42.5508 605.263C42.168 605.263 41.8148 605.215 41.4912 605.119C41.1676 605.023 40.876 604.871 40.6162 604.661C40.361 604.447 40.1423 604.169 39.96 603.827C39.7777 603.485 39.6387 603.071 39.543 602.583C39.4473 602.095 39.3994 601.526 39.3994 600.874V599.356C39.3994 598.541 39.4723 597.857 39.6182 597.306C39.7686 596.754 39.9805 596.312 40.2539 595.979C40.5273 595.642 40.8555 595.401 41.2383 595.255C41.6257 595.109 42.0586 595.036 42.5371 595.036C42.9245 595.036 43.2799 595.084 43.6035 595.18C43.9316 595.271 44.2233 595.419 44.4785 595.624C44.7337 595.825 44.9502 596.093 45.1279 596.431C45.3102 596.763 45.4492 597.171 45.5449 597.654C45.6406 598.137 45.6885 598.705 45.6885 599.356ZM44.417 601.079V599.145C44.417 598.698 44.3896 598.306 44.335 597.969C44.2848 597.627 44.2096 597.335 44.1094 597.094C44.0091 596.852 43.8815 596.656 43.7266 596.506C43.5762 596.355 43.4007 596.246 43.2002 596.178C43.0042 596.105 42.7832 596.068 42.5371 596.068C42.2363 596.068 41.9697 596.125 41.7373 596.239C41.5049 596.349 41.3089 596.524 41.1494 596.766C40.9945 597.007 40.876 597.324 40.7939 597.716C40.7119 598.108 40.6709 598.584 40.6709 599.145V601.079C40.6709 601.526 40.696 601.92 40.7461 602.262C40.8008 602.604 40.8805 602.9 40.9854 603.15C41.0902 603.396 41.2178 603.599 41.3682 603.759C41.5186 603.918 41.6917 604.037 41.8877 604.114C42.0882 604.187 42.3092 604.224 42.5508 604.224C42.8607 604.224 43.1318 604.164 43.3643 604.046C43.5967 603.927 43.7904 603.743 43.9453 603.492C44.1048 603.237 44.2233 602.911 44.3008 602.515C44.3783 602.114 44.417 601.635 44.417 601.079ZM53.5635 599.356V600.874C53.5635 601.69 53.4906 602.378 53.3447 602.938C53.1989 603.499 52.9893 603.95 52.7158 604.292C52.4424 604.634 52.112 604.882 51.7246 605.037C51.3418 605.188 50.9089 605.263 50.4258 605.263C50.043 605.263 49.6898 605.215 49.3662 605.119C49.0426 605.023 48.751 604.871 48.4912 604.661C48.236 604.447 48.0173 604.169 47.835 603.827C47.6527 603.485 47.5137 603.071 47.418 602.583C47.3223 602.095 47.2744 601.526 47.2744 600.874V599.356C47.2744 598.541 47.3473 597.857 47.4932 597.306C47.6436 596.754 47.8555 596.312 48.1289 595.979C48.4023 595.642 48.7305 595.401 49.1133 595.255C49.5007 595.109 49.9336 595.036 50.4121 595.036C50.7995 595.036 51.1549 595.084 51.4785 595.18C51.8066 595.271 52.0983 595.419 52.3535 595.624C52.6087 595.825 52.8252 596.093 53.0029 596.431C53.1852 596.763 53.3242 597.171 53.4199 597.654C53.5156 598.137 53.5635 598.705 53.5635 599.356ZM52.292 601.079V599.145C52.292 598.698 52.2646 598.306 52.21 597.969C52.1598 597.627 52.0846 597.335 51.9844 597.094C51.8841 596.852 51.7565 596.656 51.6016 596.506C51.4512 596.355 51.2757 596.246 51.0752 596.178C50.8792 596.105 50.6582 596.068 50.4121 596.068C50.1113 596.068 49.8447 596.125 49.6123 596.239C49.3799 596.349 49.1839 596.524 49.0244 596.766C48.8695 597.007 48.751 597.324 48.6689 597.716C48.5869 598.108 48.5459 598.584 48.5459 599.145V601.079C48.5459 601.526 48.571 601.92 48.6211 602.262C48.6758 602.604 48.7555 602.9 48.8604 603.15C48.9652 603.396 49.0928 603.599 49.2432 603.759C49.3936 603.918 49.5667 604.037 49.7627 604.114C49.9632 604.187 50.1842 604.224 50.4258 604.224C50.7357 604.224 51.0068 604.164 51.2393 604.046C51.4717 603.927 51.6654 603.743 51.8203 603.492C51.9798 603.237 52.0983 602.911 52.1758 602.515C52.2533 602.114 52.292 601.635 52.292 601.079Z" fill="#333333"/>
</svg>
