<svg width="838" height="304" viewBox="0 0 838 304" fill="none" xmlns="http://www.w3.org/2000/svg">
<mask id="path-1-inside-1_1076_37873" fill="white">
<path d="M0 0H838V292C838 298.627 832.627 304 826 304H12C5.37261 304 0 298.627 0 292V0Z"/>
</mask>
<path d="M0 0H838V292C838 298.627 832.627 304 826 304H12C5.37261 304 0 298.627 0 292V0Z" fill="white"/>
<path d="M0 0H838H0ZM839 292C839 299.18 833.18 305 826 305H12C4.8203 305 -1 299.18 -1 292H1C1 298.075 5.92487 303 12 303H826C832.075 303 837 298.075 837 292H839ZM12 305C4.8203 305 -1 299.18 -1 292V0H1V292C1 298.075 5.92487 303 12 303V305ZM839 0V292C839 299.18 833.18 305 826 305V303C832.075 303 837 298.075 837 292V0H839Z" fill="#B8B8B8" mask="url(#path-1-inside-1_1076_37873)"/>
<rect x="48" y="48" width="48" height="48" rx="8" fill="#565656"/>
<path d="M67.5707 80.192C66.2587 80.192 65.0827 79.856 64.0427 79.184C63.0187 78.512 62.2027 77.536 61.5947 76.256C61.0027 74.976 60.7067 73.424 60.7067 71.6C60.7067 69.776 61.0027 68.224 61.5947 66.944C62.2027 65.664 63.0187 64.688 64.0427 64.016C65.0827 63.344 66.2587 63.008 67.5707 63.008C68.8667 63.008 70.0347 63.344 71.0747 64.016C72.1147 64.688 72.9307 65.664 73.5227 66.944C74.1147 68.224 74.4107 69.776 74.4107 71.6C74.4107 73.424 74.1147 74.976 73.5227 76.256C72.9307 77.536 72.1147 78.512 71.0747 79.184C70.0347 79.856 68.8667 80.192 67.5707 80.192ZM67.5707 78.056C68.4507 78.056 69.2187 77.816 69.8747 77.336C70.5467 76.856 71.0667 76.136 71.4347 75.176C71.8187 74.216 72.0107 73.024 72.0107 71.6C72.0107 70.176 71.8187 68.984 71.4347 68.024C71.0667 67.064 70.5467 66.344 69.8747 65.864C69.2187 65.384 68.4507 65.144 67.5707 65.144C66.6907 65.144 65.9147 65.384 65.2427 65.864C64.5707 66.344 64.0427 67.064 63.6587 68.024C63.2907 68.984 63.1067 70.176 63.1067 71.6C63.1067 73.024 63.2907 74.216 63.6587 75.176C64.0427 76.136 64.5707 76.856 65.2427 77.336C65.9147 77.816 66.6907 78.056 67.5707 78.056ZM79.5465 80V64.16L80.5785 65.288H75.7545V63.2H81.9225V80H79.5465Z" fill="white"/>
<rect x="123.832" y="48.5" width="47" height="47" rx="7.5" fill="white"/>
<rect x="123.832" y="48.5" width="47" height="47" rx="7.5" stroke="#6B6B6B"/>
<path d="M140.454 80.192C139.142 80.192 137.966 79.856 136.926 79.184C135.902 78.512 135.086 77.536 134.478 76.256C133.886 74.976 133.59 73.424 133.59 71.6C133.59 69.776 133.886 68.224 134.478 66.944C135.086 65.664 135.902 64.688 136.926 64.016C137.966 63.344 139.142 63.008 140.454 63.008C141.75 63.008 142.918 63.344 143.958 64.016C144.998 64.688 145.814 65.664 146.406 66.944C146.998 68.224 147.294 69.776 147.294 71.6C147.294 73.424 146.998 74.976 146.406 76.256C145.814 77.536 144.998 78.512 143.958 79.184C142.918 79.856 141.75 80.192 140.454 80.192ZM140.454 78.056C141.334 78.056 142.102 77.816 142.758 77.336C143.43 76.856 143.95 76.136 144.318 75.176C144.702 74.216 144.894 73.024 144.894 71.6C144.894 70.176 144.702 68.984 144.318 68.024C143.95 67.064 143.43 66.344 142.758 65.864C142.102 65.384 141.334 65.144 140.454 65.144C139.574 65.144 138.798 65.384 138.126 65.864C137.454 66.344 136.926 67.064 136.542 68.024C136.174 68.984 135.99 70.176 135.99 71.6C135.99 73.024 136.174 74.216 136.542 75.176C136.926 76.136 137.454 76.856 138.126 77.336C138.798 77.816 139.574 78.056 140.454 78.056ZM149.333 80V78.368L156.173 71.768C156.781 71.192 157.229 70.688 157.517 70.256C157.821 69.808 158.021 69.4 158.117 69.032C158.229 68.648 158.285 68.28 158.285 67.928C158.285 67.064 157.981 66.384 157.373 65.888C156.765 65.392 155.877 65.144 154.709 65.144C153.813 65.144 153.005 65.296 152.285 65.6C151.565 65.888 150.941 66.344 150.413 66.968L148.781 65.552C149.421 64.736 150.277 64.112 151.349 63.68C152.437 63.232 153.629 63.008 154.925 63.008C156.093 63.008 157.109 63.2 157.973 63.584C158.837 63.952 159.501 64.488 159.965 65.192C160.445 65.896 160.685 66.728 160.685 67.688C160.685 68.232 160.613 68.768 160.469 69.296C160.325 69.824 160.053 70.384 159.653 70.976C159.253 71.568 158.677 72.232 157.925 72.968L151.829 78.848L151.253 77.912H161.405V80H149.333Z" fill="#6B6B6B"/>
<rect x="198.668" y="48" width="48" height="48" rx="8" fill="#565656"/>
<path d="M215.93 80.192C214.618 80.192 213.442 79.856 212.402 79.184C211.378 78.512 210.562 77.536 209.954 76.256C209.362 74.976 209.066 73.424 209.066 71.6C209.066 69.776 209.362 68.224 209.954 66.944C210.562 65.664 211.378 64.688 212.402 64.016C213.442 63.344 214.618 63.008 215.93 63.008C217.226 63.008 218.394 63.344 219.434 64.016C220.474 64.688 221.29 65.664 221.882 66.944C222.474 68.224 222.77 69.776 222.77 71.6C222.77 73.424 222.474 74.976 221.882 76.256C221.29 77.536 220.474 78.512 219.434 79.184C218.394 79.856 217.226 80.192 215.93 80.192ZM215.93 78.056C216.81 78.056 217.578 77.816 218.234 77.336C218.906 76.856 219.426 76.136 219.794 75.176C220.178 74.216 220.37 73.024 220.37 71.6C220.37 70.176 220.178 68.984 219.794 68.024C219.426 67.064 218.906 66.344 218.234 65.864C217.578 65.384 216.81 65.144 215.93 65.144C215.05 65.144 214.274 65.384 213.602 65.864C212.93 66.344 212.402 67.064 212.018 68.024C211.65 68.984 211.466 70.176 211.466 71.6C211.466 73.024 211.65 74.216 212.018 75.176C212.402 76.136 212.93 76.856 213.602 77.336C214.274 77.816 215.05 78.056 215.93 78.056ZM229.976 80.192C228.792 80.192 227.64 80.008 226.52 79.64C225.416 79.272 224.512 78.776 223.808 78.152L224.912 76.256C225.472 76.784 226.2 77.216 227.096 77.552C227.992 77.888 228.952 78.056 229.976 78.056C231.224 78.056 232.192 77.792 232.88 77.264C233.584 76.72 233.936 75.992 233.936 75.08C233.936 74.2 233.6 73.496 232.928 72.968C232.272 72.424 231.224 72.152 229.784 72.152H228.44V70.472L233.432 64.328L233.768 65.288H224.576V63.2H235.664V64.832L230.696 70.952L229.448 70.208H230.24C232.272 70.208 233.792 70.664 234.8 71.576C235.824 72.488 236.336 73.648 236.336 75.056C236.336 76 236.104 76.864 235.64 77.648C235.176 78.432 234.472 79.056 233.528 79.52C232.6 79.968 231.416 80.192 229.976 80.192Z" fill="white"/>
<rect x="274.5" y="48.5" width="47" height="47" rx="7.5" fill="white"/>
<rect x="274.5" y="48.5" width="47" height="47" rx="7.5" stroke="#6B6B6B"/>
<path d="M289.539 80V64.16L290.571 65.288H285.747V63.2H291.915V80H289.539ZM302.454 80.192C301.142 80.192 299.966 79.856 298.926 79.184C297.902 78.512 297.086 77.536 296.478 76.256C295.886 74.976 295.59 73.424 295.59 71.6C295.59 69.776 295.886 68.224 296.478 66.944C297.086 65.664 297.902 64.688 298.926 64.016C299.966 63.344 301.142 63.008 302.454 63.008C303.75 63.008 304.918 63.344 305.958 64.016C306.998 64.688 307.814 65.664 308.406 66.944C308.998 68.224 309.294 69.776 309.294 71.6C309.294 73.424 308.998 74.976 308.406 76.256C307.814 77.536 306.998 78.512 305.958 79.184C304.918 79.856 303.75 80.192 302.454 80.192ZM302.454 78.056C303.334 78.056 304.102 77.816 304.758 77.336C305.43 76.856 305.95 76.136 306.318 75.176C306.702 74.216 306.894 73.024 306.894 71.6C306.894 70.176 306.702 68.984 306.318 68.024C305.95 67.064 305.43 66.344 304.758 65.864C304.102 65.384 303.334 65.144 302.454 65.144C301.574 65.144 300.798 65.384 300.126 65.864C299.454 66.344 298.926 67.064 298.542 68.024C298.174 68.984 297.99 70.176 297.99 71.6C297.99 73.024 298.174 74.216 298.542 75.176C298.926 76.136 299.454 76.856 300.126 77.336C300.798 77.816 301.574 78.056 302.454 78.056Z" fill="#6B6B6B"/>
<rect x="349.999" y="40.6667" width="62.6667" height="62.6667" rx="11.3333" fill="#333333"/>
<rect x="349.999" y="40.6667" width="62.6667" height="62.6667" rx="11.3333" stroke="#6B6B6B" stroke-width="1.33333"/>
<path d="M372.161 83.256C370.411 83.256 368.843 82.808 367.457 81.912C366.091 81.016 365.003 79.7147 364.193 78.008C363.403 76.3013 363.009 74.232 363.009 71.8C363.009 69.368 363.403 67.2987 364.193 65.592C365.003 63.8853 366.091 62.584 367.457 61.688C368.843 60.792 370.411 60.344 372.161 60.344C373.889 60.344 375.446 60.792 376.833 61.688C378.219 62.584 379.307 63.8853 380.097 65.592C380.886 67.2987 381.281 69.368 381.281 71.8C381.281 74.232 380.886 76.3013 380.097 78.008C379.307 79.7147 378.219 81.016 376.833 81.912C375.446 82.808 373.889 83.256 372.161 83.256ZM372.161 80.408C373.334 80.408 374.358 80.088 375.233 79.448C376.129 78.808 376.822 77.848 377.313 76.568C377.825 75.288 378.081 73.6987 378.081 71.8C378.081 69.9013 377.825 68.312 377.313 67.032C376.822 65.752 376.129 64.792 375.233 64.152C374.358 63.512 373.334 63.192 372.161 63.192C370.987 63.192 369.953 63.512 369.057 64.152C368.161 64.792 367.457 65.752 366.945 67.032C366.454 68.312 366.209 69.9013 366.209 71.8C366.209 73.6987 366.454 75.288 366.945 76.568C367.457 77.848 368.161 78.808 369.057 79.448C369.953 80.088 370.987 80.408 372.161 80.408ZM391.584 83.256C390.006 83.256 388.47 83.0107 386.976 82.52C385.504 82.0293 384.299 81.368 383.36 80.536L384.832 78.008C385.579 78.712 386.55 79.288 387.744 79.736C388.939 80.184 390.208 80.408 391.552 80.408C393.259 80.408 394.571 80.0453 395.488 79.32C396.406 78.5947 396.864 77.624 396.864 76.408C396.864 75.576 396.662 74.8507 396.256 74.232C395.851 73.6133 395.147 73.144 394.144 72.824C393.163 72.4827 391.808 72.312 390.08 72.312H384.992L386.176 60.6H398.816V63.384H387.36L389.024 61.816L388.096 71.064L386.432 69.528H390.752C392.992 69.528 394.795 69.816 396.16 70.392C397.526 70.968 398.518 71.768 399.136 72.792C399.755 73.7947 400.064 74.9573 400.064 76.28C400.064 77.56 399.755 78.7333 399.136 79.8C398.518 80.8453 397.579 81.688 396.32 82.328C395.083 82.9467 393.504 83.256 391.584 83.256Z" fill="white"/>
<rect x="440.668" y="48" width="48" height="48" rx="8" fill="#565656"/>
<path d="M457.274 80.192C455.962 80.192 454.786 79.856 453.746 79.184C452.722 78.512 451.906 77.536 451.298 76.256C450.706 74.976 450.41 73.424 450.41 71.6C450.41 69.776 450.706 68.224 451.298 66.944C451.906 65.664 452.722 64.688 453.746 64.016C454.786 63.344 455.962 63.008 457.274 63.008C458.57 63.008 459.738 63.344 460.778 64.016C461.818 64.688 462.634 65.664 463.226 66.944C463.818 68.224 464.114 69.776 464.114 71.6C464.114 73.424 463.818 74.976 463.226 76.256C462.634 77.536 461.818 78.512 460.778 79.184C459.738 79.856 458.57 80.192 457.274 80.192ZM457.274 78.056C458.154 78.056 458.922 77.816 459.578 77.336C460.25 76.856 460.77 76.136 461.138 75.176C461.522 74.216 461.714 73.024 461.714 71.6C461.714 70.176 461.522 68.984 461.138 68.024C460.77 67.064 460.25 66.344 459.578 65.864C458.922 65.384 458.154 65.144 457.274 65.144C456.394 65.144 455.618 65.384 454.946 65.864C454.274 66.344 453.746 67.064 453.362 68.024C452.994 68.984 452.81 70.176 452.81 71.6C452.81 73.024 452.994 74.216 453.362 75.176C453.746 76.136 454.274 76.856 454.946 77.336C455.618 77.816 456.394 78.056 457.274 78.056ZM473.474 80.192C471.986 80.192 470.714 79.864 469.658 79.208C468.602 78.552 467.794 77.608 467.234 76.376C466.69 75.128 466.418 73.608 466.418 71.816C466.418 69.912 466.754 68.304 467.426 66.992C468.098 65.68 469.034 64.688 470.234 64.016C471.434 63.344 472.81 63.008 474.362 63.008C475.162 63.008 475.922 63.088 476.642 63.248C477.378 63.408 478.01 63.656 478.538 63.992L477.626 65.864C477.194 65.56 476.698 65.352 476.138 65.24C475.594 65.128 475.018 65.072 474.41 65.072C472.698 65.072 471.338 65.608 470.33 66.68C469.322 67.736 468.818 69.312 468.818 71.408C468.818 71.744 468.834 72.144 468.866 72.608C468.898 73.072 468.978 73.528 469.106 73.976L468.29 73.16C468.53 72.424 468.906 71.808 469.418 71.312C469.946 70.8 470.57 70.424 471.29 70.184C472.026 69.928 472.818 69.8 473.666 69.8C474.786 69.8 475.778 70.008 476.642 70.424C477.506 70.84 478.186 71.432 478.682 72.2C479.178 72.952 479.426 73.848 479.426 74.888C479.426 75.96 479.162 76.896 478.634 77.696C478.106 78.496 477.394 79.112 476.498 79.544C475.602 79.976 474.594 80.192 473.474 80.192ZM473.378 78.248C474.114 78.248 474.754 78.112 475.298 77.84C475.858 77.568 476.298 77.192 476.618 76.712C476.938 76.216 477.098 75.64 477.098 74.984C477.098 73.992 476.754 73.208 476.066 72.632C475.378 72.04 474.442 71.744 473.258 71.744C472.49 71.744 471.818 71.888 471.242 72.176C470.666 72.464 470.21 72.856 469.874 73.352C469.554 73.832 469.394 74.384 469.394 75.008C469.394 75.584 469.546 76.12 469.85 76.616C470.154 77.096 470.602 77.488 471.194 77.792C471.786 78.096 472.514 78.248 473.378 78.248Z" fill="white"/>
<rect x="516.5" y="48.5" width="47" height="47" rx="7.5" fill="white"/>
<rect x="516.5" y="48.5" width="47" height="47" rx="7.5" stroke="#6B6B6B"/>
<path d="M531.539 80V64.16L532.571 65.288H527.747V63.2H533.915V80H531.539ZM544.454 80.192C543.142 80.192 541.966 79.856 540.926 79.184C539.902 78.512 539.086 77.536 538.478 76.256C537.886 74.976 537.59 73.424 537.59 71.6C537.59 69.776 537.886 68.224 538.478 66.944C539.086 65.664 539.902 64.688 540.926 64.016C541.966 63.344 543.142 63.008 544.454 63.008C545.75 63.008 546.918 63.344 547.958 64.016C548.998 64.688 549.814 65.664 550.406 66.944C550.998 68.224 551.294 69.776 551.294 71.6C551.294 73.424 550.998 74.976 550.406 76.256C549.814 77.536 548.998 78.512 547.958 79.184C546.918 79.856 545.75 80.192 544.454 80.192ZM544.454 78.056C545.334 78.056 546.102 77.816 546.758 77.336C547.43 76.856 547.95 76.136 548.318 75.176C548.702 74.216 548.894 73.024 548.894 71.6C548.894 70.176 548.702 68.984 548.318 68.024C547.95 67.064 547.43 66.344 546.758 65.864C546.102 65.384 545.334 65.144 544.454 65.144C543.574 65.144 542.798 65.384 542.126 65.864C541.454 66.344 540.926 67.064 540.542 68.024C540.174 68.984 539.99 70.176 539.99 71.6C539.99 73.024 540.174 74.216 540.542 75.176C540.926 76.136 541.454 76.856 542.126 77.336C542.798 77.816 543.574 78.056 544.454 78.056Z" fill="#6B6B6B"/>
<rect x="591.332" y="48" width="48" height="48" rx="8" fill="#565656"/>
<path d="M607.621 80.192C606.309 80.192 605.133 79.856 604.093 79.184C603.069 78.512 602.253 77.536 601.645 76.256C601.053 74.976 600.757 73.424 600.757 71.6C600.757 69.776 601.053 68.224 601.645 66.944C602.253 65.664 603.069 64.688 604.093 64.016C605.133 63.344 606.309 63.008 607.621 63.008C608.917 63.008 610.085 63.344 611.125 64.016C612.165 64.688 612.981 65.664 613.573 66.944C614.165 68.224 614.461 69.776 614.461 71.6C614.461 73.424 614.165 74.976 613.573 76.256C612.981 77.536 612.165 78.512 611.125 79.184C610.085 79.856 608.917 80.192 607.621 80.192ZM607.621 78.056C608.501 78.056 609.269 77.816 609.925 77.336C610.597 76.856 611.117 76.136 611.485 75.176C611.869 74.216 612.061 73.024 612.061 71.6C612.061 70.176 611.869 68.984 611.485 68.024C611.117 67.064 610.597 66.344 609.925 65.864C609.269 65.384 608.501 65.144 607.621 65.144C606.741 65.144 605.965 65.384 605.293 65.864C604.621 66.344 604.093 67.064 603.709 68.024C603.341 68.984 603.157 70.176 603.157 71.6C603.157 73.024 603.341 74.216 603.709 75.176C604.093 76.136 604.621 76.856 605.293 77.336C605.965 77.816 606.741 78.056 607.621 78.056ZM623.317 80.192C621.957 80.192 620.781 79.992 619.789 79.592C618.797 79.192 618.029 78.624 617.485 77.888C616.941 77.136 616.669 76.256 616.669 75.248C616.669 74.256 616.925 73.416 617.437 72.728C617.965 72.024 618.725 71.496 619.717 71.144C620.709 70.776 621.909 70.592 623.317 70.592C624.725 70.592 625.925 70.776 626.917 71.144C627.925 71.496 628.693 72.024 629.221 72.728C629.749 73.432 630.013 74.272 630.013 75.248C630.013 76.256 629.741 77.136 629.197 77.888C628.653 78.624 627.877 79.192 626.869 79.592C625.861 79.992 624.677 80.192 623.317 80.192ZM623.317 78.248C624.661 78.248 625.709 77.976 626.461 77.432C627.229 76.872 627.613 76.12 627.613 75.176C627.613 74.248 627.229 73.52 626.461 72.992C625.709 72.448 624.661 72.176 623.317 72.176C621.989 72.176 620.949 72.448 620.197 72.992C619.445 73.52 619.069 74.248 619.069 75.176C619.069 76.12 619.445 76.872 620.197 77.432C620.949 77.976 621.989 78.248 623.317 78.248ZM623.317 71.888C622.037 71.888 620.949 71.72 620.053 71.384C619.157 71.032 618.469 70.536 617.989 69.896C617.509 69.24 617.269 68.464 617.269 67.568C617.269 66.624 617.517 65.816 618.013 65.144C618.525 64.456 619.237 63.928 620.149 63.56C621.061 63.192 622.117 63.008 623.317 63.008C624.533 63.008 625.597 63.192 626.509 63.56C627.421 63.928 628.133 64.456 628.645 65.144C629.157 65.816 629.413 66.624 629.413 67.568C629.413 68.464 629.173 69.24 628.693 69.896C628.213 70.536 627.517 71.032 626.605 71.384C625.693 71.72 624.597 71.888 623.317 71.888ZM623.317 70.352C624.485 70.352 625.397 70.112 626.053 69.632C626.725 69.152 627.061 68.496 627.061 67.664C627.061 66.816 626.717 66.152 626.029 65.672C625.341 65.192 624.437 64.952 623.317 64.952C622.197 64.952 621.301 65.192 620.629 65.672C619.973 66.152 619.645 66.816 619.645 67.664C619.645 68.496 619.965 69.152 620.605 69.632C621.261 70.112 622.165 70.352 623.317 70.352Z" fill="white"/>
<rect x="666.668" y="48" width="48" height="48" rx="8" fill="#565656"/>
<path d="M683.274 80.192C681.962 80.192 680.786 79.856 679.746 79.184C678.722 78.512 677.906 77.536 677.298 76.256C676.706 74.976 676.41 73.424 676.41 71.6C676.41 69.776 676.706 68.224 677.298 66.944C677.906 65.664 678.722 64.688 679.746 64.016C680.786 63.344 681.962 63.008 683.274 63.008C684.57 63.008 685.738 63.344 686.778 64.016C687.818 64.688 688.634 65.664 689.226 66.944C689.818 68.224 690.114 69.776 690.114 71.6C690.114 73.424 689.818 74.976 689.226 76.256C688.634 77.536 687.818 78.512 686.778 79.184C685.738 79.856 684.57 80.192 683.274 80.192ZM683.274 78.056C684.154 78.056 684.922 77.816 685.578 77.336C686.25 76.856 686.77 76.136 687.138 75.176C687.522 74.216 687.714 73.024 687.714 71.6C687.714 70.176 687.522 68.984 687.138 68.024C686.77 67.064 686.25 66.344 685.578 65.864C684.922 65.384 684.154 65.144 683.274 65.144C682.394 65.144 681.618 65.384 680.946 65.864C680.274 66.344 679.746 67.064 679.362 68.024C678.994 68.984 678.81 70.176 678.81 71.6C678.81 73.024 678.994 74.216 679.362 75.176C679.746 76.136 680.274 76.856 680.946 77.336C681.618 77.816 682.394 78.056 683.274 78.056ZM697.866 63.008C699.386 63.008 700.666 63.336 701.706 63.992C702.762 64.648 703.562 65.6 704.106 66.848C704.65 68.08 704.922 69.592 704.922 71.384C704.922 73.288 704.586 74.896 703.914 76.208C703.242 77.52 702.314 78.512 701.13 79.184C699.946 79.856 698.562 80.192 696.978 80.192C696.194 80.192 695.434 80.112 694.698 79.952C693.978 79.792 693.346 79.544 692.802 79.208L693.714 77.336C694.162 77.624 694.658 77.832 695.202 77.96C695.762 78.072 696.346 78.128 696.954 78.128C698.65 78.128 700.002 77.6 701.01 76.544C702.018 75.472 702.522 73.888 702.522 71.792C702.522 71.456 702.506 71.056 702.474 70.592C702.442 70.128 702.37 69.672 702.258 69.224L703.05 70.04C702.826 70.776 702.45 71.4 701.922 71.912C701.41 72.408 700.786 72.784 700.05 73.04C699.33 73.28 698.538 73.4 697.674 73.4C696.57 73.4 695.586 73.192 694.722 72.776C693.858 72.36 693.178 71.776 692.682 71.024C692.186 70.256 691.938 69.352 691.938 68.312C691.938 67.224 692.194 66.288 692.706 65.504C693.234 64.704 693.946 64.088 694.842 63.656C695.754 63.224 696.762 63.008 697.866 63.008ZM697.962 64.952C697.242 64.952 696.602 65.088 696.042 65.36C695.482 65.632 695.042 66.008 694.722 66.488C694.418 66.968 694.266 67.544 694.266 68.216C694.266 69.208 694.61 70 695.298 70.592C695.986 71.168 696.914 71.456 698.082 71.456C698.85 71.456 699.522 71.312 700.098 71.024C700.69 70.736 701.146 70.344 701.466 69.848C701.802 69.352 701.97 68.8 701.97 68.192C701.97 67.6 701.818 67.064 701.514 66.584C701.21 66.104 700.762 65.712 700.17 65.408C699.578 65.104 698.842 64.952 697.962 64.952Z" fill="white"/>
<rect x="742.5" y="48.5" width="47" height="47" rx="7.5" fill="white"/>
<rect x="742.5" y="48.5" width="47" height="47" rx="7.5" stroke="#6B6B6B"/>
<path d="M757.539 80V64.16L758.571 65.288H753.747V63.2H759.915V80H757.539ZM770.454 80.192C769.142 80.192 767.966 79.856 766.926 79.184C765.902 78.512 765.086 77.536 764.478 76.256C763.886 74.976 763.59 73.424 763.59 71.6C763.59 69.776 763.886 68.224 764.478 66.944C765.086 65.664 765.902 64.688 766.926 64.016C767.966 63.344 769.142 63.008 770.454 63.008C771.75 63.008 772.918 63.344 773.958 64.016C774.998 64.688 775.814 65.664 776.406 66.944C776.998 68.224 777.294 69.776 777.294 71.6C777.294 73.424 776.998 74.976 776.406 76.256C775.814 77.536 774.998 78.512 773.958 79.184C772.918 79.856 771.75 80.192 770.454 80.192ZM770.454 78.056C771.334 78.056 772.102 77.816 772.758 77.336C773.43 76.856 773.95 76.136 774.318 75.176C774.702 74.216 774.894 73.024 774.894 71.6C774.894 70.176 774.702 68.984 774.318 68.024C773.95 67.064 773.43 66.344 772.758 65.864C772.102 65.384 771.334 65.144 770.454 65.144C769.574 65.144 768.798 65.384 768.126 65.864C767.454 66.344 766.926 67.064 766.542 68.024C766.174 68.984 765.99 70.176 765.99 71.6C765.99 73.024 766.174 74.216 766.542 75.176C766.926 76.136 767.454 76.856 768.126 77.336C768.798 77.816 769.574 78.056 770.454 78.056Z" fill="#6B6B6B"/>
<rect x="48.5" y="136.5" width="47" height="47" rx="7.5" fill="white"/>
<rect x="48.5" y="136.5" width="47" height="47" rx="7.5" stroke="#6B6B6B"/>
<path d="M67.1012 168V152.16L68.1332 153.288H63.3092V151.2H69.4772V168H67.1012ZM75.984 168V152.16L77.016 153.288H72.192V151.2H78.36V168H75.984Z" fill="#6B6B6B"/>
<rect x="125.609" y="136.5" width="47" height="47" rx="7.5" fill="white"/>
<rect x="125.609" y="136.5" width="47" height="47" rx="7.5" stroke="#6B6B6B"/>
<path d="M140.648 168V152.16L141.68 153.288H136.856V151.2H143.024V168H140.648ZM153.563 168.192C152.251 168.192 151.075 167.856 150.035 167.184C149.011 166.512 148.195 165.536 147.587 164.256C146.995 162.976 146.699 161.424 146.699 159.6C146.699 157.776 146.995 156.224 147.587 154.944C148.195 153.664 149.011 152.688 150.035 152.016C151.075 151.344 152.251 151.008 153.563 151.008C154.859 151.008 156.027 151.344 157.067 152.016C158.107 152.688 158.923 153.664 159.515 154.944C160.107 156.224 160.403 157.776 160.403 159.6C160.403 161.424 160.107 162.976 159.515 164.256C158.923 165.536 158.107 166.512 157.067 167.184C156.027 167.856 154.859 168.192 153.563 168.192ZM153.563 166.056C154.443 166.056 155.211 165.816 155.867 165.336C156.539 164.856 157.059 164.136 157.427 163.176C157.811 162.216 158.003 161.024 158.003 159.6C158.003 158.176 157.811 156.984 157.427 156.024C157.059 155.064 156.539 154.344 155.867 153.864C155.211 153.384 154.443 153.144 153.563 153.144C152.683 153.144 151.907 153.384 151.235 153.864C150.563 154.344 150.035 155.064 149.651 156.024C149.283 156.984 149.099 158.176 149.099 159.6C149.099 161.024 149.283 162.216 149.651 163.176C150.035 164.136 150.563 164.856 151.235 165.336C151.907 165.816 152.683 166.056 153.563 166.056Z" fill="#6B6B6B"/>
<rect x="202.223" y="136" width="48" height="48" rx="8" fill="#565656"/>
<path d="M218.898 168V152.16L219.93 153.288H215.106V151.2H221.274V168H218.898ZM230.085 168.192C228.901 168.192 227.749 168.008 226.629 167.64C225.525 167.272 224.621 166.776 223.917 166.152L225.021 164.256C225.581 164.784 226.309 165.216 227.205 165.552C228.101 165.888 229.061 166.056 230.085 166.056C231.333 166.056 232.301 165.792 232.989 165.264C233.693 164.72 234.045 163.992 234.045 163.08C234.045 162.2 233.709 161.496 233.037 160.968C232.381 160.424 231.333 160.152 229.893 160.152H228.549V158.472L233.541 152.328L233.877 153.288H224.685V151.2H235.773V152.832L230.805 158.952L229.557 158.208H230.349C232.381 158.208 233.901 158.664 234.909 159.576C235.933 160.488 236.445 161.648 236.445 163.056C236.445 164 236.213 164.864 235.749 165.648C235.285 166.432 234.581 167.056 233.637 167.52C232.709 167.968 231.525 168.192 230.085 168.192Z" fill="white"/>
<rect x="279.332" y="136" width="48" height="48" rx="8" fill="#565656"/>
<path d="M294.847 168V152.16L295.879 153.288H291.055V151.2H297.223V168H294.847ZM300.658 163.872V162.192L309.25 151.2H311.842L303.322 162.192L302.098 161.808H315.514V163.872H300.658ZM309.994 168V163.872L310.066 161.808V158.16H312.322V168H309.994Z" fill="white"/>
<rect x="356.945" y="136.5" width="47" height="47" rx="7.5" fill="white"/>
<rect x="356.945" y="136.5" width="47" height="47" rx="7.5" stroke="#6B6B6B"/>
<path d="M373.097 168V152.16L374.129 153.288H369.305V151.2H375.473V168H373.097ZM384.572 168.192C383.388 168.192 382.236 168.008 381.116 167.64C380.012 167.272 379.108 166.776 378.404 166.152L379.508 164.256C380.068 164.784 380.796 165.216 381.692 165.552C382.588 165.888 383.54 166.056 384.548 166.056C385.828 166.056 386.812 165.784 387.5 165.24C388.188 164.696 388.532 163.968 388.532 163.056C388.532 162.432 388.38 161.888 388.076 161.424C387.772 160.96 387.244 160.608 386.492 160.368C385.756 160.112 384.74 159.984 383.444 159.984H379.628L380.516 151.2H389.996V153.288H381.404L382.652 152.112L381.956 159.048L380.708 157.896H383.948C385.628 157.896 386.98 158.112 388.004 158.544C389.028 158.976 389.772 159.576 390.236 160.344C390.7 161.096 390.932 161.968 390.932 162.96C390.932 163.92 390.7 164.8 390.236 165.6C389.772 166.384 389.068 167.016 388.124 167.496C387.196 167.96 386.012 168.192 384.572 168.192Z" fill="#6B6B6B"/>
<rect x="433.555" y="136" width="48" height="48" rx="8" fill="#565656"/>
<path d="M449.691 168V152.16L450.723 153.288H445.899V151.2H452.067V168H449.691ZM462.798 168.192C461.31 168.192 460.038 167.864 458.982 167.208C457.926 166.552 457.118 165.608 456.558 164.376C456.014 163.128 455.742 161.608 455.742 159.816C455.742 157.912 456.078 156.304 456.75 154.992C457.422 153.68 458.358 152.688 459.558 152.016C460.758 151.344 462.134 151.008 463.686 151.008C464.486 151.008 465.246 151.088 465.966 151.248C466.702 151.408 467.334 151.656 467.862 151.992L466.95 153.864C466.518 153.56 466.022 153.352 465.462 153.24C464.918 153.128 464.342 153.072 463.734 153.072C462.022 153.072 460.662 153.608 459.654 154.68C458.646 155.736 458.142 157.312 458.142 159.408C458.142 159.744 458.158 160.144 458.19 160.608C458.222 161.072 458.302 161.528 458.43 161.976L457.614 161.16C457.854 160.424 458.23 159.808 458.742 159.312C459.27 158.8 459.894 158.424 460.614 158.184C461.35 157.928 462.142 157.8 462.99 157.8C464.11 157.8 465.102 158.008 465.966 158.424C466.83 158.84 467.51 159.432 468.006 160.2C468.502 160.952 468.75 161.848 468.75 162.888C468.75 163.96 468.486 164.896 467.958 165.696C467.43 166.496 466.718 167.112 465.822 167.544C464.926 167.976 463.918 168.192 462.798 168.192ZM462.702 166.248C463.438 166.248 464.078 166.112 464.622 165.84C465.182 165.568 465.622 165.192 465.942 164.712C466.262 164.216 466.422 163.64 466.422 162.984C466.422 161.992 466.078 161.208 465.39 160.632C464.702 160.04 463.766 159.744 462.582 159.744C461.814 159.744 461.142 159.888 460.566 160.176C459.99 160.464 459.534 160.856 459.198 161.352C458.878 161.832 458.718 162.384 458.718 163.008C458.718 163.584 458.87 164.12 459.174 164.616C459.478 165.096 459.926 165.488 460.518 165.792C461.11 166.096 461.838 166.248 462.702 166.248Z" fill="white"/>
<rect x="510.668" y="136" width="48" height="48" rx="8" fill="#565656"/>
<path d="M527.039 168V152.16L528.071 153.288H523.247V151.2H529.415V168H527.039ZM535.994 168L543.122 152.208L543.746 153.288H533.762L534.962 152.112V156.288H532.658V151.2H545.33V152.832L538.538 168H535.994Z" fill="white"/>
<rect x="588.277" y="136.5" width="47" height="47" rx="7.5" fill="white"/>
<rect x="588.277" y="136.5" width="47" height="47" rx="7.5" stroke="#6B6B6B"/>
<path d="M603.597 168V152.16L604.629 153.288H599.805V151.2H605.973V168H603.597ZM616.2 168.192C614.84 168.192 613.664 167.992 612.672 167.592C611.68 167.192 610.912 166.624 610.368 165.888C609.824 165.136 609.552 164.256 609.552 163.248C609.552 162.256 609.808 161.416 610.32 160.728C610.848 160.024 611.608 159.496 612.6 159.144C613.592 158.776 614.792 158.592 616.2 158.592C617.608 158.592 618.808 158.776 619.8 159.144C620.808 159.496 621.576 160.024 622.104 160.728C622.632 161.432 622.896 162.272 622.896 163.248C622.896 164.256 622.624 165.136 622.08 165.888C621.536 166.624 620.76 167.192 619.752 167.592C618.744 167.992 617.56 168.192 616.2 168.192ZM616.2 166.248C617.544 166.248 618.592 165.976 619.344 165.432C620.112 164.872 620.496 164.12 620.496 163.176C620.496 162.248 620.112 161.52 619.344 160.992C618.592 160.448 617.544 160.176 616.2 160.176C614.872 160.176 613.832 160.448 613.08 160.992C612.328 161.52 611.952 162.248 611.952 163.176C611.952 164.12 612.328 164.872 613.08 165.432C613.832 165.976 614.872 166.248 616.2 166.248ZM616.2 159.888C614.92 159.888 613.832 159.72 612.936 159.384C612.04 159.032 611.352 158.536 610.872 157.896C610.392 157.24 610.152 156.464 610.152 155.568C610.152 154.624 610.4 153.816 610.896 153.144C611.408 152.456 612.12 151.928 613.032 151.56C613.944 151.192 615 151.008 616.2 151.008C617.416 151.008 618.48 151.192 619.392 151.56C620.304 151.928 621.016 152.456 621.528 153.144C622.04 153.816 622.296 154.624 622.296 155.568C622.296 156.464 622.056 157.24 621.576 157.896C621.096 158.536 620.4 159.032 619.488 159.384C618.576 159.72 617.48 159.888 616.2 159.888ZM616.2 158.352C617.368 158.352 618.28 158.112 618.936 157.632C619.608 157.152 619.944 156.496 619.944 155.664C619.944 154.816 619.6 154.152 618.912 153.672C618.224 153.192 617.32 152.952 616.2 152.952C615.08 152.952 614.184 153.192 613.512 153.672C612.856 154.152 612.528 154.816 612.528 155.664C612.528 156.496 612.848 157.152 613.488 157.632C614.144 158.112 615.048 158.352 616.2 158.352Z" fill="#6B6B6B"/>
<rect x="664.891" y="136" width="48" height="48" rx="8" fill="#565656"/>
<path d="M681.027 168V152.16L682.059 153.288H677.235V151.2H683.403V168H681.027ZM692.526 151.008C694.046 151.008 695.326 151.336 696.366 151.992C697.422 152.648 698.222 153.6 698.766 154.848C699.31 156.08 699.582 157.592 699.582 159.384C699.582 161.288 699.246 162.896 698.574 164.208C697.902 165.52 696.974 166.512 695.79 167.184C694.606 167.856 693.222 168.192 691.638 168.192C690.854 168.192 690.094 168.112 689.358 167.952C688.638 167.792 688.006 167.544 687.462 167.208L688.374 165.336C688.822 165.624 689.318 165.832 689.862 165.96C690.422 166.072 691.006 166.128 691.614 166.128C693.31 166.128 694.662 165.6 695.67 164.544C696.678 163.472 697.182 161.888 697.182 159.792C697.182 159.456 697.166 159.056 697.134 158.592C697.102 158.128 697.03 157.672 696.918 157.224L697.71 158.04C697.486 158.776 697.11 159.4 696.582 159.912C696.07 160.408 695.446 160.784 694.71 161.04C693.99 161.28 693.198 161.4 692.334 161.4C691.23 161.4 690.246 161.192 689.382 160.776C688.518 160.36 687.838 159.776 687.342 159.024C686.846 158.256 686.598 157.352 686.598 156.312C686.598 155.224 686.854 154.288 687.366 153.504C687.894 152.704 688.606 152.088 689.502 151.656C690.414 151.224 691.422 151.008 692.526 151.008ZM692.622 152.952C691.902 152.952 691.262 153.088 690.702 153.36C690.142 153.632 689.702 154.008 689.382 154.488C689.078 154.968 688.926 155.544 688.926 156.216C688.926 157.208 689.27 158 689.958 158.592C690.646 159.168 691.574 159.456 692.742 159.456C693.51 159.456 694.182 159.312 694.758 159.024C695.35 158.736 695.806 158.344 696.126 157.848C696.462 157.352 696.63 156.8 696.63 156.192C696.63 155.6 696.478 155.064 696.174 154.584C695.87 154.104 695.422 153.712 694.83 153.408C694.238 153.104 693.502 152.952 692.622 152.952Z" fill="white"/>
<rect x="742" y="136" width="48" height="48" rx="8" fill="#565656"/>
<path d="M752.005 168V166.368L758.845 159.768C759.453 159.192 759.901 158.688 760.189 158.256C760.493 157.808 760.693 157.4 760.789 157.032C760.901 156.648 760.957 156.28 760.957 155.928C760.957 155.064 760.653 154.384 760.045 153.888C759.437 153.392 758.549 153.144 757.381 153.144C756.485 153.144 755.677 153.296 754.957 153.6C754.237 153.888 753.613 154.344 753.085 154.968L751.453 153.552C752.093 152.736 752.949 152.112 754.021 151.68C755.109 151.232 756.301 151.008 757.597 151.008C758.765 151.008 759.781 151.2 760.645 151.584C761.509 151.952 762.173 152.488 762.637 153.192C763.117 153.896 763.357 154.728 763.357 155.688C763.357 156.232 763.285 156.768 763.141 157.296C762.997 157.824 762.725 158.384 762.325 158.976C761.925 159.568 761.349 160.232 760.597 160.968L754.501 166.848L753.925 165.912H764.077V168H752.005ZM772.891 168.192C771.579 168.192 770.403 167.856 769.363 167.184C768.339 166.512 767.523 165.536 766.915 164.256C766.323 162.976 766.027 161.424 766.027 159.6C766.027 157.776 766.323 156.224 766.915 154.944C767.523 153.664 768.339 152.688 769.363 152.016C770.403 151.344 771.579 151.008 772.891 151.008C774.187 151.008 775.355 151.344 776.395 152.016C777.435 152.688 778.251 153.664 778.843 154.944C779.435 156.224 779.731 157.776 779.731 159.6C779.731 161.424 779.435 162.976 778.843 164.256C778.251 165.536 777.435 166.512 776.395 167.184C775.355 167.856 774.187 168.192 772.891 168.192ZM772.891 166.056C773.771 166.056 774.539 165.816 775.195 165.336C775.867 164.856 776.387 164.136 776.755 163.176C777.139 162.216 777.331 161.024 777.331 159.6C777.331 158.176 777.139 156.984 776.755 156.024C776.387 155.064 775.867 154.344 775.195 153.864C774.539 153.384 773.771 153.144 772.891 153.144C772.011 153.144 771.235 153.384 770.563 153.864C769.891 154.344 769.363 155.064 768.979 156.024C768.611 156.984 768.427 158.176 768.427 159.6C768.427 161.024 768.611 162.216 768.979 163.176C769.363 164.136 769.891 164.856 770.563 165.336C771.235 165.816 772.011 166.056 772.891 166.056Z" fill="white"/>
<rect x="48.5" y="216.5" width="47" height="47" rx="7.5" fill="white"/>
<rect x="48.5" y="216.5" width="47" height="47" rx="7.5" stroke="#6B6B6B"/>
<path d="M61.556 248V246.368L68.396 239.768C69.004 239.192 69.452 238.688 69.74 238.256C70.044 237.808 70.244 237.4 70.34 237.032C70.452 236.648 70.508 236.28 70.508 235.928C70.508 235.064 70.204 234.384 69.596 233.888C68.988 233.392 68.1 233.144 66.932 233.144C66.036 233.144 65.228 233.296 64.508 233.6C63.788 233.888 63.164 234.344 62.636 234.968L61.004 233.552C61.644 232.736 62.5 232.112 63.572 231.68C64.66 231.232 65.852 231.008 67.148 231.008C68.316 231.008 69.332 231.2 70.196 231.584C71.06 231.952 71.724 232.488 72.188 233.192C72.668 233.896 72.908 234.728 72.908 235.688C72.908 236.232 72.836 236.768 72.692 237.296C72.548 237.824 72.276 238.384 71.876 238.976C71.476 239.568 70.9 240.232 70.148 240.968L64.052 246.848L63.476 245.912H73.628V248H61.556ZM78.4332 248V232.16L79.4652 233.288H74.6412V231.2H80.8092V248H78.4332Z" fill="#6B6B6B"/>
<rect x="125.109" y="216" width="48" height="48" rx="8" fill="#565656"/>
<path d="M136.216 248V246.368L143.056 239.768C143.664 239.192 144.112 238.688 144.4 238.256C144.704 237.808 144.904 237.4 145 237.032C145.112 236.648 145.168 236.28 145.168 235.928C145.168 235.064 144.864 234.384 144.256 233.888C143.648 233.392 142.76 233.144 141.592 233.144C140.696 233.144 139.888 233.296 139.168 233.6C138.448 233.888 137.824 234.344 137.296 234.968L135.664 233.552C136.304 232.736 137.16 232.112 138.232 231.68C139.32 231.232 140.512 231.008 141.808 231.008C142.976 231.008 143.992 231.2 144.856 231.584C145.72 231.952 146.384 232.488 146.848 233.192C147.328 233.896 147.568 234.728 147.568 235.688C147.568 236.232 147.496 236.768 147.352 237.296C147.208 237.824 146.936 238.384 146.536 238.976C146.136 239.568 145.56 240.232 144.808 240.968L138.712 246.848L138.136 245.912H148.288V248H136.216ZM149.997 248V246.368L156.837 239.768C157.445 239.192 157.893 238.688 158.181 238.256C158.485 237.808 158.685 237.4 158.781 237.032C158.893 236.648 158.949 236.28 158.949 235.928C158.949 235.064 158.645 234.384 158.037 233.888C157.429 233.392 156.541 233.144 155.373 233.144C154.477 233.144 153.669 233.296 152.949 233.6C152.229 233.888 151.605 234.344 151.077 234.968L149.445 233.552C150.085 232.736 150.941 232.112 152.013 231.68C153.101 231.232 154.293 231.008 155.589 231.008C156.757 231.008 157.773 231.2 158.637 231.584C159.501 231.952 160.165 232.488 160.629 233.192C161.109 233.896 161.349 234.728 161.349 235.688C161.349 236.232 161.277 236.768 161.133 237.296C160.989 237.824 160.717 238.384 160.317 238.976C159.917 239.568 159.341 240.232 158.589 240.968L152.493 246.848L151.917 245.912H162.069V248H149.997Z" fill="white"/>
<rect x="202.723" y="216.5" width="47" height="47" rx="7.5" fill="white"/>
<rect x="202.723" y="216.5" width="47" height="47" rx="7.5" stroke="#6B6B6B"/>
<path d="M217.761 248V232.16L218.793 233.288H213.969V231.2H220.137V248H217.761ZM230.676 248.192C229.364 248.192 228.188 247.856 227.148 247.184C226.124 246.512 225.308 245.536 224.7 244.256C224.108 242.976 223.812 241.424 223.812 239.6C223.812 237.776 224.108 236.224 224.7 234.944C225.308 233.664 226.124 232.688 227.148 232.016C228.188 231.344 229.364 231.008 230.676 231.008C231.972 231.008 233.14 231.344 234.18 232.016C235.22 232.688 236.036 233.664 236.628 234.944C237.22 236.224 237.516 237.776 237.516 239.6C237.516 241.424 237.22 242.976 236.628 244.256C236.036 245.536 235.22 246.512 234.18 247.184C233.14 247.856 231.972 248.192 230.676 248.192ZM230.676 246.056C231.556 246.056 232.324 245.816 232.98 245.336C233.652 244.856 234.172 244.136 234.54 243.176C234.924 242.216 235.116 241.024 235.116 239.6C235.116 238.176 234.924 236.984 234.54 236.024C234.172 235.064 233.652 234.344 232.98 233.864C232.324 233.384 231.556 233.144 230.676 233.144C229.796 233.144 229.02 233.384 228.348 233.864C227.676 234.344 227.148 235.064 226.764 236.024C226.396 236.984 226.212 238.176 226.212 239.6C226.212 241.024 226.396 242.216 226.764 243.176C227.148 244.136 227.676 244.856 228.348 245.336C229.02 245.816 229.796 246.056 230.676 246.056Z" fill="#6B6B6B"/>
<rect x="279.332" y="216" width="48" height="48" rx="8" fill="#565656"/>
<path d="M289.536 248V246.368L296.376 239.768C296.984 239.192 297.432 238.688 297.72 238.256C298.024 237.808 298.224 237.4 298.32 237.032C298.432 236.648 298.488 236.28 298.488 235.928C298.488 235.064 298.184 234.384 297.576 233.888C296.968 233.392 296.08 233.144 294.912 233.144C294.016 233.144 293.208 233.296 292.488 233.6C291.768 233.888 291.144 234.344 290.616 234.968L288.984 233.552C289.624 232.736 290.48 232.112 291.552 231.68C292.64 231.232 293.832 231.008 295.128 231.008C296.296 231.008 297.312 231.2 298.176 231.584C299.04 231.952 299.704 232.488 300.168 233.192C300.648 233.896 300.888 234.728 300.888 235.688C300.888 236.232 300.816 236.768 300.672 237.296C300.528 237.824 300.256 238.384 299.856 238.976C299.456 239.568 298.88 240.232 298.128 240.968L292.032 246.848L291.456 245.912H301.608V248H289.536ZM302.873 243.872V242.192L311.465 231.2H314.057L305.537 242.192L304.313 241.808H317.729V243.872H302.873ZM312.209 248V243.872L312.281 241.808V238.16H314.537V248H312.209Z" fill="white"/>
<rect x="356.945" y="216.5" width="47" height="47" rx="7.5" fill="white"/>
<rect x="356.945" y="216.5" width="47" height="47" rx="7.5" stroke="#6B6B6B"/>
<path d="M367.552 248V246.368L374.392 239.768C375 239.192 375.448 238.688 375.736 238.256C376.04 237.808 376.24 237.4 376.336 237.032C376.448 236.648 376.504 236.28 376.504 235.928C376.504 235.064 376.2 234.384 375.592 233.888C374.984 233.392 374.096 233.144 372.928 233.144C372.032 233.144 371.224 233.296 370.504 233.6C369.784 233.888 369.16 234.344 368.632 234.968L367 233.552C367.64 232.736 368.496 232.112 369.568 231.68C370.656 231.232 371.848 231.008 373.144 231.008C374.312 231.008 375.328 231.2 376.192 231.584C377.056 231.952 377.72 232.488 378.184 233.192C378.664 233.896 378.904 234.728 378.904 235.688C378.904 236.232 378.832 236.768 378.688 237.296C378.544 237.824 378.272 238.384 377.872 238.976C377.472 239.568 376.896 240.232 376.144 240.968L370.048 246.848L369.472 245.912H379.624V248H367.552ZM387.021 248.192C385.837 248.192 384.685 248.008 383.565 247.64C382.461 247.272 381.557 246.776 380.853 246.152L381.957 244.256C382.517 244.784 383.245 245.216 384.141 245.552C385.037 245.888 385.989 246.056 386.997 246.056C388.277 246.056 389.261 245.784 389.949 245.24C390.637 244.696 390.981 243.968 390.981 243.056C390.981 242.432 390.829 241.888 390.525 241.424C390.221 240.96 389.693 240.608 388.941 240.368C388.205 240.112 387.189 239.984 385.893 239.984H382.077L382.965 231.2H392.445V233.288H383.853L385.101 232.112L384.405 239.048L383.157 237.896H386.397C388.077 237.896 389.429 238.112 390.453 238.544C391.477 238.976 392.221 239.576 392.685 240.344C393.149 241.096 393.381 241.968 393.381 242.96C393.381 243.92 393.149 244.8 392.685 245.6C392.221 246.384 391.517 247.016 390.573 247.496C389.645 247.96 388.461 248.192 387.021 248.192Z" fill="#6B6B6B"/>
</svg>
