<svg width="48" height="48" viewBox="0 0 48 48" fill="none" xmlns="http://www.w3.org/2000/svg">
<g clip-path="url(#clip0_1475_6531)">
<rect x="4" y="4" width="40" height="40" rx="20" fill="#D3D3D3"/>
<g clip-path="url(#clip1_1475_6531)">
<mask id="mask0_1475_6531" style="mask-type:alpha" maskUnits="userSpaceOnUse" x="12" y="12" width="24" height="24">
<rect x="12" y="12" width="24" height="24" fill="#D9D9D9"/>
</mask>
<g mask="url(#mask0_1475_6531)">
<path d="M23 32V23.85L20.4 26.45L19 25L24 20L29 25L27.6 26.45L25 23.85V32H23ZM16 21V18C16 17.45 16.1958 16.9792 16.5875 16.5875C16.9792 16.1958 17.45 16 18 16H30C30.55 16 31.0208 16.1958 31.4125 16.5875C31.8042 16.9792 32 17.45 32 18V21H30V18H18V21H16Z" fill="#333333"/>
</g>
</g>
</g>
<defs>
<clipPath id="clip0_1475_6531">
<rect x="4" y="4" width="40" height="40" rx="20" fill="white"/>
</clipPath>
<clipPath id="clip1_1475_6531">
<rect width="24" height="24" fill="white" transform="translate(12 12)"/>
</clipPath>
</defs>
</svg>
